G75*
G70*
%OFA0B0*%
%FSLAX24Y24*%
%IPPOS*%
%LPD*%
%AMOC8*
5,1,8,0,0,1.08239X$1,22.5*
%
%ADD10C,0.0000*%
%ADD11R,0.0010X0.0010*%
%ADD12R,0.0100X0.0010*%
%ADD13R,0.0030X0.0010*%
%ADD14R,0.0220X0.0010*%
%ADD15R,0.0040X0.0010*%
%ADD16R,0.0020X0.0010*%
%ADD17R,0.0280X0.0010*%
%ADD18R,0.0050X0.0010*%
%ADD19R,0.0340X0.0010*%
%ADD20R,0.0060X0.0010*%
%ADD21R,0.0390X0.0010*%
%ADD22R,0.0420X0.0010*%
%ADD23R,0.0070X0.0010*%
%ADD24R,0.0460X0.0010*%
%ADD25R,0.0480X0.0010*%
%ADD26R,0.0080X0.0010*%
%ADD27R,0.0510X0.0010*%
%ADD28R,0.0530X0.0010*%
%ADD29R,0.0550X0.0010*%
%ADD30R,0.0130X0.0010*%
%ADD31R,0.0580X0.0010*%
%ADD32R,0.0160X0.0010*%
%ADD33R,0.0260X0.0010*%
%ADD34R,0.0190X0.0010*%
%ADD35R,0.0210X0.0010*%
%ADD36R,0.0170X0.0010*%
%ADD37R,0.0090X0.0010*%
%ADD38R,0.0120X0.0010*%
%ADD39R,0.0150X0.0010*%
%ADD40R,0.0140X0.0010*%
%ADD41R,0.0110X0.0010*%
%ADD42R,0.0240X0.0010*%
%ADD43R,0.0180X0.0010*%
%ADD44R,0.0200X0.0010*%
%ADD45R,0.0230X0.0010*%
%ADD46R,0.0250X0.0010*%
%ADD47R,0.0290X0.0010*%
%ADD48R,0.0310X0.0010*%
%ADD49R,0.0320X0.0010*%
%ADD50R,0.0300X0.0010*%
%ADD51R,0.0270X0.0010*%
%ADD52R,0.0360X0.0010*%
%ADD53R,0.0370X0.0010*%
%ADD54R,0.0330X0.0010*%
%ADD55R,0.0520X0.0010*%
%ADD56R,0.0500X0.0010*%
%ADD57R,0.0470X0.0010*%
%ADD58R,0.0490X0.0010*%
%ADD59R,0.0430X0.0010*%
%ADD60R,0.0440X0.0010*%
%ADD61R,0.0350X0.0010*%
%ADD62R,0.0410X0.0010*%
D10*
X000504Y000504D02*
X000504Y020500D01*
X030374Y020500D01*
X030374Y000504D01*
X000504Y000504D01*
X000504Y020500D01*
X030374Y020500D01*
X030374Y000504D01*
X000504Y000504D01*
X005754Y005004D02*
X005756Y005058D01*
X005762Y005112D01*
X005772Y005165D01*
X005785Y005218D01*
X005802Y005269D01*
X005823Y005319D01*
X005848Y005367D01*
X005876Y005414D01*
X005907Y005458D01*
X005941Y005500D01*
X005978Y005539D01*
X006018Y005576D01*
X006061Y005609D01*
X006106Y005640D01*
X006153Y005667D01*
X006201Y005690D01*
X006252Y005710D01*
X006303Y005727D01*
X006356Y005739D01*
X006409Y005748D01*
X006463Y005753D01*
X006518Y005754D01*
X006572Y005751D01*
X006625Y005744D01*
X006678Y005733D01*
X006731Y005719D01*
X006782Y005701D01*
X006831Y005679D01*
X006879Y005654D01*
X006925Y005625D01*
X006969Y005593D01*
X007010Y005558D01*
X007048Y005520D01*
X007084Y005479D01*
X007117Y005436D01*
X007147Y005391D01*
X007173Y005343D01*
X007196Y005294D01*
X007215Y005243D01*
X007230Y005192D01*
X007242Y005139D01*
X007250Y005085D01*
X007254Y005031D01*
X007254Y004977D01*
X007250Y004923D01*
X007242Y004869D01*
X007230Y004816D01*
X007215Y004765D01*
X007196Y004714D01*
X007173Y004665D01*
X007147Y004617D01*
X007117Y004572D01*
X007084Y004529D01*
X007048Y004488D01*
X007010Y004450D01*
X006969Y004415D01*
X006925Y004383D01*
X006879Y004354D01*
X006831Y004329D01*
X006782Y004307D01*
X006731Y004289D01*
X006678Y004275D01*
X006625Y004264D01*
X006572Y004257D01*
X006518Y004254D01*
X006463Y004255D01*
X006409Y004260D01*
X006356Y004269D01*
X006303Y004281D01*
X006252Y004298D01*
X006201Y004318D01*
X006153Y004341D01*
X006106Y004368D01*
X006061Y004399D01*
X006018Y004432D01*
X005978Y004469D01*
X005941Y004508D01*
X005907Y004550D01*
X005876Y004594D01*
X005848Y004641D01*
X005823Y004689D01*
X005802Y004739D01*
X005785Y004790D01*
X005772Y004843D01*
X005762Y004896D01*
X005756Y004950D01*
X005754Y005004D01*
X005754Y016004D02*
X005756Y016058D01*
X005762Y016112D01*
X005772Y016165D01*
X005785Y016218D01*
X005802Y016269D01*
X005823Y016319D01*
X005848Y016367D01*
X005876Y016414D01*
X005907Y016458D01*
X005941Y016500D01*
X005978Y016539D01*
X006018Y016576D01*
X006061Y016609D01*
X006106Y016640D01*
X006153Y016667D01*
X006201Y016690D01*
X006252Y016710D01*
X006303Y016727D01*
X006356Y016739D01*
X006409Y016748D01*
X006463Y016753D01*
X006518Y016754D01*
X006572Y016751D01*
X006625Y016744D01*
X006678Y016733D01*
X006731Y016719D01*
X006782Y016701D01*
X006831Y016679D01*
X006879Y016654D01*
X006925Y016625D01*
X006969Y016593D01*
X007010Y016558D01*
X007048Y016520D01*
X007084Y016479D01*
X007117Y016436D01*
X007147Y016391D01*
X007173Y016343D01*
X007196Y016294D01*
X007215Y016243D01*
X007230Y016192D01*
X007242Y016139D01*
X007250Y016085D01*
X007254Y016031D01*
X007254Y015977D01*
X007250Y015923D01*
X007242Y015869D01*
X007230Y015816D01*
X007215Y015765D01*
X007196Y015714D01*
X007173Y015665D01*
X007147Y015617D01*
X007117Y015572D01*
X007084Y015529D01*
X007048Y015488D01*
X007010Y015450D01*
X006969Y015415D01*
X006925Y015383D01*
X006879Y015354D01*
X006831Y015329D01*
X006782Y015307D01*
X006731Y015289D01*
X006678Y015275D01*
X006625Y015264D01*
X006572Y015257D01*
X006518Y015254D01*
X006463Y015255D01*
X006409Y015260D01*
X006356Y015269D01*
X006303Y015281D01*
X006252Y015298D01*
X006201Y015318D01*
X006153Y015341D01*
X006106Y015368D01*
X006061Y015399D01*
X006018Y015432D01*
X005978Y015469D01*
X005941Y015508D01*
X005907Y015550D01*
X005876Y015594D01*
X005848Y015641D01*
X005823Y015689D01*
X005802Y015739D01*
X005785Y015790D01*
X005772Y015843D01*
X005762Y015896D01*
X005756Y015950D01*
X005754Y016004D01*
X028254Y019004D02*
X028256Y019058D01*
X028262Y019112D01*
X028272Y019165D01*
X028285Y019218D01*
X028302Y019269D01*
X028323Y019319D01*
X028348Y019367D01*
X028376Y019414D01*
X028407Y019458D01*
X028441Y019500D01*
X028478Y019539D01*
X028518Y019576D01*
X028561Y019609D01*
X028606Y019640D01*
X028653Y019667D01*
X028701Y019690D01*
X028752Y019710D01*
X028803Y019727D01*
X028856Y019739D01*
X028909Y019748D01*
X028963Y019753D01*
X029018Y019754D01*
X029072Y019751D01*
X029125Y019744D01*
X029178Y019733D01*
X029231Y019719D01*
X029282Y019701D01*
X029331Y019679D01*
X029379Y019654D01*
X029425Y019625D01*
X029469Y019593D01*
X029510Y019558D01*
X029548Y019520D01*
X029584Y019479D01*
X029617Y019436D01*
X029647Y019391D01*
X029673Y019343D01*
X029696Y019294D01*
X029715Y019243D01*
X029730Y019192D01*
X029742Y019139D01*
X029750Y019085D01*
X029754Y019031D01*
X029754Y018977D01*
X029750Y018923D01*
X029742Y018869D01*
X029730Y018816D01*
X029715Y018765D01*
X029696Y018714D01*
X029673Y018665D01*
X029647Y018617D01*
X029617Y018572D01*
X029584Y018529D01*
X029548Y018488D01*
X029510Y018450D01*
X029469Y018415D01*
X029425Y018383D01*
X029379Y018354D01*
X029331Y018329D01*
X029282Y018307D01*
X029231Y018289D01*
X029178Y018275D01*
X029125Y018264D01*
X029072Y018257D01*
X029018Y018254D01*
X028963Y018255D01*
X028909Y018260D01*
X028856Y018269D01*
X028803Y018281D01*
X028752Y018298D01*
X028701Y018318D01*
X028653Y018341D01*
X028606Y018368D01*
X028561Y018399D01*
X028518Y018432D01*
X028478Y018469D01*
X028441Y018508D01*
X028407Y018550D01*
X028376Y018594D01*
X028348Y018641D01*
X028323Y018689D01*
X028302Y018739D01*
X028285Y018790D01*
X028272Y018843D01*
X028262Y018896D01*
X028256Y018950D01*
X028254Y019004D01*
X028254Y002004D02*
X028256Y002058D01*
X028262Y002112D01*
X028272Y002165D01*
X028285Y002218D01*
X028302Y002269D01*
X028323Y002319D01*
X028348Y002367D01*
X028376Y002414D01*
X028407Y002458D01*
X028441Y002500D01*
X028478Y002539D01*
X028518Y002576D01*
X028561Y002609D01*
X028606Y002640D01*
X028653Y002667D01*
X028701Y002690D01*
X028752Y002710D01*
X028803Y002727D01*
X028856Y002739D01*
X028909Y002748D01*
X028963Y002753D01*
X029018Y002754D01*
X029072Y002751D01*
X029125Y002744D01*
X029178Y002733D01*
X029231Y002719D01*
X029282Y002701D01*
X029331Y002679D01*
X029379Y002654D01*
X029425Y002625D01*
X029469Y002593D01*
X029510Y002558D01*
X029548Y002520D01*
X029584Y002479D01*
X029617Y002436D01*
X029647Y002391D01*
X029673Y002343D01*
X029696Y002294D01*
X029715Y002243D01*
X029730Y002192D01*
X029742Y002139D01*
X029750Y002085D01*
X029754Y002031D01*
X029754Y001977D01*
X029750Y001923D01*
X029742Y001869D01*
X029730Y001816D01*
X029715Y001765D01*
X029696Y001714D01*
X029673Y001665D01*
X029647Y001617D01*
X029617Y001572D01*
X029584Y001529D01*
X029548Y001488D01*
X029510Y001450D01*
X029469Y001415D01*
X029425Y001383D01*
X029379Y001354D01*
X029331Y001329D01*
X029282Y001307D01*
X029231Y001289D01*
X029178Y001275D01*
X029125Y001264D01*
X029072Y001257D01*
X029018Y001254D01*
X028963Y001255D01*
X028909Y001260D01*
X028856Y001269D01*
X028803Y001281D01*
X028752Y001298D01*
X028701Y001318D01*
X028653Y001341D01*
X028606Y001368D01*
X028561Y001399D01*
X028518Y001432D01*
X028478Y001469D01*
X028441Y001508D01*
X028407Y001550D01*
X028376Y001594D01*
X028348Y001641D01*
X028323Y001689D01*
X028302Y001739D01*
X028285Y001790D01*
X028272Y001843D01*
X028262Y001896D01*
X028256Y001950D01*
X028254Y002004D01*
D11*
X020294Y010398D03*
X019934Y010618D03*
X020714Y011188D03*
X021044Y010898D03*
X020704Y011588D03*
X021054Y011698D03*
X021424Y011678D03*
X018664Y010408D03*
X018114Y010728D03*
X017724Y010798D03*
X016834Y011028D03*
D12*
X016769Y010898D03*
X016629Y010898D03*
X016659Y011228D03*
X016789Y011278D03*
X016749Y011518D03*
X017049Y011398D03*
X017899Y011188D03*
X018159Y011318D03*
X018659Y010568D03*
X018659Y010558D03*
X020009Y010938D03*
X020139Y011168D03*
X020459Y010928D03*
X020459Y010918D03*
X020839Y011068D03*
X020999Y010738D03*
X020909Y010678D03*
X021559Y010848D03*
X021559Y010858D03*
X021559Y010868D03*
X021559Y010878D03*
X021549Y010898D03*
X021549Y010908D03*
X021549Y010918D03*
X021549Y010928D03*
X021549Y010938D03*
X021549Y010948D03*
X021549Y010958D03*
X021539Y011028D03*
X021539Y011038D03*
X021539Y011048D03*
X021539Y011058D03*
X021539Y011068D03*
X021539Y011078D03*
X021539Y011088D03*
X021539Y011098D03*
X021549Y011228D03*
X021549Y011238D03*
X021549Y011248D03*
X021549Y011258D03*
X021549Y011268D03*
X021559Y011328D03*
X021559Y011338D03*
X021559Y011348D03*
X021569Y011398D03*
X021579Y011448D03*
X021589Y011488D03*
X021599Y011528D03*
X021609Y011558D03*
X021569Y010828D03*
X021569Y010818D03*
X021579Y010788D03*
X022009Y010408D03*
X022279Y010608D03*
X022289Y010618D03*
X022299Y010628D03*
X022309Y010648D03*
X022389Y010858D03*
X022389Y010868D03*
X022389Y010878D03*
X022399Y010898D03*
X022399Y010908D03*
X022399Y010918D03*
X022399Y010928D03*
X022409Y010948D03*
X022409Y010958D03*
X022409Y010968D03*
X022409Y010978D03*
X022419Y010998D03*
X022419Y011008D03*
X020639Y011468D03*
X020549Y011518D03*
X021559Y012328D03*
X021559Y012338D03*
X021559Y012348D03*
X021569Y012398D03*
X021569Y012408D03*
X021579Y012448D03*
X021589Y012468D03*
X021599Y012488D03*
X022099Y012498D03*
X022109Y012488D03*
X022119Y012478D03*
X022129Y012468D03*
X022199Y012168D03*
X022199Y012158D03*
X022189Y012148D03*
X022179Y012128D03*
X020089Y010498D03*
X018309Y012248D03*
X018319Y012268D03*
X018319Y012278D03*
X018329Y012288D03*
X018339Y012308D03*
X018349Y012328D03*
X019099Y012298D03*
X019109Y012338D03*
D13*
X019154Y012508D03*
X019564Y012108D03*
X020704Y011568D03*
X021054Y011688D03*
X021424Y011668D03*
X021424Y011658D03*
X021564Y012258D03*
X021894Y012638D03*
X021044Y010888D03*
X020294Y010408D03*
X019984Y010958D03*
X019434Y011108D03*
X018664Y010448D03*
X018664Y010438D03*
X018054Y011158D03*
X018054Y011168D03*
X018064Y011208D03*
X018064Y011218D03*
X017904Y011098D03*
X017704Y010958D03*
X017724Y010808D03*
X016834Y010988D03*
X016834Y010998D03*
X016834Y011018D03*
X016824Y010958D03*
X016944Y011298D03*
X016954Y011318D03*
X016614Y011408D03*
X017724Y011748D03*
X018054Y011748D03*
D14*
X018229Y010678D03*
X017019Y010758D03*
X020069Y010538D03*
X020479Y011528D03*
X021789Y010528D03*
X022009Y010418D03*
D15*
X022439Y011068D03*
X021379Y011238D03*
X021379Y011248D03*
X021369Y011198D03*
X021369Y011188D03*
X021359Y011158D03*
X021049Y010878D03*
X021049Y010868D03*
X021049Y010858D03*
X021049Y010848D03*
X021049Y010838D03*
X021049Y010828D03*
X021049Y010818D03*
X021049Y010808D03*
X021049Y010798D03*
X021039Y010778D03*
X020799Y010808D03*
X020789Y010838D03*
X020779Y010868D03*
X020769Y010918D03*
X020769Y010928D03*
X020769Y010938D03*
X020769Y010948D03*
X020779Y010988D03*
X020719Y011208D03*
X020729Y011228D03*
X020739Y011258D03*
X020749Y011278D03*
X020949Y011248D03*
X020689Y011538D03*
X020699Y011558D03*
X020349Y011468D03*
X020339Y011448D03*
X020339Y011438D03*
X020329Y011428D03*
X020329Y011418D03*
X020329Y011408D03*
X020319Y011388D03*
X020319Y011378D03*
X020319Y011368D03*
X020319Y011358D03*
X020319Y011348D03*
X020319Y011338D03*
X020229Y011078D03*
X020239Y011048D03*
X020239Y011038D03*
X020059Y011108D03*
X020049Y011098D03*
X020039Y011088D03*
X020039Y011078D03*
X020029Y011068D03*
X020029Y011058D03*
X020019Y011048D03*
X020019Y011038D03*
X020009Y011028D03*
X020009Y011018D03*
X019999Y011008D03*
X019999Y010998D03*
X019999Y010988D03*
X019989Y010978D03*
X019989Y010968D03*
X019889Y010998D03*
X019889Y011008D03*
X019899Y011028D03*
X019899Y011038D03*
X019899Y011048D03*
X019899Y011058D03*
X019909Y011078D03*
X019909Y011088D03*
X019909Y011098D03*
X019909Y011108D03*
X019909Y011118D03*
X019909Y011128D03*
X019919Y011178D03*
X019919Y011188D03*
X019919Y011198D03*
X019919Y011208D03*
X019919Y011218D03*
X019919Y011358D03*
X019919Y011368D03*
X019909Y011408D03*
X019909Y011418D03*
X019909Y011428D03*
X019899Y011448D03*
X019899Y011458D03*
X019889Y011468D03*
X019889Y011478D03*
X019879Y011488D03*
X019749Y011488D03*
X019739Y011468D03*
X019729Y011448D03*
X019719Y011428D03*
X019699Y011368D03*
X019699Y011358D03*
X019699Y011348D03*
X019669Y010978D03*
X019669Y010968D03*
X019679Y010948D03*
X019869Y010948D03*
X019879Y010968D03*
X019939Y010608D03*
X020099Y010488D03*
X020299Y010418D03*
X018669Y010458D03*
X018049Y011068D03*
X018049Y011078D03*
X018049Y011088D03*
X018049Y011098D03*
X018049Y011108D03*
X018049Y011118D03*
X018049Y011128D03*
X018049Y011138D03*
X018049Y011148D03*
X018059Y011178D03*
X018059Y011188D03*
X018059Y011198D03*
X018069Y011228D03*
X018069Y011238D03*
X018079Y011248D03*
X018079Y011258D03*
X017929Y011198D03*
X017869Y011208D03*
X017849Y011278D03*
X017909Y011108D03*
X017689Y011098D03*
X017689Y011088D03*
X017689Y011078D03*
X017689Y011068D03*
X017689Y011058D03*
X017689Y011048D03*
X017689Y011038D03*
X017699Y011028D03*
X017699Y011018D03*
X017699Y011008D03*
X017699Y010998D03*
X017699Y010988D03*
X017699Y010978D03*
X017699Y010968D03*
X017709Y010948D03*
X017709Y010938D03*
X017709Y010928D03*
X017709Y010918D03*
X017709Y010908D03*
X017709Y010898D03*
X017709Y010888D03*
X017719Y010878D03*
X017719Y010868D03*
X017719Y010858D03*
X017719Y010848D03*
X017719Y010838D03*
X017719Y010828D03*
X017719Y010818D03*
X017679Y011108D03*
X017679Y011118D03*
X017679Y011128D03*
X017679Y011138D03*
X017679Y011148D03*
X017679Y011158D03*
X017679Y011168D03*
X017679Y011178D03*
X017669Y011188D03*
X017669Y011198D03*
X017669Y011208D03*
X017669Y011218D03*
X017669Y011228D03*
X017669Y011238D03*
X017669Y011248D03*
X017659Y011258D03*
X017659Y011268D03*
X017659Y011278D03*
X017659Y011288D03*
X017659Y011298D03*
X017659Y011308D03*
X017659Y011318D03*
X017659Y011328D03*
X017649Y011338D03*
X017649Y011348D03*
X017649Y011358D03*
X017649Y011368D03*
X017649Y011378D03*
X017649Y011388D03*
X017649Y011398D03*
X017639Y011408D03*
X017639Y011418D03*
X017639Y011428D03*
X017639Y011438D03*
X017639Y011448D03*
X017639Y011458D03*
X017639Y011468D03*
X017639Y011478D03*
X017529Y011508D03*
X017529Y011518D03*
X017519Y011558D03*
X017519Y011568D03*
X017519Y011578D03*
X017509Y011598D03*
X017509Y011608D03*
X017499Y011618D03*
X017499Y011628D03*
X017489Y011638D03*
X017359Y011638D03*
X017349Y011618D03*
X017339Y011598D03*
X017329Y011578D03*
X017309Y011518D03*
X017309Y011508D03*
X017309Y011498D03*
X017139Y011308D03*
X017149Y011288D03*
X016969Y011338D03*
X016959Y011328D03*
X016949Y011308D03*
X016939Y011288D03*
X016939Y011278D03*
X016929Y011268D03*
X016929Y011258D03*
X016929Y011248D03*
X016919Y011238D03*
X016919Y011228D03*
X016919Y011218D03*
X016909Y011208D03*
X016909Y011198D03*
X016909Y011188D03*
X016909Y011178D03*
X016899Y011168D03*
X016839Y011008D03*
X016829Y010978D03*
X016829Y010968D03*
X016819Y010948D03*
X016819Y010938D03*
X016809Y010928D03*
X016579Y010978D03*
X016579Y010988D03*
X016579Y010998D03*
X016579Y011008D03*
X016579Y011018D03*
X016579Y011028D03*
X016579Y011088D03*
X016579Y011098D03*
X016579Y011108D03*
X016589Y011138D03*
X016589Y011148D03*
X016599Y011168D03*
X016619Y011418D03*
X016839Y011338D03*
X017279Y011128D03*
X017279Y011118D03*
X017289Y011098D03*
X017479Y011098D03*
X017489Y011118D03*
X017499Y011148D03*
X017499Y011158D03*
X017509Y011178D03*
X017509Y011188D03*
X017509Y011198D03*
X017509Y011208D03*
X017519Y011228D03*
X017519Y011238D03*
X017519Y011248D03*
X017519Y011258D03*
X017519Y011268D03*
X017519Y011278D03*
X017529Y011328D03*
X017529Y011338D03*
X017529Y011348D03*
X017529Y011358D03*
X017529Y011368D03*
X017789Y011498D03*
X017779Y011538D03*
X017769Y011578D03*
X017759Y011618D03*
X017749Y011648D03*
X017749Y011658D03*
X017749Y011668D03*
X017739Y011688D03*
X017739Y011698D03*
X017739Y011708D03*
X017729Y011728D03*
X017729Y011738D03*
X019559Y012088D03*
X019559Y012098D03*
X019749Y011718D03*
X021059Y011678D03*
X021059Y011668D03*
X021059Y011658D03*
X021419Y011648D03*
X021419Y011638D03*
X021419Y011628D03*
D16*
X020699Y011578D03*
X020719Y011198D03*
X020899Y010668D03*
X019669Y010988D03*
X019539Y011018D03*
X019699Y011338D03*
X018669Y010428D03*
X018669Y010418D03*
X017909Y011078D03*
X017909Y011088D03*
X017279Y011138D03*
X016889Y010828D03*
X016609Y011398D03*
X016739Y011528D03*
X017309Y011488D03*
X022439Y011078D03*
D17*
X021999Y010428D03*
X017059Y011118D03*
D18*
X017164Y011068D03*
X017164Y011178D03*
X017164Y011188D03*
X017164Y011198D03*
X017164Y011208D03*
X017164Y011218D03*
X017164Y011228D03*
X017164Y011238D03*
X017154Y011248D03*
X017154Y011258D03*
X017154Y011268D03*
X017154Y011278D03*
X017144Y011298D03*
X017134Y011318D03*
X017134Y011328D03*
X017124Y011338D03*
X016974Y011348D03*
X016844Y011348D03*
X016844Y011358D03*
X016844Y011368D03*
X016844Y011378D03*
X016844Y011388D03*
X016844Y011398D03*
X016844Y011408D03*
X016844Y011418D03*
X016844Y011428D03*
X016844Y011438D03*
X016834Y011448D03*
X016824Y011468D03*
X016834Y011328D03*
X016834Y011318D03*
X016824Y011308D03*
X016644Y011448D03*
X016644Y011458D03*
X016634Y011438D03*
X016624Y011428D03*
X016614Y011188D03*
X016604Y011178D03*
X016594Y011158D03*
X016584Y011128D03*
X016584Y011118D03*
X016574Y011078D03*
X016574Y011068D03*
X016574Y011058D03*
X016574Y011048D03*
X016574Y011038D03*
X016584Y010968D03*
X016584Y010958D03*
X016584Y010948D03*
X016594Y010928D03*
X016694Y010838D03*
X016804Y010918D03*
X016894Y010818D03*
X017124Y010818D03*
X017134Y010838D03*
X017134Y010848D03*
X017144Y010868D03*
X017144Y010878D03*
X017144Y010888D03*
X017144Y010898D03*
X017154Y010928D03*
X017154Y010938D03*
X017154Y010948D03*
X017154Y010958D03*
X017294Y011088D03*
X017284Y011108D03*
X017414Y011018D03*
X017474Y011088D03*
X017484Y011108D03*
X017494Y011128D03*
X017494Y011138D03*
X017504Y011168D03*
X017514Y011218D03*
X017524Y011288D03*
X017524Y011298D03*
X017524Y011308D03*
X017524Y011318D03*
X017534Y011378D03*
X017534Y011388D03*
X017534Y011398D03*
X017534Y011408D03*
X017534Y011418D03*
X017534Y011428D03*
X017534Y011438D03*
X017534Y011448D03*
X017534Y011458D03*
X017534Y011468D03*
X017534Y011478D03*
X017534Y011488D03*
X017534Y011498D03*
X017524Y011528D03*
X017524Y011538D03*
X017524Y011548D03*
X017514Y011588D03*
X017484Y011648D03*
X017364Y011648D03*
X017354Y011628D03*
X017344Y011608D03*
X017334Y011588D03*
X017324Y011568D03*
X017324Y011558D03*
X017314Y011548D03*
X017314Y011538D03*
X017314Y011528D03*
X017754Y011628D03*
X017754Y011638D03*
X017764Y011608D03*
X017764Y011598D03*
X017764Y011588D03*
X017774Y011568D03*
X017774Y011558D03*
X017774Y011548D03*
X017784Y011528D03*
X017784Y011518D03*
X017784Y011508D03*
X017794Y011488D03*
X017794Y011478D03*
X017794Y011468D03*
X017804Y011458D03*
X017804Y011448D03*
X017804Y011438D03*
X017804Y011428D03*
X017814Y011418D03*
X017814Y011408D03*
X017814Y011398D03*
X017814Y011388D03*
X017824Y011378D03*
X017824Y011368D03*
X017824Y011358D03*
X017834Y011348D03*
X017834Y011338D03*
X017834Y011328D03*
X017834Y011318D03*
X017844Y011308D03*
X017844Y011298D03*
X017844Y011288D03*
X017854Y011268D03*
X017854Y011258D03*
X017854Y011248D03*
X017864Y011238D03*
X017864Y011228D03*
X017864Y011218D03*
X017874Y011198D03*
X017934Y011208D03*
X017934Y011218D03*
X017934Y011228D03*
X017944Y011238D03*
X017944Y011248D03*
X017944Y011258D03*
X017944Y011268D03*
X017954Y011288D03*
X017954Y011298D03*
X017954Y011308D03*
X017964Y011328D03*
X017964Y011338D03*
X017964Y011348D03*
X017974Y011378D03*
X017974Y011388D03*
X017984Y011418D03*
X017984Y011428D03*
X017994Y011468D03*
X018004Y011508D03*
X018004Y011518D03*
X018014Y011558D03*
X018024Y011598D03*
X018024Y011608D03*
X018034Y011648D03*
X018034Y011658D03*
X018044Y011688D03*
X018044Y011698D03*
X018044Y011708D03*
X018054Y011728D03*
X018054Y011738D03*
X017744Y011678D03*
X017734Y011718D03*
X018094Y011268D03*
X018254Y011238D03*
X018264Y011228D03*
X018264Y011218D03*
X018274Y011208D03*
X018274Y011198D03*
X018284Y011188D03*
X018284Y011178D03*
X018294Y011158D03*
X018334Y010978D03*
X018334Y010968D03*
X018334Y010958D03*
X018344Y010908D03*
X018344Y010898D03*
X018344Y010888D03*
X018344Y010878D03*
X018344Y010868D03*
X018344Y010858D03*
X018344Y010848D03*
X018344Y010838D03*
X018344Y010828D03*
X018344Y010818D03*
X018344Y010808D03*
X018344Y010798D03*
X018344Y010788D03*
X018344Y010778D03*
X018344Y010768D03*
X018344Y010758D03*
X018074Y011018D03*
X017904Y011118D03*
X017904Y011128D03*
X018664Y010488D03*
X018664Y010478D03*
X018664Y010468D03*
X019434Y011098D03*
X019574Y011148D03*
X019574Y011158D03*
X019574Y011168D03*
X019574Y011178D03*
X019574Y011188D03*
X019574Y011198D03*
X019574Y011208D03*
X019574Y011218D03*
X019574Y011228D03*
X019574Y011238D03*
X019574Y011248D03*
X019574Y011258D03*
X019574Y011268D03*
X019574Y011278D03*
X019574Y011288D03*
X019574Y011298D03*
X019574Y011308D03*
X019574Y011318D03*
X019574Y011328D03*
X019574Y011338D03*
X019574Y011348D03*
X019574Y011358D03*
X019574Y011368D03*
X019574Y011378D03*
X019574Y011388D03*
X019574Y011398D03*
X019574Y011408D03*
X019574Y011418D03*
X019574Y011428D03*
X019574Y011438D03*
X019574Y011448D03*
X019574Y011458D03*
X019574Y011468D03*
X019574Y011478D03*
X019574Y011488D03*
X019574Y011498D03*
X019574Y011508D03*
X019574Y011518D03*
X019574Y011528D03*
X019574Y011538D03*
X019574Y011548D03*
X019574Y011558D03*
X019574Y011568D03*
X019574Y011578D03*
X019574Y011588D03*
X019574Y011598D03*
X019754Y011498D03*
X019744Y011478D03*
X019734Y011458D03*
X019724Y011438D03*
X019714Y011418D03*
X019714Y011408D03*
X019704Y011398D03*
X019704Y011388D03*
X019704Y011378D03*
X019874Y011498D03*
X019904Y011438D03*
X019914Y011398D03*
X019914Y011388D03*
X019914Y011378D03*
X019924Y011348D03*
X019924Y011338D03*
X019924Y011328D03*
X019924Y011318D03*
X019924Y011308D03*
X019924Y011298D03*
X019924Y011288D03*
X019924Y011278D03*
X019924Y011268D03*
X019924Y011258D03*
X019924Y011248D03*
X019924Y011238D03*
X019924Y011228D03*
X019914Y011168D03*
X019914Y011158D03*
X019914Y011148D03*
X019914Y011138D03*
X019904Y011068D03*
X019894Y011018D03*
X019884Y010988D03*
X019884Y010978D03*
X019874Y010958D03*
X019864Y010938D03*
X019804Y010868D03*
X019684Y010938D03*
X019674Y010958D03*
X019984Y010948D03*
X020064Y011118D03*
X020214Y011108D03*
X020224Y011098D03*
X020224Y011088D03*
X020234Y011068D03*
X020234Y011058D03*
X020244Y011028D03*
X020244Y011018D03*
X020244Y011008D03*
X020244Y010998D03*
X020244Y010988D03*
X020244Y010978D03*
X020244Y010968D03*
X020244Y010958D03*
X020244Y010948D03*
X020244Y010938D03*
X020244Y010928D03*
X020224Y010768D03*
X020224Y010758D03*
X020214Y010718D03*
X020214Y010708D03*
X020204Y010678D03*
X020204Y010668D03*
X020194Y010648D03*
X020194Y010638D03*
X020184Y010608D03*
X020174Y010588D03*
X020304Y010428D03*
X019954Y010578D03*
X019944Y010598D03*
X020444Y010818D03*
X020454Y010848D03*
X020464Y010868D03*
X020464Y010878D03*
X020494Y010968D03*
X020504Y010978D03*
X020504Y010988D03*
X020504Y010998D03*
X020514Y011008D03*
X020514Y011018D03*
X020514Y011028D03*
X020524Y011038D03*
X020524Y011048D03*
X020524Y011058D03*
X020534Y011068D03*
X020534Y011078D03*
X020534Y011088D03*
X020544Y011098D03*
X020544Y011108D03*
X020544Y011118D03*
X020554Y011128D03*
X020554Y011138D03*
X020554Y011148D03*
X020564Y011158D03*
X020564Y011168D03*
X020564Y011178D03*
X020574Y011188D03*
X020574Y011198D03*
X020574Y011208D03*
X020584Y011218D03*
X020584Y011228D03*
X020584Y011238D03*
X020594Y011258D03*
X020594Y011268D03*
X020604Y011288D03*
X020604Y011298D03*
X020614Y011318D03*
X020614Y011328D03*
X020624Y011348D03*
X020624Y011358D03*
X020634Y011378D03*
X020634Y011388D03*
X020674Y011498D03*
X020674Y011508D03*
X020684Y011518D03*
X020684Y011528D03*
X020694Y011548D03*
X020854Y011358D03*
X020934Y011288D03*
X020944Y011268D03*
X020944Y011258D03*
X020954Y011238D03*
X020954Y011228D03*
X020954Y011218D03*
X020954Y011208D03*
X020954Y011198D03*
X020954Y011188D03*
X020954Y011178D03*
X020954Y011168D03*
X020954Y011158D03*
X020944Y011138D03*
X020794Y011028D03*
X020784Y011008D03*
X020784Y010998D03*
X020774Y010978D03*
X020774Y010968D03*
X020774Y010958D03*
X020774Y010908D03*
X020774Y010898D03*
X020774Y010888D03*
X020774Y010878D03*
X020784Y010858D03*
X020784Y010848D03*
X020794Y010828D03*
X020794Y010818D03*
X020804Y010798D03*
X020804Y010788D03*
X020814Y010778D03*
X020814Y010768D03*
X020824Y010758D03*
X021034Y010768D03*
X021044Y010788D03*
X021344Y011128D03*
X021354Y011138D03*
X021354Y011148D03*
X021364Y011168D03*
X021364Y011178D03*
X021374Y011208D03*
X021374Y011218D03*
X021374Y011228D03*
X021384Y011258D03*
X021384Y011268D03*
X021384Y011278D03*
X021384Y011288D03*
X021384Y011298D03*
X021384Y011308D03*
X021384Y011318D03*
X021394Y011348D03*
X021394Y011358D03*
X021394Y011368D03*
X021394Y011378D03*
X021394Y011388D03*
X021394Y011398D03*
X021414Y011578D03*
X021414Y011588D03*
X021414Y011598D03*
X021414Y011608D03*
X021414Y011618D03*
X021054Y011648D03*
X020764Y011298D03*
X020754Y011288D03*
X020744Y011268D03*
X020734Y011248D03*
X020734Y011238D03*
X020724Y011218D03*
X020324Y011218D03*
X020324Y011228D03*
X020324Y011208D03*
X020324Y011198D03*
X020314Y011248D03*
X020314Y011258D03*
X020314Y011268D03*
X020314Y011278D03*
X020314Y011288D03*
X020314Y011298D03*
X020314Y011308D03*
X020314Y011318D03*
X020314Y011328D03*
X020324Y011398D03*
X020344Y011458D03*
X020354Y011478D03*
X020364Y011488D03*
X020374Y011498D03*
X019564Y011838D03*
X019564Y011848D03*
X019564Y011858D03*
X019564Y011868D03*
X019564Y011878D03*
X019564Y011888D03*
X019564Y011898D03*
X019564Y011908D03*
X019564Y011918D03*
X019564Y011928D03*
X019564Y011938D03*
X019564Y011948D03*
X019564Y011958D03*
X019564Y011968D03*
X019564Y011978D03*
X019564Y011988D03*
X019564Y011998D03*
X019564Y012008D03*
X019564Y012018D03*
X019564Y012028D03*
X019564Y012038D03*
X019564Y012048D03*
X019564Y012058D03*
X019564Y012068D03*
X019554Y012078D03*
X021564Y012268D03*
X022434Y011058D03*
D19*
X021999Y010438D03*
D20*
X021259Y011008D03*
X021329Y011098D03*
X021339Y011108D03*
X021339Y011118D03*
X021129Y011138D03*
X021119Y011158D03*
X021109Y011178D03*
X020949Y011148D03*
X020939Y011128D03*
X020939Y011278D03*
X020929Y011298D03*
X021069Y011338D03*
X021069Y011348D03*
X021059Y011408D03*
X021059Y011418D03*
X021059Y011428D03*
X021059Y011438D03*
X021059Y011448D03*
X021059Y011458D03*
X021059Y011468D03*
X021059Y011478D03*
X021059Y011488D03*
X021059Y011498D03*
X021059Y011508D03*
X021059Y011518D03*
X021059Y011528D03*
X021059Y011538D03*
X021059Y011548D03*
X021059Y011558D03*
X021059Y011568D03*
X021059Y011578D03*
X021059Y011588D03*
X021059Y011598D03*
X021059Y011608D03*
X021059Y011618D03*
X021059Y011628D03*
X021059Y011638D03*
X021409Y011568D03*
X021409Y011558D03*
X021409Y011548D03*
X021409Y011538D03*
X021409Y011528D03*
X021409Y011518D03*
X021409Y011508D03*
X021409Y011498D03*
X021399Y011488D03*
X021399Y011478D03*
X021399Y011468D03*
X021399Y011458D03*
X021399Y011448D03*
X021399Y011438D03*
X021399Y011428D03*
X021399Y011418D03*
X021399Y011408D03*
X021389Y011338D03*
X021389Y011328D03*
X020779Y011308D03*
X020629Y011368D03*
X020639Y011398D03*
X020639Y011408D03*
X020639Y011418D03*
X020619Y011338D03*
X020609Y011308D03*
X020599Y011278D03*
X020589Y011248D03*
X020339Y011158D03*
X020339Y011148D03*
X020339Y011138D03*
X020349Y011118D03*
X020349Y011108D03*
X020329Y011168D03*
X020329Y011178D03*
X020329Y011188D03*
X020319Y011238D03*
X020209Y011118D03*
X020139Y011178D03*
X020079Y011128D03*
X020239Y010918D03*
X020239Y010858D03*
X020239Y010848D03*
X020239Y010838D03*
X020229Y010828D03*
X020229Y010818D03*
X020229Y010808D03*
X020229Y010798D03*
X020229Y010788D03*
X020229Y010778D03*
X020219Y010748D03*
X020219Y010738D03*
X020219Y010728D03*
X020209Y010698D03*
X020209Y010688D03*
X020199Y010658D03*
X020189Y010628D03*
X020189Y010618D03*
X020179Y010598D03*
X020169Y010578D03*
X020159Y010568D03*
X020309Y010448D03*
X020309Y010438D03*
X020359Y010588D03*
X020379Y010638D03*
X020389Y010668D03*
X020399Y010688D03*
X020399Y010698D03*
X020409Y010718D03*
X020409Y010728D03*
X020419Y010748D03*
X020419Y010758D03*
X020429Y010768D03*
X020429Y010778D03*
X020429Y010788D03*
X020439Y010798D03*
X020439Y010808D03*
X020449Y010828D03*
X020449Y010838D03*
X020459Y010858D03*
X020469Y010888D03*
X020789Y011018D03*
X020799Y011038D03*
X020829Y010748D03*
X020839Y010738D03*
X021029Y010758D03*
X019959Y010568D03*
X019949Y010588D03*
X019859Y010928D03*
X019569Y011068D03*
X019569Y011078D03*
X019569Y011088D03*
X019569Y011098D03*
X019569Y011108D03*
X019569Y011118D03*
X019569Y011128D03*
X019569Y011138D03*
X019449Y011088D03*
X019569Y011608D03*
X019569Y011708D03*
X019569Y011718D03*
X019569Y011728D03*
X019569Y011738D03*
X019569Y011748D03*
X019569Y011758D03*
X019569Y011768D03*
X019569Y011778D03*
X019569Y011788D03*
X019569Y011798D03*
X019569Y011808D03*
X019569Y011818D03*
X019569Y011828D03*
X019859Y011508D03*
X019159Y012488D03*
X019159Y012498D03*
X018269Y012048D03*
X018269Y012038D03*
X018269Y012028D03*
X018269Y012018D03*
X018279Y011928D03*
X018049Y011718D03*
X018039Y011678D03*
X018039Y011668D03*
X018029Y011638D03*
X018029Y011628D03*
X018029Y011618D03*
X018019Y011588D03*
X018019Y011578D03*
X018019Y011568D03*
X018009Y011548D03*
X018009Y011538D03*
X018009Y011528D03*
X017999Y011498D03*
X017999Y011488D03*
X017999Y011478D03*
X017989Y011458D03*
X017989Y011448D03*
X017989Y011438D03*
X017979Y011408D03*
X017979Y011398D03*
X017969Y011368D03*
X017969Y011358D03*
X017959Y011318D03*
X017949Y011278D03*
X018099Y011278D03*
X018159Y011328D03*
X018229Y011268D03*
X018239Y011258D03*
X018249Y011248D03*
X018289Y011168D03*
X018299Y011148D03*
X018299Y011138D03*
X018299Y011128D03*
X018309Y011118D03*
X018309Y011108D03*
X018309Y011098D03*
X018309Y011088D03*
X018319Y011028D03*
X018329Y011018D03*
X018329Y011008D03*
X018329Y010998D03*
X018329Y010988D03*
X018339Y010948D03*
X018339Y010938D03*
X018339Y010928D03*
X018339Y010918D03*
X018339Y010748D03*
X018339Y010738D03*
X018329Y010728D03*
X018329Y010718D03*
X018119Y010718D03*
X018709Y010688D03*
X018709Y010678D03*
X018719Y010718D03*
X018719Y010728D03*
X018729Y010768D03*
X018739Y010808D03*
X018749Y010848D03*
X018759Y010888D03*
X017469Y011078D03*
X017169Y011078D03*
X017169Y011088D03*
X017159Y011058D03*
X017159Y011048D03*
X017159Y011038D03*
X017159Y011028D03*
X017159Y011018D03*
X017159Y011008D03*
X017159Y010998D03*
X017159Y010988D03*
X017159Y010978D03*
X017159Y010968D03*
X017149Y010918D03*
X017149Y010908D03*
X017139Y010858D03*
X017129Y010828D03*
X017119Y010808D03*
X017119Y010798D03*
X017109Y010788D03*
X016909Y010788D03*
X016899Y010798D03*
X016899Y010808D03*
X016599Y010918D03*
X016589Y010938D03*
X016619Y011198D03*
X016629Y011208D03*
X016809Y011288D03*
X016819Y011298D03*
X016829Y011458D03*
X016659Y011468D03*
X016989Y011358D03*
X017049Y011408D03*
X017119Y011348D03*
X017169Y011168D03*
X017169Y011158D03*
X017169Y011148D03*
X017469Y011658D03*
X017579Y011848D03*
X017579Y011858D03*
X017579Y011908D03*
X017579Y011918D03*
X021559Y012278D03*
X022429Y011048D03*
D21*
X021994Y010448D03*
X018744Y012568D03*
D22*
X021989Y010458D03*
D23*
X022424Y011038D03*
X021154Y011108D03*
X021144Y011118D03*
X021134Y011128D03*
X021124Y011148D03*
X021114Y011168D03*
X021104Y011188D03*
X021104Y011198D03*
X021094Y011208D03*
X021094Y011218D03*
X021094Y011228D03*
X021084Y011248D03*
X021084Y011258D03*
X021084Y011268D03*
X021074Y011278D03*
X021074Y011288D03*
X021074Y011298D03*
X021074Y011308D03*
X021074Y011318D03*
X021074Y011328D03*
X021064Y011358D03*
X021064Y011368D03*
X021064Y011378D03*
X021064Y011388D03*
X021064Y011398D03*
X020914Y011308D03*
X020924Y011118D03*
X020814Y011048D03*
X020644Y011428D03*
X020644Y011438D03*
X020584Y011498D03*
X020384Y011508D03*
X019814Y011548D03*
X019774Y011508D03*
X019574Y011618D03*
X019574Y011628D03*
X019454Y011078D03*
X019464Y011068D03*
X019694Y010928D03*
X020194Y011128D03*
X020344Y011128D03*
X020354Y011098D03*
X020354Y011088D03*
X020364Y011078D03*
X020364Y011068D03*
X020374Y011058D03*
X020374Y011048D03*
X020384Y011028D03*
X020394Y011008D03*
X020404Y010988D03*
X020414Y010968D03*
X020464Y010898D03*
X020414Y010738D03*
X020404Y010708D03*
X020394Y010678D03*
X020384Y010658D03*
X020384Y010648D03*
X020374Y010628D03*
X020374Y010618D03*
X020364Y010608D03*
X020364Y010598D03*
X020354Y010578D03*
X020354Y010568D03*
X020344Y010558D03*
X020344Y010548D03*
X020344Y010538D03*
X020334Y010528D03*
X020334Y010518D03*
X020324Y010498D03*
X020324Y010488D03*
X020314Y010468D03*
X020314Y010458D03*
X020154Y010558D03*
X021014Y010748D03*
X018834Y011188D03*
X018834Y011198D03*
X018834Y011208D03*
X018844Y011238D03*
X018844Y011248D03*
X018854Y011278D03*
X018854Y011288D03*
X018864Y011318D03*
X018864Y011328D03*
X018874Y011358D03*
X018874Y011368D03*
X018884Y011408D03*
X018894Y011448D03*
X018904Y011488D03*
X018824Y011168D03*
X018824Y011158D03*
X018824Y011148D03*
X018814Y011128D03*
X018814Y011118D03*
X018814Y011108D03*
X018804Y011088D03*
X018804Y011078D03*
X018804Y011068D03*
X018794Y011048D03*
X018794Y011038D03*
X018794Y011028D03*
X018794Y011018D03*
X018784Y011008D03*
X018784Y010998D03*
X018784Y010988D03*
X018784Y010978D03*
X018774Y010968D03*
X018774Y010958D03*
X018774Y010948D03*
X018774Y010938D03*
X018764Y010928D03*
X018764Y010918D03*
X018764Y010908D03*
X018764Y010898D03*
X018754Y010878D03*
X018754Y010868D03*
X018754Y010858D03*
X018744Y010838D03*
X018744Y010828D03*
X018744Y010818D03*
X018734Y010798D03*
X018734Y010788D03*
X018734Y010778D03*
X018724Y010758D03*
X018724Y010748D03*
X018724Y010738D03*
X018714Y010708D03*
X018714Y010698D03*
X018664Y010518D03*
X018664Y010508D03*
X018664Y010498D03*
X018124Y010708D03*
X017904Y011138D03*
X017904Y011148D03*
X017904Y011158D03*
X018214Y011278D03*
X018354Y011558D03*
X018344Y011598D03*
X018344Y011608D03*
X018334Y011638D03*
X018334Y011648D03*
X018324Y011678D03*
X018324Y011688D03*
X018324Y011698D03*
X018314Y011718D03*
X018314Y011728D03*
X018314Y011738D03*
X018314Y011748D03*
X018304Y011768D03*
X018304Y011778D03*
X018304Y011788D03*
X018304Y011798D03*
X018294Y011818D03*
X018294Y011828D03*
X018294Y011838D03*
X018294Y011848D03*
X018294Y011858D03*
X018284Y011868D03*
X018284Y011878D03*
X018284Y011888D03*
X018284Y011898D03*
X018284Y011908D03*
X018284Y011918D03*
X018274Y011938D03*
X018274Y011948D03*
X018274Y011958D03*
X018274Y011968D03*
X018274Y011978D03*
X018274Y011988D03*
X018274Y011998D03*
X018274Y012008D03*
X018274Y012058D03*
X018274Y012098D03*
X018274Y012108D03*
X018274Y012118D03*
X019144Y012448D03*
X019154Y012458D03*
X019154Y012468D03*
X019154Y012478D03*
X017424Y011698D03*
X017384Y011658D03*
X016814Y011478D03*
X016674Y011478D03*
X017104Y011358D03*
X017304Y011078D03*
X016794Y010908D03*
X017044Y010718D03*
X021564Y012288D03*
D24*
X021989Y010468D03*
D25*
X021989Y010478D03*
D26*
X022339Y010708D03*
X022349Y010728D03*
X022359Y010758D03*
X022369Y010788D03*
X021319Y011088D03*
X021169Y011088D03*
X021159Y011098D03*
X021089Y011238D03*
X020909Y011108D03*
X020639Y011448D03*
X020569Y011508D03*
X020479Y011568D03*
X020379Y011038D03*
X020389Y011018D03*
X020399Y010998D03*
X020409Y010978D03*
X020459Y010908D03*
X020329Y010508D03*
X020319Y010478D03*
X020139Y010548D03*
X019979Y010558D03*
X019529Y011028D03*
X018839Y011218D03*
X018839Y011228D03*
X018849Y011258D03*
X018849Y011268D03*
X018859Y011298D03*
X018859Y011308D03*
X018869Y011338D03*
X018869Y011348D03*
X018879Y011378D03*
X018879Y011388D03*
X018879Y011398D03*
X018889Y011418D03*
X018889Y011428D03*
X018889Y011438D03*
X018899Y011458D03*
X018899Y011468D03*
X018899Y011478D03*
X018909Y011498D03*
X018909Y011508D03*
X018909Y011518D03*
X018909Y011528D03*
X018919Y011538D03*
X018919Y011548D03*
X018919Y011558D03*
X018919Y011568D03*
X018929Y011578D03*
X018929Y011588D03*
X018929Y011598D03*
X018929Y011608D03*
X018939Y011618D03*
X018939Y011628D03*
X018939Y011638D03*
X018939Y011648D03*
X018949Y011658D03*
X018949Y011668D03*
X018949Y011678D03*
X018949Y011688D03*
X018959Y011708D03*
X018959Y011718D03*
X018959Y011728D03*
X018969Y011748D03*
X018969Y011758D03*
X018969Y011768D03*
X018979Y011788D03*
X018979Y011798D03*
X018979Y011808D03*
X018989Y011838D03*
X018989Y011848D03*
X018999Y011878D03*
X018999Y011888D03*
X019009Y011918D03*
X019009Y011928D03*
X019019Y011958D03*
X019019Y011968D03*
X019029Y012008D03*
X019039Y012048D03*
X019049Y012088D03*
X019059Y012128D03*
X018289Y012188D03*
X018279Y012158D03*
X018279Y012148D03*
X018279Y012138D03*
X018279Y012128D03*
X018269Y012088D03*
X018269Y012078D03*
X018269Y012068D03*
X018299Y011808D03*
X018309Y011758D03*
X018319Y011708D03*
X018329Y011668D03*
X018329Y011658D03*
X018339Y011628D03*
X018339Y011618D03*
X018349Y011588D03*
X018349Y011578D03*
X018349Y011568D03*
X018359Y011548D03*
X018359Y011538D03*
X018359Y011528D03*
X018369Y011518D03*
X018369Y011508D03*
X018369Y011498D03*
X018369Y011488D03*
X018379Y011478D03*
X018379Y011468D03*
X018379Y011458D03*
X018379Y011448D03*
X018389Y011438D03*
X018389Y011428D03*
X018389Y011418D03*
X018399Y011398D03*
X018399Y011388D03*
X018399Y011378D03*
X018409Y011368D03*
X018409Y011358D03*
X018409Y011348D03*
X018419Y011328D03*
X018419Y011318D03*
X018419Y011308D03*
X018429Y011288D03*
X018429Y011278D03*
X018439Y011258D03*
X018439Y011248D03*
X018439Y011238D03*
X018449Y011218D03*
X018449Y011208D03*
X018459Y011178D03*
X018469Y011148D03*
X018479Y011118D03*
X018479Y011108D03*
X018489Y011078D03*
X018499Y011048D03*
X018509Y011018D03*
X018519Y010978D03*
X018529Y010948D03*
X018539Y010918D03*
X018549Y010888D03*
X018319Y010708D03*
X018239Y010648D03*
X018139Y010698D03*
X018659Y010528D03*
X018799Y011058D03*
X018809Y011098D03*
X018819Y011138D03*
X018829Y011178D03*
X017899Y011168D03*
X017579Y011868D03*
X017579Y011878D03*
X017579Y011888D03*
X017579Y011898D03*
X016639Y011218D03*
X016609Y010908D03*
X016929Y010778D03*
X017099Y010778D03*
X021559Y012298D03*
X021559Y012308D03*
X022149Y012438D03*
X022159Y012418D03*
X022169Y012408D03*
X022169Y012398D03*
X022179Y012378D03*
X022189Y012348D03*
X022199Y012308D03*
D27*
X021854Y012548D03*
X021984Y010488D03*
D28*
X021984Y010498D03*
D29*
X021984Y010508D03*
D30*
X021724Y010558D03*
X021714Y010568D03*
X021254Y011028D03*
X020634Y011488D03*
X020144Y011158D03*
X020454Y010958D03*
X020454Y010948D03*
X020084Y010508D03*
X019524Y011048D03*
X019814Y011518D03*
X019434Y011628D03*
X019104Y012398D03*
X018984Y012478D03*
X018424Y012418D03*
X018414Y012408D03*
X018404Y012398D03*
X017424Y011668D03*
X016694Y010848D03*
X017034Y010728D03*
X021674Y011708D03*
X021684Y011728D03*
X021694Y011738D03*
X021704Y011748D03*
X022144Y012088D03*
X022154Y012098D03*
X022074Y012518D03*
X021624Y012508D03*
D31*
X021979Y010518D03*
D32*
X021739Y010548D03*
X020189Y010878D03*
X020139Y011138D03*
X020079Y010518D03*
X018659Y010658D03*
X018659Y010668D03*
X018239Y010658D03*
X017029Y010738D03*
X016699Y011238D03*
X017049Y011368D03*
X018489Y012478D03*
X019099Y012418D03*
X021799Y011848D03*
X021809Y011858D03*
X021819Y011868D03*
X022109Y012058D03*
X022049Y012528D03*
D33*
X021709Y012538D03*
X022149Y010528D03*
D34*
X021244Y011058D03*
X021874Y011908D03*
X021894Y011918D03*
X021904Y011928D03*
X021924Y011938D03*
X022054Y012018D03*
X020064Y010918D03*
X020074Y010528D03*
X018234Y010668D03*
X017104Y011108D03*
X016694Y010868D03*
X017024Y010748D03*
X016744Y011488D03*
X019084Y012438D03*
D35*
X018904Y012518D03*
X017384Y011068D03*
X016694Y010878D03*
X019774Y010918D03*
X020924Y010718D03*
X021244Y011078D03*
X022184Y010538D03*
D36*
X022204Y010548D03*
X021754Y010538D03*
X021244Y011048D03*
X020854Y011328D03*
X020484Y011548D03*
X021834Y011878D03*
X022094Y012048D03*
X018934Y012508D03*
X018754Y012608D03*
X018504Y012488D03*
X018164Y011288D03*
X016744Y011268D03*
X016714Y011248D03*
X016744Y011498D03*
X016694Y010858D03*
D37*
X017424Y011688D03*
X017904Y011178D03*
X018424Y011298D03*
X018434Y011268D03*
X018444Y011228D03*
X018454Y011198D03*
X018454Y011188D03*
X018464Y011168D03*
X018464Y011158D03*
X018474Y011138D03*
X018474Y011128D03*
X018484Y011098D03*
X018484Y011088D03*
X018494Y011068D03*
X018494Y011058D03*
X018504Y011038D03*
X018504Y011028D03*
X018514Y011008D03*
X018514Y010998D03*
X018514Y010988D03*
X018524Y010968D03*
X018524Y010958D03*
X018534Y010938D03*
X018534Y010928D03*
X018544Y010908D03*
X018544Y010898D03*
X018554Y010878D03*
X018554Y010868D03*
X018554Y010858D03*
X018564Y010848D03*
X018564Y010838D03*
X018564Y010828D03*
X018574Y010818D03*
X018574Y010808D03*
X018574Y010798D03*
X018584Y010788D03*
X018584Y010778D03*
X018584Y010768D03*
X018594Y010758D03*
X018594Y010748D03*
X018594Y010738D03*
X018604Y010728D03*
X018604Y010718D03*
X018604Y010708D03*
X018614Y010698D03*
X018614Y010688D03*
X018614Y010678D03*
X018664Y010548D03*
X018664Y010538D03*
X018414Y011338D03*
X018394Y011408D03*
X018954Y011698D03*
X018964Y011738D03*
X018974Y011778D03*
X018984Y011818D03*
X018984Y011828D03*
X018994Y011858D03*
X018994Y011868D03*
X019004Y011898D03*
X019004Y011908D03*
X019014Y011938D03*
X019014Y011948D03*
X019024Y011978D03*
X019024Y011988D03*
X019024Y011998D03*
X019034Y012018D03*
X019034Y012028D03*
X019034Y012038D03*
X019044Y012058D03*
X019044Y012068D03*
X019044Y012078D03*
X019054Y012098D03*
X019054Y012108D03*
X019054Y012118D03*
X019064Y012138D03*
X019064Y012148D03*
X019064Y012158D03*
X019064Y012168D03*
X019074Y012178D03*
X019074Y012188D03*
X019074Y012198D03*
X019074Y012208D03*
X019084Y012218D03*
X019084Y012228D03*
X019084Y012238D03*
X019084Y012248D03*
X019094Y012258D03*
X019094Y012268D03*
X019094Y012278D03*
X019094Y012288D03*
X019104Y012308D03*
X019104Y012318D03*
X019104Y012328D03*
X019114Y012348D03*
X019114Y012358D03*
X019114Y012368D03*
X018314Y012258D03*
X018304Y012238D03*
X018304Y012228D03*
X018294Y012218D03*
X018294Y012208D03*
X018294Y012198D03*
X018284Y012178D03*
X018284Y012168D03*
X019814Y011538D03*
X020404Y011518D03*
X020644Y011458D03*
X020824Y011058D03*
X021254Y011018D03*
X022304Y010638D03*
X022314Y010658D03*
X022324Y010668D03*
X022324Y010678D03*
X022334Y010688D03*
X022334Y010698D03*
X022344Y010718D03*
X022354Y010738D03*
X022354Y010748D03*
X022364Y010768D03*
X022364Y010778D03*
X022374Y010798D03*
X022374Y010808D03*
X022374Y010818D03*
X022384Y010828D03*
X022384Y010838D03*
X022384Y010848D03*
X022394Y010888D03*
X022404Y010938D03*
X022414Y010988D03*
X022424Y011018D03*
X022424Y011028D03*
X022204Y012178D03*
X022204Y012188D03*
X022204Y012198D03*
X022204Y012208D03*
X022214Y012218D03*
X022214Y012228D03*
X022204Y012238D03*
X022204Y012248D03*
X022204Y012258D03*
X022204Y012268D03*
X022204Y012278D03*
X022204Y012288D03*
X022204Y012298D03*
X022194Y012318D03*
X022194Y012328D03*
X022194Y012338D03*
X022184Y012358D03*
X022184Y012368D03*
X022174Y012388D03*
X022154Y012428D03*
X022144Y012448D03*
X022134Y012458D03*
X021594Y012478D03*
X021584Y012458D03*
X021574Y012438D03*
X021574Y012428D03*
X021574Y012418D03*
X021564Y012388D03*
X021564Y012378D03*
X021564Y012368D03*
X021564Y012358D03*
X021564Y012318D03*
D38*
X022089Y012508D03*
X022169Y012118D03*
X022159Y012108D03*
X021679Y011718D03*
X021669Y011698D03*
X021659Y011688D03*
X021659Y011678D03*
X021649Y011658D03*
X021639Y011638D03*
X021619Y011588D03*
X020869Y011088D03*
X021599Y010738D03*
X021609Y010718D03*
X021619Y010698D03*
X021629Y010678D03*
X021639Y010658D03*
X021659Y010628D03*
X021679Y010598D03*
X021689Y010588D03*
X021699Y010578D03*
X022249Y010578D03*
X022259Y010588D03*
X020009Y010548D03*
X018659Y010588D03*
X018659Y010598D03*
X018659Y010608D03*
X018159Y011308D03*
X017049Y011388D03*
X016939Y011158D03*
X018369Y012358D03*
X018379Y012368D03*
X018389Y012378D03*
X018389Y012388D03*
X018999Y012468D03*
X019029Y012448D03*
X019109Y012388D03*
D39*
X018954Y012498D03*
X018474Y012468D03*
X018464Y012458D03*
X019714Y011708D03*
X019514Y011058D03*
X019784Y010888D03*
X020144Y011148D03*
X020914Y010688D03*
X021254Y011038D03*
X021734Y011788D03*
X021744Y011798D03*
X021754Y011808D03*
X021764Y011818D03*
X021774Y011828D03*
X021784Y011838D03*
X022124Y012068D03*
X022134Y012078D03*
X022224Y010558D03*
X018654Y010648D03*
X018274Y011078D03*
X018114Y011028D03*
X018164Y011298D03*
X017394Y011038D03*
D40*
X017049Y011378D03*
X016749Y011508D03*
X018429Y012428D03*
X018439Y012438D03*
X018449Y012448D03*
X018969Y012488D03*
X019099Y012408D03*
X020479Y011558D03*
X020849Y011338D03*
X021709Y011758D03*
X021719Y011768D03*
X021729Y011778D03*
X021639Y012518D03*
X020039Y010928D03*
X018659Y010638D03*
X018659Y010628D03*
X018659Y010618D03*
X022239Y010568D03*
D41*
X022274Y010598D03*
X021674Y010608D03*
X021664Y010618D03*
X021654Y010638D03*
X021644Y010648D03*
X021634Y010668D03*
X021624Y010688D03*
X021614Y010708D03*
X021604Y010728D03*
X021594Y010748D03*
X021594Y010758D03*
X021584Y010768D03*
X021584Y010778D03*
X021574Y010798D03*
X021574Y010808D03*
X021564Y010838D03*
X021554Y010888D03*
X021544Y010968D03*
X021544Y010978D03*
X021544Y010988D03*
X021544Y010998D03*
X021544Y011008D03*
X021544Y011018D03*
X021544Y011108D03*
X021544Y011118D03*
X021544Y011128D03*
X021544Y011138D03*
X021544Y011148D03*
X021544Y011158D03*
X021544Y011168D03*
X021544Y011178D03*
X021544Y011188D03*
X021544Y011198D03*
X021544Y011208D03*
X021544Y011218D03*
X021554Y011278D03*
X021554Y011288D03*
X021554Y011298D03*
X021554Y011308D03*
X021554Y011318D03*
X021564Y011358D03*
X021564Y011368D03*
X021564Y011378D03*
X021564Y011388D03*
X021574Y011408D03*
X021574Y011418D03*
X021574Y011428D03*
X021574Y011438D03*
X021584Y011458D03*
X021584Y011468D03*
X021584Y011478D03*
X021594Y011498D03*
X021594Y011508D03*
X021594Y011518D03*
X021604Y011538D03*
X021604Y011548D03*
X021614Y011568D03*
X021614Y011578D03*
X021624Y011598D03*
X021624Y011608D03*
X021634Y011618D03*
X021634Y011628D03*
X021644Y011648D03*
X021654Y011668D03*
X022184Y012138D03*
X021614Y012498D03*
X020634Y011478D03*
X020854Y011348D03*
X020884Y011098D03*
X020854Y011078D03*
X020454Y010938D03*
X020214Y010868D03*
X019794Y010878D03*
X019524Y011038D03*
X019814Y011528D03*
X019114Y012378D03*
X019014Y012458D03*
X018364Y012348D03*
X018354Y012338D03*
X018344Y012318D03*
X018334Y012298D03*
X017424Y011678D03*
X017144Y011098D03*
X017404Y011028D03*
X018294Y010698D03*
X018664Y010578D03*
D42*
X018229Y010688D03*
X018229Y011068D03*
X019489Y011638D03*
D43*
X019779Y010898D03*
X020849Y011318D03*
X020919Y010698D03*
X021849Y011888D03*
X021859Y011898D03*
X022069Y012028D03*
X022079Y012038D03*
X021669Y012528D03*
X019089Y012428D03*
X018529Y012498D03*
X017389Y011048D03*
X016729Y011258D03*
D44*
X016989Y011148D03*
X017389Y011058D03*
X018549Y012508D03*
X020479Y011538D03*
X021249Y011068D03*
X020919Y010708D03*
X020169Y010888D03*
X019779Y010908D03*
X021939Y011948D03*
X021959Y011958D03*
X021969Y011968D03*
X021989Y011978D03*
X022009Y011988D03*
X022019Y011998D03*
X022039Y012008D03*
X022019Y012538D03*
X021869Y012628D03*
D45*
X020924Y010728D03*
X018574Y012518D03*
X016694Y010888D03*
X017014Y010768D03*
D46*
X019664Y011698D03*
X020144Y010898D03*
X018754Y012598D03*
D47*
X020124Y010908D03*
D48*
X018194Y011038D03*
X017044Y011138D03*
D49*
X018189Y011058D03*
X018189Y011048D03*
X019539Y011658D03*
X021859Y012608D03*
D50*
X018749Y012588D03*
X017049Y011128D03*
D51*
X019504Y011648D03*
X021864Y012618D03*
D52*
X019569Y011668D03*
D53*
X019594Y011678D03*
X021854Y012598D03*
D54*
X019624Y011688D03*
D55*
X018739Y012528D03*
D56*
X018739Y012538D03*
D57*
X018744Y012548D03*
X021854Y012568D03*
D58*
X021854Y012558D03*
D59*
X018744Y012558D03*
D60*
X021849Y012578D03*
D61*
X018744Y012578D03*
D62*
X021854Y012588D03*
M02*
