%
M48
M72
T01C0.0130
T02C0.0315
T03C0.0320
T04C0.0360
T05C0.0400
T06C0.0420
T07C0.0433
T08C0.0900
T09C0.1180
T10C0.1500
%
T01
X5504Y3504
X10204Y3304
X10104Y4504
X14704Y5804
X15404Y6504
X16404Y6304
X14404Y7504
X12604Y7904
X13304Y9604
X13304Y10004
X11204Y9604
X9704Y9304
X8504Y9204
X10404Y12304
X11504Y14204
X8604Y16704
X9904Y18004
X9904Y19304
X17004Y13604
X16704Y13304
X16504Y13004
X17604Y12704
X20604Y9604
X17504Y8804
X20304Y5604
X20304Y5204
X16904Y4204
X16804Y3704
X20504Y19304
T02
X23823Y18504
X26185Y18504
X26685Y13004
X24323Y13004
T03
X24504Y12004
X24504Y11004
X24504Y10004
X24504Y9004
X23004Y8504
X22004Y8504
X21004Y8504
X20004Y8504
X19004Y8504
X18004Y8504
X17004Y8504
X16004Y8504
X15004Y8504
X14004Y8504
X13004Y8504
X12004Y8504
X11004Y8504
X10004Y8504
X9004Y8504
X8004Y8504
X7004Y8504
X6004Y8504
X5004Y8504
X4004Y8504
X4004Y7004
X4004Y6004
X4004Y5004
X2504Y5004
X1754Y4504
X2504Y4004
X4004Y4004
X8504Y4004
X10004Y4004
X10004Y5004
X8504Y5004
X10004Y6004
X10004Y7004
X11554Y6504
X13454Y6504
X15504Y7004
X15504Y6004
X17504Y6004
X17504Y7004
X19004Y7004
X20004Y7004
X21004Y7004
X22004Y7004
X23004Y7004
X24004Y7004
X25004Y7004
X26004Y7004
X27004Y7004
X28004Y7004
X26504Y9004
X26504Y10004
X26504Y11004
X26504Y12004
X23004Y14504
X22004Y14504
X21004Y14504
X20004Y14504
X19004Y14504
X18004Y14504
X17004Y14504
X16004Y14504
X15004Y14504
X14004Y14504
X13004Y14504
X12004Y14504
X11004Y14504
X10004Y14504
X9004Y14504
X8004Y14504
X7004Y14504
X6004Y14504
X5004Y14504
X4004Y14504
X11504Y5004
X11504Y4004
X13554Y4504
X15454Y4504
X17504Y5004
X17504Y4004
X19004Y4004
X20004Y4004
X21004Y4004
X22004Y4004
X23004Y4004
X24004Y4004
X25004Y4004
X26004Y4004
X27004Y4004
X28004Y4004
X26504Y2504
X25504Y2504
X24504Y2504
X23504Y2504
X21504Y2504
X20504Y2504
X18504Y2504
X21004Y16504
X22004Y16504
X23504Y16504
X24504Y16504
T04
X27724Y10996
X28504Y10996
X28504Y10012
X27724Y10012
T05
X29504Y6504
X29504Y5504
X29504Y4504
X29504Y3504
X11504Y16004
X10504Y16004
X9504Y16004
X9504Y17004
X10504Y17004
X11504Y17004
X3784Y17394
X1224Y17394
X1224Y15614
X3784Y15614
T06
X25004Y19504
X26504Y19504
T07
X1504Y2504
X2504Y2504
X3504Y2504
X4504Y2504
X5504Y2504
X6504Y2504
X7504Y2504
X8504Y2504
X10504Y2504
X11504Y2504
X12504Y2504
X13504Y2504
X14504Y2504
X15504Y2504
X16504Y2504
X17504Y2504
X2504Y6504
X2504Y7504
X2504Y8504
X2504Y9504
X2504Y10504
X2504Y11504
X2504Y12504
X2504Y13504
X2504Y18504
X3504Y18504
X4504Y18504
X5504Y18504
X6504Y18504
X7504Y18504
X8504Y18504
X10504Y18504
X11504Y18504
X12504Y18504
X13504Y18504
X14504Y18504
X15504Y18504
X16504Y18504
X17504Y18504
X1504Y18504
T08
X29574Y12874
X29574Y8134
T09
X28472Y15504
X26110Y15504
X27291Y17354
T10
X29004Y19004
X6504Y16004
X6504Y5004
X29004Y2004
M30
