G75*
G70*
%OFA0B0*%
%FSLAX24Y24*%
%IPPOS*%
%LPD*%
%AMOC8*
5,1,8,0,0,1.08239X$1,22.5*
%
%ADD10R,0.0394X0.0433*%
%ADD11R,0.0157X0.0591*%
%ADD12R,0.0433X0.0394*%
D10*
X018419Y002754D03*
X019089Y002754D03*
X019089Y003754D03*
X018419Y003754D03*
X018419Y004754D03*
X019089Y004754D03*
X019089Y005754D03*
X018419Y005754D03*
X024669Y007004D03*
X025339Y007004D03*
X026169Y007004D03*
X026839Y007004D03*
X025339Y009004D03*
X024669Y009004D03*
X024669Y010004D03*
X025339Y010004D03*
X025339Y013004D03*
X024669Y013004D03*
X024669Y014004D03*
X025339Y014004D03*
X019339Y014754D03*
X018669Y014754D03*
D11*
X021352Y010931D03*
X021608Y010931D03*
X021864Y010931D03*
X022120Y010931D03*
X022376Y010931D03*
X022632Y010931D03*
X022888Y010931D03*
X023144Y010931D03*
X023400Y010931D03*
X023656Y010931D03*
X023656Y008077D03*
X023400Y008077D03*
X023144Y008077D03*
X022888Y008077D03*
X022632Y008077D03*
X022376Y008077D03*
X022120Y008077D03*
X021864Y008077D03*
X021608Y008077D03*
X021352Y008077D03*
D12*
X024669Y008004D03*
X025339Y008004D03*
X025339Y011004D03*
X024669Y011004D03*
X024669Y012004D03*
X025339Y012004D03*
X019339Y013504D03*
X018669Y013504D03*
M02*
