%
M48
M72
T01C0.0236
T02C0.0315
T03C0.0320
T04C0.0360
T05C0.0400
T06C0.0433
T07C0.0520
T08C0.0900
T09C0.1100
T10C0.1500
%
T01
X9004Y3504
X16754Y4754
X17754Y4754
X18754Y8504
X22254Y10004
X22754Y9754
X23504Y9504
X24004Y9004
X24004Y11504
X22504Y11504
X24004Y13504
X23754Y14254
X19004Y13004
X18754Y15754
T02
X18323Y11254
X20685Y11254
X26823Y14004
X29185Y14004
T03
X29004Y15004
X29004Y16004
X29004Y17004
X22954Y12504
X21054Y12504
X20504Y10004
X19504Y10004
X18504Y10004
X18504Y7004
X19504Y7004
X20504Y7004
T04
X26224Y10512
X27004Y10512
X27004Y11496
X26224Y11496
X29004Y7504
X29004Y6504
X29004Y5504
X29004Y4504
T05
X17254Y8254
X17254Y9254
X17254Y10254
X17254Y11254
X15254Y11254
X14254Y11254
X14254Y12254
X15254Y12254
X15254Y13254
X14254Y13254
X14254Y14254
X15254Y14254
X15254Y15254
X14254Y15254
X11004Y15254
X10004Y15254
X10004Y14254
X11004Y14254
X11004Y13254
X10004Y13254
X10004Y12254
X11004Y12254
X11004Y11254
X10004Y11254
X7004Y11504
X6004Y11504
X6004Y12504
X7004Y12504
X7004Y10504
X6004Y10504
X6004Y9504
X7004Y9504
X7004Y8504
X6004Y8504
X10504Y7504
X11504Y7504
X12504Y7504
X13504Y7504
X14504Y7504
X14504Y6504
X13504Y6504
X12504Y6504
X11504Y6504
X10504Y6504
X4534Y15114
X4534Y16894
X1974Y16894
X1974Y15114
T06
X1504Y2504
X2504Y2504
X3504Y2504
X4504Y2504
X5504Y2504
X6504Y2504
X7504Y2504
X8504Y2504
X10504Y2504
X11504Y2504
X12504Y2504
X13504Y2504
X14504Y2504
X15504Y2504
X16504Y2504
X17504Y2504
X2504Y6504
X2504Y7504
X2504Y8504
X2504Y9504
X2504Y10504
X2504Y11504
X2504Y12504
X2504Y13504
X2504Y18504
X3504Y18504
X4504Y18504
X5504Y18504
X6504Y18504
X7504Y18504
X8504Y18504
X10504Y18504
X11504Y18504
X12504Y18504
X13504Y18504
X14504Y18504
X15504Y18504
X16504Y18504
X17504Y18504
X1504Y18504
T07
X20504Y15754
X21504Y14754
X23504Y15754
X25504Y14754
X26504Y15754
X24504Y19754
X22504Y19754
X21504Y6254
X20504Y5254
X23504Y5254
X25504Y6254
X26504Y5254
X24504Y1254
X22504Y1254
T08
X28074Y8634
X28074Y13374
T09
X26504Y17754
X20504Y17754
X20504Y3254
X26504Y3254
T10
X29004Y2004
X6504Y5004
X6504Y16004
X29004Y19004
M30
