G75*
G70*
%OFA0B0*%
%FSLAX24Y24*%
%IPPOS*%
%LPD*%
%AMOC8*
5,1,8,0,0,1.08239X$1,22.5*
%
%ADD10C,0.0650*%
%ADD11R,0.0394X0.0433*%
%ADD12C,0.0540*%
%ADD13C,0.1300*%
%ADD14C,0.0472*%
%ADD15C,0.0480*%
%ADD16R,0.0157X0.0591*%
%ADD17R,0.0433X0.0394*%
%ADD18C,0.0480*%
%ADD19OC8,0.0780*%
%ADD20C,0.0780*%
%ADD21C,0.0600*%
%ADD22C,0.0540*%
%ADD23OC8,0.0600*%
%ADD24C,0.0160*%
%ADD25C,0.0376*%
D10*
X001504Y002179D02*
X001504Y002829D01*
X002504Y002829D02*
X002504Y002179D01*
X003504Y002179D02*
X003504Y002829D01*
X004504Y002829D02*
X004504Y002179D01*
X005504Y002179D02*
X005504Y002829D01*
X006504Y002829D02*
X006504Y002179D01*
X007504Y002179D02*
X007504Y002829D01*
X008504Y002829D02*
X008504Y002179D01*
X010504Y002179D02*
X010504Y002829D01*
X011504Y002829D02*
X011504Y002179D01*
X012504Y002179D02*
X012504Y002829D01*
X013504Y002829D02*
X013504Y002179D01*
X014504Y002179D02*
X014504Y002829D01*
X015504Y002829D02*
X015504Y002179D01*
X016504Y002179D02*
X016504Y002829D01*
X017504Y002829D02*
X017504Y002179D01*
X002829Y006504D02*
X002179Y006504D01*
X002179Y007504D02*
X002829Y007504D01*
X002829Y008504D02*
X002179Y008504D01*
X002179Y009504D02*
X002829Y009504D01*
X002829Y010504D02*
X002179Y010504D01*
X002179Y011504D02*
X002829Y011504D01*
X002829Y012504D02*
X002179Y012504D01*
X002179Y013504D02*
X002829Y013504D01*
X002504Y018179D02*
X002504Y018829D01*
X003504Y018829D02*
X003504Y018179D01*
X004504Y018179D02*
X004504Y018829D01*
X005504Y018829D02*
X005504Y018179D01*
X006504Y018179D02*
X006504Y018829D01*
X007504Y018829D02*
X007504Y018179D01*
X008504Y018179D02*
X008504Y018829D01*
X010504Y018829D02*
X010504Y018179D01*
X011504Y018179D02*
X011504Y018829D01*
X012504Y018829D02*
X012504Y018179D01*
X013504Y018179D02*
X013504Y018829D01*
X014504Y018829D02*
X014504Y018179D01*
X015504Y018179D02*
X015504Y018829D01*
X016504Y018829D02*
X016504Y018179D01*
X017504Y018179D02*
X017504Y018829D01*
X001504Y018829D02*
X001504Y018179D01*
D11*
X018669Y014754D03*
X019339Y014754D03*
X024669Y014004D03*
X025339Y014004D03*
X025339Y013004D03*
X024669Y013004D03*
X024669Y010004D03*
X025339Y010004D03*
X025339Y009004D03*
X024669Y009004D03*
X024669Y007004D03*
X025339Y007004D03*
X026169Y007004D03*
X026839Y007004D03*
X019089Y005754D03*
X018419Y005754D03*
X018419Y004754D03*
X019089Y004754D03*
X019089Y003754D03*
X018419Y003754D03*
X018419Y002754D03*
X019089Y002754D03*
D12*
X026224Y010512D03*
X027004Y010512D03*
X027004Y011496D03*
X026224Y011496D03*
D13*
X028074Y013374D03*
X028074Y008634D03*
D14*
X020685Y011254D03*
X018323Y011254D03*
X026823Y014004D03*
X029185Y014004D03*
D15*
X029244Y015004D02*
X028764Y015004D01*
X028764Y016004D02*
X029244Y016004D01*
X029244Y017004D02*
X028764Y017004D01*
X020504Y010484D02*
X020504Y010004D01*
X019504Y010004D02*
X019504Y010484D01*
X018504Y010484D02*
X018504Y010004D01*
X018504Y007004D02*
X018504Y006524D01*
X019504Y006524D02*
X019504Y007004D01*
X020504Y007004D02*
X020504Y006524D01*
D16*
X021352Y008077D03*
X021608Y008077D03*
X021864Y008077D03*
X022120Y008077D03*
X022376Y008077D03*
X022632Y008077D03*
X022888Y008077D03*
X023144Y008077D03*
X023400Y008077D03*
X023656Y008077D03*
X023656Y010931D03*
X023400Y010931D03*
X023144Y010931D03*
X022888Y010931D03*
X022632Y010931D03*
X022376Y010931D03*
X022120Y010931D03*
X021864Y010931D03*
X021608Y010931D03*
X021352Y010931D03*
D17*
X024669Y011004D03*
X025339Y011004D03*
X025339Y012004D03*
X024669Y012004D03*
X019339Y013504D03*
X018669Y013504D03*
X024669Y008004D03*
X025339Y008004D03*
D18*
X022954Y012504D03*
X021054Y012504D03*
D19*
X021504Y014754D03*
X020504Y015754D03*
X025504Y014754D03*
X026504Y015754D03*
X024504Y019754D03*
X022504Y019754D03*
X021504Y006254D03*
X020504Y005254D03*
X025504Y006254D03*
X026504Y005254D03*
X024504Y001254D03*
X022504Y001254D03*
D20*
X023504Y004864D02*
X023504Y005644D01*
X023504Y015364D02*
X023504Y016144D01*
D21*
X017254Y011254D03*
X017254Y010254D03*
X017254Y009254D03*
X017254Y008254D03*
X004534Y015114D03*
X004534Y016894D03*
X001974Y016894D03*
X001974Y015114D03*
D22*
X028734Y007504D02*
X029274Y007504D01*
X029274Y006504D02*
X028734Y006504D01*
X028734Y005504D02*
X029274Y005504D01*
X029274Y004504D02*
X028734Y004504D01*
D23*
X015254Y011254D03*
X014254Y011254D03*
X014254Y012254D03*
X015254Y012254D03*
X015254Y013254D03*
X014254Y013254D03*
X014254Y014254D03*
X015254Y014254D03*
X015254Y015254D03*
X014254Y015254D03*
X011004Y015254D03*
X010004Y015254D03*
X010004Y014254D03*
X011004Y014254D03*
X011004Y013254D03*
X010004Y013254D03*
X010004Y012254D03*
X011004Y012254D03*
X011004Y011254D03*
X010004Y011254D03*
X007004Y011504D03*
X006004Y011504D03*
X006004Y012504D03*
X007004Y012504D03*
X007004Y010504D03*
X006004Y010504D03*
X006004Y009504D03*
X007004Y009504D03*
X007004Y008504D03*
X006004Y008504D03*
X010504Y007504D03*
X011504Y007504D03*
X012504Y007504D03*
X013504Y007504D03*
X014504Y007504D03*
X014504Y006504D03*
X013504Y006504D03*
X012504Y006504D03*
X011504Y006504D03*
X010504Y006504D03*
D24*
X000734Y000734D02*
X000734Y020270D01*
X022271Y020270D01*
X021974Y019973D01*
X021974Y019534D01*
X022284Y019224D01*
X022723Y019224D01*
X023034Y019534D01*
X023034Y019973D01*
X022737Y020270D01*
X024271Y020270D01*
X023974Y019973D01*
X023974Y019534D01*
X024284Y019224D01*
X024723Y019224D01*
X025034Y019534D01*
X025034Y019973D01*
X024737Y020270D01*
X030144Y020270D01*
X030144Y000734D01*
X024733Y000734D01*
X025034Y001034D01*
X025034Y001473D01*
X024723Y001784D01*
X024284Y001784D01*
X023974Y001473D01*
X023974Y001034D01*
X024274Y000734D01*
X022733Y000734D01*
X023034Y001034D01*
X023034Y001473D01*
X022723Y001784D01*
X022284Y001784D01*
X021974Y001473D01*
X021974Y001034D01*
X022274Y000734D01*
X000734Y000734D01*
X000734Y000821D02*
X022187Y000821D01*
X022029Y000980D02*
X000734Y000980D01*
X000734Y001138D02*
X021974Y001138D01*
X021974Y001297D02*
X018108Y001297D01*
X018095Y001284D02*
X018595Y001784D01*
X018724Y001913D01*
X018724Y002447D01*
X018754Y002477D01*
X018834Y002397D01*
X019343Y002397D01*
X019425Y002479D01*
X019425Y002829D01*
X019724Y003213D01*
X019724Y003099D01*
X019843Y002812D01*
X020062Y002593D01*
X020349Y002474D01*
X020659Y002474D01*
X020946Y002593D01*
X021165Y002812D01*
X021284Y003099D01*
X021284Y003409D01*
X021165Y003696D01*
X020946Y003915D01*
X020659Y004034D01*
X020362Y004034D01*
X021413Y004034D01*
X021595Y004034D01*
X021724Y004163D01*
X021724Y005724D01*
X022034Y006034D01*
X022034Y006473D01*
X021723Y006784D01*
X021284Y006784D01*
X020974Y006473D01*
X020974Y006034D01*
X021284Y005724D01*
X021284Y004474D01*
X020329Y004474D01*
X020317Y004484D01*
X020240Y004474D01*
X020163Y004474D01*
X020152Y004463D01*
X020136Y004461D01*
X020089Y004400D01*
X020034Y004345D01*
X020034Y004329D01*
X019425Y003546D01*
X019425Y004028D01*
X019343Y004110D01*
X019309Y004110D01*
X019309Y004397D01*
X019343Y004397D01*
X019425Y004479D01*
X019425Y005028D01*
X019343Y005110D01*
X019309Y005110D01*
X019309Y005397D01*
X019343Y005397D01*
X019425Y005479D01*
X019425Y005534D01*
X019962Y005534D01*
X020007Y005516D01*
X020024Y005523D01*
X019974Y005473D01*
X019974Y005034D01*
X020284Y004724D01*
X020723Y004724D01*
X021034Y005034D01*
X021034Y005473D01*
X020723Y005784D01*
X020284Y005784D01*
X020232Y005731D01*
X020401Y006155D01*
X020428Y006144D01*
X020580Y006144D01*
X020719Y006202D01*
X020826Y006309D01*
X020884Y006448D01*
X020884Y006784D01*
X024332Y006784D01*
X024332Y006729D01*
X024414Y006647D01*
X024456Y006647D01*
X024074Y005185D01*
X024074Y005204D01*
X023554Y005204D01*
X023554Y005304D01*
X023454Y005304D01*
X023454Y006213D01*
X023370Y006200D01*
X023285Y006172D01*
X023205Y006131D01*
X023133Y006079D01*
X023069Y006015D01*
X023016Y005943D01*
X022976Y005863D01*
X022948Y005777D01*
X022934Y005689D01*
X022934Y005304D01*
X023454Y005304D01*
X023454Y005204D01*
X023554Y005204D01*
X023554Y004295D01*
X023637Y004308D01*
X023723Y004336D01*
X023803Y004376D01*
X023875Y004429D01*
X023939Y004493D01*
X023991Y004565D01*
X024032Y004645D01*
X024060Y004730D01*
X024074Y004819D01*
X024074Y004873D01*
X024078Y004868D01*
X024110Y004814D01*
X024141Y004806D01*
X024163Y004784D01*
X024226Y004784D01*
X024287Y004768D01*
X024314Y004784D01*
X025595Y004784D01*
X025724Y004913D01*
X025974Y005163D01*
X025974Y005034D01*
X026284Y004724D01*
X026723Y004724D01*
X027034Y005034D01*
X027034Y005473D01*
X026723Y005784D01*
X026389Y005784D01*
X026389Y006647D01*
X026424Y006647D01*
X026504Y006727D01*
X026584Y006647D01*
X027093Y006647D01*
X027113Y006667D01*
X027534Y006386D01*
X027534Y005281D01*
X027518Y005219D01*
X027534Y005193D01*
X027534Y005163D01*
X027579Y005118D01*
X027909Y004568D01*
X027909Y004538D01*
X027954Y004493D01*
X027987Y004438D01*
X028016Y004430D01*
X028038Y004409D01*
X028102Y004409D01*
X028164Y004393D01*
X028190Y004409D01*
X028330Y004409D01*
X028386Y004272D01*
X028502Y004156D01*
X028652Y004094D01*
X029355Y004094D01*
X029506Y004156D01*
X029621Y004272D01*
X029684Y004422D01*
X029684Y004585D01*
X029621Y004736D01*
X029506Y004851D01*
X029355Y004914D01*
X028652Y004914D01*
X028502Y004851D01*
X028499Y004849D01*
X028253Y004849D01*
X027974Y005315D01*
X027974Y006437D01*
X027987Y006458D01*
X027974Y006526D01*
X027974Y006595D01*
X027957Y006612D01*
X027952Y006636D01*
X027894Y006675D01*
X027845Y006724D01*
X027821Y006724D01*
X027175Y007154D01*
X027175Y007278D01*
X027093Y007360D01*
X026584Y007360D01*
X026504Y007281D01*
X026424Y007360D01*
X025914Y007360D01*
X025832Y007278D01*
X025832Y006729D01*
X025914Y006647D01*
X025949Y006647D01*
X025949Y006558D01*
X025723Y006784D01*
X025675Y006784D01*
X025675Y007278D01*
X025593Y007360D01*
X025084Y007360D01*
X025004Y007281D01*
X024924Y007360D01*
X024414Y007360D01*
X024332Y007278D01*
X024332Y007224D01*
X020821Y007224D01*
X020761Y007284D01*
X021845Y007284D01*
X021974Y007413D01*
X022084Y007523D01*
X022084Y007641D01*
X022239Y007641D01*
X022495Y007641D01*
X022668Y007641D01*
X022668Y007529D01*
X022797Y007400D01*
X022913Y007284D01*
X024095Y007284D01*
X024224Y007413D01*
X024478Y007667D01*
X024944Y007667D01*
X024976Y007700D01*
X024978Y007697D01*
X025011Y007663D01*
X025053Y007639D01*
X025098Y007627D01*
X025320Y007627D01*
X025320Y007985D01*
X025357Y007985D01*
X025357Y007627D01*
X025579Y007627D01*
X025625Y007639D01*
X025666Y007663D01*
X025699Y007697D01*
X025723Y007738D01*
X025735Y007783D01*
X025735Y007985D01*
X025357Y007985D01*
X025357Y008022D01*
X025735Y008022D01*
X025735Y008224D01*
X025723Y008270D01*
X025699Y008311D01*
X025666Y008345D01*
X025625Y008368D01*
X025579Y008381D01*
X025357Y008381D01*
X025357Y008023D01*
X025320Y008023D01*
X025320Y008381D01*
X025098Y008381D01*
X025053Y008368D01*
X025011Y008345D01*
X024978Y008311D01*
X024976Y008308D01*
X024944Y008341D01*
X024395Y008341D01*
X024313Y008259D01*
X024313Y008124D01*
X023913Y007724D01*
X023905Y007724D01*
X023914Y007758D01*
X023914Y008077D01*
X023914Y008396D01*
X023902Y008441D01*
X023878Y008483D01*
X023845Y008516D01*
X023804Y008540D01*
X023758Y008552D01*
X023656Y008552D01*
X023656Y008077D01*
X023914Y008077D01*
X023656Y008077D01*
X023656Y008077D01*
X023655Y008077D01*
X023655Y008552D01*
X023620Y008552D01*
X023620Y008784D01*
X023760Y008784D01*
X023818Y008726D01*
X023939Y008676D01*
X024069Y008676D01*
X024190Y008726D01*
X024248Y008784D01*
X024332Y008784D01*
X024332Y008729D01*
X024414Y008647D01*
X024924Y008647D01*
X025004Y008727D01*
X025084Y008647D01*
X025593Y008647D01*
X025675Y008729D01*
X025675Y008784D01*
X026095Y008784D01*
X026224Y008913D01*
X027095Y009784D01*
X027224Y009913D01*
X027224Y010159D01*
X027236Y010164D01*
X027351Y010280D01*
X027414Y010430D01*
X027414Y010593D01*
X027351Y010744D01*
X027236Y010859D01*
X027085Y010922D01*
X026922Y010922D01*
X026772Y010859D01*
X026656Y010744D01*
X026614Y010642D01*
X026571Y010744D01*
X026456Y010859D01*
X026305Y010922D01*
X026142Y010922D01*
X025992Y010859D01*
X025876Y010744D01*
X025814Y010593D01*
X025814Y010430D01*
X025819Y010418D01*
X025675Y010274D01*
X025675Y010278D01*
X025593Y010360D01*
X025084Y010360D01*
X025004Y010281D01*
X024924Y010360D01*
X024414Y010360D01*
X024332Y010278D01*
X024332Y010224D01*
X024095Y010224D01*
X023913Y010224D01*
X023521Y009832D01*
X023439Y009832D01*
X023318Y009782D01*
X023226Y009690D01*
X023176Y009569D01*
X023176Y009487D01*
X022924Y009235D01*
X022924Y009155D01*
X022908Y009185D01*
X022872Y009197D01*
X022845Y009224D01*
X022789Y009224D01*
X022735Y009241D01*
X022701Y009224D01*
X021785Y009224D01*
X022084Y009523D01*
X022084Y009705D01*
X022084Y009719D01*
X022189Y009676D01*
X022319Y009676D01*
X022426Y009720D01*
X022426Y009689D01*
X022476Y009568D01*
X022568Y009476D01*
X022689Y009426D01*
X022819Y009426D01*
X022940Y009476D01*
X023032Y009568D01*
X023082Y009689D01*
X023082Y009771D01*
X023108Y009797D01*
X023108Y009979D01*
X023108Y010496D01*
X023280Y010496D01*
X023536Y010496D01*
X023792Y010496D01*
X023874Y010578D01*
X023874Y010784D01*
X023913Y010784D01*
X024095Y010784D01*
X024313Y010784D01*
X024313Y010749D01*
X024395Y010667D01*
X024944Y010667D01*
X024976Y010700D01*
X024978Y010697D01*
X025011Y010663D01*
X025053Y010639D01*
X025098Y010627D01*
X025320Y010627D01*
X025320Y010985D01*
X025357Y010985D01*
X025357Y010627D01*
X025579Y010627D01*
X025625Y010639D01*
X025666Y010663D01*
X025699Y010697D01*
X025723Y010738D01*
X025735Y010783D01*
X025735Y010985D01*
X025357Y010985D01*
X025357Y011022D01*
X025735Y011022D01*
X025735Y011224D01*
X025723Y011270D01*
X025699Y011311D01*
X025666Y011345D01*
X025625Y011368D01*
X025579Y011381D01*
X025357Y011381D01*
X025357Y011023D01*
X025320Y011023D01*
X025320Y011381D01*
X025098Y011381D01*
X025053Y011368D01*
X025011Y011345D01*
X024978Y011311D01*
X024976Y011308D01*
X024944Y011341D01*
X024395Y011341D01*
X024313Y011259D01*
X024313Y011224D01*
X024224Y011224D01*
X024224Y011260D01*
X024282Y011318D01*
X024332Y011439D01*
X024332Y011569D01*
X024282Y011690D01*
X024190Y011782D01*
X024069Y011832D01*
X023939Y011832D01*
X023818Y011782D01*
X023726Y011690D01*
X023676Y011569D01*
X023676Y011439D01*
X023706Y011366D01*
X023620Y011366D01*
X023620Y011838D01*
X024313Y011838D01*
X024313Y011749D01*
X024395Y011667D01*
X024944Y011667D01*
X024976Y011700D01*
X024978Y011697D01*
X025011Y011663D01*
X025053Y011639D01*
X025098Y011627D01*
X025320Y011627D01*
X025320Y011985D01*
X025357Y011985D01*
X025357Y011627D01*
X025579Y011627D01*
X025625Y011639D01*
X025666Y011663D01*
X025699Y011697D01*
X025723Y011738D01*
X025735Y011783D01*
X025735Y011985D01*
X025357Y011985D01*
X025357Y012022D01*
X025735Y012022D01*
X025735Y012224D01*
X025723Y012270D01*
X025699Y012311D01*
X025666Y012345D01*
X025625Y012368D01*
X025579Y012381D01*
X025357Y012381D01*
X025357Y012023D01*
X025320Y012023D01*
X025320Y012381D01*
X025098Y012381D01*
X025053Y012368D01*
X025011Y012345D01*
X024978Y012311D01*
X024976Y012308D01*
X024944Y012341D01*
X024395Y012341D01*
X024332Y012278D01*
X023491Y012278D01*
X023334Y012435D01*
X023334Y012580D01*
X023276Y012719D01*
X023169Y012826D01*
X023030Y012884D01*
X022878Y012884D01*
X022739Y012826D01*
X022632Y012719D01*
X022574Y012580D01*
X022574Y012428D01*
X022632Y012289D01*
X022697Y012224D01*
X021645Y012224D01*
X021434Y012435D01*
X021434Y012580D01*
X021376Y012719D01*
X021269Y012826D01*
X021224Y012845D01*
X021224Y013095D01*
X021095Y013224D01*
X020595Y013724D01*
X020413Y013724D01*
X019695Y013724D01*
X019695Y013759D01*
X019613Y013841D01*
X019064Y013841D01*
X019032Y013808D01*
X019030Y013811D01*
X018996Y013845D01*
X018955Y013868D01*
X018910Y013881D01*
X018688Y013881D01*
X018688Y013523D01*
X018651Y013523D01*
X018651Y013881D01*
X018429Y013881D01*
X018383Y013868D01*
X018342Y013845D01*
X018309Y013811D01*
X018285Y013770D01*
X018273Y013724D01*
X018273Y013522D01*
X018651Y013522D01*
X018651Y013485D01*
X018688Y013485D01*
X018688Y013127D01*
X018910Y013127D01*
X018955Y013139D01*
X018996Y013163D01*
X019030Y013197D01*
X019032Y013200D01*
X019064Y013167D01*
X019613Y013167D01*
X019695Y013249D01*
X019695Y013284D01*
X020413Y013284D01*
X020784Y012913D01*
X020784Y012771D01*
X020732Y012719D01*
X020674Y012580D01*
X020674Y012428D01*
X020732Y012289D01*
X020839Y012182D01*
X020978Y012124D01*
X021123Y012124D01*
X021463Y011784D01*
X021645Y011784D01*
X022323Y011784D01*
X022318Y011782D01*
X022226Y011690D01*
X022176Y011569D01*
X022176Y011439D01*
X022206Y011366D01*
X022001Y011366D01*
X021745Y011366D01*
X021489Y011366D01*
X021216Y011366D01*
X021134Y011284D01*
X021134Y010578D01*
X021216Y010496D01*
X021388Y010496D01*
X021388Y009949D01*
X021163Y009724D01*
X020761Y009724D01*
X020826Y009789D01*
X020884Y009928D01*
X020884Y010560D01*
X020826Y010699D01*
X020724Y010801D01*
X020724Y010878D01*
X020760Y010878D01*
X020898Y010935D01*
X021004Y011041D01*
X021061Y011179D01*
X021061Y011329D01*
X021004Y011467D01*
X020898Y011573D01*
X020760Y011630D01*
X020610Y011630D01*
X020472Y011573D01*
X020366Y011467D01*
X020309Y011329D01*
X020309Y011301D01*
X020284Y011276D01*
X020284Y011232D01*
X020266Y011192D01*
X020284Y011145D01*
X020284Y010801D01*
X020182Y010699D01*
X020124Y010560D01*
X020124Y009928D01*
X020182Y009789D01*
X020247Y009724D01*
X019761Y009724D01*
X019826Y009789D01*
X019884Y009928D01*
X019884Y010560D01*
X019826Y010699D01*
X019719Y010806D01*
X019580Y010864D01*
X019428Y010864D01*
X019289Y010806D01*
X019182Y010699D01*
X019124Y010560D01*
X019124Y009928D01*
X019182Y009789D01*
X019247Y009724D01*
X018761Y009724D01*
X018826Y009789D01*
X018884Y009928D01*
X018884Y010560D01*
X018826Y010699D01*
X018719Y010806D01*
X018580Y010864D01*
X018428Y010864D01*
X018289Y010806D01*
X018182Y010699D01*
X018124Y010560D01*
X018124Y009928D01*
X018182Y009789D01*
X018247Y009724D01*
X017790Y009724D01*
X017737Y009741D01*
X017702Y009724D01*
X017663Y009724D01*
X017624Y009685D01*
X017505Y009625D01*
X017503Y009627D01*
X017341Y009694D01*
X017166Y009694D01*
X017005Y009627D01*
X016881Y009503D01*
X016814Y009341D01*
X016814Y009166D01*
X016881Y009005D01*
X017005Y008881D01*
X017166Y008814D01*
X017341Y008814D01*
X017503Y008881D01*
X017627Y009005D01*
X017694Y009166D01*
X017694Y009228D01*
X017806Y009284D01*
X018189Y009284D01*
X017414Y008664D01*
X017341Y008694D01*
X017166Y008694D01*
X017005Y008627D01*
X016881Y008503D01*
X016814Y008341D01*
X016814Y008166D01*
X016881Y008005D01*
X017005Y007881D01*
X017166Y007814D01*
X017253Y007814D01*
X017163Y007724D01*
X017095Y007724D01*
X016724Y008095D01*
X016724Y010663D01*
X016973Y010912D01*
X017005Y010881D01*
X017166Y010814D01*
X017341Y010814D01*
X017503Y010881D01*
X017627Y011005D01*
X017694Y011166D01*
X017694Y011341D01*
X017627Y011503D01*
X017503Y011627D01*
X017341Y011694D01*
X017166Y011694D01*
X017005Y011627D01*
X016881Y011503D01*
X016838Y011399D01*
X016413Y010974D01*
X016284Y010845D01*
X016284Y008095D01*
X016284Y007913D01*
X016784Y007413D01*
X016913Y007284D01*
X017163Y007284D01*
X017223Y007284D01*
X016663Y006724D01*
X016534Y006595D01*
X016534Y004998D01*
X016476Y004940D01*
X016426Y004819D01*
X016426Y004689D01*
X016476Y004568D01*
X016534Y004510D01*
X016534Y004372D01*
X015937Y003974D01*
X011345Y003974D01*
X011163Y003974D01*
X010482Y003294D01*
X010411Y003294D01*
X010241Y003223D01*
X010110Y003092D01*
X010039Y002921D01*
X010039Y002087D01*
X010110Y001916D01*
X010241Y001785D01*
X010388Y001724D01*
X008619Y001724D01*
X008767Y001785D01*
X008898Y001916D01*
X008969Y002087D01*
X008969Y002921D01*
X008898Y003092D01*
X008767Y003223D01*
X008724Y003241D01*
X008724Y003323D01*
X008726Y003318D01*
X008818Y003226D01*
X008939Y003176D01*
X009069Y003176D01*
X009190Y003226D01*
X009282Y003318D01*
X009332Y003439D01*
X009332Y003569D01*
X009282Y003690D01*
X009224Y003748D01*
X009224Y008845D01*
X009095Y008974D01*
X007444Y010625D01*
X007444Y010686D01*
X007186Y010944D01*
X006822Y010944D01*
X006564Y010686D01*
X006564Y010322D01*
X006822Y010064D01*
X007186Y010064D01*
X007284Y010162D01*
X008784Y008663D01*
X008784Y003748D01*
X008726Y003690D01*
X008724Y003685D01*
X008724Y008345D01*
X008595Y008474D01*
X007444Y009625D01*
X007444Y009686D01*
X007186Y009944D01*
X006822Y009944D01*
X006564Y009686D01*
X006564Y009505D01*
X006444Y009625D01*
X006444Y009686D01*
X006186Y009944D01*
X005822Y009944D01*
X005724Y009846D01*
X005724Y010162D01*
X005822Y010064D01*
X006186Y010064D01*
X006444Y010322D01*
X006444Y010686D01*
X006346Y010784D01*
X006595Y010784D01*
X006724Y010913D01*
X006875Y011064D01*
X007186Y011064D01*
X007444Y011322D01*
X007444Y011686D01*
X007186Y011944D01*
X006822Y011944D01*
X006564Y011686D01*
X006564Y011375D01*
X006413Y011224D01*
X006346Y011224D01*
X006444Y011322D01*
X006444Y011686D01*
X006346Y011784D01*
X006595Y011784D01*
X006724Y011913D01*
X006875Y012064D01*
X007186Y012064D01*
X007444Y012322D01*
X007444Y012686D01*
X007186Y012944D01*
X006822Y012944D01*
X006564Y012686D01*
X006564Y012375D01*
X006413Y012224D01*
X006346Y012224D01*
X006444Y012322D01*
X006444Y012686D01*
X006186Y012944D01*
X005822Y012944D01*
X005602Y012724D01*
X004845Y012724D01*
X004663Y012724D01*
X003413Y011474D01*
X003284Y011345D01*
X003284Y010619D01*
X003223Y010767D01*
X003092Y010898D01*
X002921Y010969D01*
X002724Y010969D01*
X002724Y011039D01*
X002921Y011039D01*
X003092Y011110D01*
X003223Y011241D01*
X003294Y011411D01*
X003294Y011596D01*
X003223Y011767D01*
X003092Y011898D01*
X002921Y011969D01*
X002087Y011969D01*
X001916Y011898D01*
X001785Y011767D01*
X001714Y011596D01*
X001714Y011411D01*
X001785Y011241D01*
X001916Y011110D01*
X002087Y011039D01*
X002284Y011039D01*
X002284Y010969D01*
X002087Y010969D01*
X001916Y010898D01*
X001785Y010767D01*
X001714Y010596D01*
X001714Y010411D01*
X001785Y010241D01*
X001916Y010110D01*
X002087Y010039D01*
X002921Y010039D01*
X003092Y010110D01*
X003223Y010241D01*
X003284Y010388D01*
X003284Y009722D01*
X003260Y009769D01*
X003214Y009833D01*
X003158Y009889D01*
X003093Y009936D01*
X003023Y009972D01*
X002947Y009996D01*
X002868Y010009D01*
X002532Y010009D01*
X002532Y009532D01*
X002476Y009532D01*
X002476Y010009D01*
X002139Y010009D01*
X002061Y009996D01*
X001985Y009972D01*
X001915Y009936D01*
X001850Y009889D01*
X001794Y009833D01*
X001747Y009769D01*
X001711Y009698D01*
X001687Y009622D01*
X001674Y009544D01*
X001674Y009532D01*
X002475Y009532D01*
X002475Y009476D01*
X001674Y009476D01*
X001674Y009464D01*
X001687Y009386D01*
X001711Y009310D01*
X001747Y009239D01*
X001794Y009175D01*
X001850Y009119D01*
X001915Y009072D01*
X001985Y009036D01*
X002061Y009012D01*
X002109Y009004D01*
X002061Y008996D01*
X001985Y008972D01*
X001915Y008936D01*
X001850Y008889D01*
X001794Y008833D01*
X001747Y008769D01*
X001711Y008698D01*
X001687Y008622D01*
X001674Y008544D01*
X001674Y008532D01*
X002475Y008532D01*
X002475Y008476D01*
X001674Y008476D01*
X001674Y008464D01*
X001687Y008386D01*
X001711Y008310D01*
X001747Y008239D01*
X001794Y008175D01*
X001850Y008119D01*
X001915Y008072D01*
X001985Y008036D01*
X002061Y008012D01*
X002139Y007999D01*
X002476Y007999D01*
X002476Y008475D01*
X002532Y008475D01*
X002532Y007999D01*
X002868Y007999D01*
X002947Y008012D01*
X003023Y008036D01*
X003093Y008072D01*
X003158Y008119D01*
X003214Y008175D01*
X003260Y008239D01*
X003284Y008285D01*
X003284Y007619D01*
X003223Y007767D01*
X003092Y007898D01*
X002921Y007969D01*
X002087Y007969D01*
X001916Y007898D01*
X001785Y007767D01*
X001714Y007596D01*
X001714Y007411D01*
X001785Y007241D01*
X001916Y007110D01*
X002087Y007039D01*
X002284Y007039D01*
X002284Y006969D01*
X002087Y006969D01*
X001916Y006898D01*
X001785Y006767D01*
X001714Y006596D01*
X001714Y006411D01*
X001785Y006241D01*
X001916Y006110D01*
X002087Y006039D01*
X002921Y006039D01*
X003092Y006110D01*
X003223Y006241D01*
X003284Y006388D01*
X003284Y005845D01*
X001413Y003974D01*
X001284Y003845D01*
X001284Y003241D01*
X001241Y003223D01*
X001110Y003092D01*
X001039Y002921D01*
X001039Y002087D01*
X001110Y001916D01*
X001241Y001785D01*
X001411Y001714D01*
X001596Y001714D01*
X001767Y001785D01*
X001898Y001916D01*
X001969Y002087D01*
X001969Y002921D01*
X001898Y003092D01*
X001767Y003223D01*
X001724Y003241D01*
X001724Y003663D01*
X003724Y005663D01*
X003724Y005845D01*
X003724Y011163D01*
X003784Y011223D01*
X003784Y005595D01*
X002413Y004224D01*
X002284Y004095D01*
X002284Y003241D01*
X002241Y003223D01*
X002110Y003092D01*
X002039Y002921D01*
X002039Y002087D01*
X002110Y001916D01*
X002241Y001785D01*
X002411Y001714D01*
X002596Y001714D01*
X002767Y001785D01*
X002898Y001916D01*
X002969Y002087D01*
X002969Y002921D01*
X002898Y003092D01*
X002767Y003223D01*
X002724Y003241D01*
X002724Y003913D01*
X004224Y005413D01*
X004224Y005595D01*
X004224Y011163D01*
X004284Y011223D01*
X004284Y005095D01*
X003413Y004224D01*
X003284Y004095D01*
X003284Y003241D01*
X003241Y003223D01*
X003110Y003092D01*
X003039Y002921D01*
X003039Y002087D01*
X003110Y001916D01*
X003241Y001785D01*
X003411Y001714D01*
X003596Y001714D01*
X003767Y001785D01*
X003898Y001916D01*
X003969Y002087D01*
X003969Y002921D01*
X003898Y003092D01*
X003767Y003223D01*
X003724Y003241D01*
X003724Y003913D01*
X004724Y004913D01*
X004724Y005095D01*
X004724Y011163D01*
X004845Y011284D01*
X005602Y011284D01*
X005662Y011224D01*
X005345Y011224D01*
X005163Y011224D01*
X004913Y010974D01*
X004784Y010845D01*
X004784Y004345D01*
X004413Y003974D01*
X004284Y003845D01*
X004284Y003241D01*
X004241Y003223D01*
X004110Y003092D01*
X004039Y002921D01*
X004039Y002087D01*
X004110Y001916D01*
X004241Y001785D01*
X004284Y001767D01*
X004284Y001663D01*
X004534Y001413D01*
X004663Y001284D01*
X017913Y001284D01*
X018095Y001284D01*
X018004Y001504D02*
X018504Y002004D01*
X018504Y002919D01*
X018419Y002754D01*
X018724Y002406D02*
X018825Y002406D01*
X018724Y002248D02*
X028044Y002248D01*
X028024Y002199D02*
X028024Y001809D01*
X028173Y001449D01*
X028449Y001173D01*
X028809Y001024D01*
X029199Y001024D01*
X029559Y001173D01*
X029835Y001449D01*
X029984Y001809D01*
X029984Y002199D01*
X029835Y002559D01*
X029559Y002835D01*
X029199Y002984D01*
X028809Y002984D01*
X028449Y002835D01*
X028173Y002559D01*
X028024Y002199D01*
X028024Y002089D02*
X018724Y002089D01*
X018724Y001931D02*
X028024Y001931D01*
X028039Y001772D02*
X024735Y001772D01*
X024894Y001614D02*
X028105Y001614D01*
X028170Y001455D02*
X025034Y001455D01*
X025034Y001297D02*
X028325Y001297D01*
X028533Y001138D02*
X025034Y001138D01*
X024979Y000980D02*
X030144Y000980D01*
X030144Y001138D02*
X029475Y001138D01*
X029683Y001297D02*
X030144Y001297D01*
X030144Y001455D02*
X029837Y001455D01*
X029903Y001614D02*
X030144Y001614D01*
X030144Y001772D02*
X029969Y001772D01*
X029984Y001931D02*
X030144Y001931D01*
X030144Y002089D02*
X029984Y002089D01*
X029964Y002248D02*
X030144Y002248D01*
X030144Y002406D02*
X029898Y002406D01*
X029829Y002565D02*
X030144Y002565D01*
X030144Y002724D02*
X029670Y002724D01*
X029445Y002882D02*
X030144Y002882D01*
X030144Y003041D02*
X027260Y003041D01*
X027284Y003099D02*
X027165Y002812D01*
X026946Y002593D01*
X026659Y002474D01*
X026349Y002474D01*
X026062Y002593D01*
X025843Y002812D01*
X025724Y003099D01*
X025724Y003409D01*
X025843Y003696D01*
X026062Y003915D01*
X026349Y004034D01*
X026659Y004034D01*
X026946Y003915D01*
X027165Y003696D01*
X027284Y003409D01*
X027284Y003099D01*
X027284Y003199D02*
X030144Y003199D01*
X030144Y003358D02*
X027284Y003358D01*
X027240Y003516D02*
X030144Y003516D01*
X030144Y003675D02*
X027174Y003675D01*
X027028Y003833D02*
X030144Y003833D01*
X030144Y003992D02*
X026761Y003992D01*
X026247Y003992D02*
X020761Y003992D01*
X021028Y003833D02*
X025980Y003833D01*
X025834Y003675D02*
X021174Y003675D01*
X021240Y003516D02*
X025768Y003516D01*
X025724Y003358D02*
X021284Y003358D01*
X021284Y003199D02*
X025724Y003199D01*
X025748Y003041D02*
X021260Y003041D01*
X021194Y002882D02*
X025814Y002882D01*
X025931Y002724D02*
X021077Y002724D01*
X020879Y002565D02*
X026129Y002565D01*
X026879Y002565D02*
X028179Y002565D01*
X028110Y002406D02*
X019352Y002406D01*
X019425Y002565D02*
X020129Y002565D01*
X019931Y002724D02*
X019425Y002724D01*
X019467Y002882D02*
X019814Y002882D01*
X019748Y003041D02*
X019590Y003041D01*
X019713Y003199D02*
X019724Y003199D01*
X019525Y003675D02*
X019425Y003675D01*
X019425Y003833D02*
X019649Y003833D01*
X019772Y003992D02*
X019425Y003992D01*
X019309Y004150D02*
X019895Y004150D01*
X020018Y004309D02*
X019309Y004309D01*
X019414Y004468D02*
X020156Y004468D01*
X020254Y004254D02*
X021504Y004254D01*
X021504Y006254D01*
X021894Y005894D02*
X022992Y005894D01*
X022941Y005736D02*
X021735Y005736D01*
X021724Y005577D02*
X022934Y005577D01*
X022934Y005419D02*
X021724Y005419D01*
X021724Y005260D02*
X023454Y005260D01*
X023504Y005254D02*
X023504Y004254D01*
X027504Y004254D01*
X028254Y003504D01*
X029754Y003504D01*
X030004Y003754D01*
X030004Y005504D01*
X029004Y005504D01*
X028254Y005504D01*
X028254Y007004D01*
X026504Y008504D01*
X028004Y010004D01*
X028004Y011504D01*
X029254Y011504D01*
X030004Y012254D01*
X030004Y015504D01*
X029504Y016004D01*
X029004Y016004D01*
X029004Y016004D01*
X029004Y016424D01*
X029277Y016424D01*
X029342Y016414D01*
X029405Y016393D01*
X029464Y016363D01*
X029518Y016324D01*
X029564Y016278D01*
X029603Y016224D01*
X029633Y016165D01*
X029654Y016102D01*
X029664Y016037D01*
X029664Y016004D01*
X029004Y016004D01*
X029004Y016004D01*
X029004Y016424D01*
X028731Y016424D01*
X028666Y016414D01*
X028603Y016393D01*
X028544Y016363D01*
X028490Y016324D01*
X028444Y016278D01*
X028405Y016224D01*
X028375Y016165D01*
X028354Y016102D01*
X028344Y016037D01*
X028344Y016004D01*
X029004Y016004D01*
X029664Y016004D01*
X029664Y015971D01*
X029654Y015906D01*
X029633Y015843D01*
X029603Y015784D01*
X029564Y015730D01*
X029518Y015684D01*
X029464Y015645D01*
X029405Y015615D01*
X029342Y015594D01*
X029277Y015584D01*
X029004Y015584D01*
X029004Y016004D01*
X029004Y016004D01*
X029004Y016004D01*
X029004Y015584D01*
X028731Y015584D01*
X028666Y015594D01*
X028603Y015615D01*
X028544Y015645D01*
X028490Y015684D01*
X028444Y015730D01*
X028405Y015784D01*
X028375Y015843D01*
X028354Y015906D01*
X028344Y015971D01*
X028344Y016004D01*
X029004Y016004D01*
X029004Y016041D02*
X029004Y016041D01*
X029004Y015883D02*
X029004Y015883D01*
X029004Y015724D02*
X029004Y015724D01*
X029320Y015384D02*
X028688Y015384D01*
X028549Y015326D01*
X028446Y015224D01*
X027035Y015224D01*
X028521Y016710D01*
X028549Y016682D01*
X028688Y016624D01*
X029320Y016624D01*
X029459Y016682D01*
X029566Y016789D01*
X029624Y016928D01*
X029624Y017080D01*
X029566Y017219D01*
X029459Y017326D01*
X029320Y017384D01*
X028688Y017384D01*
X028549Y017326D01*
X028447Y017224D01*
X028413Y017224D01*
X028284Y017095D01*
X027034Y015845D01*
X027034Y015973D01*
X026723Y016284D01*
X026284Y016284D01*
X025974Y015973D01*
X025974Y015534D01*
X026284Y015224D01*
X026413Y015224D01*
X026034Y014845D01*
X026034Y014973D01*
X025723Y015284D01*
X025284Y015284D01*
X024974Y014973D01*
X024974Y014534D01*
X025148Y014360D01*
X025084Y014360D01*
X025004Y014281D01*
X024924Y014360D01*
X024414Y014360D01*
X024368Y014314D01*
X024048Y014402D01*
X024032Y014440D01*
X023940Y014532D01*
X023819Y014582D01*
X023689Y014582D01*
X023568Y014532D01*
X023476Y014440D01*
X023426Y014319D01*
X023426Y014189D01*
X023476Y014068D01*
X023568Y013976D01*
X023689Y013926D01*
X023819Y013926D01*
X023939Y013975D01*
X024332Y013868D01*
X024332Y013729D01*
X024414Y013647D01*
X024924Y013647D01*
X025004Y013727D01*
X025084Y013647D01*
X025586Y013647D01*
X025299Y013360D01*
X025084Y013360D01*
X025004Y013281D01*
X024924Y013360D01*
X024624Y013360D01*
X024260Y013724D01*
X024248Y013724D01*
X024190Y013782D01*
X024069Y013832D01*
X023939Y013832D01*
X023818Y013782D01*
X023726Y013690D01*
X023676Y013569D01*
X023676Y013439D01*
X023726Y013318D01*
X023818Y013226D01*
X023939Y013176D01*
X024069Y013176D01*
X024152Y013210D01*
X024332Y013030D01*
X024332Y012729D01*
X024414Y012647D01*
X024924Y012647D01*
X025004Y012727D01*
X025084Y012647D01*
X025593Y012647D01*
X025675Y012729D01*
X025675Y013114D01*
X026345Y013784D01*
X026459Y013898D01*
X026504Y013791D01*
X026610Y013685D01*
X026748Y013628D01*
X026898Y013628D01*
X027036Y013685D01*
X027142Y013791D01*
X027199Y013929D01*
X027199Y014079D01*
X027142Y014217D01*
X027036Y014323D01*
X026898Y014380D01*
X026748Y014380D01*
X026651Y014340D01*
X027095Y014784D01*
X028446Y014784D01*
X028549Y014682D01*
X028688Y014624D01*
X029320Y014624D01*
X029459Y014682D01*
X029566Y014789D01*
X029624Y014928D01*
X029624Y015080D01*
X029566Y015219D01*
X029459Y015326D01*
X029320Y015384D01*
X029537Y015248D02*
X030144Y015248D01*
X030144Y015090D02*
X029620Y015090D01*
X029624Y014931D02*
X030144Y014931D01*
X030144Y014773D02*
X029550Y014773D01*
X029398Y014323D02*
X029260Y014380D01*
X029110Y014380D01*
X028972Y014323D01*
X028866Y014217D01*
X028809Y014079D01*
X028809Y013929D01*
X028866Y013791D01*
X028972Y013685D01*
X029110Y013628D01*
X029260Y013628D01*
X029398Y013685D01*
X029504Y013791D01*
X029561Y013929D01*
X029561Y014079D01*
X029504Y014217D01*
X029398Y014323D01*
X029424Y014297D02*
X030144Y014297D01*
X030144Y014139D02*
X029536Y014139D01*
X029561Y013980D02*
X030144Y013980D01*
X030144Y013822D02*
X029517Y013822D01*
X029345Y013663D02*
X030144Y013663D01*
X030144Y013504D02*
X028864Y013504D01*
X028864Y013531D02*
X028744Y013821D01*
X028521Y014044D01*
X028231Y014164D01*
X027917Y014164D01*
X027626Y014044D01*
X027404Y013821D01*
X027284Y013531D01*
X027284Y013217D01*
X027404Y012926D01*
X027626Y012704D01*
X027917Y012584D01*
X028231Y012584D01*
X028521Y012704D01*
X028744Y012926D01*
X028864Y013217D01*
X028864Y013531D01*
X028809Y013663D02*
X029025Y013663D01*
X028853Y013822D02*
X028743Y013822D01*
X028809Y013980D02*
X028585Y013980D01*
X028834Y014139D02*
X028292Y014139D01*
X027856Y014139D02*
X027174Y014139D01*
X027199Y013980D02*
X027563Y013980D01*
X027404Y013822D02*
X027154Y013822D01*
X026983Y013663D02*
X027339Y013663D01*
X027284Y013504D02*
X026066Y013504D01*
X025907Y013346D02*
X027284Y013346D01*
X027296Y013187D02*
X025749Y013187D01*
X025675Y013029D02*
X027362Y013029D01*
X027460Y012870D02*
X025675Y012870D01*
X025658Y012712D02*
X027619Y012712D01*
X028529Y012712D02*
X030144Y012712D01*
X030144Y012870D02*
X028688Y012870D01*
X028786Y013029D02*
X030144Y013029D01*
X030144Y013187D02*
X028852Y013187D01*
X028864Y013346D02*
X030144Y013346D01*
X030144Y012553D02*
X023334Y012553D01*
X023374Y012395D02*
X030144Y012395D01*
X030144Y012236D02*
X025732Y012236D01*
X025735Y012078D02*
X030144Y012078D01*
X030144Y011919D02*
X027158Y011919D01*
X027177Y011913D02*
X027109Y011935D01*
X027039Y011946D01*
X027014Y011946D01*
X027014Y011506D01*
X027454Y011506D01*
X027454Y011531D01*
X027443Y011601D01*
X027421Y011669D01*
X027389Y011732D01*
X027347Y011789D01*
X027297Y011839D01*
X027240Y011881D01*
X027177Y011913D01*
X027014Y011919D02*
X026994Y011919D01*
X026994Y011946D02*
X026969Y011946D01*
X026899Y011935D01*
X026831Y011913D01*
X026768Y011881D01*
X026711Y011839D01*
X026661Y011789D01*
X026619Y011732D01*
X026592Y011679D01*
X026571Y011728D01*
X026456Y011844D01*
X026305Y011906D01*
X026142Y011906D01*
X025992Y011844D01*
X025876Y011728D01*
X025814Y011578D01*
X025814Y011414D01*
X025876Y011264D01*
X025992Y011148D01*
X026142Y011086D01*
X026305Y011086D01*
X026456Y011148D01*
X026571Y011264D01*
X026592Y011313D01*
X026619Y011260D01*
X026661Y011203D01*
X026711Y011153D01*
X026768Y011111D01*
X026831Y011079D01*
X026899Y011057D01*
X026969Y011046D01*
X026994Y011046D01*
X026994Y011486D01*
X027014Y011486D01*
X027014Y011506D01*
X026994Y011506D01*
X026994Y011946D01*
X026850Y011919D02*
X025735Y011919D01*
X025729Y011761D02*
X025909Y011761D01*
X025824Y011602D02*
X024318Y011602D01*
X024313Y011761D02*
X024211Y011761D01*
X024004Y011504D02*
X024004Y011004D01*
X024669Y011004D01*
X024339Y011285D02*
X024249Y011285D01*
X024332Y011443D02*
X025814Y011443D01*
X025868Y011285D02*
X025714Y011285D01*
X025735Y011126D02*
X026045Y011126D01*
X025735Y010968D02*
X030144Y010968D01*
X030144Y011126D02*
X027261Y011126D01*
X027240Y011111D02*
X027297Y011153D01*
X027347Y011203D01*
X027389Y011260D01*
X027421Y011323D01*
X027443Y011391D01*
X027454Y011461D01*
X027454Y011486D01*
X027014Y011486D01*
X027014Y011046D01*
X027039Y011046D01*
X027109Y011057D01*
X027177Y011079D01*
X027240Y011111D01*
X027014Y011126D02*
X026994Y011126D01*
X026994Y011285D02*
X027014Y011285D01*
X027014Y011443D02*
X026994Y011443D01*
X027004Y011496D02*
X027004Y011754D01*
X026754Y012004D01*
X025339Y012004D01*
X025339Y011004D01*
X025320Y010968D02*
X025357Y010968D01*
X025357Y011126D02*
X025320Y011126D01*
X025320Y011285D02*
X025357Y011285D01*
X025357Y011761D02*
X025320Y011761D01*
X025320Y011919D02*
X025357Y011919D01*
X025357Y012078D02*
X025320Y012078D01*
X025320Y012236D02*
X025357Y012236D01*
X025019Y012712D02*
X024988Y012712D01*
X024669Y013004D02*
X024169Y013504D01*
X024004Y013504D01*
X023676Y013504D02*
X020814Y013504D01*
X020973Y013346D02*
X023714Y013346D01*
X023911Y013187D02*
X021132Y013187D01*
X021224Y013029D02*
X024332Y013029D01*
X024332Y012870D02*
X023062Y012870D01*
X022846Y012870D02*
X021224Y012870D01*
X021379Y012712D02*
X022629Y012712D01*
X022574Y012553D02*
X021434Y012553D01*
X021474Y012395D02*
X022588Y012395D01*
X022684Y012236D02*
X021633Y012236D01*
X021554Y012004D02*
X021054Y012504D01*
X021004Y012554D01*
X021004Y013004D01*
X020504Y013504D01*
X019339Y013504D01*
X019633Y013187D02*
X020509Y013187D01*
X020668Y013029D02*
X016840Y013029D01*
X016999Y013187D02*
X018318Y013187D01*
X018309Y013197D02*
X018342Y013163D01*
X018383Y013139D01*
X018429Y013127D01*
X018651Y013127D01*
X018651Y013485D01*
X018273Y013485D01*
X018273Y013283D01*
X018285Y013238D01*
X018309Y013197D01*
X018273Y013346D02*
X017157Y013346D01*
X017316Y013504D02*
X018651Y013504D01*
X018669Y013504D02*
X019004Y013169D01*
X019004Y013004D01*
X019021Y013187D02*
X019044Y013187D01*
X018688Y013187D02*
X018651Y013187D01*
X018651Y013346D02*
X018688Y013346D01*
X018669Y013504D02*
X018254Y013504D01*
X018129Y013629D01*
X016254Y011754D01*
X014754Y011754D01*
X014254Y011254D01*
X014254Y010504D01*
X016004Y008754D01*
X016004Y007504D01*
X015004Y006504D01*
X014504Y006504D01*
X014524Y006524D02*
X014984Y006524D01*
X014984Y006703D01*
X014703Y006984D01*
X014524Y006984D01*
X014524Y006524D01*
X014524Y006484D01*
X014984Y006484D01*
X014984Y006305D01*
X014703Y006024D01*
X014524Y006024D01*
X014524Y006484D01*
X014484Y006484D01*
X014484Y006024D01*
X014305Y006024D01*
X014024Y006305D01*
X014024Y006484D01*
X014484Y006484D01*
X014484Y006524D01*
X014484Y006984D01*
X014305Y006984D01*
X014024Y006703D01*
X014024Y006524D01*
X014484Y006524D01*
X014524Y006524D01*
X014524Y006529D02*
X014484Y006529D01*
X014484Y006687D02*
X014524Y006687D01*
X014524Y006846D02*
X014484Y006846D01*
X014322Y007064D02*
X014686Y007064D01*
X014944Y007322D01*
X014944Y007686D01*
X014686Y007944D01*
X014322Y007944D01*
X014064Y007686D01*
X014064Y007322D01*
X014322Y007064D01*
X014223Y007163D02*
X013785Y007163D01*
X013686Y007064D02*
X013322Y007064D01*
X013064Y007322D01*
X013064Y007686D01*
X013322Y007944D01*
X013686Y007944D01*
X013944Y007686D01*
X013944Y007322D01*
X013686Y007064D01*
X013686Y006944D02*
X013322Y006944D01*
X013064Y006686D01*
X013064Y006322D01*
X013322Y006064D01*
X013686Y006064D01*
X013944Y006322D01*
X013944Y006686D01*
X013686Y006944D01*
X013784Y006846D02*
X014167Y006846D01*
X014024Y006687D02*
X013943Y006687D01*
X013944Y006529D02*
X014024Y006529D01*
X014024Y006370D02*
X013944Y006370D01*
X013834Y006211D02*
X014118Y006211D01*
X014276Y006053D02*
X009224Y006053D01*
X009224Y006211D02*
X010174Y006211D01*
X010064Y006322D02*
X010322Y006064D01*
X010686Y006064D01*
X010944Y006322D01*
X010944Y006686D01*
X010686Y006944D01*
X010322Y006944D01*
X010064Y006686D01*
X010064Y006322D01*
X010064Y006370D02*
X009224Y006370D01*
X009224Y006529D02*
X010064Y006529D01*
X010065Y006687D02*
X009224Y006687D01*
X009224Y006846D02*
X010223Y006846D01*
X010322Y007064D02*
X010686Y007064D01*
X010944Y007322D01*
X010944Y007686D01*
X010686Y007944D01*
X010322Y007944D01*
X010064Y007686D01*
X010064Y007322D01*
X010322Y007064D01*
X010223Y007163D02*
X009224Y007163D01*
X009224Y007321D02*
X010064Y007321D01*
X010064Y007480D02*
X009224Y007480D01*
X009224Y007638D02*
X010064Y007638D01*
X010175Y007797D02*
X009224Y007797D01*
X009224Y007955D02*
X016284Y007955D01*
X016284Y008114D02*
X009224Y008114D01*
X009224Y008273D02*
X016284Y008273D01*
X016284Y008431D02*
X009224Y008431D01*
X009224Y008590D02*
X016284Y008590D01*
X016284Y008748D02*
X009224Y008748D01*
X009162Y008907D02*
X016284Y008907D01*
X016284Y009065D02*
X009004Y009065D01*
X008845Y009224D02*
X016284Y009224D01*
X016284Y009382D02*
X008687Y009382D01*
X008528Y009541D02*
X016284Y009541D01*
X016284Y009699D02*
X008369Y009699D01*
X008211Y009858D02*
X016284Y009858D01*
X016284Y010017D02*
X008052Y010017D01*
X007894Y010175D02*
X016284Y010175D01*
X016284Y010334D02*
X007735Y010334D01*
X007577Y010492D02*
X016284Y010492D01*
X016284Y010651D02*
X007444Y010651D01*
X007321Y010809D02*
X009770Y010809D01*
X009805Y010774D02*
X009524Y011055D01*
X009524Y011234D01*
X009984Y011234D01*
X009984Y011274D01*
X009984Y011734D01*
X009805Y011734D01*
X009524Y011453D01*
X009524Y011274D01*
X009984Y011274D01*
X010024Y011274D01*
X010024Y011734D01*
X010203Y011734D01*
X010484Y011453D01*
X010484Y011274D01*
X010024Y011274D01*
X010024Y011234D01*
X010484Y011234D01*
X010484Y011055D01*
X010203Y010774D01*
X010024Y010774D01*
X010024Y011234D01*
X009984Y011234D01*
X009984Y010774D01*
X009805Y010774D01*
X009984Y010809D02*
X010024Y010809D01*
X010024Y010968D02*
X009984Y010968D01*
X009984Y011126D02*
X010024Y011126D01*
X010004Y011254D02*
X010504Y011754D01*
X013754Y011754D01*
X014254Y011254D01*
X014274Y011274D02*
X014234Y011274D01*
X014234Y011734D01*
X014055Y011734D01*
X013774Y011453D01*
X013774Y011274D01*
X014234Y011274D01*
X014234Y011234D01*
X013774Y011234D01*
X013774Y011055D01*
X014055Y010774D01*
X014234Y010774D01*
X014234Y011234D01*
X014274Y011234D01*
X014274Y011274D01*
X014274Y011734D01*
X014453Y011734D01*
X014734Y011453D01*
X014734Y011274D01*
X014274Y011274D01*
X014274Y011285D02*
X014234Y011285D01*
X014274Y011234D02*
X014734Y011234D01*
X014734Y011055D01*
X014453Y010774D01*
X014274Y010774D01*
X014274Y011234D01*
X014274Y011126D02*
X014234Y011126D01*
X014234Y010968D02*
X014274Y010968D01*
X014274Y010809D02*
X014234Y010809D01*
X014020Y010809D02*
X010238Y010809D01*
X010397Y010968D02*
X010668Y010968D01*
X010564Y011072D02*
X010822Y010814D01*
X011186Y010814D01*
X011444Y011072D01*
X011444Y011436D01*
X011186Y011694D01*
X010822Y011694D01*
X010564Y011436D01*
X010564Y011072D01*
X010564Y011126D02*
X010484Y011126D01*
X010484Y011285D02*
X010564Y011285D01*
X010571Y011443D02*
X010484Y011443D01*
X010335Y011602D02*
X010730Y011602D01*
X010822Y011814D02*
X011186Y011814D01*
X011406Y012034D01*
X011595Y012034D01*
X011724Y012163D01*
X012724Y013163D01*
X012724Y013345D01*
X012724Y016345D01*
X012595Y016474D01*
X011345Y017724D01*
X011163Y017724D01*
X010619Y017724D01*
X010767Y017785D01*
X010898Y017916D01*
X010969Y018087D01*
X010969Y018921D01*
X010898Y019092D01*
X010767Y019223D01*
X010596Y019294D01*
X010411Y019294D01*
X010241Y019223D01*
X010110Y019092D01*
X010039Y018921D01*
X010039Y018087D01*
X010110Y017916D01*
X010241Y017785D01*
X010388Y017724D01*
X010095Y017724D01*
X009095Y018724D01*
X008969Y018724D01*
X008969Y018921D01*
X008898Y019092D01*
X008767Y019223D01*
X008596Y019294D01*
X008411Y019294D01*
X008241Y019223D01*
X008110Y019092D01*
X008039Y018921D01*
X008039Y018087D01*
X008079Y017990D01*
X007969Y018100D01*
X007969Y018921D01*
X007898Y019092D01*
X007767Y019223D01*
X007596Y019294D01*
X007411Y019294D01*
X007241Y019223D01*
X007110Y019092D01*
X007039Y018921D01*
X007039Y018087D01*
X007079Y017990D01*
X006969Y018100D01*
X006969Y018921D01*
X006898Y019092D01*
X006767Y019223D01*
X006596Y019294D01*
X006411Y019294D01*
X006241Y019223D01*
X006110Y019092D01*
X006039Y018921D01*
X006039Y018087D01*
X006079Y017990D01*
X005969Y018100D01*
X005969Y018921D01*
X005898Y019092D01*
X005767Y019223D01*
X005596Y019294D01*
X005411Y019294D01*
X005241Y019223D01*
X005110Y019092D01*
X005039Y018921D01*
X005039Y018087D01*
X005110Y017916D01*
X005241Y017785D01*
X005411Y017714D01*
X005596Y017714D01*
X005693Y017754D01*
X006284Y017163D01*
X006413Y017034D01*
X007413Y017034D01*
X008784Y015663D01*
X008784Y014095D01*
X008784Y013913D01*
X009534Y013163D01*
X009564Y013133D01*
X009564Y013072D01*
X009822Y012814D01*
X010186Y012814D01*
X010444Y013072D01*
X010444Y013436D01*
X010186Y013694D01*
X009822Y013694D01*
X009723Y013596D01*
X009224Y014095D01*
X009224Y015845D01*
X009095Y015974D01*
X008785Y016284D01*
X010663Y016284D01*
X011284Y015663D01*
X011284Y015596D01*
X011186Y015694D01*
X010822Y015694D01*
X010564Y015436D01*
X010564Y015072D01*
X010822Y014814D01*
X011186Y014814D01*
X011284Y014912D01*
X011284Y014596D01*
X011186Y014694D01*
X010822Y014694D01*
X010564Y014436D01*
X010564Y014072D01*
X010822Y013814D01*
X011186Y013814D01*
X011284Y013912D01*
X011284Y013596D01*
X011186Y013694D01*
X010822Y013694D01*
X010564Y013436D01*
X010564Y013072D01*
X010662Y012974D01*
X010413Y012974D01*
X010284Y012845D01*
X010133Y012694D01*
X009822Y012694D01*
X009564Y012436D01*
X009564Y012072D01*
X009822Y011814D01*
X010186Y011814D01*
X010444Y012072D01*
X010444Y012383D01*
X010595Y012534D01*
X010662Y012534D01*
X010564Y012436D01*
X010564Y012072D01*
X010822Y011814D01*
X010717Y011919D02*
X010291Y011919D01*
X010444Y012078D02*
X010564Y012078D01*
X010564Y012236D02*
X010444Y012236D01*
X010456Y012395D02*
X010564Y012395D01*
X010504Y012754D02*
X010004Y012254D01*
X009717Y011919D02*
X007211Y011919D01*
X007200Y012078D02*
X009564Y012078D01*
X009564Y012236D02*
X007358Y012236D01*
X007444Y012395D02*
X009564Y012395D01*
X009681Y012553D02*
X007444Y012553D01*
X007418Y012712D02*
X010151Y012712D01*
X010243Y012870D02*
X010309Y012870D01*
X010284Y012845D02*
X010284Y012845D01*
X010401Y013029D02*
X010607Y013029D01*
X010564Y013187D02*
X010444Y013187D01*
X010444Y013346D02*
X010564Y013346D01*
X010632Y013504D02*
X010376Y013504D01*
X010217Y013663D02*
X010791Y013663D01*
X010814Y013822D02*
X010194Y013822D01*
X010186Y013814D02*
X010444Y014072D01*
X010444Y014436D01*
X010186Y014694D01*
X009822Y014694D01*
X009564Y014436D01*
X009564Y014072D01*
X009822Y013814D01*
X010186Y013814D01*
X010352Y013980D02*
X010656Y013980D01*
X010564Y014139D02*
X010444Y014139D01*
X010444Y014297D02*
X010564Y014297D01*
X010584Y014456D02*
X010424Y014456D01*
X010266Y014614D02*
X010742Y014614D01*
X010704Y014931D02*
X010304Y014931D01*
X010186Y014814D02*
X010444Y015072D01*
X010444Y015436D01*
X010186Y015694D01*
X009822Y015694D01*
X009564Y015436D01*
X009564Y015072D01*
X009822Y014814D01*
X010186Y014814D01*
X009742Y014614D02*
X009224Y014614D01*
X009224Y014456D02*
X009584Y014456D01*
X009564Y014297D02*
X009224Y014297D01*
X009224Y014139D02*
X009564Y014139D01*
X009656Y013980D02*
X009339Y013980D01*
X009497Y013822D02*
X009814Y013822D01*
X009791Y013663D02*
X009656Y013663D01*
X009754Y013254D02*
X009004Y014004D01*
X009004Y015754D01*
X007504Y017254D01*
X006504Y017254D01*
X005504Y018254D01*
X005504Y018504D01*
X005969Y018578D02*
X006039Y018578D01*
X006039Y018736D02*
X005969Y018736D01*
X005969Y018895D02*
X006039Y018895D01*
X006094Y019054D02*
X005914Y019054D01*
X005778Y019212D02*
X006230Y019212D01*
X006778Y019212D02*
X007230Y019212D01*
X007094Y019054D02*
X006914Y019054D01*
X006969Y018895D02*
X007039Y018895D01*
X007039Y018736D02*
X006969Y018736D01*
X006969Y018578D02*
X007039Y018578D01*
X007039Y018419D02*
X006969Y018419D01*
X006969Y018261D02*
X007039Y018261D01*
X007039Y018102D02*
X006969Y018102D01*
X006504Y018254D02*
X007129Y017629D01*
X007629Y017629D01*
X008754Y016504D01*
X010754Y016504D01*
X011504Y015754D01*
X011504Y013504D01*
X011254Y013254D01*
X011004Y013254D01*
X011217Y013663D02*
X011284Y013663D01*
X011284Y013822D02*
X011194Y013822D01*
X011266Y014614D02*
X011284Y014614D01*
X011284Y014773D02*
X009224Y014773D01*
X009224Y014931D02*
X009704Y014931D01*
X009564Y015090D02*
X009224Y015090D01*
X009224Y015248D02*
X009564Y015248D01*
X009564Y015407D02*
X009224Y015407D01*
X009224Y015566D02*
X009693Y015566D01*
X009224Y015724D02*
X011223Y015724D01*
X011064Y015883D02*
X009186Y015883D01*
X009028Y016041D02*
X010906Y016041D01*
X010747Y016200D02*
X008869Y016200D01*
X008564Y015883D02*
X007484Y015883D01*
X007484Y015809D02*
X007335Y015449D01*
X007059Y015173D01*
X006699Y015024D01*
X006309Y015024D01*
X005949Y015173D01*
X005673Y015449D01*
X005524Y015809D01*
X005524Y016199D01*
X005673Y016559D01*
X005949Y016835D01*
X006309Y016984D01*
X006699Y016984D01*
X007059Y016835D01*
X007335Y016559D01*
X007484Y016199D01*
X007484Y015809D01*
X007449Y015724D02*
X008723Y015724D01*
X008784Y015566D02*
X007383Y015566D01*
X007293Y015407D02*
X008784Y015407D01*
X008784Y015248D02*
X007134Y015248D01*
X006858Y015090D02*
X008784Y015090D01*
X008784Y014931D02*
X004935Y014931D01*
X004907Y014865D02*
X004974Y015026D01*
X004974Y015201D01*
X004907Y015363D01*
X004783Y015487D01*
X004621Y015554D01*
X004446Y015554D01*
X004285Y015487D01*
X004161Y015363D01*
X004149Y015334D01*
X002595Y015334D01*
X002413Y015334D01*
X002359Y015334D01*
X002347Y015363D01*
X002223Y015487D01*
X002061Y015554D01*
X001886Y015554D01*
X001725Y015487D01*
X001601Y015363D01*
X001534Y015201D01*
X001534Y015026D01*
X001601Y014865D01*
X001725Y014741D01*
X001886Y014674D01*
X002061Y014674D01*
X002223Y014741D01*
X002284Y014802D01*
X002284Y013969D01*
X002087Y013969D01*
X001916Y013898D01*
X001785Y013767D01*
X001714Y013596D01*
X001714Y013411D01*
X001785Y013241D01*
X001916Y013110D01*
X002087Y013039D01*
X002921Y013039D01*
X003092Y013110D01*
X003223Y013241D01*
X003294Y013411D01*
X003294Y013596D01*
X003223Y013767D01*
X003092Y013898D01*
X002921Y013969D01*
X002724Y013969D01*
X002724Y014894D01*
X004149Y014894D01*
X004161Y014865D01*
X004285Y014741D01*
X004446Y014674D01*
X004621Y014674D01*
X004783Y014741D01*
X004907Y014865D01*
X004815Y014773D02*
X008784Y014773D01*
X008784Y014614D02*
X002724Y014614D01*
X002724Y014456D02*
X008784Y014456D01*
X008784Y014297D02*
X002724Y014297D01*
X002724Y014139D02*
X008784Y014139D01*
X008784Y013980D02*
X002724Y013980D01*
X002284Y013980D02*
X000734Y013980D01*
X000734Y013822D02*
X001839Y013822D01*
X001742Y013663D02*
X000734Y013663D01*
X000734Y013504D02*
X001714Y013504D01*
X001741Y013346D02*
X000734Y013346D01*
X000734Y013187D02*
X001838Y013187D01*
X001916Y012898D02*
X002087Y012969D01*
X002921Y012969D01*
X003092Y012898D01*
X003223Y012767D01*
X003294Y012596D01*
X003294Y012411D01*
X003223Y012241D01*
X003092Y012110D01*
X002921Y012039D01*
X002087Y012039D01*
X001916Y012110D01*
X001785Y012241D01*
X001714Y012411D01*
X001714Y012596D01*
X001785Y012767D01*
X001916Y012898D01*
X001888Y012870D02*
X000734Y012870D01*
X000734Y012712D02*
X001762Y012712D01*
X001714Y012553D02*
X000734Y012553D01*
X000734Y012395D02*
X001721Y012395D01*
X001790Y012236D02*
X000734Y012236D01*
X000734Y012078D02*
X001994Y012078D01*
X001967Y011919D02*
X000734Y011919D01*
X000734Y011761D02*
X001782Y011761D01*
X001717Y011602D02*
X000734Y011602D01*
X000734Y011443D02*
X001714Y011443D01*
X001767Y011285D02*
X000734Y011285D01*
X000734Y011126D02*
X001899Y011126D01*
X002084Y010968D02*
X000734Y010968D01*
X000734Y010809D02*
X001827Y010809D01*
X001737Y010651D02*
X000734Y010651D01*
X000734Y010492D02*
X001714Y010492D01*
X001747Y010334D02*
X000734Y010334D01*
X000734Y010175D02*
X001851Y010175D01*
X001819Y009858D02*
X000734Y009858D01*
X000734Y010017D02*
X003284Y010017D01*
X003284Y010175D02*
X003157Y010175D01*
X003261Y010334D02*
X003284Y010334D01*
X003271Y010651D02*
X003284Y010651D01*
X003284Y010809D02*
X003181Y010809D01*
X003284Y010968D02*
X002923Y010968D01*
X003108Y011126D02*
X003284Y011126D01*
X003284Y011285D02*
X003241Y011285D01*
X003294Y011443D02*
X003382Y011443D01*
X003291Y011602D02*
X003541Y011602D01*
X003699Y011761D02*
X003226Y011761D01*
X003041Y011919D02*
X003858Y011919D01*
X004016Y012078D02*
X003014Y012078D01*
X003218Y012236D02*
X004175Y012236D01*
X004334Y012395D02*
X003287Y012395D01*
X003294Y012553D02*
X004492Y012553D01*
X004651Y012712D02*
X003246Y012712D01*
X003120Y012870D02*
X005748Y012870D01*
X006004Y012504D02*
X004754Y012504D01*
X003504Y011254D01*
X003504Y005754D01*
X001504Y003754D01*
X001504Y002504D01*
X001039Y002565D02*
X000734Y002565D01*
X000734Y002406D02*
X001039Y002406D01*
X001039Y002248D02*
X000734Y002248D01*
X000734Y002089D02*
X001039Y002089D01*
X001104Y001931D02*
X000734Y001931D01*
X000734Y001772D02*
X001271Y001772D01*
X000734Y001614D02*
X004333Y001614D01*
X004272Y001772D02*
X003736Y001772D01*
X003904Y001931D02*
X004104Y001931D01*
X004039Y002089D02*
X003969Y002089D01*
X003969Y002248D02*
X004039Y002248D01*
X004039Y002406D02*
X003969Y002406D01*
X003969Y002565D02*
X004039Y002565D01*
X004039Y002724D02*
X003969Y002724D01*
X003969Y002882D02*
X004039Y002882D01*
X004089Y003041D02*
X003919Y003041D01*
X003791Y003199D02*
X004217Y003199D01*
X004284Y003358D02*
X003724Y003358D01*
X003724Y003516D02*
X004284Y003516D01*
X004284Y003675D02*
X003724Y003675D01*
X003724Y003833D02*
X004284Y003833D01*
X004431Y003992D02*
X003803Y003992D01*
X003962Y004150D02*
X004589Y004150D01*
X004748Y004309D02*
X004120Y004309D01*
X004279Y004468D02*
X004784Y004468D01*
X004784Y004626D02*
X004437Y004626D01*
X004596Y004785D02*
X004784Y004785D01*
X004784Y004943D02*
X004724Y004943D01*
X004724Y005102D02*
X004784Y005102D01*
X004784Y005260D02*
X004724Y005260D01*
X004724Y005419D02*
X004784Y005419D01*
X004784Y005577D02*
X004724Y005577D01*
X004724Y005736D02*
X004784Y005736D01*
X004784Y005894D02*
X004724Y005894D01*
X004724Y006053D02*
X004784Y006053D01*
X004784Y006211D02*
X004724Y006211D01*
X004724Y006370D02*
X004784Y006370D01*
X004784Y006529D02*
X004724Y006529D01*
X004724Y006687D02*
X004784Y006687D01*
X004784Y006846D02*
X004724Y006846D01*
X004724Y007004D02*
X004784Y007004D01*
X004784Y007163D02*
X004724Y007163D01*
X004724Y007321D02*
X004784Y007321D01*
X004784Y007480D02*
X004724Y007480D01*
X004724Y007638D02*
X004784Y007638D01*
X004784Y007797D02*
X004724Y007797D01*
X004724Y007955D02*
X004784Y007955D01*
X004784Y008114D02*
X004724Y008114D01*
X004724Y008273D02*
X004784Y008273D01*
X004784Y008431D02*
X004724Y008431D01*
X004724Y008590D02*
X004784Y008590D01*
X004784Y008748D02*
X004724Y008748D01*
X004724Y008907D02*
X004784Y008907D01*
X004784Y009065D02*
X004724Y009065D01*
X004724Y009224D02*
X004784Y009224D01*
X004784Y009382D02*
X004724Y009382D01*
X004724Y009541D02*
X004784Y009541D01*
X004784Y009699D02*
X004724Y009699D01*
X004724Y009858D02*
X004784Y009858D01*
X004784Y010017D02*
X004724Y010017D01*
X004724Y010175D02*
X004784Y010175D01*
X004784Y010334D02*
X004724Y010334D01*
X004724Y010492D02*
X004784Y010492D01*
X004784Y010651D02*
X004724Y010651D01*
X004724Y010809D02*
X004784Y010809D01*
X004724Y010968D02*
X004907Y010968D01*
X005065Y011126D02*
X004724Y011126D01*
X004504Y011254D02*
X004504Y005004D01*
X003504Y004004D01*
X003504Y002504D01*
X003039Y002565D02*
X002969Y002565D01*
X002969Y002406D02*
X003039Y002406D01*
X003039Y002248D02*
X002969Y002248D01*
X002969Y002089D02*
X003039Y002089D01*
X003104Y001931D02*
X002904Y001931D01*
X002736Y001772D02*
X003271Y001772D01*
X002271Y001772D02*
X001736Y001772D01*
X001904Y001931D02*
X002104Y001931D01*
X002039Y002089D02*
X001969Y002089D01*
X001969Y002248D02*
X002039Y002248D01*
X002039Y002406D02*
X001969Y002406D01*
X001969Y002565D02*
X002039Y002565D01*
X002039Y002724D02*
X001969Y002724D01*
X001969Y002882D02*
X002039Y002882D01*
X002089Y003041D02*
X001919Y003041D01*
X001791Y003199D02*
X002217Y003199D01*
X002284Y003358D02*
X001724Y003358D01*
X001724Y003516D02*
X002284Y003516D01*
X002284Y003675D02*
X001736Y003675D01*
X001894Y003833D02*
X002284Y003833D01*
X002284Y003992D02*
X002053Y003992D01*
X002212Y004150D02*
X002339Y004150D01*
X002370Y004309D02*
X002498Y004309D01*
X002529Y004468D02*
X002656Y004468D01*
X002687Y004626D02*
X002815Y004626D01*
X002846Y004785D02*
X002974Y004785D01*
X003004Y004943D02*
X003132Y004943D01*
X003163Y005102D02*
X003291Y005102D01*
X003321Y005260D02*
X003449Y005260D01*
X003480Y005419D02*
X003608Y005419D01*
X003638Y005577D02*
X003766Y005577D01*
X003784Y005736D02*
X003724Y005736D01*
X003724Y005894D02*
X003784Y005894D01*
X003784Y006053D02*
X003724Y006053D01*
X003724Y006211D02*
X003784Y006211D01*
X003784Y006370D02*
X003724Y006370D01*
X003724Y006529D02*
X003784Y006529D01*
X003784Y006687D02*
X003724Y006687D01*
X003724Y006846D02*
X003784Y006846D01*
X003784Y007004D02*
X003724Y007004D01*
X003724Y007163D02*
X003784Y007163D01*
X003784Y007321D02*
X003724Y007321D01*
X003724Y007480D02*
X003784Y007480D01*
X003784Y007638D02*
X003724Y007638D01*
X003724Y007797D02*
X003784Y007797D01*
X003784Y007955D02*
X003724Y007955D01*
X003724Y008114D02*
X003784Y008114D01*
X003784Y008273D02*
X003724Y008273D01*
X003724Y008431D02*
X003784Y008431D01*
X003784Y008590D02*
X003724Y008590D01*
X003724Y008748D02*
X003784Y008748D01*
X003784Y008907D02*
X003724Y008907D01*
X003724Y009065D02*
X003784Y009065D01*
X003784Y009224D02*
X003724Y009224D01*
X003724Y009382D02*
X003784Y009382D01*
X003784Y009541D02*
X003724Y009541D01*
X003724Y009699D02*
X003784Y009699D01*
X003784Y009858D02*
X003724Y009858D01*
X003724Y010017D02*
X003784Y010017D01*
X003784Y010175D02*
X003724Y010175D01*
X003724Y010334D02*
X003784Y010334D01*
X003784Y010492D02*
X003724Y010492D01*
X003724Y010651D02*
X003784Y010651D01*
X003784Y010809D02*
X003724Y010809D01*
X003724Y010968D02*
X003784Y010968D01*
X003784Y011126D02*
X003724Y011126D01*
X004004Y011254D02*
X004004Y005504D01*
X002504Y004004D01*
X002504Y002504D01*
X002969Y002724D02*
X003039Y002724D01*
X003039Y002882D02*
X002969Y002882D01*
X002919Y003041D02*
X003089Y003041D01*
X003217Y003199D02*
X002791Y003199D01*
X002724Y003358D02*
X003284Y003358D01*
X003284Y003516D02*
X002724Y003516D01*
X002724Y003675D02*
X003284Y003675D01*
X003284Y003833D02*
X002724Y003833D01*
X002803Y003992D02*
X003284Y003992D01*
X003339Y004150D02*
X002962Y004150D01*
X003120Y004309D02*
X003498Y004309D01*
X003656Y004468D02*
X003279Y004468D01*
X003437Y004626D02*
X003815Y004626D01*
X003974Y004785D02*
X003596Y004785D01*
X003754Y004943D02*
X004132Y004943D01*
X004284Y005102D02*
X003913Y005102D01*
X004071Y005260D02*
X004284Y005260D01*
X004284Y005419D02*
X004224Y005419D01*
X004224Y005577D02*
X004284Y005577D01*
X004284Y005736D02*
X004224Y005736D01*
X004224Y005894D02*
X004284Y005894D01*
X004284Y006053D02*
X004224Y006053D01*
X004224Y006211D02*
X004284Y006211D01*
X004284Y006370D02*
X004224Y006370D01*
X004224Y006529D02*
X004284Y006529D01*
X004284Y006687D02*
X004224Y006687D01*
X004224Y006846D02*
X004284Y006846D01*
X004284Y007004D02*
X004224Y007004D01*
X004224Y007163D02*
X004284Y007163D01*
X004284Y007321D02*
X004224Y007321D01*
X004224Y007480D02*
X004284Y007480D01*
X004284Y007638D02*
X004224Y007638D01*
X004224Y007797D02*
X004284Y007797D01*
X004284Y007955D02*
X004224Y007955D01*
X004224Y008114D02*
X004284Y008114D01*
X004284Y008273D02*
X004224Y008273D01*
X004224Y008431D02*
X004284Y008431D01*
X004284Y008590D02*
X004224Y008590D01*
X004224Y008748D02*
X004284Y008748D01*
X004284Y008907D02*
X004224Y008907D01*
X004224Y009065D02*
X004284Y009065D01*
X004284Y009224D02*
X004224Y009224D01*
X004224Y009382D02*
X004284Y009382D01*
X004284Y009541D02*
X004224Y009541D01*
X004224Y009699D02*
X004284Y009699D01*
X004284Y009858D02*
X004224Y009858D01*
X004224Y010017D02*
X004284Y010017D01*
X004284Y010175D02*
X004224Y010175D01*
X004224Y010334D02*
X004284Y010334D01*
X004284Y010492D02*
X004224Y010492D01*
X004224Y010651D02*
X004284Y010651D01*
X004284Y010809D02*
X004224Y010809D01*
X004224Y010968D02*
X004284Y010968D01*
X004284Y011126D02*
X004224Y011126D01*
X004004Y011254D02*
X004754Y012004D01*
X006504Y012004D01*
X007004Y012504D01*
X006564Y012553D02*
X006444Y012553D01*
X006444Y012395D02*
X006564Y012395D01*
X006425Y012236D02*
X006358Y012236D01*
X006730Y011919D02*
X006797Y011919D01*
X006638Y011761D02*
X006370Y011761D01*
X006444Y011602D02*
X006564Y011602D01*
X006564Y011443D02*
X006444Y011443D01*
X006474Y011285D02*
X006407Y011285D01*
X006004Y011504D02*
X004754Y011504D01*
X004504Y011254D01*
X005004Y010754D02*
X005004Y004254D01*
X004504Y003754D01*
X004504Y002504D01*
X004504Y001754D01*
X004754Y001504D01*
X018004Y001504D01*
X018266Y001455D02*
X021974Y001455D01*
X022114Y001614D02*
X018425Y001614D01*
X018583Y001772D02*
X022273Y001772D01*
X022735Y001772D02*
X024273Y001772D01*
X024114Y001614D02*
X022894Y001614D01*
X023034Y001455D02*
X023974Y001455D01*
X023974Y001297D02*
X023034Y001297D01*
X023034Y001138D02*
X023974Y001138D01*
X024029Y000980D02*
X022979Y000980D01*
X022820Y000821D02*
X024187Y000821D01*
X024820Y000821D02*
X030144Y000821D01*
X028563Y002882D02*
X027194Y002882D01*
X027077Y002724D02*
X028338Y002724D01*
X028516Y004150D02*
X021712Y004150D01*
X021724Y004309D02*
X023367Y004309D01*
X023370Y004308D02*
X023454Y004295D01*
X023454Y005204D01*
X022934Y005204D01*
X022934Y004819D01*
X022948Y004730D01*
X022976Y004645D01*
X023016Y004565D01*
X023069Y004493D01*
X023133Y004429D01*
X023205Y004376D01*
X023285Y004336D01*
X023370Y004308D01*
X023454Y004309D02*
X023554Y004309D01*
X023641Y004309D02*
X028371Y004309D01*
X027969Y004468D02*
X023914Y004468D01*
X024022Y004626D02*
X027874Y004626D01*
X027779Y004785D02*
X026784Y004785D01*
X026943Y004943D02*
X027684Y004943D01*
X027589Y005102D02*
X027034Y005102D01*
X027034Y005260D02*
X027529Y005260D01*
X027534Y005419D02*
X027034Y005419D01*
X026930Y005577D02*
X027534Y005577D01*
X027534Y005736D02*
X026771Y005736D01*
X026389Y005894D02*
X027534Y005894D01*
X027534Y006053D02*
X026389Y006053D01*
X026389Y006211D02*
X027534Y006211D01*
X027534Y006370D02*
X026389Y006370D01*
X026389Y006529D02*
X027320Y006529D01*
X027754Y006504D02*
X027754Y005254D01*
X028129Y004629D01*
X028879Y004629D01*
X029004Y004504D01*
X029492Y004150D02*
X030144Y004150D01*
X030144Y004309D02*
X029637Y004309D01*
X029684Y004468D02*
X030144Y004468D01*
X030144Y004626D02*
X029667Y004626D01*
X029573Y004785D02*
X030144Y004785D01*
X030144Y004943D02*
X028197Y004943D01*
X028102Y005102D02*
X028532Y005102D01*
X028561Y005087D02*
X028498Y005119D01*
X028441Y005161D01*
X028391Y005211D01*
X028349Y005268D01*
X028317Y005331D01*
X028295Y005399D01*
X028284Y005469D01*
X028284Y005494D01*
X028994Y005494D01*
X029014Y005494D01*
X029014Y005514D01*
X028994Y005514D01*
X028994Y005954D01*
X028699Y005954D01*
X028629Y005943D01*
X028561Y005921D01*
X028498Y005889D01*
X028441Y005847D01*
X028391Y005797D01*
X028349Y005740D01*
X028317Y005677D01*
X028295Y005609D01*
X028284Y005539D01*
X028284Y005514D01*
X028994Y005514D01*
X028994Y005494D01*
X028994Y005054D01*
X028699Y005054D01*
X028629Y005065D01*
X028561Y005087D01*
X028355Y005260D02*
X028007Y005260D01*
X027974Y005419D02*
X028292Y005419D01*
X028290Y005577D02*
X027974Y005577D01*
X027974Y005736D02*
X028347Y005736D01*
X028509Y005894D02*
X027974Y005894D01*
X027974Y006053D02*
X030144Y006053D01*
X030144Y006211D02*
X029561Y006211D01*
X029506Y006156D02*
X029621Y006272D01*
X029684Y006422D01*
X029684Y006585D01*
X029621Y006736D01*
X029506Y006851D01*
X029355Y006914D01*
X028652Y006914D01*
X028502Y006851D01*
X028386Y006736D01*
X028324Y006585D01*
X028324Y006422D01*
X028386Y006272D01*
X028502Y006156D01*
X028652Y006094D01*
X029355Y006094D01*
X029506Y006156D01*
X029447Y005921D02*
X029379Y005943D01*
X029309Y005954D01*
X029014Y005954D01*
X029014Y005514D01*
X029724Y005514D01*
X029724Y005539D01*
X029713Y005609D01*
X029691Y005677D01*
X029659Y005740D01*
X029617Y005797D01*
X029567Y005847D01*
X029510Y005889D01*
X029447Y005921D01*
X029499Y005894D02*
X030144Y005894D01*
X030144Y005736D02*
X029661Y005736D01*
X029718Y005577D02*
X030144Y005577D01*
X030144Y005419D02*
X029716Y005419D01*
X029713Y005399D02*
X029724Y005469D01*
X029724Y005494D01*
X029014Y005494D01*
X029014Y005054D01*
X029309Y005054D01*
X029379Y005065D01*
X029447Y005087D01*
X029510Y005119D01*
X029567Y005161D01*
X029617Y005211D01*
X029659Y005268D01*
X029691Y005331D01*
X029713Y005399D01*
X029653Y005260D02*
X030144Y005260D01*
X030144Y005102D02*
X029476Y005102D01*
X029014Y005102D02*
X028994Y005102D01*
X028994Y005260D02*
X029014Y005260D01*
X029014Y005419D02*
X028994Y005419D01*
X028994Y005577D02*
X029014Y005577D01*
X029014Y005736D02*
X028994Y005736D01*
X028994Y005894D02*
X029014Y005894D01*
X028447Y006211D02*
X027974Y006211D01*
X027974Y006370D02*
X028346Y006370D01*
X028324Y006529D02*
X027974Y006529D01*
X027882Y006687D02*
X028366Y006687D01*
X028496Y006846D02*
X027638Y006846D01*
X027400Y007004D02*
X030144Y007004D01*
X030144Y006846D02*
X029512Y006846D01*
X029642Y006687D02*
X030144Y006687D01*
X030144Y006529D02*
X029684Y006529D01*
X029662Y006370D02*
X030144Y006370D01*
X029506Y007156D02*
X029355Y007094D01*
X028652Y007094D01*
X028502Y007156D01*
X028386Y007272D01*
X028324Y007422D01*
X028324Y007585D01*
X028386Y007736D01*
X028502Y007851D01*
X028652Y007914D01*
X029355Y007914D01*
X029506Y007851D01*
X029621Y007736D01*
X029684Y007585D01*
X029684Y007422D01*
X029621Y007272D01*
X029506Y007156D01*
X029513Y007163D02*
X030144Y007163D01*
X030144Y007321D02*
X029642Y007321D01*
X029684Y007480D02*
X030144Y007480D01*
X030144Y007638D02*
X029662Y007638D01*
X029561Y007797D02*
X030144Y007797D01*
X030144Y007955D02*
X028500Y007955D01*
X028521Y007964D02*
X028744Y008186D01*
X028864Y008477D01*
X028864Y008791D01*
X028744Y009081D01*
X028521Y009304D01*
X028231Y009424D01*
X027917Y009424D01*
X027626Y009304D01*
X027404Y009081D01*
X027284Y008791D01*
X027284Y008477D01*
X027404Y008186D01*
X027626Y007964D01*
X027917Y007844D01*
X028231Y007844D01*
X028521Y007964D01*
X028447Y007797D02*
X025735Y007797D01*
X025735Y007955D02*
X027647Y007955D01*
X027477Y008114D02*
X025735Y008114D01*
X025721Y008273D02*
X027369Y008273D01*
X027303Y008431D02*
X023905Y008431D01*
X023914Y008273D02*
X024327Y008273D01*
X024303Y008114D02*
X023914Y008114D01*
X023914Y007955D02*
X024144Y007955D01*
X024077Y008077D02*
X024504Y008504D01*
X025004Y008504D01*
X026504Y008504D01*
X026218Y008907D02*
X027332Y008907D01*
X027284Y008748D02*
X025675Y008748D01*
X026224Y008913D02*
X026224Y008913D01*
X026376Y009065D02*
X027398Y009065D01*
X027547Y009224D02*
X026535Y009224D01*
X026693Y009382D02*
X027817Y009382D01*
X028331Y009382D02*
X030144Y009382D01*
X030144Y009224D02*
X028601Y009224D01*
X028750Y009065D02*
X030144Y009065D01*
X030144Y008907D02*
X028816Y008907D01*
X028864Y008748D02*
X030144Y008748D01*
X030144Y008590D02*
X028864Y008590D01*
X028845Y008431D02*
X030144Y008431D01*
X030144Y008273D02*
X028779Y008273D01*
X028671Y008114D02*
X030144Y008114D01*
X028346Y007638D02*
X025621Y007638D01*
X025357Y007638D02*
X025320Y007638D01*
X025320Y007797D02*
X025357Y007797D01*
X025357Y007955D02*
X025320Y007955D01*
X025339Y008004D02*
X025339Y008169D01*
X025004Y008504D01*
X025320Y008273D02*
X025357Y008273D01*
X025357Y008114D02*
X025320Y008114D01*
X025056Y007638D02*
X024449Y007638D01*
X024291Y007480D02*
X028324Y007480D01*
X028366Y007321D02*
X027133Y007321D01*
X027175Y007163D02*
X028495Y007163D01*
X027754Y006504D02*
X027004Y007004D01*
X026839Y007004D01*
X026544Y006687D02*
X026464Y006687D01*
X026169Y007004D02*
X026169Y005669D01*
X025504Y005004D01*
X024254Y005004D01*
X024754Y006919D01*
X024669Y007004D01*
X020504Y007004D01*
X020004Y005754D01*
X019089Y005754D01*
X019089Y004754D01*
X019089Y003754D01*
X018419Y003754D02*
X017254Y003754D01*
X016504Y003379D01*
X012004Y003379D01*
X011754Y003004D01*
X011754Y002754D01*
X011504Y002504D01*
X010504Y002504D02*
X010504Y003004D01*
X011254Y003754D01*
X016004Y003754D01*
X016754Y004254D01*
X016754Y004754D01*
X016754Y006504D01*
X018077Y007827D01*
X018254Y007754D01*
X021004Y007754D01*
X021327Y008077D01*
X021352Y008077D01*
X021608Y008077D02*
X021608Y008650D01*
X021504Y008754D01*
X020754Y008754D01*
X020004Y008004D01*
X018504Y008004D01*
X018254Y008254D01*
X018004Y008254D01*
X017254Y007504D01*
X017004Y007504D01*
X016504Y008004D01*
X016504Y010754D01*
X017004Y011254D01*
X017254Y011254D01*
X016856Y011443D02*
X015687Y011443D01*
X015694Y011436D02*
X015436Y011694D01*
X015072Y011694D01*
X014814Y011436D01*
X014814Y011072D01*
X015072Y010814D01*
X015436Y010814D01*
X015694Y011072D01*
X015694Y011436D01*
X015694Y011285D02*
X016724Y011285D01*
X016565Y011126D02*
X015694Y011126D01*
X015590Y010968D02*
X016407Y010968D01*
X016284Y010809D02*
X014488Y010809D01*
X014647Y010968D02*
X014918Y010968D01*
X014814Y011126D02*
X014734Y011126D01*
X014734Y011285D02*
X014814Y011285D01*
X014821Y011443D02*
X014734Y011443D01*
X014585Y011602D02*
X014980Y011602D01*
X015072Y011814D02*
X015436Y011814D01*
X015656Y012034D01*
X015845Y012034D01*
X015974Y012163D01*
X017724Y013913D01*
X017724Y014095D01*
X017724Y017767D01*
X017767Y017785D01*
X017898Y017916D01*
X017969Y018087D01*
X017969Y018921D01*
X017898Y019092D01*
X017767Y019223D01*
X017596Y019294D01*
X017411Y019294D01*
X017241Y019223D01*
X017110Y019092D01*
X017039Y018921D01*
X017039Y018087D01*
X017110Y017916D01*
X017241Y017785D01*
X017284Y017767D01*
X017284Y014095D01*
X016724Y013535D01*
X016724Y013595D01*
X016724Y017767D01*
X016767Y017785D01*
X016898Y017916D01*
X016969Y018087D01*
X016969Y018921D01*
X016898Y019092D01*
X016767Y019223D01*
X016596Y019294D01*
X016411Y019294D01*
X016241Y019223D01*
X016110Y019092D01*
X016039Y018921D01*
X016039Y018087D01*
X016110Y017916D01*
X016241Y017785D01*
X016284Y017767D01*
X016284Y013595D01*
X015663Y012974D01*
X015596Y012974D01*
X015694Y013072D01*
X015694Y013133D01*
X015724Y013163D01*
X016224Y013663D01*
X016284Y013663D01*
X016224Y013663D02*
X016224Y013845D01*
X016224Y017095D01*
X016095Y017224D01*
X015724Y017595D01*
X015724Y017767D01*
X015767Y017785D01*
X015898Y017916D01*
X015969Y018087D01*
X015969Y018921D01*
X015898Y019092D01*
X015767Y019223D01*
X015596Y019294D01*
X015411Y019294D01*
X015241Y019223D01*
X015110Y019092D01*
X015039Y018921D01*
X015039Y018087D01*
X015110Y017916D01*
X015241Y017785D01*
X015284Y017767D01*
X015284Y017595D01*
X015284Y017413D01*
X015784Y016913D01*
X015784Y013845D01*
X015534Y013596D01*
X015436Y013694D01*
X015072Y013694D01*
X014974Y013596D01*
X014974Y013912D01*
X015072Y013814D01*
X015436Y013814D01*
X015694Y014072D01*
X015694Y014436D01*
X015436Y014694D01*
X015072Y014694D01*
X014974Y014596D01*
X014974Y014912D01*
X015072Y014814D01*
X015436Y014814D01*
X015694Y015072D01*
X015694Y015436D01*
X015436Y015694D01*
X015072Y015694D01*
X014974Y015596D01*
X014974Y015845D01*
X014845Y015974D01*
X014724Y016095D01*
X014724Y017767D01*
X014767Y017785D01*
X014898Y017916D01*
X014969Y018087D01*
X014969Y018921D01*
X014898Y019092D01*
X014767Y019223D01*
X014596Y019294D01*
X014411Y019294D01*
X014241Y019223D01*
X014110Y019092D01*
X014039Y018921D01*
X014039Y018087D01*
X014110Y017916D01*
X014241Y017785D01*
X014284Y017767D01*
X014284Y016095D01*
X014284Y015913D01*
X014534Y015663D01*
X014534Y015596D01*
X014436Y015694D01*
X014072Y015694D01*
X013814Y015436D01*
X013814Y015072D01*
X014072Y014814D01*
X014436Y014814D01*
X014534Y014912D01*
X014534Y014596D01*
X014436Y014694D01*
X014125Y014694D01*
X013724Y015095D01*
X013724Y017095D01*
X013595Y017224D01*
X012899Y017919D01*
X012969Y018087D01*
X012969Y018921D01*
X012898Y019092D01*
X012767Y019223D01*
X012596Y019294D01*
X012411Y019294D01*
X012241Y019223D01*
X012110Y019092D01*
X012039Y018921D01*
X012039Y018087D01*
X012110Y017916D01*
X012241Y017785D01*
X012411Y017714D01*
X012482Y017714D01*
X013284Y016913D01*
X013284Y015095D01*
X013284Y014913D01*
X013814Y014383D01*
X013814Y014072D01*
X014072Y013814D01*
X014436Y013814D01*
X014534Y013912D01*
X014534Y013596D01*
X014436Y013694D01*
X014072Y013694D01*
X013814Y013436D01*
X013814Y013072D01*
X014072Y012814D01*
X014436Y012814D01*
X014694Y013072D01*
X014694Y013133D01*
X014724Y013163D01*
X014814Y013253D01*
X014814Y013072D01*
X014912Y012974D01*
X014845Y012974D01*
X014663Y012974D01*
X014383Y012694D01*
X014072Y012694D01*
X013814Y012436D01*
X013814Y012072D01*
X014072Y011814D01*
X014436Y011814D01*
X014694Y012072D01*
X014694Y012383D01*
X014845Y012534D01*
X014912Y012534D01*
X014814Y012436D01*
X014814Y012072D01*
X015072Y011814D01*
X014967Y011919D02*
X014541Y011919D01*
X014694Y012078D02*
X014814Y012078D01*
X014814Y012236D02*
X014694Y012236D01*
X014706Y012395D02*
X014814Y012395D01*
X015254Y012254D02*
X015754Y012254D01*
X017504Y014004D01*
X017504Y018504D01*
X017039Y018578D02*
X016969Y018578D01*
X016969Y018736D02*
X017039Y018736D01*
X017039Y018895D02*
X016969Y018895D01*
X016914Y019054D02*
X017094Y019054D01*
X017230Y019212D02*
X016778Y019212D01*
X016230Y019212D02*
X015778Y019212D01*
X015914Y019054D02*
X016094Y019054D01*
X016039Y018895D02*
X015969Y018895D01*
X015969Y018736D02*
X016039Y018736D01*
X016039Y018578D02*
X015969Y018578D01*
X015969Y018419D02*
X016039Y018419D01*
X016039Y018261D02*
X015969Y018261D01*
X015969Y018102D02*
X016039Y018102D01*
X016098Y017944D02*
X015909Y017944D01*
X015767Y017785D02*
X016241Y017785D01*
X016284Y017627D02*
X015724Y017627D01*
X015851Y017468D02*
X016284Y017468D01*
X016284Y017310D02*
X016009Y017310D01*
X016168Y017151D02*
X016284Y017151D01*
X016284Y016992D02*
X016224Y016992D01*
X016224Y016834D02*
X016284Y016834D01*
X016284Y016675D02*
X016224Y016675D01*
X016224Y016517D02*
X016284Y016517D01*
X016284Y016358D02*
X016224Y016358D01*
X016224Y016200D02*
X016284Y016200D01*
X016284Y016041D02*
X016224Y016041D01*
X016224Y015883D02*
X016284Y015883D01*
X016284Y015724D02*
X016224Y015724D01*
X016224Y015566D02*
X016284Y015566D01*
X016284Y015407D02*
X016224Y015407D01*
X016224Y015248D02*
X016284Y015248D01*
X016284Y015090D02*
X016224Y015090D01*
X016224Y014931D02*
X016284Y014931D01*
X016284Y014773D02*
X016224Y014773D01*
X016224Y014614D02*
X016284Y014614D01*
X016284Y014456D02*
X016224Y014456D01*
X016224Y014297D02*
X016284Y014297D01*
X016284Y014139D02*
X016224Y014139D01*
X016224Y013980D02*
X016284Y013980D01*
X016284Y013822D02*
X016224Y013822D01*
X016004Y013754D02*
X015504Y013254D01*
X015254Y013254D01*
X014814Y013187D02*
X014748Y013187D01*
X014651Y013029D02*
X014857Y013029D01*
X014754Y012754D02*
X014254Y012254D01*
X013814Y012236D02*
X011797Y012236D01*
X011639Y012078D02*
X013814Y012078D01*
X013967Y011919D02*
X011291Y011919D01*
X011504Y012254D02*
X011004Y012254D01*
X011504Y012254D02*
X012504Y013254D01*
X012504Y016254D01*
X011254Y017504D01*
X010004Y017504D01*
X009004Y018504D01*
X008504Y018504D01*
X008039Y018578D02*
X007969Y018578D01*
X007969Y018736D02*
X008039Y018736D01*
X008039Y018895D02*
X007969Y018895D01*
X007914Y019054D02*
X008094Y019054D01*
X008230Y019212D02*
X007778Y019212D01*
X007504Y018504D02*
X007504Y018254D01*
X008754Y017004D01*
X011004Y017004D01*
X012004Y016004D01*
X012004Y013254D01*
X011504Y012754D01*
X010504Y012754D01*
X010004Y013254D02*
X009754Y013254D01*
X009509Y013187D02*
X003170Y013187D01*
X003266Y013346D02*
X009351Y013346D01*
X009192Y013504D02*
X003294Y013504D01*
X003266Y013663D02*
X009034Y013663D01*
X008875Y013822D02*
X003168Y013822D01*
X002504Y013504D02*
X002504Y015114D01*
X004534Y015114D01*
X004974Y015090D02*
X006150Y015090D01*
X005873Y015248D02*
X004954Y015248D01*
X004863Y015407D02*
X005715Y015407D01*
X005625Y015566D02*
X000734Y015566D01*
X000734Y015724D02*
X005559Y015724D01*
X005524Y015883D02*
X000734Y015883D01*
X000734Y016041D02*
X005524Y016041D01*
X005524Y016200D02*
X000734Y016200D01*
X000734Y016358D02*
X005590Y016358D01*
X005656Y016517D02*
X004831Y016517D01*
X004847Y016528D02*
X004900Y016581D01*
X004944Y016642D01*
X004979Y016710D01*
X005002Y016781D01*
X005014Y016856D01*
X005014Y016874D01*
X004554Y016874D01*
X004554Y016914D01*
X005014Y016914D01*
X005014Y016932D01*
X005002Y017006D01*
X004979Y017078D01*
X004944Y017145D01*
X004900Y017207D01*
X004847Y017260D01*
X004785Y017304D01*
X004718Y017339D01*
X004646Y017362D01*
X004572Y017374D01*
X004554Y017374D01*
X004554Y016914D01*
X004514Y016914D01*
X004514Y017374D01*
X004496Y017374D01*
X004421Y017362D01*
X004350Y017339D01*
X004282Y017304D01*
X004221Y017260D01*
X004168Y017207D01*
X004123Y017145D01*
X004089Y017078D01*
X004066Y017006D01*
X004054Y016932D01*
X004054Y016914D01*
X004514Y016914D01*
X004514Y016874D01*
X004554Y016874D01*
X004554Y016414D01*
X004572Y016414D01*
X004646Y016426D01*
X004718Y016449D01*
X004785Y016483D01*
X004847Y016528D01*
X004961Y016675D02*
X005789Y016675D01*
X005948Y016834D02*
X005010Y016834D01*
X005004Y016992D02*
X007454Y016992D01*
X007613Y016834D02*
X007060Y016834D01*
X007218Y016675D02*
X007771Y016675D01*
X007930Y016517D02*
X007352Y016517D01*
X007418Y016358D02*
X008088Y016358D01*
X008247Y016200D02*
X007484Y016200D01*
X007484Y016041D02*
X008406Y016041D01*
X010314Y015566D02*
X010693Y015566D01*
X010564Y015407D02*
X010444Y015407D01*
X010444Y015248D02*
X010564Y015248D01*
X010564Y015090D02*
X010444Y015090D01*
X012724Y015090D02*
X013284Y015090D01*
X013284Y015248D02*
X012724Y015248D01*
X012724Y015407D02*
X013284Y015407D01*
X013284Y015566D02*
X012724Y015566D01*
X012724Y015724D02*
X013284Y015724D01*
X013284Y015883D02*
X012724Y015883D01*
X012724Y016041D02*
X013284Y016041D01*
X013284Y016200D02*
X012724Y016200D01*
X012711Y016358D02*
X013284Y016358D01*
X013284Y016517D02*
X012552Y016517D01*
X012394Y016675D02*
X013284Y016675D01*
X013284Y016834D02*
X012235Y016834D01*
X012076Y016992D02*
X013204Y016992D01*
X013046Y017151D02*
X011918Y017151D01*
X011759Y017310D02*
X012887Y017310D01*
X012729Y017468D02*
X011601Y017468D01*
X011442Y017627D02*
X012570Y017627D01*
X012241Y017785D02*
X011767Y017785D01*
X011898Y017916D01*
X011969Y018087D01*
X011969Y018921D01*
X011898Y019092D01*
X011767Y019223D01*
X011596Y019294D01*
X011411Y019294D01*
X011241Y019223D01*
X011110Y019092D01*
X011039Y018921D01*
X011039Y018087D01*
X011110Y017916D01*
X011241Y017785D01*
X011411Y017714D01*
X011596Y017714D01*
X011767Y017785D01*
X011909Y017944D02*
X012098Y017944D01*
X012039Y018102D02*
X011969Y018102D01*
X011969Y018261D02*
X012039Y018261D01*
X012039Y018419D02*
X011969Y018419D01*
X011969Y018578D02*
X012039Y018578D01*
X012039Y018736D02*
X011969Y018736D01*
X011969Y018895D02*
X012039Y018895D01*
X012094Y019054D02*
X011914Y019054D01*
X011778Y019212D02*
X012230Y019212D01*
X012778Y019212D02*
X013230Y019212D01*
X013241Y019223D02*
X013110Y019092D01*
X013039Y018921D01*
X013039Y018087D01*
X013110Y017916D01*
X013241Y017785D01*
X013411Y017714D01*
X013596Y017714D01*
X013767Y017785D01*
X013898Y017916D01*
X013969Y018087D01*
X013969Y018921D01*
X013898Y019092D01*
X013767Y019223D01*
X013596Y019294D01*
X013411Y019294D01*
X013241Y019223D01*
X013094Y019054D02*
X012914Y019054D01*
X012969Y018895D02*
X013039Y018895D01*
X013039Y018736D02*
X012969Y018736D01*
X012969Y018578D02*
X013039Y018578D01*
X013039Y018419D02*
X012969Y018419D01*
X012969Y018261D02*
X013039Y018261D01*
X013039Y018102D02*
X012969Y018102D01*
X012909Y017944D02*
X013098Y017944D01*
X013034Y017785D02*
X013241Y017785D01*
X013192Y017627D02*
X014284Y017627D01*
X014284Y017468D02*
X013351Y017468D01*
X013509Y017310D02*
X014284Y017310D01*
X014284Y017151D02*
X013668Y017151D01*
X013724Y016992D02*
X014284Y016992D01*
X014284Y016834D02*
X013724Y016834D01*
X013724Y016675D02*
X014284Y016675D01*
X014284Y016517D02*
X013724Y016517D01*
X013724Y016358D02*
X014284Y016358D01*
X014284Y016200D02*
X013724Y016200D01*
X013724Y016041D02*
X014284Y016041D01*
X014314Y015883D02*
X013724Y015883D01*
X013724Y015724D02*
X014473Y015724D01*
X014504Y016004D02*
X014754Y015754D01*
X014754Y013504D01*
X014504Y013254D01*
X014254Y013254D01*
X013814Y013187D02*
X012724Y013187D01*
X012724Y013346D02*
X013814Y013346D01*
X013882Y013504D02*
X012724Y013504D01*
X012724Y013663D02*
X014041Y013663D01*
X014064Y013822D02*
X012724Y013822D01*
X012724Y013980D02*
X013906Y013980D01*
X013814Y014139D02*
X012724Y014139D01*
X012724Y014297D02*
X013814Y014297D01*
X013741Y014456D02*
X012724Y014456D01*
X012724Y014614D02*
X013582Y014614D01*
X013424Y014773D02*
X012724Y014773D01*
X012724Y014931D02*
X013284Y014931D01*
X013504Y015004D02*
X014254Y014254D01*
X014516Y014614D02*
X014534Y014614D01*
X014534Y014773D02*
X014046Y014773D01*
X013954Y014931D02*
X013888Y014931D01*
X013814Y015090D02*
X013729Y015090D01*
X013724Y015248D02*
X013814Y015248D01*
X013814Y015407D02*
X013724Y015407D01*
X013724Y015566D02*
X013943Y015566D01*
X014504Y016004D02*
X014504Y018504D01*
X014969Y018578D02*
X015039Y018578D01*
X015039Y018736D02*
X014969Y018736D01*
X014969Y018895D02*
X015039Y018895D01*
X015094Y019054D02*
X014914Y019054D01*
X014778Y019212D02*
X015230Y019212D01*
X015504Y018504D02*
X015504Y017504D01*
X016004Y017004D01*
X016004Y013754D01*
X015760Y013822D02*
X015444Y013822D01*
X015467Y013663D02*
X015602Y013663D01*
X015602Y013980D02*
X015784Y013980D01*
X015784Y014139D02*
X015694Y014139D01*
X015694Y014297D02*
X015784Y014297D01*
X015784Y014456D02*
X015674Y014456D01*
X015784Y014614D02*
X015516Y014614D01*
X015784Y014773D02*
X014974Y014773D01*
X014974Y014614D02*
X014992Y014614D01*
X015554Y014931D02*
X015784Y014931D01*
X015784Y015090D02*
X015694Y015090D01*
X015694Y015248D02*
X015784Y015248D01*
X015784Y015407D02*
X015694Y015407D01*
X015784Y015566D02*
X015564Y015566D01*
X015784Y015724D02*
X014974Y015724D01*
X014936Y015883D02*
X015784Y015883D01*
X015784Y016041D02*
X014778Y016041D01*
X014724Y016200D02*
X015784Y016200D01*
X015784Y016358D02*
X014724Y016358D01*
X014724Y016517D02*
X015784Y016517D01*
X015784Y016675D02*
X014724Y016675D01*
X014724Y016834D02*
X015784Y016834D01*
X015704Y016992D02*
X014724Y016992D01*
X014724Y017151D02*
X015546Y017151D01*
X015387Y017310D02*
X014724Y017310D01*
X014724Y017468D02*
X015284Y017468D01*
X015284Y017627D02*
X014724Y017627D01*
X014767Y017785D02*
X015241Y017785D01*
X015098Y017944D02*
X014909Y017944D01*
X014969Y018102D02*
X015039Y018102D01*
X015039Y018261D02*
X014969Y018261D01*
X014969Y018419D02*
X015039Y018419D01*
X014039Y018419D02*
X013969Y018419D01*
X013969Y018261D02*
X014039Y018261D01*
X014039Y018102D02*
X013969Y018102D01*
X013909Y017944D02*
X014098Y017944D01*
X014241Y017785D02*
X013767Y017785D01*
X013969Y018578D02*
X014039Y018578D01*
X014039Y018736D02*
X013969Y018736D01*
X013969Y018895D02*
X014039Y018895D01*
X014094Y019054D02*
X013914Y019054D01*
X013778Y019212D02*
X014230Y019212D01*
X012504Y018504D02*
X012504Y018004D01*
X013504Y017004D01*
X013504Y015004D01*
X014444Y013822D02*
X014534Y013822D01*
X014534Y013663D02*
X014467Y013663D01*
X014974Y013663D02*
X015041Y013663D01*
X015064Y013822D02*
X014974Y013822D01*
X015749Y013187D02*
X015876Y013187D01*
X015907Y013346D02*
X016035Y013346D01*
X016066Y013504D02*
X016193Y013504D01*
X016504Y013504D02*
X015754Y012754D01*
X014754Y012754D01*
X014559Y012870D02*
X014493Y012870D01*
X014401Y012712D02*
X012273Y012712D01*
X012431Y012870D02*
X014015Y012870D01*
X013857Y013029D02*
X012590Y013029D01*
X012114Y012553D02*
X013931Y012553D01*
X013814Y012395D02*
X011956Y012395D01*
X011278Y011602D02*
X013923Y011602D01*
X013774Y011443D02*
X011437Y011443D01*
X011444Y011285D02*
X013774Y011285D01*
X013774Y011126D02*
X011444Y011126D01*
X011340Y010968D02*
X013861Y010968D01*
X014234Y011443D02*
X014274Y011443D01*
X014274Y011602D02*
X014234Y011602D01*
X015528Y011602D02*
X016980Y011602D01*
X017528Y011602D02*
X018180Y011602D01*
X018248Y011630D02*
X018110Y011573D01*
X018004Y011467D01*
X017947Y011329D01*
X017947Y011179D01*
X018004Y011041D01*
X018110Y010935D01*
X018248Y010878D01*
X018398Y010878D01*
X018536Y010935D01*
X018642Y011041D01*
X018699Y011179D01*
X018699Y011329D01*
X018642Y011467D01*
X018536Y011573D01*
X018398Y011630D01*
X018248Y011630D01*
X018466Y011602D02*
X020542Y011602D01*
X020356Y011443D02*
X018652Y011443D01*
X018699Y011285D02*
X020293Y011285D01*
X020284Y011126D02*
X018677Y011126D01*
X018569Y010968D02*
X020284Y010968D01*
X020284Y010809D02*
X019711Y010809D01*
X019846Y010651D02*
X020162Y010651D01*
X020124Y010492D02*
X019884Y010492D01*
X019884Y010334D02*
X020124Y010334D01*
X020124Y010175D02*
X019884Y010175D01*
X019884Y010017D02*
X020124Y010017D01*
X020153Y009858D02*
X019855Y009858D01*
X020504Y010004D02*
X020504Y011185D01*
X020685Y011254D01*
X021039Y011126D02*
X021134Y011126D01*
X021134Y010968D02*
X020931Y010968D01*
X021134Y010809D02*
X020724Y010809D01*
X020846Y010651D02*
X021134Y010651D01*
X020884Y010492D02*
X021388Y010492D01*
X021388Y010334D02*
X020884Y010334D01*
X020884Y010175D02*
X021388Y010175D01*
X021388Y010017D02*
X020884Y010017D01*
X020855Y009858D02*
X021297Y009858D01*
X021608Y009858D02*
X021254Y009504D01*
X017754Y009504D01*
X017254Y009254D01*
X016856Y009065D02*
X016724Y009065D01*
X016724Y008907D02*
X016979Y008907D01*
X016724Y008748D02*
X017520Y008748D01*
X017529Y008907D02*
X017718Y008907D01*
X017652Y009065D02*
X017916Y009065D01*
X018114Y009224D02*
X017694Y009224D01*
X017638Y009699D02*
X016724Y009699D01*
X016724Y009541D02*
X016919Y009541D01*
X016831Y009382D02*
X016724Y009382D01*
X016724Y009224D02*
X016814Y009224D01*
X017005Y009881D02*
X017166Y009814D01*
X017341Y009814D01*
X017503Y009881D01*
X017627Y010005D01*
X017694Y010166D01*
X017694Y010341D01*
X017627Y010503D01*
X017503Y010627D01*
X017341Y010694D01*
X017166Y010694D01*
X017005Y010627D01*
X016881Y010503D01*
X016814Y010341D01*
X016814Y010166D01*
X016881Y010005D01*
X017005Y009881D01*
X017060Y009858D02*
X016724Y009858D01*
X016724Y010017D02*
X016876Y010017D01*
X016814Y010175D02*
X016724Y010175D01*
X016724Y010334D02*
X016814Y010334D01*
X016876Y010492D02*
X016724Y010492D01*
X016724Y010651D02*
X017062Y010651D01*
X016870Y010809D02*
X018296Y010809D01*
X018162Y010651D02*
X017446Y010651D01*
X017631Y010492D02*
X018124Y010492D01*
X018124Y010334D02*
X017694Y010334D01*
X017694Y010175D02*
X018124Y010175D01*
X018124Y010017D02*
X017632Y010017D01*
X017448Y009858D02*
X018153Y009858D01*
X018855Y009858D02*
X019153Y009858D01*
X019124Y010017D02*
X018884Y010017D01*
X018884Y010175D02*
X019124Y010175D01*
X019124Y010334D02*
X018884Y010334D01*
X018884Y010492D02*
X019124Y010492D01*
X019162Y010651D02*
X018846Y010651D01*
X018711Y010809D02*
X019296Y010809D01*
X018077Y010968D02*
X017590Y010968D01*
X017677Y011126D02*
X017968Y011126D01*
X017947Y011285D02*
X017694Y011285D01*
X017652Y011443D02*
X017994Y011443D01*
X016523Y012712D02*
X020729Y012712D01*
X020784Y012870D02*
X016681Y012870D01*
X016364Y012553D02*
X020674Y012553D01*
X020688Y012395D02*
X016206Y012395D01*
X016047Y012236D02*
X020784Y012236D01*
X021169Y012078D02*
X015889Y012078D01*
X015541Y011919D02*
X021328Y011919D01*
X021554Y012004D02*
X023004Y012004D01*
X023144Y011864D01*
X023144Y010931D01*
X023400Y010931D02*
X023400Y012058D01*
X024615Y012058D01*
X024669Y012004D01*
X023797Y011761D02*
X023620Y011761D01*
X023620Y011602D02*
X023689Y011602D01*
X023676Y011443D02*
X023620Y011443D01*
X023728Y011004D02*
X023656Y010931D01*
X023728Y011004D02*
X024004Y011004D01*
X023874Y010651D02*
X025033Y010651D01*
X025320Y010651D02*
X025357Y010651D01*
X025357Y010809D02*
X025320Y010809D01*
X025644Y010651D02*
X025838Y010651D01*
X025814Y010492D02*
X023108Y010492D01*
X023108Y010334D02*
X024388Y010334D01*
X024951Y010334D02*
X025057Y010334D01*
X025620Y010334D02*
X025735Y010334D01*
X025716Y010004D02*
X026224Y010512D01*
X026506Y010809D02*
X026722Y010809D01*
X026618Y010651D02*
X026610Y010651D01*
X027004Y010512D02*
X027004Y010004D01*
X026004Y009004D01*
X025339Y009004D01*
X024669Y009004D02*
X024004Y009004D01*
X023504Y009004D01*
X023400Y008900D01*
X023400Y008077D01*
X023656Y008077D02*
X024077Y008077D01*
X023986Y007797D02*
X023914Y007797D01*
X023656Y008114D02*
X023655Y008114D01*
X023655Y008273D02*
X023656Y008273D01*
X023655Y008431D02*
X023656Y008431D01*
X023620Y008590D02*
X027284Y008590D01*
X026852Y009541D02*
X030144Y009541D01*
X030144Y009699D02*
X027011Y009699D01*
X027095Y009784D02*
X027095Y009784D01*
X027169Y009858D02*
X030144Y009858D01*
X030144Y010017D02*
X027224Y010017D01*
X027247Y010175D02*
X030144Y010175D01*
X030144Y010334D02*
X027374Y010334D01*
X027414Y010492D02*
X030144Y010492D01*
X030144Y010651D02*
X027390Y010651D01*
X027286Y010809D02*
X030144Y010809D01*
X030144Y011285D02*
X027401Y011285D01*
X027451Y011443D02*
X030144Y011443D01*
X030144Y011602D02*
X027443Y011602D01*
X027368Y011761D02*
X030144Y011761D01*
X028004Y011504D02*
X027012Y011504D01*
X027004Y011496D01*
X026994Y011602D02*
X027014Y011602D01*
X027014Y011761D02*
X026994Y011761D01*
X026640Y011761D02*
X026539Y011761D01*
X026580Y011285D02*
X026606Y011285D01*
X026747Y011126D02*
X026403Y011126D01*
X025942Y010809D02*
X025735Y010809D01*
X025716Y010004D02*
X025339Y010004D01*
X024669Y010004D02*
X024004Y010004D01*
X023504Y009504D01*
X023144Y009144D01*
X023144Y008077D01*
X022888Y008077D02*
X022888Y007620D01*
X023004Y007504D01*
X024004Y007504D01*
X024504Y008004D01*
X024669Y008004D01*
X024375Y007321D02*
X024132Y007321D01*
X024963Y007321D02*
X025045Y007321D01*
X025633Y007321D02*
X025875Y007321D01*
X025832Y007163D02*
X025675Y007163D01*
X025675Y007004D02*
X025832Y007004D01*
X025832Y006846D02*
X025675Y006846D01*
X025820Y006687D02*
X025875Y006687D01*
X025339Y007004D02*
X025339Y006169D01*
X025504Y006254D01*
X024425Y006529D02*
X021979Y006529D01*
X022034Y006370D02*
X024383Y006370D01*
X024342Y006211D02*
X023564Y006211D01*
X023554Y006211D02*
X023454Y006211D01*
X023444Y006211D02*
X022034Y006211D01*
X022034Y006053D02*
X023107Y006053D01*
X023454Y006053D02*
X023554Y006053D01*
X023554Y005894D02*
X023454Y005894D01*
X023454Y005736D02*
X023554Y005736D01*
X023554Y005577D02*
X023454Y005577D01*
X023454Y005419D02*
X023554Y005419D01*
X023554Y005304D02*
X023554Y006213D01*
X023637Y006200D01*
X023723Y006172D01*
X023803Y006131D01*
X023875Y006079D01*
X023939Y006015D01*
X023991Y005943D01*
X024032Y005863D01*
X024060Y005777D01*
X024074Y005689D01*
X024074Y005304D01*
X023554Y005304D01*
X023554Y005260D02*
X024094Y005260D01*
X024074Y005419D02*
X024135Y005419D01*
X024176Y005577D02*
X024074Y005577D01*
X024066Y005736D02*
X024218Y005736D01*
X024259Y005894D02*
X024016Y005894D01*
X023901Y006053D02*
X024300Y006053D01*
X024375Y006687D02*
X021820Y006687D01*
X021188Y006687D02*
X020884Y006687D01*
X020884Y006529D02*
X021029Y006529D01*
X020974Y006370D02*
X020851Y006370D01*
X020729Y006211D02*
X020974Y006211D01*
X020974Y006053D02*
X020360Y006053D01*
X020297Y005894D02*
X021114Y005894D01*
X021272Y005736D02*
X020771Y005736D01*
X020930Y005577D02*
X021284Y005577D01*
X021284Y005419D02*
X021034Y005419D01*
X021034Y005260D02*
X021284Y005260D01*
X021284Y005102D02*
X021034Y005102D01*
X020943Y004943D02*
X021284Y004943D01*
X021284Y004785D02*
X020784Y004785D01*
X020224Y004785D02*
X019425Y004785D01*
X019425Y004943D02*
X020065Y004943D01*
X019974Y005102D02*
X019352Y005102D01*
X019309Y005260D02*
X019974Y005260D01*
X019974Y005419D02*
X019365Y005419D01*
X019425Y005974D02*
X019425Y006028D01*
X019343Y006110D01*
X018834Y006110D01*
X018754Y006031D01*
X018674Y006110D01*
X018639Y006110D01*
X018639Y006169D01*
X018719Y006202D01*
X018826Y006309D01*
X018884Y006448D01*
X018884Y007080D01*
X018826Y007219D01*
X018761Y007284D01*
X019190Y007284D01*
X019184Y007278D01*
X019145Y007224D01*
X019115Y007165D01*
X019094Y007102D01*
X019084Y007037D01*
X019084Y007004D01*
X019504Y007004D01*
X019924Y007004D01*
X019924Y007037D01*
X019914Y007102D01*
X019893Y007165D01*
X019863Y007224D01*
X019824Y007278D01*
X019818Y007284D01*
X020247Y007284D01*
X020182Y007219D01*
X020124Y007080D01*
X020124Y006646D01*
X019855Y005974D01*
X019425Y005974D01*
X019401Y006053D02*
X019887Y006053D01*
X019950Y006211D02*
X019785Y006211D01*
X019778Y006204D02*
X019824Y006250D01*
X019863Y006304D01*
X019893Y006363D01*
X019914Y006426D01*
X019924Y006491D01*
X019924Y007004D01*
X020124Y007004D01*
X020124Y006846D02*
X019924Y006846D01*
X019924Y007004D02*
X019504Y007004D01*
X019504Y007004D01*
X019504Y007004D01*
X019504Y006104D01*
X019537Y006104D01*
X019602Y006114D01*
X019665Y006135D01*
X019724Y006165D01*
X019778Y006204D01*
X019895Y006370D02*
X020013Y006370D01*
X020077Y006529D02*
X019924Y006529D01*
X019924Y006687D02*
X020124Y006687D01*
X020158Y007163D02*
X019894Y007163D01*
X019504Y007004D02*
X019504Y007004D01*
X019084Y007004D01*
X018884Y007004D01*
X018884Y006846D02*
X019084Y006846D01*
X019084Y007004D02*
X019084Y006491D01*
X019094Y006426D01*
X019115Y006363D01*
X019145Y006304D01*
X019184Y006250D01*
X019230Y006204D01*
X019284Y006165D01*
X019343Y006135D01*
X019406Y006114D01*
X019471Y006104D01*
X019504Y006104D01*
X019504Y007004D01*
X019504Y006846D02*
X019504Y006846D01*
X019504Y006687D02*
X019504Y006687D01*
X019504Y006529D02*
X019504Y006529D01*
X019504Y006370D02*
X019504Y006370D01*
X019504Y006211D02*
X019504Y006211D01*
X019222Y006211D02*
X018729Y006211D01*
X018732Y006053D02*
X018776Y006053D01*
X018419Y005754D02*
X018419Y006669D01*
X018504Y007004D01*
X018849Y007163D02*
X019114Y007163D01*
X019084Y006687D02*
X018884Y006687D01*
X018884Y006529D02*
X019084Y006529D01*
X019112Y006370D02*
X018851Y006370D01*
X018254Y007504D02*
X017254Y006254D01*
X017254Y003754D01*
X016440Y004309D02*
X009224Y004309D01*
X009224Y004468D02*
X016534Y004468D01*
X016452Y004626D02*
X009224Y004626D01*
X009224Y004785D02*
X016426Y004785D01*
X016479Y004943D02*
X009224Y004943D01*
X009224Y005102D02*
X016534Y005102D01*
X016534Y005260D02*
X009224Y005260D01*
X009224Y005419D02*
X016534Y005419D01*
X016534Y005577D02*
X009224Y005577D01*
X009224Y005736D02*
X016534Y005736D01*
X016534Y005894D02*
X009224Y005894D01*
X008784Y005894D02*
X008724Y005894D01*
X008724Y005736D02*
X008784Y005736D01*
X008784Y005577D02*
X008724Y005577D01*
X008724Y005419D02*
X008784Y005419D01*
X008784Y005260D02*
X008724Y005260D01*
X008724Y005102D02*
X008784Y005102D01*
X008784Y004943D02*
X008724Y004943D01*
X008724Y004785D02*
X008784Y004785D01*
X008784Y004626D02*
X008724Y004626D01*
X008724Y004468D02*
X008784Y004468D01*
X008784Y004309D02*
X008724Y004309D01*
X008724Y004150D02*
X008784Y004150D01*
X008784Y003992D02*
X008724Y003992D01*
X008724Y003833D02*
X008784Y003833D01*
X009224Y003833D02*
X011022Y003833D01*
X010864Y003675D02*
X009288Y003675D01*
X009332Y003516D02*
X010705Y003516D01*
X010547Y003358D02*
X009298Y003358D01*
X009126Y003199D02*
X010217Y003199D01*
X010089Y003041D02*
X008919Y003041D01*
X008882Y003199D02*
X008791Y003199D01*
X009004Y003504D02*
X009004Y008754D01*
X007254Y010504D01*
X007004Y010504D01*
X006687Y010809D02*
X006620Y010809D01*
X006564Y010651D02*
X006444Y010651D01*
X006444Y010492D02*
X006564Y010492D01*
X006564Y010334D02*
X006444Y010334D01*
X006297Y010175D02*
X006711Y010175D01*
X006736Y009858D02*
X006272Y009858D01*
X006431Y009699D02*
X006577Y009699D01*
X006564Y009541D02*
X006528Y009541D01*
X006254Y009504D02*
X006504Y009254D01*
X006504Y007004D01*
X007504Y006004D01*
X007504Y002504D01*
X008504Y002504D02*
X008504Y008254D01*
X007254Y009504D01*
X007004Y009504D01*
X007272Y009858D02*
X007589Y009858D01*
X007431Y009699D02*
X007747Y009699D01*
X007906Y009541D02*
X007528Y009541D01*
X007687Y009382D02*
X008064Y009382D01*
X008223Y009224D02*
X007845Y009224D01*
X008004Y009065D02*
X008381Y009065D01*
X008540Y008907D02*
X008162Y008907D01*
X008321Y008748D02*
X008699Y008748D01*
X008784Y008590D02*
X008479Y008590D01*
X008638Y008431D02*
X008784Y008431D01*
X008784Y008273D02*
X008724Y008273D01*
X008724Y008114D02*
X008784Y008114D01*
X008784Y007955D02*
X008724Y007955D01*
X008724Y007797D02*
X008784Y007797D01*
X008784Y007638D02*
X008724Y007638D01*
X008724Y007480D02*
X008784Y007480D01*
X008784Y007321D02*
X008724Y007321D01*
X008724Y007163D02*
X008784Y007163D01*
X008784Y007004D02*
X008724Y007004D01*
X008724Y006846D02*
X008784Y006846D01*
X008784Y006687D02*
X008724Y006687D01*
X008724Y006529D02*
X008784Y006529D01*
X008784Y006370D02*
X008724Y006370D01*
X008724Y006211D02*
X008784Y006211D01*
X008784Y006053D02*
X008724Y006053D01*
X009224Y007004D02*
X016943Y007004D01*
X016785Y006846D02*
X014841Y006846D01*
X014984Y006687D02*
X016626Y006687D01*
X016534Y006529D02*
X014984Y006529D01*
X014984Y006370D02*
X016534Y006370D01*
X016534Y006211D02*
X014890Y006211D01*
X014732Y006053D02*
X016534Y006053D01*
X017102Y007163D02*
X014785Y007163D01*
X014944Y007321D02*
X016875Y007321D01*
X016717Y007480D02*
X014944Y007480D01*
X014944Y007638D02*
X016558Y007638D01*
X016400Y007797D02*
X014833Y007797D01*
X014175Y007797D02*
X013833Y007797D01*
X013944Y007638D02*
X014064Y007638D01*
X014064Y007480D02*
X013944Y007480D01*
X013944Y007321D02*
X014064Y007321D01*
X013223Y007163D02*
X012785Y007163D01*
X012686Y007064D02*
X012322Y007064D01*
X012064Y007322D01*
X012064Y007686D01*
X012322Y007944D01*
X012686Y007944D01*
X012944Y007686D01*
X012944Y007322D01*
X012686Y007064D01*
X012686Y006944D02*
X012322Y006944D01*
X012064Y006686D01*
X012064Y006322D01*
X012322Y006064D01*
X012686Y006064D01*
X012944Y006322D01*
X012944Y006686D01*
X012686Y006944D01*
X012784Y006846D02*
X013223Y006846D01*
X013065Y006687D02*
X012943Y006687D01*
X012944Y006529D02*
X013064Y006529D01*
X013064Y006370D02*
X012944Y006370D01*
X012834Y006211D02*
X013174Y006211D01*
X012223Y006846D02*
X011784Y006846D01*
X011686Y006944D02*
X011322Y006944D01*
X011064Y006686D01*
X011064Y006322D01*
X011322Y006064D01*
X011686Y006064D01*
X011944Y006322D01*
X011944Y006686D01*
X011686Y006944D01*
X011686Y007064D02*
X011944Y007322D01*
X011944Y007686D01*
X011686Y007944D01*
X011322Y007944D01*
X011064Y007686D01*
X011064Y007322D01*
X011322Y007064D01*
X011686Y007064D01*
X011785Y007163D02*
X012223Y007163D01*
X012064Y007321D02*
X011944Y007321D01*
X011944Y007480D02*
X012064Y007480D01*
X012064Y007638D02*
X011944Y007638D01*
X011833Y007797D02*
X012175Y007797D01*
X012833Y007797D02*
X013175Y007797D01*
X013064Y007638D02*
X012944Y007638D01*
X012944Y007480D02*
X013064Y007480D01*
X013064Y007321D02*
X012944Y007321D01*
X012065Y006687D02*
X011943Y006687D01*
X011944Y006529D02*
X012064Y006529D01*
X012064Y006370D02*
X011944Y006370D01*
X011834Y006211D02*
X012174Y006211D01*
X011174Y006211D02*
X010834Y006211D01*
X010944Y006370D02*
X011064Y006370D01*
X011064Y006529D02*
X010944Y006529D01*
X010943Y006687D02*
X011065Y006687D01*
X011223Y006846D02*
X010784Y006846D01*
X010785Y007163D02*
X011223Y007163D01*
X011064Y007321D02*
X010944Y007321D01*
X010944Y007480D02*
X011064Y007480D01*
X011064Y007638D02*
X010944Y007638D01*
X010833Y007797D02*
X011175Y007797D01*
X014484Y006370D02*
X014524Y006370D01*
X014524Y006211D02*
X014484Y006211D01*
X014484Y006053D02*
X014524Y006053D01*
X015964Y003992D02*
X009224Y003992D01*
X009224Y004150D02*
X016202Y004150D01*
X017754Y004754D02*
X018419Y004754D01*
X019425Y004626D02*
X021284Y004626D01*
X021724Y004626D02*
X022985Y004626D01*
X022939Y004785D02*
X021724Y004785D01*
X021724Y004943D02*
X022934Y004943D01*
X022934Y005102D02*
X021724Y005102D01*
X021724Y004468D02*
X023094Y004468D01*
X023454Y004468D02*
X023554Y004468D01*
X023554Y004626D02*
X023454Y004626D01*
X023454Y004785D02*
X023554Y004785D01*
X023554Y004943D02*
X023454Y004943D01*
X023454Y005102D02*
X023554Y005102D01*
X024068Y004785D02*
X024162Y004785D01*
X025596Y004785D02*
X026224Y004785D01*
X026065Y004943D02*
X025754Y004943D01*
X025913Y005102D02*
X025974Y005102D01*
X026463Y007321D02*
X026545Y007321D01*
X024332Y008748D02*
X024212Y008748D01*
X023796Y008748D02*
X023620Y008748D01*
X023071Y009382D02*
X021943Y009382D01*
X022084Y009541D02*
X022503Y009541D01*
X022426Y009699D02*
X022376Y009699D01*
X022132Y009699D02*
X022084Y009699D01*
X021864Y009614D02*
X021504Y009254D01*
X018504Y009254D01*
X017254Y008254D01*
X016851Y008431D02*
X016724Y008431D01*
X016724Y008273D02*
X016814Y008273D01*
X016836Y008114D02*
X016724Y008114D01*
X016863Y007955D02*
X016930Y007955D01*
X017022Y007797D02*
X017236Y007797D01*
X018254Y007504D02*
X021754Y007504D01*
X021864Y007614D01*
X021864Y008077D01*
X022084Y007638D02*
X022668Y007638D01*
X022717Y007480D02*
X022041Y007480D01*
X021882Y007321D02*
X022875Y007321D01*
X022632Y008077D02*
X022632Y008626D01*
X022754Y009004D01*
X019254Y009004D01*
X018754Y008504D01*
X016967Y008590D02*
X016724Y008590D01*
X021061Y011285D02*
X021134Y011285D01*
X021014Y011443D02*
X022176Y011443D01*
X022189Y011602D02*
X020828Y011602D01*
X021608Y010931D02*
X021608Y009858D01*
X021864Y009614D02*
X021864Y010931D01*
X022376Y010931D02*
X022376Y010126D01*
X022254Y010004D01*
X022754Y009754D02*
X022888Y009888D01*
X022888Y010931D01*
X022632Y010931D02*
X022632Y011376D01*
X022504Y011504D01*
X022297Y011761D02*
X007370Y011761D01*
X007444Y011602D02*
X009673Y011602D01*
X009524Y011443D02*
X007444Y011443D01*
X007407Y011285D02*
X009524Y011285D01*
X009524Y011126D02*
X007249Y011126D01*
X006779Y010968D02*
X009611Y010968D01*
X010004Y011254D02*
X009004Y011254D01*
X008504Y011754D01*
X008504Y012754D01*
X007754Y013504D01*
X004254Y013504D01*
X003754Y013004D01*
X001254Y013004D01*
X001254Y016254D01*
X001894Y016894D01*
X001974Y016894D01*
X004534Y016894D01*
X004514Y016874D02*
X004514Y016414D01*
X004496Y016414D01*
X004421Y016426D01*
X004350Y016449D01*
X004282Y016483D01*
X004221Y016528D01*
X004168Y016581D01*
X004123Y016642D01*
X004089Y016710D01*
X004066Y016781D01*
X004054Y016856D01*
X004054Y016874D01*
X004514Y016874D01*
X004514Y016834D02*
X004554Y016834D01*
X004554Y016992D02*
X004514Y016992D01*
X004514Y017151D02*
X004554Y017151D01*
X004554Y017310D02*
X004514Y017310D01*
X004292Y017310D02*
X002216Y017310D01*
X002225Y017304D02*
X002158Y017339D01*
X002086Y017362D01*
X002012Y017374D01*
X001994Y017374D01*
X001994Y016914D01*
X002454Y016914D01*
X002454Y016932D01*
X002442Y017006D01*
X002419Y017078D01*
X002384Y017145D01*
X002340Y017207D01*
X002287Y017260D01*
X002225Y017304D01*
X002380Y017151D02*
X004127Y017151D01*
X004064Y016992D02*
X002444Y016992D01*
X002454Y016874D02*
X001994Y016874D01*
X001994Y016914D01*
X001954Y016914D01*
X001954Y017374D01*
X001936Y017374D01*
X001861Y017362D01*
X001790Y017339D01*
X001722Y017304D01*
X001661Y017260D01*
X001608Y017207D01*
X001563Y017145D01*
X001529Y017078D01*
X001506Y017006D01*
X001494Y016932D01*
X001494Y016914D01*
X001954Y016914D01*
X001954Y016874D01*
X001994Y016874D01*
X001994Y016414D01*
X002012Y016414D01*
X002086Y016426D01*
X002158Y016449D01*
X002225Y016483D01*
X002287Y016528D01*
X002340Y016581D01*
X002384Y016642D01*
X002419Y016710D01*
X002442Y016781D01*
X002454Y016856D01*
X002454Y016874D01*
X002450Y016834D02*
X004057Y016834D01*
X004107Y016675D02*
X002401Y016675D01*
X002271Y016517D02*
X004236Y016517D01*
X004514Y016517D02*
X004554Y016517D01*
X004554Y016675D02*
X004514Y016675D01*
X004940Y017151D02*
X006296Y017151D01*
X006137Y017310D02*
X004776Y017310D01*
X004596Y017714D02*
X004411Y017714D01*
X004241Y017785D01*
X004110Y017916D01*
X004039Y018087D01*
X004039Y018921D01*
X004110Y019092D01*
X004241Y019223D01*
X004411Y019294D01*
X004596Y019294D01*
X004767Y019223D01*
X004898Y019092D01*
X004969Y018921D01*
X004969Y018087D01*
X004898Y017916D01*
X004767Y017785D01*
X004596Y017714D01*
X004767Y017785D02*
X005241Y017785D01*
X005098Y017944D02*
X004909Y017944D01*
X004969Y018102D02*
X005039Y018102D01*
X005039Y018261D02*
X004969Y018261D01*
X004969Y018419D02*
X005039Y018419D01*
X005039Y018578D02*
X004969Y018578D01*
X004969Y018736D02*
X005039Y018736D01*
X005039Y018895D02*
X004969Y018895D01*
X004914Y019054D02*
X005094Y019054D01*
X005230Y019212D02*
X004778Y019212D01*
X004230Y019212D02*
X003778Y019212D01*
X003767Y019223D02*
X003596Y019294D01*
X003411Y019294D01*
X003241Y019223D01*
X003110Y019092D01*
X003039Y018921D01*
X003039Y018087D01*
X003110Y017916D01*
X003241Y017785D01*
X003411Y017714D01*
X003596Y017714D01*
X003767Y017785D01*
X003898Y017916D01*
X003969Y018087D01*
X003969Y018921D01*
X003898Y019092D01*
X003767Y019223D01*
X003914Y019054D02*
X004094Y019054D01*
X004039Y018895D02*
X003969Y018895D01*
X003969Y018736D02*
X004039Y018736D01*
X004039Y018578D02*
X003969Y018578D01*
X003969Y018419D02*
X004039Y018419D01*
X004039Y018261D02*
X003969Y018261D01*
X003969Y018102D02*
X004039Y018102D01*
X004098Y017944D02*
X003909Y017944D01*
X003767Y017785D02*
X004241Y017785D01*
X003241Y017785D02*
X002767Y017785D01*
X002898Y017916D01*
X002969Y018087D01*
X002969Y018921D01*
X002898Y019092D01*
X002767Y019223D01*
X002596Y019294D01*
X002411Y019294D01*
X002241Y019223D01*
X002110Y019092D01*
X002039Y018921D01*
X002039Y018087D01*
X002110Y017916D01*
X002241Y017785D01*
X002411Y017714D01*
X002596Y017714D01*
X002767Y017785D01*
X002909Y017944D02*
X003098Y017944D01*
X003039Y018102D02*
X002969Y018102D01*
X002969Y018261D02*
X003039Y018261D01*
X003039Y018419D02*
X002969Y018419D01*
X002969Y018578D02*
X003039Y018578D01*
X003039Y018736D02*
X002969Y018736D01*
X002969Y018895D02*
X003039Y018895D01*
X003094Y019054D02*
X002914Y019054D01*
X002778Y019212D02*
X003230Y019212D01*
X002230Y019212D02*
X001778Y019212D01*
X001767Y019223D02*
X001898Y019092D01*
X001969Y018921D01*
X001969Y018087D01*
X001898Y017916D01*
X001767Y017785D01*
X001596Y017714D01*
X001411Y017714D01*
X001241Y017785D01*
X001110Y017916D01*
X001039Y018087D01*
X001039Y018921D01*
X001110Y019092D01*
X001241Y019223D01*
X001411Y019294D01*
X001596Y019294D01*
X001767Y019223D01*
X001914Y019054D02*
X002094Y019054D01*
X002039Y018895D02*
X001969Y018895D01*
X001969Y018736D02*
X002039Y018736D01*
X002039Y018578D02*
X001969Y018578D01*
X001969Y018419D02*
X002039Y018419D01*
X002039Y018261D02*
X001969Y018261D01*
X001969Y018102D02*
X002039Y018102D01*
X002098Y017944D02*
X001909Y017944D01*
X001767Y017785D02*
X002241Y017785D01*
X001994Y017310D02*
X001954Y017310D01*
X001954Y017151D02*
X001994Y017151D01*
X001994Y016992D02*
X001954Y016992D01*
X001954Y016874D02*
X001494Y016874D01*
X001494Y016856D01*
X001506Y016781D01*
X001529Y016710D01*
X001563Y016642D01*
X001608Y016581D01*
X001661Y016528D01*
X001722Y016483D01*
X001790Y016449D01*
X001861Y016426D01*
X001936Y016414D01*
X001954Y016414D01*
X001954Y016874D01*
X001954Y016834D02*
X001994Y016834D01*
X001994Y016675D02*
X001954Y016675D01*
X001954Y016517D02*
X001994Y016517D01*
X001676Y016517D02*
X000734Y016517D01*
X000734Y016675D02*
X001547Y016675D01*
X001497Y016834D02*
X000734Y016834D01*
X000734Y016992D02*
X001504Y016992D01*
X001567Y017151D02*
X000734Y017151D01*
X000734Y017310D02*
X001732Y017310D01*
X001241Y017785D02*
X000734Y017785D01*
X000734Y017627D02*
X005820Y017627D01*
X005979Y017468D02*
X000734Y017468D01*
X000734Y017944D02*
X001098Y017944D01*
X001039Y018102D02*
X000734Y018102D01*
X000734Y018261D02*
X001039Y018261D01*
X001039Y018419D02*
X000734Y018419D01*
X000734Y018578D02*
X001039Y018578D01*
X001039Y018736D02*
X000734Y018736D01*
X000734Y018895D02*
X001039Y018895D01*
X001094Y019054D02*
X000734Y019054D01*
X000734Y019212D02*
X001230Y019212D01*
X000734Y019371D02*
X022138Y019371D01*
X021979Y019529D02*
X000734Y019529D01*
X000734Y019688D02*
X021974Y019688D01*
X021974Y019846D02*
X000734Y019846D01*
X000734Y020005D02*
X022005Y020005D01*
X022164Y020163D02*
X000734Y020163D01*
X005969Y018419D02*
X006039Y018419D01*
X006039Y018261D02*
X005969Y018261D01*
X005969Y018102D02*
X006039Y018102D01*
X006504Y018254D02*
X006504Y018504D01*
X007969Y018419D02*
X008039Y018419D01*
X008039Y018261D02*
X007969Y018261D01*
X007969Y018102D02*
X008039Y018102D01*
X008969Y018736D02*
X010039Y018736D01*
X010039Y018578D02*
X009241Y018578D01*
X009400Y018419D02*
X010039Y018419D01*
X010039Y018261D02*
X009558Y018261D01*
X009717Y018102D02*
X010039Y018102D01*
X010098Y017944D02*
X009875Y017944D01*
X010034Y017785D02*
X010241Y017785D01*
X010767Y017785D02*
X011241Y017785D01*
X011098Y017944D02*
X010909Y017944D01*
X010969Y018102D02*
X011039Y018102D01*
X011039Y018261D02*
X010969Y018261D01*
X010969Y018419D02*
X011039Y018419D01*
X011039Y018578D02*
X010969Y018578D01*
X010969Y018736D02*
X011039Y018736D01*
X011039Y018895D02*
X010969Y018895D01*
X010914Y019054D02*
X011094Y019054D01*
X011230Y019212D02*
X010778Y019212D01*
X010230Y019212D02*
X008778Y019212D01*
X008914Y019054D02*
X010094Y019054D01*
X010039Y018895D02*
X008969Y018895D01*
X004205Y015407D02*
X002303Y015407D01*
X002504Y015114D02*
X001974Y015114D01*
X001645Y015407D02*
X000734Y015407D01*
X000734Y015248D02*
X001553Y015248D01*
X001534Y015090D02*
X000734Y015090D01*
X000734Y014931D02*
X001573Y014931D01*
X001693Y014773D02*
X000734Y014773D01*
X000734Y014614D02*
X002284Y014614D01*
X002284Y014456D02*
X000734Y014456D01*
X000734Y014297D02*
X002284Y014297D01*
X002284Y014139D02*
X000734Y014139D01*
X000734Y013029D02*
X009607Y013029D01*
X009765Y012870D02*
X007260Y012870D01*
X006748Y012870D02*
X006260Y012870D01*
X006418Y012712D02*
X006590Y012712D01*
X007004Y011504D02*
X006504Y011004D01*
X005254Y011004D01*
X005004Y010754D01*
X005504Y010254D02*
X005504Y002504D01*
X004492Y001455D02*
X000734Y001455D01*
X000734Y001297D02*
X004650Y001297D01*
X001284Y003358D02*
X000734Y003358D01*
X000734Y003516D02*
X001284Y003516D01*
X001284Y003675D02*
X000734Y003675D01*
X000734Y003833D02*
X001284Y003833D01*
X001431Y003992D02*
X000734Y003992D01*
X000734Y004150D02*
X001589Y004150D01*
X001748Y004309D02*
X000734Y004309D01*
X000734Y004468D02*
X001906Y004468D01*
X002065Y004626D02*
X000734Y004626D01*
X000734Y004785D02*
X002224Y004785D01*
X002382Y004943D02*
X000734Y004943D01*
X000734Y005102D02*
X002541Y005102D01*
X002699Y005260D02*
X000734Y005260D01*
X000734Y005419D02*
X002858Y005419D01*
X003016Y005577D02*
X000734Y005577D01*
X000734Y005736D02*
X003175Y005736D01*
X003284Y005894D02*
X000734Y005894D01*
X000734Y006053D02*
X002053Y006053D01*
X001814Y006211D02*
X000734Y006211D01*
X000734Y006370D02*
X001731Y006370D01*
X001714Y006529D02*
X000734Y006529D01*
X000734Y006687D02*
X001752Y006687D01*
X001864Y006846D02*
X000734Y006846D01*
X000734Y007004D02*
X002284Y007004D01*
X001863Y007163D02*
X000734Y007163D01*
X000734Y007321D02*
X001752Y007321D01*
X001714Y007480D02*
X000734Y007480D01*
X000734Y007638D02*
X001732Y007638D01*
X001815Y007797D02*
X000734Y007797D01*
X000734Y007955D02*
X002055Y007955D01*
X001857Y008114D02*
X000734Y008114D01*
X000734Y008273D02*
X001730Y008273D01*
X001680Y008431D02*
X000734Y008431D01*
X000734Y008590D02*
X001682Y008590D01*
X001737Y008748D02*
X000734Y008748D01*
X000734Y008907D02*
X001875Y008907D01*
X001928Y009065D02*
X000734Y009065D01*
X000734Y009224D02*
X001759Y009224D01*
X001688Y009382D02*
X000734Y009382D01*
X000734Y009541D02*
X001674Y009541D01*
X001712Y009699D02*
X000734Y009699D01*
X001254Y010754D02*
X002504Y009504D01*
X002504Y008504D01*
X002532Y008532D02*
X002476Y008532D01*
X002476Y008999D01*
X002476Y009475D01*
X002532Y009475D01*
X002532Y008999D01*
X002532Y008532D01*
X002532Y008590D02*
X002476Y008590D01*
X002476Y008748D02*
X002532Y008748D01*
X002532Y008907D02*
X002476Y008907D01*
X002476Y009065D02*
X002532Y009065D01*
X002532Y009224D02*
X002476Y009224D01*
X002476Y009382D02*
X002532Y009382D01*
X002532Y009541D02*
X002476Y009541D01*
X002476Y009699D02*
X002532Y009699D01*
X002532Y009858D02*
X002476Y009858D01*
X003189Y009858D02*
X003284Y009858D01*
X002504Y010504D02*
X002504Y011504D01*
X001254Y010754D02*
X001254Y013004D01*
X002255Y014773D02*
X002284Y014773D01*
X002724Y014773D02*
X004253Y014773D01*
X009984Y011602D02*
X010024Y011602D01*
X010024Y011443D02*
X009984Y011443D01*
X009984Y011285D02*
X010024Y011285D01*
X007430Y010017D02*
X005724Y010017D01*
X005724Y009858D02*
X005736Y009858D01*
X006004Y009504D02*
X006254Y009504D01*
X006284Y009162D02*
X006284Y008903D01*
X006203Y008984D01*
X006024Y008984D01*
X006024Y008524D01*
X005984Y008524D01*
X005984Y008984D01*
X005805Y008984D01*
X005724Y008903D01*
X005724Y009162D01*
X005822Y009064D01*
X006186Y009064D01*
X006284Y009162D01*
X006284Y009065D02*
X006187Y009065D01*
X006280Y008907D02*
X006284Y008907D01*
X006024Y008907D02*
X005984Y008907D01*
X005984Y008748D02*
X006024Y008748D01*
X006024Y008590D02*
X005984Y008590D01*
X005984Y008484D02*
X006024Y008484D01*
X006024Y008024D01*
X006203Y008024D01*
X006284Y008105D01*
X006284Y007095D01*
X006284Y006913D01*
X007284Y005913D01*
X007284Y005610D01*
X007059Y005835D01*
X006699Y005984D01*
X006309Y005984D01*
X005949Y005835D01*
X005724Y005610D01*
X005724Y008105D01*
X005805Y008024D01*
X005984Y008024D01*
X005984Y008484D01*
X005984Y008431D02*
X006024Y008431D01*
X006024Y008273D02*
X005984Y008273D01*
X005984Y008114D02*
X006024Y008114D01*
X006284Y007955D02*
X005724Y007955D01*
X005724Y007797D02*
X006284Y007797D01*
X006284Y007638D02*
X005724Y007638D01*
X005724Y007480D02*
X006284Y007480D01*
X006284Y007321D02*
X005724Y007321D01*
X005724Y007163D02*
X006284Y007163D01*
X006284Y007004D02*
X005724Y007004D01*
X005724Y006846D02*
X006351Y006846D01*
X006510Y006687D02*
X005724Y006687D01*
X005724Y006529D02*
X006668Y006529D01*
X006827Y006370D02*
X005724Y006370D01*
X005724Y006211D02*
X006985Y006211D01*
X007144Y006053D02*
X005724Y006053D01*
X005724Y005894D02*
X006093Y005894D01*
X005850Y005736D02*
X005724Y005736D01*
X006915Y005894D02*
X007284Y005894D01*
X007284Y005736D02*
X007158Y005736D01*
X003284Y006053D02*
X002955Y006053D01*
X003194Y006211D02*
X003284Y006211D01*
X003276Y006370D02*
X003284Y006370D01*
X002504Y006504D02*
X002504Y007504D01*
X003193Y007797D02*
X003284Y007797D01*
X003284Y007955D02*
X002953Y007955D01*
X003151Y008114D02*
X003284Y008114D01*
X003277Y008273D02*
X003284Y008273D01*
X003276Y007638D02*
X003284Y007638D01*
X002532Y008114D02*
X002476Y008114D01*
X002476Y008273D02*
X002532Y008273D01*
X002532Y008431D02*
X002476Y008431D01*
X005724Y008907D02*
X005728Y008907D01*
X005724Y009065D02*
X005820Y009065D01*
X005504Y010254D02*
X005754Y010504D01*
X006004Y010504D01*
X015651Y013029D02*
X015718Y013029D01*
X016504Y013504D02*
X016504Y018504D01*
X016969Y018419D02*
X017039Y018419D01*
X017039Y018261D02*
X016969Y018261D01*
X016969Y018102D02*
X017039Y018102D01*
X017098Y017944D02*
X016909Y017944D01*
X016767Y017785D02*
X017241Y017785D01*
X017284Y017627D02*
X016724Y017627D01*
X016724Y017468D02*
X017284Y017468D01*
X017284Y017310D02*
X016724Y017310D01*
X016724Y017151D02*
X017284Y017151D01*
X017284Y016992D02*
X016724Y016992D01*
X016724Y016834D02*
X017284Y016834D01*
X017284Y016675D02*
X016724Y016675D01*
X016724Y016517D02*
X017284Y016517D01*
X017284Y016358D02*
X016724Y016358D01*
X016724Y016200D02*
X017284Y016200D01*
X017284Y016041D02*
X016724Y016041D01*
X016724Y015883D02*
X017284Y015883D01*
X017284Y015724D02*
X016724Y015724D01*
X016724Y015566D02*
X017284Y015566D01*
X017284Y015407D02*
X016724Y015407D01*
X016724Y015248D02*
X017284Y015248D01*
X017284Y015090D02*
X016724Y015090D01*
X016724Y014931D02*
X017284Y014931D01*
X017284Y014773D02*
X016724Y014773D01*
X016724Y014614D02*
X017284Y014614D01*
X017284Y014456D02*
X016724Y014456D01*
X016724Y014297D02*
X017284Y014297D01*
X017284Y014139D02*
X016724Y014139D01*
X016724Y013980D02*
X017169Y013980D01*
X017011Y013822D02*
X016724Y013822D01*
X016724Y013663D02*
X016852Y013663D01*
X017474Y013663D02*
X018273Y013663D01*
X018129Y013629D02*
X018004Y013754D01*
X018004Y017004D01*
X017724Y016992D02*
X020304Y016992D01*
X020349Y016974D02*
X020659Y016974D01*
X020946Y017093D01*
X021165Y017312D01*
X021284Y017599D01*
X021284Y017909D01*
X021165Y018196D01*
X020946Y018415D01*
X020659Y018534D01*
X020349Y018534D01*
X020062Y018415D01*
X019843Y018196D01*
X019724Y017909D01*
X019724Y017599D01*
X019843Y017312D01*
X020062Y017093D01*
X020349Y016974D01*
X020704Y016992D02*
X026304Y016992D01*
X026349Y016974D02*
X026659Y016974D01*
X026946Y017093D01*
X027165Y017312D01*
X027284Y017599D01*
X027284Y017909D01*
X027165Y018196D01*
X026946Y018415D01*
X026659Y018534D01*
X026349Y018534D01*
X026062Y018415D01*
X025843Y018196D01*
X025724Y017909D01*
X025724Y017599D01*
X025843Y017312D01*
X026062Y017093D01*
X026349Y016974D01*
X026704Y016992D02*
X028181Y016992D01*
X028023Y016834D02*
X017724Y016834D01*
X017724Y016675D02*
X027864Y016675D01*
X027706Y016517D02*
X023881Y016517D01*
X023953Y016444D02*
X023804Y016593D01*
X023609Y016674D01*
X023398Y016674D01*
X023204Y016593D01*
X023055Y016444D01*
X022974Y016249D01*
X022974Y015258D01*
X023055Y015064D01*
X023204Y014915D01*
X023398Y014834D01*
X023609Y014834D01*
X023804Y014915D01*
X023953Y015064D01*
X024034Y015258D01*
X024034Y016249D01*
X023953Y016444D01*
X023989Y016358D02*
X027547Y016358D01*
X027389Y016200D02*
X026808Y016200D01*
X026966Y016041D02*
X027230Y016041D01*
X027072Y015883D02*
X027034Y015883D01*
X027535Y015724D02*
X028450Y015724D01*
X028362Y015883D02*
X027694Y015883D01*
X027852Y016041D02*
X028345Y016041D01*
X028392Y016200D02*
X028011Y016200D01*
X028169Y016358D02*
X028537Y016358D01*
X028328Y016517D02*
X030144Y016517D01*
X030144Y016675D02*
X029444Y016675D01*
X029585Y016834D02*
X030144Y016834D01*
X030144Y016992D02*
X029624Y016992D01*
X029594Y017151D02*
X030144Y017151D01*
X030144Y017310D02*
X029476Y017310D01*
X029004Y017004D02*
X028504Y017004D01*
X025504Y014004D01*
X025339Y014004D01*
X025020Y014297D02*
X024987Y014297D01*
X025053Y014456D02*
X024016Y014456D01*
X023754Y014254D02*
X024669Y014004D01*
X024332Y013822D02*
X024094Y013822D01*
X023913Y013822D02*
X019632Y013822D01*
X019593Y014397D02*
X019084Y014397D01*
X019004Y014477D01*
X018924Y014397D01*
X018414Y014397D01*
X018332Y014479D01*
X018332Y015028D01*
X018414Y015110D01*
X018449Y015110D01*
X018449Y015578D01*
X018449Y015632D01*
X018426Y015689D01*
X018426Y015819D01*
X018476Y015940D01*
X018568Y016032D01*
X018689Y016082D01*
X018819Y016082D01*
X018940Y016032D01*
X019032Y015940D01*
X019082Y015819D01*
X019082Y015689D01*
X019032Y015568D01*
X018940Y015476D01*
X018889Y015455D01*
X018889Y015110D01*
X018924Y015110D01*
X019004Y015031D01*
X019084Y015110D01*
X019381Y015110D01*
X019382Y015123D01*
X019443Y015170D01*
X019497Y015224D01*
X019514Y015224D01*
X019527Y015234D01*
X019603Y015224D01*
X019680Y015224D01*
X019691Y015212D01*
X021037Y015037D01*
X021284Y015284D01*
X021723Y015284D01*
X022034Y014973D01*
X022034Y014534D01*
X021723Y014224D01*
X021284Y014224D01*
X020974Y014534D01*
X020974Y014601D01*
X019675Y014771D01*
X019675Y014479D01*
X019593Y014397D01*
X019652Y014456D02*
X021053Y014456D01*
X021211Y014297D02*
X017724Y014297D01*
X017724Y014139D02*
X023446Y014139D01*
X023426Y014297D02*
X021797Y014297D01*
X021955Y014456D02*
X023492Y014456D01*
X023187Y014931D02*
X022034Y014931D01*
X022034Y014773D02*
X024974Y014773D01*
X024974Y014931D02*
X023821Y014931D01*
X023964Y015090D02*
X025090Y015090D01*
X025249Y015248D02*
X024030Y015248D01*
X024034Y015407D02*
X026101Y015407D01*
X025974Y015566D02*
X024034Y015566D01*
X024034Y015724D02*
X025974Y015724D01*
X025974Y015883D02*
X024034Y015883D01*
X024034Y016041D02*
X026042Y016041D01*
X026200Y016200D02*
X024034Y016200D01*
X023127Y016517D02*
X017724Y016517D01*
X017724Y016358D02*
X023019Y016358D01*
X022974Y016200D02*
X020808Y016200D01*
X020723Y016284D02*
X020284Y016284D01*
X019974Y015973D01*
X019974Y015534D01*
X020284Y015224D01*
X020723Y015224D01*
X021034Y015534D01*
X021034Y015973D01*
X020723Y016284D01*
X020966Y016041D02*
X022974Y016041D01*
X022974Y015883D02*
X021034Y015883D01*
X021034Y015724D02*
X022974Y015724D01*
X022974Y015566D02*
X021034Y015566D01*
X020906Y015407D02*
X022974Y015407D01*
X022978Y015248D02*
X021759Y015248D01*
X021917Y015090D02*
X023044Y015090D01*
X022034Y014614D02*
X024974Y014614D01*
X025759Y015248D02*
X026260Y015248D01*
X026279Y015090D02*
X025917Y015090D01*
X026034Y014931D02*
X026120Y014931D01*
X026767Y014456D02*
X030144Y014456D01*
X030144Y014614D02*
X026925Y014614D01*
X027084Y014773D02*
X028458Y014773D01*
X028471Y015248D02*
X027060Y015248D01*
X027218Y015407D02*
X030144Y015407D01*
X030144Y015566D02*
X027377Y015566D01*
X027004Y015004D02*
X029004Y015004D01*
X028946Y014297D02*
X027062Y014297D01*
X026491Y013822D02*
X026383Y013822D01*
X026254Y014004D02*
X026254Y014254D01*
X027004Y015004D01*
X026254Y014004D02*
X025339Y013089D01*
X025339Y013004D01*
X025069Y013346D02*
X024939Y013346D01*
X024480Y013504D02*
X025443Y013504D01*
X025068Y013663D02*
X024940Y013663D01*
X024399Y013663D02*
X024321Y013663D01*
X024175Y013187D02*
X024097Y013187D01*
X023715Y013663D02*
X020656Y013663D01*
X020874Y014614D02*
X019675Y014614D01*
X019339Y014754D02*
X019589Y015004D01*
X021504Y014754D01*
X021090Y015090D02*
X020629Y015090D01*
X020748Y015248D02*
X021249Y015248D01*
X020260Y015248D02*
X018889Y015248D01*
X018889Y015407D02*
X020101Y015407D01*
X019974Y015566D02*
X019030Y015566D01*
X019082Y015724D02*
X019974Y015724D01*
X019974Y015883D02*
X019056Y015883D01*
X018918Y016041D02*
X020042Y016041D01*
X020200Y016200D02*
X017724Y016200D01*
X017724Y016041D02*
X018590Y016041D01*
X018452Y015883D02*
X017724Y015883D01*
X017724Y015724D02*
X018426Y015724D01*
X018449Y015566D02*
X017724Y015566D01*
X017724Y015407D02*
X018449Y015407D01*
X018449Y015248D02*
X017724Y015248D01*
X017724Y015090D02*
X018394Y015090D01*
X018332Y014931D02*
X017724Y014931D01*
X017724Y014773D02*
X018332Y014773D01*
X018332Y014614D02*
X017724Y014614D01*
X017724Y014456D02*
X018356Y014456D01*
X018669Y014754D02*
X018669Y015669D01*
X018754Y015754D01*
X018945Y015090D02*
X019063Y015090D01*
X019025Y014456D02*
X018982Y014456D01*
X019020Y013822D02*
X019045Y013822D01*
X018688Y013822D02*
X018651Y013822D01*
X018651Y013663D02*
X018688Y013663D01*
X018319Y013822D02*
X017633Y013822D01*
X017724Y013980D02*
X023564Y013980D01*
X023279Y012712D02*
X024350Y012712D01*
X023400Y012058D02*
X022954Y012504D01*
X026224Y013663D02*
X026663Y013663D01*
X029558Y015724D02*
X030144Y015724D01*
X030144Y015883D02*
X029646Y015883D01*
X029663Y016041D02*
X030144Y016041D01*
X030144Y016200D02*
X029616Y016200D01*
X029471Y016358D02*
X030144Y016358D01*
X029004Y016358D02*
X029004Y016358D01*
X029004Y016200D02*
X029004Y016200D01*
X028564Y016675D02*
X028486Y016675D01*
X028340Y017151D02*
X027004Y017151D01*
X027163Y017310D02*
X028532Y017310D01*
X027284Y017627D02*
X030144Y017627D01*
X030144Y017785D02*
X027284Y017785D01*
X027270Y017944D02*
X030144Y017944D01*
X030144Y018102D02*
X029388Y018102D01*
X029559Y018173D02*
X029199Y018024D01*
X028809Y018024D01*
X028449Y018173D01*
X028173Y018449D01*
X028024Y018809D01*
X028024Y019199D01*
X028173Y019559D01*
X028449Y019835D01*
X028809Y019984D01*
X029199Y019984D01*
X029559Y019835D01*
X029835Y019559D01*
X029984Y019199D01*
X029984Y018809D01*
X029835Y018449D01*
X029559Y018173D01*
X029647Y018261D02*
X030144Y018261D01*
X030144Y018419D02*
X029805Y018419D01*
X029888Y018578D02*
X030144Y018578D01*
X030144Y018736D02*
X029954Y018736D01*
X029984Y018895D02*
X030144Y018895D01*
X030144Y019054D02*
X029984Y019054D01*
X029978Y019212D02*
X030144Y019212D01*
X030144Y019371D02*
X029913Y019371D01*
X029847Y019529D02*
X030144Y019529D01*
X030144Y019688D02*
X029706Y019688D01*
X029531Y019846D02*
X030144Y019846D01*
X030144Y020005D02*
X025003Y020005D01*
X025034Y019846D02*
X028477Y019846D01*
X028302Y019688D02*
X025034Y019688D01*
X025029Y019529D02*
X028161Y019529D01*
X028095Y019371D02*
X024870Y019371D01*
X024138Y019371D02*
X022870Y019371D01*
X023029Y019529D02*
X023979Y019529D01*
X023974Y019688D02*
X023034Y019688D01*
X023034Y019846D02*
X023974Y019846D01*
X024005Y020005D02*
X023003Y020005D01*
X022844Y020163D02*
X024164Y020163D01*
X024844Y020163D02*
X030144Y020163D01*
X028029Y019212D02*
X017778Y019212D01*
X017914Y019054D02*
X028024Y019054D01*
X028024Y018895D02*
X017969Y018895D01*
X017969Y018736D02*
X028054Y018736D01*
X028120Y018578D02*
X017969Y018578D01*
X017969Y018419D02*
X020072Y018419D01*
X019908Y018261D02*
X017969Y018261D01*
X017969Y018102D02*
X019804Y018102D01*
X019738Y017944D02*
X017909Y017944D01*
X017767Y017785D02*
X019724Y017785D01*
X019724Y017627D02*
X017724Y017627D01*
X017724Y017468D02*
X019778Y017468D01*
X019845Y017310D02*
X017724Y017310D01*
X017724Y017151D02*
X020004Y017151D01*
X021004Y017151D02*
X026004Y017151D01*
X025845Y017310D02*
X021163Y017310D01*
X021230Y017468D02*
X025778Y017468D01*
X025724Y017627D02*
X021284Y017627D01*
X021284Y017785D02*
X025724Y017785D01*
X025738Y017944D02*
X021270Y017944D01*
X021204Y018102D02*
X025804Y018102D01*
X025908Y018261D02*
X021100Y018261D01*
X020936Y018419D02*
X026072Y018419D01*
X026936Y018419D02*
X028203Y018419D01*
X028361Y018261D02*
X027100Y018261D01*
X027204Y018102D02*
X028620Y018102D01*
X027230Y017468D02*
X030144Y017468D01*
X023864Y010175D02*
X023108Y010175D01*
X023108Y010017D02*
X023705Y010017D01*
X023547Y009858D02*
X023108Y009858D01*
X023082Y009699D02*
X023235Y009699D01*
X023176Y009541D02*
X023005Y009541D01*
X022924Y009224D02*
X022845Y009224D01*
X020236Y005736D02*
X020234Y005736D01*
X020254Y004254D02*
X019089Y002754D01*
X020362Y004034D02*
X020362Y004034D01*
X010272Y001772D02*
X008736Y001772D01*
X008904Y001931D02*
X010104Y001931D01*
X010039Y002089D02*
X008969Y002089D01*
X008969Y002248D02*
X010039Y002248D01*
X010039Y002406D02*
X008969Y002406D01*
X008969Y002565D02*
X010039Y002565D01*
X010039Y002724D02*
X008969Y002724D01*
X008969Y002882D02*
X010039Y002882D01*
X001217Y003199D02*
X000734Y003199D01*
X000734Y003041D02*
X001089Y003041D01*
X001039Y002882D02*
X000734Y002882D01*
X000734Y002724D02*
X001039Y002724D01*
D25*
X009004Y003504D03*
X016754Y004754D03*
X017754Y004754D03*
X018754Y008504D03*
X022254Y010004D03*
X022754Y009754D03*
X023504Y009504D03*
X024004Y009004D03*
X024004Y011504D03*
X022504Y011504D03*
X024004Y013504D03*
X023754Y014254D03*
X019004Y013004D03*
X018754Y015754D03*
M02*
