G75*
G70*
%OFA0B0*%
%FSLAX24Y24*%
%IPPOS*%
%LPD*%
%AMOC8*
5,1,8,0,0,1.08239X$1,22.5*
%
%ADD10C,0.0000*%
%ADD11R,0.0010X0.0010*%
%ADD12R,0.0100X0.0010*%
%ADD13R,0.0030X0.0010*%
%ADD14R,0.0220X0.0010*%
%ADD15R,0.0040X0.0010*%
%ADD16R,0.0020X0.0010*%
%ADD17R,0.0280X0.0010*%
%ADD18R,0.0050X0.0010*%
%ADD19R,0.0340X0.0010*%
%ADD20R,0.0060X0.0010*%
%ADD21R,0.0390X0.0010*%
%ADD22R,0.0420X0.0010*%
%ADD23R,0.0070X0.0010*%
%ADD24R,0.0460X0.0010*%
%ADD25R,0.0480X0.0010*%
%ADD26R,0.0080X0.0010*%
%ADD27R,0.0510X0.0010*%
%ADD28R,0.0530X0.0010*%
%ADD29R,0.0550X0.0010*%
%ADD30R,0.0130X0.0010*%
%ADD31R,0.0580X0.0010*%
%ADD32R,0.0160X0.0010*%
%ADD33R,0.0260X0.0010*%
%ADD34R,0.0190X0.0010*%
%ADD35R,0.0210X0.0010*%
%ADD36R,0.0170X0.0010*%
%ADD37R,0.0090X0.0010*%
%ADD38R,0.0120X0.0010*%
%ADD39R,0.0150X0.0010*%
%ADD40R,0.0140X0.0010*%
%ADD41R,0.0110X0.0010*%
%ADD42R,0.0240X0.0010*%
%ADD43R,0.0180X0.0010*%
%ADD44R,0.0200X0.0010*%
%ADD45R,0.0230X0.0010*%
%ADD46R,0.0250X0.0010*%
%ADD47R,0.0290X0.0010*%
%ADD48R,0.0310X0.0010*%
%ADD49R,0.0320X0.0010*%
%ADD50R,0.0300X0.0010*%
%ADD51R,0.0270X0.0010*%
%ADD52R,0.0360X0.0010*%
%ADD53R,0.0370X0.0010*%
%ADD54R,0.0330X0.0010*%
%ADD55R,0.0520X0.0010*%
%ADD56R,0.0500X0.0010*%
%ADD57R,0.0470X0.0010*%
%ADD58R,0.0490X0.0010*%
%ADD59R,0.0430X0.0010*%
%ADD60R,0.0440X0.0010*%
%ADD61R,0.0350X0.0010*%
%ADD62R,0.0410X0.0010*%
%ADD63C,0.0040*%
D10*
X000504Y000504D02*
X000504Y020500D01*
X030374Y020500D01*
X030374Y000504D01*
X000504Y000504D01*
X000504Y020500D01*
X030374Y020500D01*
X030374Y000504D01*
X000504Y000504D01*
X005754Y005004D02*
X005756Y005058D01*
X005762Y005112D01*
X005772Y005165D01*
X005785Y005218D01*
X005802Y005269D01*
X005823Y005319D01*
X005848Y005367D01*
X005876Y005414D01*
X005907Y005458D01*
X005941Y005500D01*
X005978Y005539D01*
X006018Y005576D01*
X006061Y005609D01*
X006106Y005640D01*
X006153Y005667D01*
X006201Y005690D01*
X006252Y005710D01*
X006303Y005727D01*
X006356Y005739D01*
X006409Y005748D01*
X006463Y005753D01*
X006518Y005754D01*
X006572Y005751D01*
X006625Y005744D01*
X006678Y005733D01*
X006731Y005719D01*
X006782Y005701D01*
X006831Y005679D01*
X006879Y005654D01*
X006925Y005625D01*
X006969Y005593D01*
X007010Y005558D01*
X007048Y005520D01*
X007084Y005479D01*
X007117Y005436D01*
X007147Y005391D01*
X007173Y005343D01*
X007196Y005294D01*
X007215Y005243D01*
X007230Y005192D01*
X007242Y005139D01*
X007250Y005085D01*
X007254Y005031D01*
X007254Y004977D01*
X007250Y004923D01*
X007242Y004869D01*
X007230Y004816D01*
X007215Y004765D01*
X007196Y004714D01*
X007173Y004665D01*
X007147Y004617D01*
X007117Y004572D01*
X007084Y004529D01*
X007048Y004488D01*
X007010Y004450D01*
X006969Y004415D01*
X006925Y004383D01*
X006879Y004354D01*
X006831Y004329D01*
X006782Y004307D01*
X006731Y004289D01*
X006678Y004275D01*
X006625Y004264D01*
X006572Y004257D01*
X006518Y004254D01*
X006463Y004255D01*
X006409Y004260D01*
X006356Y004269D01*
X006303Y004281D01*
X006252Y004298D01*
X006201Y004318D01*
X006153Y004341D01*
X006106Y004368D01*
X006061Y004399D01*
X006018Y004432D01*
X005978Y004469D01*
X005941Y004508D01*
X005907Y004550D01*
X005876Y004594D01*
X005848Y004641D01*
X005823Y004689D01*
X005802Y004739D01*
X005785Y004790D01*
X005772Y004843D01*
X005762Y004896D01*
X005756Y004950D01*
X005754Y005004D01*
X019954Y003254D02*
X019956Y003301D01*
X019962Y003347D01*
X019972Y003393D01*
X019985Y003437D01*
X020003Y003481D01*
X020024Y003522D01*
X020048Y003562D01*
X020076Y003600D01*
X020107Y003635D01*
X020141Y003667D01*
X020177Y003696D01*
X020216Y003722D01*
X020256Y003745D01*
X020299Y003764D01*
X020343Y003780D01*
X020388Y003792D01*
X020434Y003800D01*
X020481Y003804D01*
X020527Y003804D01*
X020574Y003800D01*
X020620Y003792D01*
X020665Y003780D01*
X020709Y003764D01*
X020752Y003745D01*
X020792Y003722D01*
X020831Y003696D01*
X020867Y003667D01*
X020901Y003635D01*
X020932Y003600D01*
X020960Y003562D01*
X020984Y003522D01*
X021005Y003481D01*
X021023Y003437D01*
X021036Y003393D01*
X021046Y003347D01*
X021052Y003301D01*
X021054Y003254D01*
X021052Y003207D01*
X021046Y003161D01*
X021036Y003115D01*
X021023Y003071D01*
X021005Y003027D01*
X020984Y002986D01*
X020960Y002946D01*
X020932Y002908D01*
X020901Y002873D01*
X020867Y002841D01*
X020831Y002812D01*
X020792Y002786D01*
X020752Y002763D01*
X020709Y002744D01*
X020665Y002728D01*
X020620Y002716D01*
X020574Y002708D01*
X020527Y002704D01*
X020481Y002704D01*
X020434Y002708D01*
X020388Y002716D01*
X020343Y002728D01*
X020299Y002744D01*
X020256Y002763D01*
X020216Y002786D01*
X020177Y002812D01*
X020141Y002841D01*
X020107Y002873D01*
X020076Y002908D01*
X020048Y002946D01*
X020024Y002986D01*
X020003Y003027D01*
X019985Y003071D01*
X019972Y003115D01*
X019962Y003161D01*
X019956Y003207D01*
X019954Y003254D01*
X025954Y003254D02*
X025956Y003301D01*
X025962Y003347D01*
X025972Y003393D01*
X025985Y003437D01*
X026003Y003481D01*
X026024Y003522D01*
X026048Y003562D01*
X026076Y003600D01*
X026107Y003635D01*
X026141Y003667D01*
X026177Y003696D01*
X026216Y003722D01*
X026256Y003745D01*
X026299Y003764D01*
X026343Y003780D01*
X026388Y003792D01*
X026434Y003800D01*
X026481Y003804D01*
X026527Y003804D01*
X026574Y003800D01*
X026620Y003792D01*
X026665Y003780D01*
X026709Y003764D01*
X026752Y003745D01*
X026792Y003722D01*
X026831Y003696D01*
X026867Y003667D01*
X026901Y003635D01*
X026932Y003600D01*
X026960Y003562D01*
X026984Y003522D01*
X027005Y003481D01*
X027023Y003437D01*
X027036Y003393D01*
X027046Y003347D01*
X027052Y003301D01*
X027054Y003254D01*
X027052Y003207D01*
X027046Y003161D01*
X027036Y003115D01*
X027023Y003071D01*
X027005Y003027D01*
X026984Y002986D01*
X026960Y002946D01*
X026932Y002908D01*
X026901Y002873D01*
X026867Y002841D01*
X026831Y002812D01*
X026792Y002786D01*
X026752Y002763D01*
X026709Y002744D01*
X026665Y002728D01*
X026620Y002716D01*
X026574Y002708D01*
X026527Y002704D01*
X026481Y002704D01*
X026434Y002708D01*
X026388Y002716D01*
X026343Y002728D01*
X026299Y002744D01*
X026256Y002763D01*
X026216Y002786D01*
X026177Y002812D01*
X026141Y002841D01*
X026107Y002873D01*
X026076Y002908D01*
X026048Y002946D01*
X026024Y002986D01*
X026003Y003027D01*
X025985Y003071D01*
X025972Y003115D01*
X025962Y003161D01*
X025956Y003207D01*
X025954Y003254D01*
X028254Y002004D02*
X028256Y002058D01*
X028262Y002112D01*
X028272Y002165D01*
X028285Y002218D01*
X028302Y002269D01*
X028323Y002319D01*
X028348Y002367D01*
X028376Y002414D01*
X028407Y002458D01*
X028441Y002500D01*
X028478Y002539D01*
X028518Y002576D01*
X028561Y002609D01*
X028606Y002640D01*
X028653Y002667D01*
X028701Y002690D01*
X028752Y002710D01*
X028803Y002727D01*
X028856Y002739D01*
X028909Y002748D01*
X028963Y002753D01*
X029018Y002754D01*
X029072Y002751D01*
X029125Y002744D01*
X029178Y002733D01*
X029231Y002719D01*
X029282Y002701D01*
X029331Y002679D01*
X029379Y002654D01*
X029425Y002625D01*
X029469Y002593D01*
X029510Y002558D01*
X029548Y002520D01*
X029584Y002479D01*
X029617Y002436D01*
X029647Y002391D01*
X029673Y002343D01*
X029696Y002294D01*
X029715Y002243D01*
X029730Y002192D01*
X029742Y002139D01*
X029750Y002085D01*
X029754Y002031D01*
X029754Y001977D01*
X029750Y001923D01*
X029742Y001869D01*
X029730Y001816D01*
X029715Y001765D01*
X029696Y001714D01*
X029673Y001665D01*
X029647Y001617D01*
X029617Y001572D01*
X029584Y001529D01*
X029548Y001488D01*
X029510Y001450D01*
X029469Y001415D01*
X029425Y001383D01*
X029379Y001354D01*
X029331Y001329D01*
X029282Y001307D01*
X029231Y001289D01*
X029178Y001275D01*
X029125Y001264D01*
X029072Y001257D01*
X029018Y001254D01*
X028963Y001255D01*
X028909Y001260D01*
X028856Y001269D01*
X028803Y001281D01*
X028752Y001298D01*
X028701Y001318D01*
X028653Y001341D01*
X028606Y001368D01*
X028561Y001399D01*
X028518Y001432D01*
X028478Y001469D01*
X028441Y001508D01*
X028407Y001550D01*
X028376Y001594D01*
X028348Y001641D01*
X028323Y001689D01*
X028302Y001739D01*
X028285Y001790D01*
X028272Y001843D01*
X028262Y001896D01*
X028256Y001950D01*
X028254Y002004D01*
X005754Y016004D02*
X005756Y016058D01*
X005762Y016112D01*
X005772Y016165D01*
X005785Y016218D01*
X005802Y016269D01*
X005823Y016319D01*
X005848Y016367D01*
X005876Y016414D01*
X005907Y016458D01*
X005941Y016500D01*
X005978Y016539D01*
X006018Y016576D01*
X006061Y016609D01*
X006106Y016640D01*
X006153Y016667D01*
X006201Y016690D01*
X006252Y016710D01*
X006303Y016727D01*
X006356Y016739D01*
X006409Y016748D01*
X006463Y016753D01*
X006518Y016754D01*
X006572Y016751D01*
X006625Y016744D01*
X006678Y016733D01*
X006731Y016719D01*
X006782Y016701D01*
X006831Y016679D01*
X006879Y016654D01*
X006925Y016625D01*
X006969Y016593D01*
X007010Y016558D01*
X007048Y016520D01*
X007084Y016479D01*
X007117Y016436D01*
X007147Y016391D01*
X007173Y016343D01*
X007196Y016294D01*
X007215Y016243D01*
X007230Y016192D01*
X007242Y016139D01*
X007250Y016085D01*
X007254Y016031D01*
X007254Y015977D01*
X007250Y015923D01*
X007242Y015869D01*
X007230Y015816D01*
X007215Y015765D01*
X007196Y015714D01*
X007173Y015665D01*
X007147Y015617D01*
X007117Y015572D01*
X007084Y015529D01*
X007048Y015488D01*
X007010Y015450D01*
X006969Y015415D01*
X006925Y015383D01*
X006879Y015354D01*
X006831Y015329D01*
X006782Y015307D01*
X006731Y015289D01*
X006678Y015275D01*
X006625Y015264D01*
X006572Y015257D01*
X006518Y015254D01*
X006463Y015255D01*
X006409Y015260D01*
X006356Y015269D01*
X006303Y015281D01*
X006252Y015298D01*
X006201Y015318D01*
X006153Y015341D01*
X006106Y015368D01*
X006061Y015399D01*
X006018Y015432D01*
X005978Y015469D01*
X005941Y015508D01*
X005907Y015550D01*
X005876Y015594D01*
X005848Y015641D01*
X005823Y015689D01*
X005802Y015739D01*
X005785Y015790D01*
X005772Y015843D01*
X005762Y015896D01*
X005756Y015950D01*
X005754Y016004D01*
X019954Y017754D02*
X019956Y017801D01*
X019962Y017847D01*
X019972Y017893D01*
X019985Y017937D01*
X020003Y017981D01*
X020024Y018022D01*
X020048Y018062D01*
X020076Y018100D01*
X020107Y018135D01*
X020141Y018167D01*
X020177Y018196D01*
X020216Y018222D01*
X020256Y018245D01*
X020299Y018264D01*
X020343Y018280D01*
X020388Y018292D01*
X020434Y018300D01*
X020481Y018304D01*
X020527Y018304D01*
X020574Y018300D01*
X020620Y018292D01*
X020665Y018280D01*
X020709Y018264D01*
X020752Y018245D01*
X020792Y018222D01*
X020831Y018196D01*
X020867Y018167D01*
X020901Y018135D01*
X020932Y018100D01*
X020960Y018062D01*
X020984Y018022D01*
X021005Y017981D01*
X021023Y017937D01*
X021036Y017893D01*
X021046Y017847D01*
X021052Y017801D01*
X021054Y017754D01*
X021052Y017707D01*
X021046Y017661D01*
X021036Y017615D01*
X021023Y017571D01*
X021005Y017527D01*
X020984Y017486D01*
X020960Y017446D01*
X020932Y017408D01*
X020901Y017373D01*
X020867Y017341D01*
X020831Y017312D01*
X020792Y017286D01*
X020752Y017263D01*
X020709Y017244D01*
X020665Y017228D01*
X020620Y017216D01*
X020574Y017208D01*
X020527Y017204D01*
X020481Y017204D01*
X020434Y017208D01*
X020388Y017216D01*
X020343Y017228D01*
X020299Y017244D01*
X020256Y017263D01*
X020216Y017286D01*
X020177Y017312D01*
X020141Y017341D01*
X020107Y017373D01*
X020076Y017408D01*
X020048Y017446D01*
X020024Y017486D01*
X020003Y017527D01*
X019985Y017571D01*
X019972Y017615D01*
X019962Y017661D01*
X019956Y017707D01*
X019954Y017754D01*
X025954Y017754D02*
X025956Y017801D01*
X025962Y017847D01*
X025972Y017893D01*
X025985Y017937D01*
X026003Y017981D01*
X026024Y018022D01*
X026048Y018062D01*
X026076Y018100D01*
X026107Y018135D01*
X026141Y018167D01*
X026177Y018196D01*
X026216Y018222D01*
X026256Y018245D01*
X026299Y018264D01*
X026343Y018280D01*
X026388Y018292D01*
X026434Y018300D01*
X026481Y018304D01*
X026527Y018304D01*
X026574Y018300D01*
X026620Y018292D01*
X026665Y018280D01*
X026709Y018264D01*
X026752Y018245D01*
X026792Y018222D01*
X026831Y018196D01*
X026867Y018167D01*
X026901Y018135D01*
X026932Y018100D01*
X026960Y018062D01*
X026984Y018022D01*
X027005Y017981D01*
X027023Y017937D01*
X027036Y017893D01*
X027046Y017847D01*
X027052Y017801D01*
X027054Y017754D01*
X027052Y017707D01*
X027046Y017661D01*
X027036Y017615D01*
X027023Y017571D01*
X027005Y017527D01*
X026984Y017486D01*
X026960Y017446D01*
X026932Y017408D01*
X026901Y017373D01*
X026867Y017341D01*
X026831Y017312D01*
X026792Y017286D01*
X026752Y017263D01*
X026709Y017244D01*
X026665Y017228D01*
X026620Y017216D01*
X026574Y017208D01*
X026527Y017204D01*
X026481Y017204D01*
X026434Y017208D01*
X026388Y017216D01*
X026343Y017228D01*
X026299Y017244D01*
X026256Y017263D01*
X026216Y017286D01*
X026177Y017312D01*
X026141Y017341D01*
X026107Y017373D01*
X026076Y017408D01*
X026048Y017446D01*
X026024Y017486D01*
X026003Y017527D01*
X025985Y017571D01*
X025972Y017615D01*
X025962Y017661D01*
X025956Y017707D01*
X025954Y017754D01*
X028254Y019004D02*
X028256Y019058D01*
X028262Y019112D01*
X028272Y019165D01*
X028285Y019218D01*
X028302Y019269D01*
X028323Y019319D01*
X028348Y019367D01*
X028376Y019414D01*
X028407Y019458D01*
X028441Y019500D01*
X028478Y019539D01*
X028518Y019576D01*
X028561Y019609D01*
X028606Y019640D01*
X028653Y019667D01*
X028701Y019690D01*
X028752Y019710D01*
X028803Y019727D01*
X028856Y019739D01*
X028909Y019748D01*
X028963Y019753D01*
X029018Y019754D01*
X029072Y019751D01*
X029125Y019744D01*
X029178Y019733D01*
X029231Y019719D01*
X029282Y019701D01*
X029331Y019679D01*
X029379Y019654D01*
X029425Y019625D01*
X029469Y019593D01*
X029510Y019558D01*
X029548Y019520D01*
X029584Y019479D01*
X029617Y019436D01*
X029647Y019391D01*
X029673Y019343D01*
X029696Y019294D01*
X029715Y019243D01*
X029730Y019192D01*
X029742Y019139D01*
X029750Y019085D01*
X029754Y019031D01*
X029754Y018977D01*
X029750Y018923D01*
X029742Y018869D01*
X029730Y018816D01*
X029715Y018765D01*
X029696Y018714D01*
X029673Y018665D01*
X029647Y018617D01*
X029617Y018572D01*
X029584Y018529D01*
X029548Y018488D01*
X029510Y018450D01*
X029469Y018415D01*
X029425Y018383D01*
X029379Y018354D01*
X029331Y018329D01*
X029282Y018307D01*
X029231Y018289D01*
X029178Y018275D01*
X029125Y018264D01*
X029072Y018257D01*
X029018Y018254D01*
X028963Y018255D01*
X028909Y018260D01*
X028856Y018269D01*
X028803Y018281D01*
X028752Y018298D01*
X028701Y018318D01*
X028653Y018341D01*
X028606Y018368D01*
X028561Y018399D01*
X028518Y018432D01*
X028478Y018469D01*
X028441Y018508D01*
X028407Y018550D01*
X028376Y018594D01*
X028348Y018641D01*
X028323Y018689D01*
X028302Y018739D01*
X028285Y018790D01*
X028272Y018843D01*
X028262Y018896D01*
X028256Y018950D01*
X028254Y019004D01*
D11*
X025174Y002928D03*
X024804Y002948D03*
X024454Y002838D03*
X024464Y002438D03*
X024794Y002148D03*
X024044Y001648D03*
X023684Y001868D03*
X022414Y001658D03*
X021864Y001978D03*
X021474Y002048D03*
X020584Y002278D03*
D12*
X020519Y002148D03*
X020379Y002148D03*
X020409Y002478D03*
X020539Y002528D03*
X020499Y002768D03*
X020799Y002648D03*
X021649Y002438D03*
X021909Y002568D03*
X022409Y001818D03*
X022409Y001808D03*
X023759Y002188D03*
X023889Y002418D03*
X024209Y002178D03*
X024209Y002168D03*
X024589Y002318D03*
X024749Y001988D03*
X024659Y001928D03*
X025309Y002098D03*
X025309Y002108D03*
X025309Y002118D03*
X025309Y002128D03*
X025299Y002148D03*
X025299Y002158D03*
X025299Y002168D03*
X025299Y002178D03*
X025299Y002188D03*
X025299Y002198D03*
X025299Y002208D03*
X025289Y002278D03*
X025289Y002288D03*
X025289Y002298D03*
X025289Y002308D03*
X025289Y002318D03*
X025289Y002328D03*
X025289Y002338D03*
X025289Y002348D03*
X025299Y002478D03*
X025299Y002488D03*
X025299Y002498D03*
X025299Y002508D03*
X025299Y002518D03*
X025309Y002578D03*
X025309Y002588D03*
X025309Y002598D03*
X025319Y002648D03*
X025329Y002698D03*
X025339Y002738D03*
X025349Y002778D03*
X025359Y002808D03*
X025929Y003378D03*
X025939Y003398D03*
X025949Y003408D03*
X025949Y003418D03*
X025879Y003718D03*
X025869Y003728D03*
X025859Y003738D03*
X025849Y003748D03*
X025349Y003738D03*
X025339Y003718D03*
X025329Y003698D03*
X025319Y003658D03*
X025319Y003648D03*
X025309Y003598D03*
X025309Y003588D03*
X025309Y003578D03*
X024389Y002718D03*
X024299Y002768D03*
X025319Y002078D03*
X025319Y002068D03*
X025329Y002038D03*
X025759Y001658D03*
X026029Y001858D03*
X026039Y001868D03*
X026049Y001878D03*
X026059Y001898D03*
X026139Y002108D03*
X026139Y002118D03*
X026139Y002128D03*
X026149Y002148D03*
X026149Y002158D03*
X026149Y002168D03*
X026149Y002178D03*
X026159Y002198D03*
X026159Y002208D03*
X026159Y002218D03*
X026159Y002228D03*
X026169Y002248D03*
X026169Y002258D03*
X023839Y001748D03*
X022849Y003548D03*
X022859Y003588D03*
X022099Y003578D03*
X022089Y003558D03*
X022079Y003538D03*
X022069Y003528D03*
X022069Y003518D03*
X022059Y003498D03*
D13*
X021804Y002998D03*
X021474Y002998D03*
X020704Y002568D03*
X020694Y002548D03*
X020364Y002658D03*
X020584Y002268D03*
X020584Y002248D03*
X020584Y002238D03*
X020574Y002208D03*
X021454Y002208D03*
X021474Y002058D03*
X021654Y002348D03*
X021804Y002408D03*
X021804Y002418D03*
X021814Y002458D03*
X021814Y002468D03*
X022414Y001698D03*
X022414Y001688D03*
X023184Y002358D03*
X023734Y002208D03*
X024044Y001658D03*
X024794Y002138D03*
X024454Y002818D03*
X024804Y002938D03*
X025174Y002918D03*
X025174Y002908D03*
X025314Y003508D03*
X025644Y003888D03*
X023314Y003358D03*
X022904Y003758D03*
D14*
X024229Y002778D03*
X023819Y001788D03*
X025539Y001778D03*
X025759Y001668D03*
X021979Y001928D03*
X020769Y002008D03*
D15*
X020569Y002188D03*
X020569Y002198D03*
X020579Y002218D03*
X020579Y002228D03*
X020589Y002258D03*
X020559Y002178D03*
X020329Y002228D03*
X020329Y002238D03*
X020329Y002248D03*
X020329Y002258D03*
X020329Y002268D03*
X020329Y002278D03*
X020329Y002338D03*
X020329Y002348D03*
X020329Y002358D03*
X020339Y002388D03*
X020339Y002398D03*
X020349Y002418D03*
X020369Y002668D03*
X020589Y002588D03*
X020689Y002538D03*
X020689Y002528D03*
X020679Y002518D03*
X020679Y002508D03*
X020679Y002498D03*
X020669Y002488D03*
X020669Y002478D03*
X020669Y002468D03*
X020659Y002458D03*
X020659Y002448D03*
X020659Y002438D03*
X020659Y002428D03*
X020649Y002418D03*
X020699Y002558D03*
X020709Y002578D03*
X020719Y002588D03*
X020889Y002558D03*
X020899Y002538D03*
X021029Y002378D03*
X021029Y002368D03*
X021039Y002348D03*
X021229Y002348D03*
X021239Y002368D03*
X021249Y002398D03*
X021249Y002408D03*
X021259Y002428D03*
X021259Y002438D03*
X021259Y002448D03*
X021259Y002458D03*
X021269Y002478D03*
X021269Y002488D03*
X021269Y002498D03*
X021269Y002508D03*
X021269Y002518D03*
X021269Y002528D03*
X021279Y002578D03*
X021279Y002588D03*
X021279Y002598D03*
X021279Y002608D03*
X021279Y002618D03*
X021389Y002658D03*
X021389Y002668D03*
X021389Y002678D03*
X021389Y002688D03*
X021389Y002698D03*
X021389Y002708D03*
X021389Y002718D03*
X021389Y002728D03*
X021399Y002648D03*
X021399Y002638D03*
X021399Y002628D03*
X021399Y002618D03*
X021399Y002608D03*
X021399Y002598D03*
X021399Y002588D03*
X021409Y002578D03*
X021409Y002568D03*
X021409Y002558D03*
X021409Y002548D03*
X021409Y002538D03*
X021409Y002528D03*
X021409Y002518D03*
X021409Y002508D03*
X021419Y002498D03*
X021419Y002488D03*
X021419Y002478D03*
X021419Y002468D03*
X021419Y002458D03*
X021419Y002448D03*
X021419Y002438D03*
X021429Y002428D03*
X021429Y002418D03*
X021429Y002408D03*
X021429Y002398D03*
X021429Y002388D03*
X021429Y002378D03*
X021429Y002368D03*
X021429Y002358D03*
X021439Y002348D03*
X021439Y002338D03*
X021439Y002328D03*
X021439Y002318D03*
X021439Y002308D03*
X021439Y002298D03*
X021439Y002288D03*
X021449Y002278D03*
X021449Y002268D03*
X021449Y002258D03*
X021449Y002248D03*
X021449Y002238D03*
X021449Y002228D03*
X021449Y002218D03*
X021459Y002198D03*
X021459Y002188D03*
X021459Y002178D03*
X021459Y002168D03*
X021459Y002158D03*
X021459Y002148D03*
X021459Y002138D03*
X021469Y002128D03*
X021469Y002118D03*
X021469Y002108D03*
X021469Y002098D03*
X021469Y002088D03*
X021469Y002078D03*
X021469Y002068D03*
X021659Y002358D03*
X021679Y002448D03*
X021619Y002458D03*
X021599Y002528D03*
X021819Y002488D03*
X021819Y002478D03*
X021829Y002498D03*
X021829Y002508D03*
X021809Y002448D03*
X021809Y002438D03*
X021809Y002428D03*
X021799Y002398D03*
X021799Y002388D03*
X021799Y002378D03*
X021799Y002368D03*
X021799Y002358D03*
X021799Y002348D03*
X021799Y002338D03*
X021799Y002328D03*
X021799Y002318D03*
X021539Y002748D03*
X021529Y002788D03*
X021519Y002828D03*
X021509Y002868D03*
X021499Y002898D03*
X021499Y002908D03*
X021499Y002918D03*
X021489Y002938D03*
X021489Y002948D03*
X021489Y002958D03*
X021479Y002978D03*
X021479Y002988D03*
X021249Y002878D03*
X021249Y002868D03*
X021259Y002858D03*
X021259Y002848D03*
X021269Y002828D03*
X021269Y002818D03*
X021269Y002808D03*
X021279Y002768D03*
X021279Y002758D03*
X021239Y002888D03*
X021109Y002888D03*
X021099Y002868D03*
X021089Y002848D03*
X021079Y002828D03*
X021059Y002768D03*
X021059Y002758D03*
X021059Y002748D03*
X022419Y001708D03*
X023419Y002218D03*
X023419Y002228D03*
X023429Y002198D03*
X023619Y002198D03*
X023629Y002218D03*
X023639Y002248D03*
X023639Y002258D03*
X023649Y002278D03*
X023649Y002288D03*
X023649Y002298D03*
X023649Y002308D03*
X023659Y002328D03*
X023659Y002338D03*
X023659Y002348D03*
X023659Y002358D03*
X023659Y002368D03*
X023659Y002378D03*
X023669Y002428D03*
X023669Y002438D03*
X023669Y002448D03*
X023669Y002458D03*
X023669Y002468D03*
X023669Y002608D03*
X023669Y002618D03*
X023659Y002658D03*
X023659Y002668D03*
X023659Y002678D03*
X023649Y002698D03*
X023649Y002708D03*
X023639Y002718D03*
X023639Y002728D03*
X023629Y002738D03*
X023499Y002738D03*
X023489Y002718D03*
X023479Y002698D03*
X023469Y002678D03*
X023449Y002618D03*
X023449Y002608D03*
X023449Y002598D03*
X023789Y002338D03*
X023789Y002328D03*
X023779Y002318D03*
X023779Y002308D03*
X023769Y002298D03*
X023769Y002288D03*
X023759Y002278D03*
X023759Y002268D03*
X023749Y002258D03*
X023749Y002248D03*
X023749Y002238D03*
X023739Y002228D03*
X023739Y002218D03*
X023799Y002348D03*
X023809Y002358D03*
X023979Y002328D03*
X023989Y002298D03*
X023989Y002288D03*
X024069Y002588D03*
X024069Y002598D03*
X024069Y002608D03*
X024069Y002618D03*
X024069Y002628D03*
X024069Y002638D03*
X024079Y002658D03*
X024079Y002668D03*
X024079Y002678D03*
X024089Y002688D03*
X024089Y002698D03*
X024099Y002718D03*
X024439Y002788D03*
X024449Y002808D03*
X024499Y002528D03*
X024489Y002508D03*
X024479Y002478D03*
X024469Y002458D03*
X024529Y002238D03*
X024519Y002198D03*
X024519Y002188D03*
X024519Y002178D03*
X024519Y002168D03*
X024529Y002118D03*
X024539Y002088D03*
X024549Y002058D03*
X024789Y002028D03*
X024799Y002048D03*
X024799Y002058D03*
X024799Y002068D03*
X024799Y002078D03*
X024799Y002088D03*
X024799Y002098D03*
X024799Y002108D03*
X024799Y002118D03*
X024799Y002128D03*
X024699Y002498D03*
X025109Y002408D03*
X025119Y002438D03*
X025119Y002448D03*
X025129Y002488D03*
X025129Y002498D03*
X025169Y002878D03*
X025169Y002888D03*
X025169Y002898D03*
X024809Y002908D03*
X024809Y002918D03*
X024809Y002928D03*
X023499Y002968D03*
X023309Y003338D03*
X023309Y003348D03*
X023689Y001858D03*
X023849Y001738D03*
X024049Y001668D03*
X026189Y002318D03*
D16*
X026189Y002328D03*
X024649Y001918D03*
X024469Y002448D03*
X024449Y002828D03*
X023449Y002588D03*
X023419Y002238D03*
X023289Y002268D03*
X022419Y001678D03*
X022419Y001668D03*
X021659Y002328D03*
X021659Y002338D03*
X021029Y002388D03*
X021059Y002738D03*
X020489Y002778D03*
X020359Y002648D03*
X020639Y002078D03*
D17*
X020809Y002368D03*
X025749Y001678D03*
D18*
X026184Y002308D03*
X025134Y002508D03*
X025134Y002518D03*
X025134Y002528D03*
X025134Y002538D03*
X025134Y002548D03*
X025134Y002558D03*
X025134Y002568D03*
X025144Y002598D03*
X025144Y002608D03*
X025144Y002618D03*
X025144Y002628D03*
X025144Y002638D03*
X025144Y002648D03*
X025124Y002478D03*
X025124Y002468D03*
X025124Y002458D03*
X025114Y002428D03*
X025114Y002418D03*
X025104Y002398D03*
X025104Y002388D03*
X025094Y002378D03*
X024704Y002408D03*
X024704Y002418D03*
X024704Y002428D03*
X024704Y002438D03*
X024704Y002448D03*
X024704Y002458D03*
X024704Y002468D03*
X024704Y002478D03*
X024704Y002488D03*
X024694Y002508D03*
X024694Y002518D03*
X024684Y002538D03*
X024604Y002608D03*
X024514Y002548D03*
X024504Y002538D03*
X024494Y002518D03*
X024484Y002498D03*
X024484Y002488D03*
X024474Y002468D03*
X024344Y002508D03*
X024344Y002518D03*
X024354Y002538D03*
X024354Y002548D03*
X024364Y002568D03*
X024364Y002578D03*
X024374Y002598D03*
X024374Y002608D03*
X024384Y002628D03*
X024384Y002638D03*
X024424Y002748D03*
X024424Y002758D03*
X024434Y002768D03*
X024434Y002778D03*
X024444Y002798D03*
X024124Y002748D03*
X024114Y002738D03*
X024104Y002728D03*
X024094Y002708D03*
X024074Y002648D03*
X024064Y002578D03*
X024064Y002568D03*
X024064Y002558D03*
X024064Y002548D03*
X024064Y002538D03*
X024064Y002528D03*
X024064Y002518D03*
X024064Y002508D03*
X024064Y002498D03*
X024074Y002478D03*
X024074Y002468D03*
X024074Y002458D03*
X024074Y002448D03*
X023974Y002348D03*
X023974Y002338D03*
X023964Y002358D03*
X023984Y002318D03*
X023984Y002308D03*
X023994Y002278D03*
X023994Y002268D03*
X023994Y002258D03*
X023994Y002248D03*
X023994Y002238D03*
X023994Y002228D03*
X023994Y002218D03*
X023994Y002208D03*
X023994Y002198D03*
X023994Y002188D03*
X023994Y002178D03*
X023974Y002018D03*
X023974Y002008D03*
X023964Y001968D03*
X023964Y001958D03*
X023954Y001928D03*
X023954Y001918D03*
X023944Y001898D03*
X023944Y001888D03*
X023934Y001858D03*
X023924Y001838D03*
X024054Y001678D03*
X024194Y002068D03*
X024204Y002098D03*
X024214Y002118D03*
X024214Y002128D03*
X024244Y002218D03*
X024254Y002228D03*
X024254Y002238D03*
X024254Y002248D03*
X024264Y002258D03*
X024264Y002268D03*
X024264Y002278D03*
X024274Y002288D03*
X024274Y002298D03*
X024274Y002308D03*
X024284Y002318D03*
X024284Y002328D03*
X024284Y002338D03*
X024294Y002348D03*
X024294Y002358D03*
X024294Y002368D03*
X024304Y002378D03*
X024304Y002388D03*
X024304Y002398D03*
X024314Y002408D03*
X024314Y002418D03*
X024314Y002428D03*
X024324Y002438D03*
X024324Y002448D03*
X024324Y002458D03*
X024334Y002468D03*
X024334Y002478D03*
X024334Y002488D03*
X024544Y002278D03*
X024534Y002258D03*
X024534Y002248D03*
X024524Y002228D03*
X024524Y002218D03*
X024524Y002208D03*
X024524Y002158D03*
X024524Y002148D03*
X024524Y002138D03*
X024524Y002128D03*
X024534Y002108D03*
X024534Y002098D03*
X024544Y002078D03*
X024544Y002068D03*
X024554Y002048D03*
X024554Y002038D03*
X024564Y002028D03*
X024564Y002018D03*
X024574Y002008D03*
X024784Y002018D03*
X024794Y002038D03*
X024694Y002388D03*
X024804Y002898D03*
X025164Y002868D03*
X025164Y002858D03*
X025164Y002848D03*
X025164Y002838D03*
X025164Y002828D03*
X025314Y003518D03*
X023654Y002688D03*
X023664Y002648D03*
X023664Y002638D03*
X023664Y002628D03*
X023674Y002598D03*
X023674Y002588D03*
X023674Y002578D03*
X023674Y002568D03*
X023674Y002558D03*
X023674Y002548D03*
X023674Y002538D03*
X023674Y002528D03*
X023674Y002518D03*
X023674Y002508D03*
X023674Y002498D03*
X023674Y002488D03*
X023674Y002478D03*
X023664Y002418D03*
X023664Y002408D03*
X023664Y002398D03*
X023664Y002388D03*
X023654Y002318D03*
X023644Y002268D03*
X023634Y002238D03*
X023634Y002228D03*
X023624Y002208D03*
X023614Y002188D03*
X023554Y002118D03*
X023434Y002188D03*
X023424Y002208D03*
X023324Y002398D03*
X023324Y002408D03*
X023324Y002418D03*
X023324Y002428D03*
X023324Y002438D03*
X023324Y002448D03*
X023324Y002458D03*
X023324Y002468D03*
X023324Y002478D03*
X023324Y002488D03*
X023324Y002498D03*
X023324Y002508D03*
X023324Y002518D03*
X023324Y002528D03*
X023324Y002538D03*
X023324Y002548D03*
X023324Y002558D03*
X023324Y002568D03*
X023324Y002578D03*
X023324Y002588D03*
X023324Y002598D03*
X023324Y002608D03*
X023324Y002618D03*
X023324Y002628D03*
X023324Y002638D03*
X023324Y002648D03*
X023324Y002658D03*
X023324Y002668D03*
X023324Y002678D03*
X023324Y002688D03*
X023324Y002698D03*
X023324Y002708D03*
X023324Y002718D03*
X023324Y002728D03*
X023324Y002738D03*
X023324Y002748D03*
X023324Y002758D03*
X023324Y002768D03*
X023324Y002778D03*
X023324Y002788D03*
X023324Y002798D03*
X023324Y002808D03*
X023324Y002818D03*
X023324Y002828D03*
X023324Y002838D03*
X023324Y002848D03*
X023504Y002748D03*
X023494Y002728D03*
X023484Y002708D03*
X023474Y002688D03*
X023464Y002668D03*
X023464Y002658D03*
X023454Y002648D03*
X023454Y002638D03*
X023454Y002628D03*
X023624Y002748D03*
X023314Y003088D03*
X023314Y003098D03*
X023314Y003108D03*
X023314Y003118D03*
X023314Y003128D03*
X023314Y003138D03*
X023314Y003148D03*
X023314Y003158D03*
X023314Y003168D03*
X023314Y003178D03*
X023314Y003188D03*
X023314Y003198D03*
X023314Y003208D03*
X023314Y003218D03*
X023314Y003228D03*
X023314Y003238D03*
X023314Y003248D03*
X023314Y003258D03*
X023314Y003268D03*
X023314Y003278D03*
X023314Y003288D03*
X023314Y003298D03*
X023314Y003308D03*
X023314Y003318D03*
X023304Y003328D03*
X023184Y002348D03*
X023734Y002198D03*
X023814Y002368D03*
X023694Y001848D03*
X023704Y001828D03*
X022414Y001738D03*
X022414Y001728D03*
X022414Y001718D03*
X022094Y002008D03*
X022094Y002018D03*
X022094Y002028D03*
X022094Y002038D03*
X022094Y002048D03*
X022094Y002058D03*
X022094Y002068D03*
X022094Y002078D03*
X022094Y002088D03*
X022094Y002098D03*
X022094Y002108D03*
X022094Y002118D03*
X022094Y002128D03*
X022094Y002138D03*
X022094Y002148D03*
X022094Y002158D03*
X022084Y002208D03*
X022084Y002218D03*
X022084Y002228D03*
X022044Y002408D03*
X022034Y002428D03*
X022034Y002438D03*
X022024Y002448D03*
X022024Y002458D03*
X022014Y002468D03*
X022014Y002478D03*
X022004Y002488D03*
X021844Y002518D03*
X021704Y002538D03*
X021704Y002548D03*
X021704Y002558D03*
X021714Y002578D03*
X021714Y002588D03*
X021714Y002598D03*
X021724Y002628D03*
X021724Y002638D03*
X021734Y002668D03*
X021734Y002678D03*
X021744Y002718D03*
X021754Y002758D03*
X021754Y002768D03*
X021764Y002808D03*
X021774Y002848D03*
X021774Y002858D03*
X021784Y002898D03*
X021784Y002908D03*
X021794Y002938D03*
X021794Y002948D03*
X021794Y002958D03*
X021804Y002978D03*
X021804Y002988D03*
X021494Y002928D03*
X021484Y002968D03*
X021504Y002888D03*
X021504Y002878D03*
X021514Y002858D03*
X021514Y002848D03*
X021514Y002838D03*
X021524Y002818D03*
X021524Y002808D03*
X021524Y002798D03*
X021534Y002778D03*
X021534Y002768D03*
X021534Y002758D03*
X021544Y002738D03*
X021544Y002728D03*
X021544Y002718D03*
X021554Y002708D03*
X021554Y002698D03*
X021554Y002688D03*
X021554Y002678D03*
X021564Y002668D03*
X021564Y002658D03*
X021564Y002648D03*
X021564Y002638D03*
X021574Y002628D03*
X021574Y002618D03*
X021574Y002608D03*
X021584Y002598D03*
X021584Y002588D03*
X021584Y002578D03*
X021584Y002568D03*
X021594Y002558D03*
X021594Y002548D03*
X021594Y002538D03*
X021604Y002518D03*
X021604Y002508D03*
X021604Y002498D03*
X021614Y002488D03*
X021614Y002478D03*
X021614Y002468D03*
X021624Y002448D03*
X021684Y002458D03*
X021684Y002468D03*
X021684Y002478D03*
X021694Y002488D03*
X021694Y002498D03*
X021694Y002508D03*
X021694Y002518D03*
X021654Y002378D03*
X021654Y002368D03*
X021824Y002268D03*
X021254Y002418D03*
X021244Y002388D03*
X021244Y002378D03*
X021234Y002358D03*
X021224Y002338D03*
X021164Y002268D03*
X021044Y002338D03*
X021034Y002358D03*
X020914Y002318D03*
X020914Y002428D03*
X020914Y002438D03*
X020914Y002448D03*
X020914Y002458D03*
X020914Y002468D03*
X020914Y002478D03*
X020914Y002488D03*
X020904Y002498D03*
X020904Y002508D03*
X020904Y002518D03*
X020904Y002528D03*
X020894Y002548D03*
X020884Y002568D03*
X020884Y002578D03*
X020874Y002588D03*
X020724Y002598D03*
X020594Y002598D03*
X020594Y002608D03*
X020594Y002618D03*
X020594Y002628D03*
X020594Y002638D03*
X020594Y002648D03*
X020594Y002658D03*
X020594Y002668D03*
X020594Y002678D03*
X020594Y002688D03*
X020584Y002698D03*
X020574Y002718D03*
X020584Y002578D03*
X020584Y002568D03*
X020574Y002558D03*
X020394Y002698D03*
X020394Y002708D03*
X020384Y002688D03*
X020374Y002678D03*
X020364Y002438D03*
X020354Y002428D03*
X020344Y002408D03*
X020334Y002378D03*
X020334Y002368D03*
X020324Y002328D03*
X020324Y002318D03*
X020324Y002308D03*
X020324Y002298D03*
X020324Y002288D03*
X020334Y002218D03*
X020334Y002208D03*
X020334Y002198D03*
X020344Y002178D03*
X020444Y002088D03*
X020554Y002168D03*
X020644Y002068D03*
X020874Y002068D03*
X020884Y002088D03*
X020884Y002098D03*
X020894Y002118D03*
X020894Y002128D03*
X020894Y002138D03*
X020894Y002148D03*
X020904Y002178D03*
X020904Y002188D03*
X020904Y002198D03*
X020904Y002208D03*
X021264Y002468D03*
X021274Y002538D03*
X021274Y002548D03*
X021274Y002558D03*
X021274Y002568D03*
X021284Y002628D03*
X021284Y002638D03*
X021284Y002648D03*
X021284Y002658D03*
X021284Y002668D03*
X021284Y002678D03*
X021284Y002688D03*
X021284Y002698D03*
X021284Y002708D03*
X021284Y002718D03*
X021284Y002728D03*
X021284Y002738D03*
X021284Y002748D03*
X021274Y002778D03*
X021274Y002788D03*
X021274Y002798D03*
X021264Y002838D03*
X021234Y002898D03*
X021114Y002898D03*
X021104Y002878D03*
X021094Y002858D03*
X021084Y002838D03*
X021074Y002818D03*
X021074Y002808D03*
X021064Y002798D03*
X021064Y002788D03*
X021064Y002778D03*
D19*
X025749Y001688D03*
D20*
X026179Y002298D03*
X025139Y002578D03*
X025139Y002588D03*
X025149Y002658D03*
X025149Y002668D03*
X025149Y002678D03*
X025149Y002688D03*
X025149Y002698D03*
X025149Y002708D03*
X025149Y002718D03*
X025149Y002728D03*
X025149Y002738D03*
X025159Y002748D03*
X025159Y002758D03*
X025159Y002768D03*
X025159Y002778D03*
X025159Y002788D03*
X025159Y002798D03*
X025159Y002808D03*
X025159Y002818D03*
X024809Y002818D03*
X024809Y002828D03*
X024809Y002838D03*
X024809Y002848D03*
X024809Y002858D03*
X024809Y002868D03*
X024809Y002878D03*
X024809Y002888D03*
X024809Y002808D03*
X024809Y002798D03*
X024809Y002788D03*
X024809Y002778D03*
X024809Y002768D03*
X024809Y002758D03*
X024809Y002748D03*
X024809Y002738D03*
X024809Y002728D03*
X024809Y002718D03*
X024809Y002708D03*
X024809Y002698D03*
X024809Y002688D03*
X024809Y002678D03*
X024809Y002668D03*
X024809Y002658D03*
X024819Y002598D03*
X024819Y002588D03*
X024689Y002528D03*
X024679Y002548D03*
X024529Y002558D03*
X024379Y002618D03*
X024389Y002648D03*
X024389Y002658D03*
X024389Y002668D03*
X024369Y002588D03*
X024359Y002558D03*
X024349Y002528D03*
X024339Y002498D03*
X024089Y002408D03*
X024089Y002398D03*
X024089Y002388D03*
X024099Y002368D03*
X024099Y002358D03*
X024079Y002418D03*
X024079Y002428D03*
X024079Y002438D03*
X024069Y002488D03*
X023959Y002368D03*
X023889Y002428D03*
X023829Y002378D03*
X023989Y002168D03*
X023989Y002108D03*
X023989Y002098D03*
X023989Y002088D03*
X023979Y002078D03*
X023979Y002068D03*
X023979Y002058D03*
X023979Y002048D03*
X023979Y002038D03*
X023979Y002028D03*
X023969Y001998D03*
X023969Y001988D03*
X023969Y001978D03*
X023959Y001948D03*
X023959Y001938D03*
X023949Y001908D03*
X023939Y001878D03*
X023939Y001868D03*
X023929Y001848D03*
X023919Y001828D03*
X023909Y001818D03*
X024059Y001698D03*
X024059Y001688D03*
X024109Y001838D03*
X024129Y001888D03*
X024139Y001918D03*
X024149Y001938D03*
X024149Y001948D03*
X024159Y001968D03*
X024159Y001978D03*
X024169Y001998D03*
X024169Y002008D03*
X024179Y002018D03*
X024179Y002028D03*
X024179Y002038D03*
X024189Y002048D03*
X024189Y002058D03*
X024199Y002078D03*
X024199Y002088D03*
X024209Y002108D03*
X024219Y002138D03*
X024539Y002268D03*
X024549Y002288D03*
X024689Y002378D03*
X024699Y002398D03*
X024859Y002428D03*
X024869Y002408D03*
X024879Y002388D03*
X025009Y002258D03*
X025079Y002348D03*
X025089Y002358D03*
X025089Y002368D03*
X024779Y002008D03*
X024589Y001988D03*
X024579Y001998D03*
X023709Y001818D03*
X023699Y001838D03*
X023609Y002178D03*
X023319Y002318D03*
X023319Y002328D03*
X023319Y002338D03*
X023319Y002348D03*
X023319Y002358D03*
X023319Y002368D03*
X023319Y002378D03*
X023319Y002388D03*
X023199Y002338D03*
X023319Y002858D03*
X023319Y002958D03*
X023319Y002968D03*
X023319Y002978D03*
X023319Y002988D03*
X023319Y002998D03*
X023319Y003008D03*
X023319Y003018D03*
X023319Y003028D03*
X023319Y003038D03*
X023319Y003048D03*
X023319Y003058D03*
X023319Y003068D03*
X023319Y003078D03*
X023609Y002758D03*
X022509Y002138D03*
X022499Y002098D03*
X022489Y002058D03*
X022479Y002018D03*
X022469Y001978D03*
X022469Y001968D03*
X022459Y001938D03*
X022459Y001928D03*
X022089Y001988D03*
X022089Y001998D03*
X022079Y001978D03*
X022079Y001968D03*
X022089Y002168D03*
X022089Y002178D03*
X022089Y002188D03*
X022089Y002198D03*
X022079Y002238D03*
X022079Y002248D03*
X022079Y002258D03*
X022079Y002268D03*
X022069Y002278D03*
X022059Y002338D03*
X022059Y002348D03*
X022059Y002358D03*
X022059Y002368D03*
X022049Y002378D03*
X022049Y002388D03*
X022049Y002398D03*
X022039Y002418D03*
X021999Y002498D03*
X021989Y002508D03*
X021979Y002518D03*
X021909Y002578D03*
X021849Y002528D03*
X021709Y002568D03*
X021719Y002608D03*
X021719Y002618D03*
X021729Y002648D03*
X021729Y002658D03*
X021739Y002688D03*
X021739Y002698D03*
X021739Y002708D03*
X021749Y002728D03*
X021749Y002738D03*
X021749Y002748D03*
X021759Y002778D03*
X021759Y002788D03*
X021759Y002798D03*
X021769Y002818D03*
X021769Y002828D03*
X021769Y002838D03*
X021779Y002868D03*
X021779Y002878D03*
X021779Y002888D03*
X021789Y002918D03*
X021789Y002928D03*
X021799Y002968D03*
X022029Y003178D03*
X022019Y003268D03*
X022019Y003278D03*
X022019Y003288D03*
X022019Y003298D03*
X021329Y003168D03*
X021329Y003158D03*
X021329Y003108D03*
X021329Y003098D03*
X021219Y002908D03*
X020869Y002598D03*
X020799Y002658D03*
X020739Y002608D03*
X020569Y002548D03*
X020559Y002538D03*
X020579Y002708D03*
X020409Y002718D03*
X020379Y002458D03*
X020369Y002448D03*
X020339Y002188D03*
X020349Y002168D03*
X020649Y002058D03*
X020649Y002048D03*
X020659Y002038D03*
X020859Y002038D03*
X020869Y002048D03*
X020869Y002058D03*
X020879Y002078D03*
X020889Y002108D03*
X020899Y002158D03*
X020899Y002168D03*
X020909Y002218D03*
X020909Y002228D03*
X020909Y002238D03*
X020909Y002248D03*
X020909Y002258D03*
X020909Y002268D03*
X020909Y002278D03*
X020909Y002288D03*
X020909Y002298D03*
X020909Y002308D03*
X020919Y002328D03*
X020919Y002338D03*
X020919Y002398D03*
X020919Y002408D03*
X020919Y002418D03*
X021219Y002328D03*
X021699Y002528D03*
X021869Y001968D03*
X022909Y003738D03*
X022909Y003748D03*
X025309Y003528D03*
D21*
X025744Y001698D03*
X022494Y003818D03*
D22*
X025739Y001708D03*
D23*
X026174Y002288D03*
X024904Y002358D03*
X024894Y002368D03*
X024884Y002378D03*
X024874Y002398D03*
X024864Y002418D03*
X024854Y002438D03*
X024854Y002448D03*
X024844Y002458D03*
X024844Y002468D03*
X024844Y002478D03*
X024834Y002498D03*
X024834Y002508D03*
X024834Y002518D03*
X024824Y002528D03*
X024824Y002538D03*
X024824Y002548D03*
X024824Y002558D03*
X024824Y002568D03*
X024824Y002578D03*
X024814Y002608D03*
X024814Y002618D03*
X024814Y002628D03*
X024814Y002638D03*
X024814Y002648D03*
X024664Y002558D03*
X024674Y002368D03*
X024564Y002298D03*
X024214Y002148D03*
X024164Y002218D03*
X024154Y002238D03*
X024144Y002258D03*
X024134Y002278D03*
X024124Y002298D03*
X024124Y002308D03*
X024114Y002318D03*
X024114Y002328D03*
X024104Y002338D03*
X024104Y002348D03*
X024094Y002378D03*
X023944Y002378D03*
X023444Y002178D03*
X023214Y002318D03*
X023204Y002328D03*
X023524Y002758D03*
X023564Y002798D03*
X023324Y002868D03*
X023324Y002878D03*
X022654Y002738D03*
X022644Y002698D03*
X022634Y002658D03*
X022624Y002618D03*
X022624Y002608D03*
X022614Y002578D03*
X022614Y002568D03*
X022604Y002538D03*
X022604Y002528D03*
X022594Y002498D03*
X022594Y002488D03*
X022584Y002458D03*
X022584Y002448D03*
X022584Y002438D03*
X022574Y002418D03*
X022574Y002408D03*
X022574Y002398D03*
X022564Y002378D03*
X022564Y002368D03*
X022564Y002358D03*
X022554Y002338D03*
X022554Y002328D03*
X022554Y002318D03*
X022544Y002298D03*
X022544Y002288D03*
X022544Y002278D03*
X022544Y002268D03*
X022534Y002258D03*
X022534Y002248D03*
X022534Y002238D03*
X022534Y002228D03*
X022524Y002218D03*
X022524Y002208D03*
X022524Y002198D03*
X022524Y002188D03*
X022514Y002178D03*
X022514Y002168D03*
X022514Y002158D03*
X022514Y002148D03*
X022504Y002128D03*
X022504Y002118D03*
X022504Y002108D03*
X022494Y002088D03*
X022494Y002078D03*
X022494Y002068D03*
X022484Y002048D03*
X022484Y002038D03*
X022484Y002028D03*
X022474Y002008D03*
X022474Y001998D03*
X022474Y001988D03*
X022464Y001958D03*
X022464Y001948D03*
X022414Y001768D03*
X022414Y001758D03*
X022414Y001748D03*
X021874Y001958D03*
X021654Y002388D03*
X021654Y002398D03*
X021654Y002408D03*
X021964Y002528D03*
X022104Y002808D03*
X022094Y002848D03*
X022094Y002858D03*
X022084Y002888D03*
X022084Y002898D03*
X022074Y002928D03*
X022074Y002938D03*
X022074Y002948D03*
X022064Y002968D03*
X022064Y002978D03*
X022064Y002988D03*
X022064Y002998D03*
X022054Y003018D03*
X022054Y003028D03*
X022054Y003038D03*
X022054Y003048D03*
X022044Y003068D03*
X022044Y003078D03*
X022044Y003088D03*
X022044Y003098D03*
X022044Y003108D03*
X022034Y003118D03*
X022034Y003128D03*
X022034Y003138D03*
X022034Y003148D03*
X022034Y003158D03*
X022034Y003168D03*
X022024Y003188D03*
X022024Y003198D03*
X022024Y003208D03*
X022024Y003218D03*
X022024Y003228D03*
X022024Y003238D03*
X022024Y003248D03*
X022024Y003258D03*
X022024Y003308D03*
X022024Y003348D03*
X022024Y003358D03*
X022024Y003368D03*
X021174Y002948D03*
X021134Y002908D03*
X020854Y002608D03*
X020564Y002728D03*
X020424Y002728D03*
X021054Y002328D03*
X020544Y002158D03*
X020794Y001968D03*
X022894Y003698D03*
X022904Y003708D03*
X022904Y003718D03*
X022904Y003728D03*
X024134Y002758D03*
X024334Y002748D03*
X024394Y002688D03*
X024394Y002678D03*
X024164Y001988D03*
X024154Y001958D03*
X024144Y001928D03*
X024134Y001908D03*
X024134Y001898D03*
X024124Y001878D03*
X024124Y001868D03*
X024114Y001858D03*
X024114Y001848D03*
X024104Y001828D03*
X024104Y001818D03*
X024094Y001808D03*
X024094Y001798D03*
X024094Y001788D03*
X024084Y001778D03*
X024084Y001768D03*
X024074Y001748D03*
X024074Y001738D03*
X024064Y001718D03*
X024064Y001708D03*
X023904Y001808D03*
X024764Y001998D03*
X025314Y003538D03*
D24*
X025739Y001718D03*
D25*
X025739Y001728D03*
D26*
X026089Y001958D03*
X026099Y001978D03*
X026109Y002008D03*
X026119Y002038D03*
X025069Y002338D03*
X024919Y002338D03*
X024909Y002348D03*
X024839Y002488D03*
X024659Y002358D03*
X024389Y002698D03*
X024319Y002758D03*
X024229Y002818D03*
X024129Y002288D03*
X024139Y002268D03*
X024149Y002248D03*
X024159Y002228D03*
X024209Y002158D03*
X024079Y001758D03*
X024069Y001728D03*
X023889Y001798D03*
X023729Y001808D03*
X023279Y002278D03*
X022589Y002468D03*
X022589Y002478D03*
X022599Y002508D03*
X022599Y002518D03*
X022609Y002548D03*
X022609Y002558D03*
X022619Y002588D03*
X022619Y002598D03*
X022629Y002628D03*
X022629Y002638D03*
X022629Y002648D03*
X022639Y002668D03*
X022639Y002678D03*
X022639Y002688D03*
X022649Y002708D03*
X022649Y002718D03*
X022649Y002728D03*
X022659Y002748D03*
X022659Y002758D03*
X022659Y002768D03*
X022659Y002778D03*
X022669Y002788D03*
X022669Y002798D03*
X022669Y002808D03*
X022669Y002818D03*
X022679Y002828D03*
X022679Y002838D03*
X022679Y002848D03*
X022679Y002858D03*
X022689Y002868D03*
X022689Y002878D03*
X022689Y002888D03*
X022689Y002898D03*
X022699Y002908D03*
X022699Y002918D03*
X022699Y002928D03*
X022699Y002938D03*
X022709Y002958D03*
X022709Y002968D03*
X022709Y002978D03*
X022719Y002998D03*
X022719Y003008D03*
X022719Y003018D03*
X022729Y003038D03*
X022729Y003048D03*
X022729Y003058D03*
X022739Y003088D03*
X022739Y003098D03*
X022749Y003128D03*
X022749Y003138D03*
X022759Y003168D03*
X022759Y003178D03*
X022769Y003208D03*
X022769Y003218D03*
X022779Y003258D03*
X022789Y003298D03*
X022799Y003338D03*
X022809Y003378D03*
X022039Y003438D03*
X022029Y003408D03*
X022029Y003398D03*
X022029Y003388D03*
X022029Y003378D03*
X022019Y003338D03*
X022019Y003328D03*
X022019Y003318D03*
X022049Y003058D03*
X022059Y003008D03*
X022069Y002958D03*
X022079Y002918D03*
X022079Y002908D03*
X022089Y002878D03*
X022089Y002868D03*
X022099Y002838D03*
X022099Y002828D03*
X022099Y002818D03*
X022109Y002798D03*
X022109Y002788D03*
X022109Y002778D03*
X022119Y002768D03*
X022119Y002758D03*
X022119Y002748D03*
X022119Y002738D03*
X022129Y002728D03*
X022129Y002718D03*
X022129Y002708D03*
X022129Y002698D03*
X022139Y002688D03*
X022139Y002678D03*
X022139Y002668D03*
X022149Y002648D03*
X022149Y002638D03*
X022149Y002628D03*
X022159Y002618D03*
X022159Y002608D03*
X022159Y002598D03*
X022169Y002578D03*
X022169Y002568D03*
X022169Y002558D03*
X022179Y002538D03*
X022179Y002528D03*
X022189Y002508D03*
X022189Y002498D03*
X022189Y002488D03*
X022199Y002468D03*
X022199Y002458D03*
X022209Y002428D03*
X022219Y002398D03*
X022229Y002368D03*
X022229Y002358D03*
X022239Y002328D03*
X022249Y002298D03*
X022259Y002268D03*
X022269Y002228D03*
X022279Y002198D03*
X022289Y002168D03*
X022299Y002138D03*
X022069Y001958D03*
X021989Y001898D03*
X021889Y001948D03*
X022409Y001778D03*
X022549Y002308D03*
X022559Y002348D03*
X022569Y002388D03*
X022579Y002428D03*
X021649Y002418D03*
X020849Y002028D03*
X020679Y002028D03*
X020359Y002158D03*
X020389Y002468D03*
X021329Y003118D03*
X021329Y003128D03*
X021329Y003138D03*
X021329Y003148D03*
X025309Y003548D03*
X025309Y003558D03*
X025899Y003688D03*
X025909Y003668D03*
X025919Y003658D03*
X025919Y003648D03*
X025929Y003628D03*
X025939Y003598D03*
X025949Y003558D03*
D27*
X025604Y003798D03*
X025734Y001738D03*
D28*
X025734Y001748D03*
D29*
X025734Y001758D03*
D30*
X025474Y001808D03*
X025464Y001818D03*
X025004Y002278D03*
X024204Y002208D03*
X024204Y002198D03*
X023894Y002408D03*
X023564Y002768D03*
X023184Y002878D03*
X023274Y002298D03*
X023834Y001758D03*
X024384Y002738D03*
X025424Y002958D03*
X025434Y002978D03*
X025444Y002988D03*
X025454Y002998D03*
X025894Y003338D03*
X025904Y003348D03*
X025374Y003758D03*
X025824Y003768D03*
X022854Y003648D03*
X022734Y003728D03*
X022174Y003668D03*
X022164Y003658D03*
X022154Y003648D03*
X021174Y002918D03*
X020444Y002098D03*
X020784Y001978D03*
D31*
X025729Y001768D03*
D32*
X025489Y001798D03*
X023939Y002128D03*
X023889Y002388D03*
X023829Y001768D03*
X022409Y001908D03*
X022409Y001918D03*
X021989Y001908D03*
X020779Y001988D03*
X020449Y002488D03*
X020799Y002618D03*
X022239Y003728D03*
X022849Y003668D03*
X025549Y003098D03*
X025559Y003108D03*
X025569Y003118D03*
X025859Y003308D03*
X025799Y003778D03*
D33*
X025459Y003788D03*
X025899Y001778D03*
D34*
X024994Y002308D03*
X023814Y002168D03*
X023824Y001778D03*
X021984Y001918D03*
X020854Y002358D03*
X020774Y001998D03*
X020444Y002118D03*
X020494Y002738D03*
X022834Y003688D03*
X025624Y003158D03*
X025644Y003168D03*
X025654Y003178D03*
X025674Y003188D03*
X025804Y003268D03*
D35*
X024994Y002328D03*
X024674Y001968D03*
X023524Y002168D03*
X025934Y001788D03*
X022654Y003768D03*
X021134Y002318D03*
X020444Y002128D03*
D36*
X020444Y002108D03*
X020464Y002498D03*
X020494Y002518D03*
X020494Y002748D03*
X021914Y002538D03*
X022254Y003738D03*
X022504Y003858D03*
X022684Y003758D03*
X024234Y002798D03*
X024604Y002578D03*
X024994Y002298D03*
X025504Y001788D03*
X025954Y001798D03*
X025584Y003128D03*
X025844Y003298D03*
D37*
X025954Y003428D03*
X025954Y003438D03*
X025954Y003448D03*
X025954Y003458D03*
X025964Y003468D03*
X025964Y003478D03*
X025954Y003488D03*
X025954Y003498D03*
X025954Y003508D03*
X025954Y003518D03*
X025954Y003528D03*
X025954Y003538D03*
X025954Y003548D03*
X025944Y003568D03*
X025944Y003578D03*
X025944Y003588D03*
X025934Y003608D03*
X025934Y003618D03*
X025924Y003638D03*
X025904Y003678D03*
X025894Y003698D03*
X025884Y003708D03*
X025344Y003728D03*
X025334Y003708D03*
X025324Y003688D03*
X025324Y003678D03*
X025324Y003668D03*
X025314Y003638D03*
X025314Y003628D03*
X025314Y003618D03*
X025314Y003608D03*
X025314Y003568D03*
X024154Y002768D03*
X024394Y002708D03*
X024574Y002308D03*
X025004Y002268D03*
X026054Y001888D03*
X026064Y001908D03*
X026074Y001918D03*
X026074Y001928D03*
X026084Y001938D03*
X026084Y001948D03*
X026094Y001968D03*
X026104Y001988D03*
X026104Y001998D03*
X026114Y002018D03*
X026114Y002028D03*
X026124Y002048D03*
X026124Y002058D03*
X026124Y002068D03*
X026134Y002078D03*
X026134Y002088D03*
X026134Y002098D03*
X026144Y002138D03*
X026154Y002188D03*
X026164Y002238D03*
X026174Y002268D03*
X026174Y002278D03*
X023564Y002788D03*
X022764Y003188D03*
X022764Y003198D03*
X022774Y003228D03*
X022774Y003238D03*
X022774Y003248D03*
X022784Y003268D03*
X022784Y003278D03*
X022784Y003288D03*
X022794Y003308D03*
X022794Y003318D03*
X022794Y003328D03*
X022804Y003348D03*
X022804Y003358D03*
X022804Y003368D03*
X022814Y003388D03*
X022814Y003398D03*
X022814Y003408D03*
X022814Y003418D03*
X022824Y003428D03*
X022824Y003438D03*
X022824Y003448D03*
X022824Y003458D03*
X022834Y003468D03*
X022834Y003478D03*
X022834Y003488D03*
X022834Y003498D03*
X022844Y003508D03*
X022844Y003518D03*
X022844Y003528D03*
X022844Y003538D03*
X022854Y003558D03*
X022854Y003568D03*
X022854Y003578D03*
X022864Y003598D03*
X022864Y003608D03*
X022864Y003618D03*
X022754Y003158D03*
X022754Y003148D03*
X022744Y003118D03*
X022744Y003108D03*
X022734Y003078D03*
X022734Y003068D03*
X022724Y003028D03*
X022714Y002988D03*
X022704Y002948D03*
X022144Y002658D03*
X022164Y002588D03*
X022174Y002548D03*
X022184Y002518D03*
X022194Y002478D03*
X022204Y002448D03*
X022204Y002438D03*
X022214Y002418D03*
X022214Y002408D03*
X022224Y002388D03*
X022224Y002378D03*
X022234Y002348D03*
X022234Y002338D03*
X022244Y002318D03*
X022244Y002308D03*
X022254Y002288D03*
X022254Y002278D03*
X022264Y002258D03*
X022264Y002248D03*
X022264Y002238D03*
X022274Y002218D03*
X022274Y002208D03*
X022284Y002188D03*
X022284Y002178D03*
X022294Y002158D03*
X022294Y002148D03*
X022304Y002128D03*
X022304Y002118D03*
X022304Y002108D03*
X022314Y002098D03*
X022314Y002088D03*
X022314Y002078D03*
X022324Y002068D03*
X022324Y002058D03*
X022324Y002048D03*
X022334Y002038D03*
X022334Y002028D03*
X022334Y002018D03*
X022344Y002008D03*
X022344Y001998D03*
X022344Y001988D03*
X022354Y001978D03*
X022354Y001968D03*
X022354Y001958D03*
X022364Y001948D03*
X022364Y001938D03*
X022364Y001928D03*
X022414Y001798D03*
X022414Y001788D03*
X021654Y002428D03*
X021174Y002938D03*
X022034Y003418D03*
X022034Y003428D03*
X022044Y003448D03*
X022044Y003458D03*
X022044Y003468D03*
X022054Y003478D03*
X022054Y003488D03*
X022064Y003508D03*
D38*
X022119Y003608D03*
X022129Y003618D03*
X022139Y003628D03*
X022139Y003638D03*
X022749Y003718D03*
X022779Y003698D03*
X022859Y003638D03*
X021909Y002558D03*
X022409Y001858D03*
X022409Y001848D03*
X022409Y001838D03*
X023759Y001798D03*
X024619Y002338D03*
X025349Y001988D03*
X025359Y001968D03*
X025369Y001948D03*
X025379Y001928D03*
X025389Y001908D03*
X025409Y001878D03*
X025429Y001848D03*
X025439Y001838D03*
X025449Y001828D03*
X025999Y001828D03*
X026009Y001838D03*
X025369Y002838D03*
X025389Y002888D03*
X025399Y002908D03*
X025409Y002928D03*
X025409Y002938D03*
X025419Y002948D03*
X025429Y002968D03*
X025909Y003358D03*
X025919Y003368D03*
X025839Y003758D03*
X020799Y002638D03*
X020689Y002408D03*
D39*
X021144Y002288D03*
X021864Y002278D03*
X022024Y002328D03*
X021914Y002548D03*
X022404Y001898D03*
X023264Y002308D03*
X023534Y002138D03*
X023894Y002398D03*
X024664Y001938D03*
X025004Y002288D03*
X025484Y003038D03*
X025494Y003048D03*
X025504Y003058D03*
X025514Y003068D03*
X025524Y003078D03*
X025534Y003088D03*
X025874Y003318D03*
X025884Y003328D03*
X025974Y001808D03*
X023464Y002958D03*
X022704Y003748D03*
X022224Y003718D03*
X022214Y003708D03*
D40*
X022199Y003698D03*
X022189Y003688D03*
X022179Y003678D03*
X022719Y003738D03*
X022849Y003658D03*
X024229Y002808D03*
X024599Y002588D03*
X023789Y002178D03*
X022409Y001888D03*
X022409Y001878D03*
X022409Y001868D03*
X020799Y002628D03*
X020499Y002758D03*
X025459Y003008D03*
X025469Y003018D03*
X025479Y003028D03*
X025389Y003768D03*
X025989Y001818D03*
D41*
X026024Y001848D03*
X025424Y001858D03*
X025414Y001868D03*
X025404Y001888D03*
X025394Y001898D03*
X025384Y001918D03*
X025374Y001938D03*
X025364Y001958D03*
X025354Y001978D03*
X025344Y001998D03*
X025344Y002008D03*
X025334Y002018D03*
X025334Y002028D03*
X025324Y002048D03*
X025324Y002058D03*
X025314Y002088D03*
X025304Y002138D03*
X025294Y002218D03*
X025294Y002228D03*
X025294Y002238D03*
X025294Y002248D03*
X025294Y002258D03*
X025294Y002268D03*
X025294Y002358D03*
X025294Y002368D03*
X025294Y002378D03*
X025294Y002388D03*
X025294Y002398D03*
X025294Y002408D03*
X025294Y002418D03*
X025294Y002428D03*
X025294Y002438D03*
X025294Y002448D03*
X025294Y002458D03*
X025294Y002468D03*
X025304Y002528D03*
X025304Y002538D03*
X025304Y002548D03*
X025304Y002558D03*
X025304Y002568D03*
X025314Y002608D03*
X025314Y002618D03*
X025314Y002628D03*
X025314Y002638D03*
X025324Y002658D03*
X025324Y002668D03*
X025324Y002678D03*
X025324Y002688D03*
X025334Y002708D03*
X025334Y002718D03*
X025334Y002728D03*
X025344Y002748D03*
X025344Y002758D03*
X025344Y002768D03*
X025354Y002788D03*
X025354Y002798D03*
X025364Y002818D03*
X025364Y002828D03*
X025374Y002848D03*
X025374Y002858D03*
X025384Y002868D03*
X025384Y002878D03*
X025394Y002898D03*
X025404Y002918D03*
X025934Y003388D03*
X025364Y003748D03*
X024384Y002728D03*
X024604Y002598D03*
X024634Y002348D03*
X024604Y002328D03*
X024204Y002188D03*
X023964Y002118D03*
X023544Y002128D03*
X023274Y002288D03*
X023564Y002778D03*
X022864Y003628D03*
X022764Y003708D03*
X022114Y003598D03*
X022104Y003588D03*
X022094Y003568D03*
X022084Y003548D03*
X021174Y002928D03*
X020894Y002348D03*
X021154Y002278D03*
X022044Y001948D03*
X022414Y001828D03*
D42*
X021979Y001938D03*
X021979Y002318D03*
X023239Y002888D03*
D43*
X023529Y002148D03*
X024599Y002568D03*
X024669Y001948D03*
X025599Y003138D03*
X025609Y003148D03*
X025819Y003278D03*
X025829Y003288D03*
X025419Y003778D03*
X022839Y003678D03*
X022279Y003748D03*
X020479Y002508D03*
X021139Y002298D03*
D44*
X021139Y002308D03*
X020739Y002398D03*
X022299Y003758D03*
X024229Y002788D03*
X024999Y002318D03*
X024669Y001958D03*
X023919Y002138D03*
X023529Y002158D03*
X025689Y003198D03*
X025709Y003208D03*
X025719Y003218D03*
X025739Y003228D03*
X025759Y003238D03*
X025769Y003248D03*
X025789Y003258D03*
X025769Y003788D03*
X025619Y003878D03*
D45*
X024674Y001978D03*
X022324Y003768D03*
X020444Y002138D03*
X020764Y002018D03*
D46*
X022504Y003848D03*
X023414Y002948D03*
X023894Y002148D03*
D47*
X023874Y002158D03*
D48*
X021944Y002288D03*
X020794Y002388D03*
D49*
X021939Y002308D03*
X021939Y002298D03*
X023289Y002908D03*
X025609Y003858D03*
D50*
X022499Y003838D03*
X020799Y002378D03*
D51*
X023254Y002898D03*
X025614Y003868D03*
D52*
X023319Y002918D03*
D53*
X023344Y002928D03*
X025604Y003848D03*
D54*
X023374Y002938D03*
D55*
X022489Y003778D03*
D56*
X022489Y003788D03*
D57*
X022494Y003798D03*
X025604Y003818D03*
D58*
X025604Y003808D03*
D59*
X022494Y003808D03*
D60*
X025599Y003828D03*
D61*
X022494Y003828D03*
D62*
X025604Y003838D03*
D63*
X015484Y006430D02*
X015408Y006353D01*
X015101Y006353D01*
X015024Y006430D01*
X015024Y006583D01*
X015101Y006660D01*
X015101Y006814D02*
X015024Y006814D01*
X015101Y006814D02*
X015408Y007120D01*
X015484Y007120D01*
X015484Y006814D01*
X015408Y006660D02*
X015484Y006583D01*
X015484Y006430D01*
X014907Y010524D02*
X014754Y010524D01*
X014677Y010601D01*
X014524Y010601D02*
X014447Y010524D01*
X014293Y010524D01*
X014217Y010601D01*
X014217Y010677D01*
X014293Y010754D01*
X014524Y010754D01*
X014524Y010601D01*
X014524Y010754D02*
X014370Y010908D01*
X014217Y010984D01*
X014677Y010908D02*
X014754Y010984D01*
X014907Y010984D01*
X014984Y010908D01*
X014984Y010601D01*
X014907Y010524D01*
X010734Y010851D02*
X010657Y010774D01*
X010504Y010774D01*
X010427Y010851D01*
X010274Y010851D02*
X010197Y010774D01*
X010043Y010774D01*
X009967Y010851D01*
X009967Y010927D01*
X010043Y011004D01*
X010120Y011004D01*
X010043Y011004D02*
X009967Y011081D01*
X009967Y011158D01*
X010043Y011234D01*
X010197Y011234D01*
X010274Y011158D01*
X010427Y011158D02*
X010504Y011234D01*
X010657Y011234D01*
X010734Y011158D01*
X010734Y010851D01*
X006734Y008408D02*
X006734Y008101D01*
X006657Y008024D01*
X006504Y008024D01*
X006427Y008101D01*
X006274Y008101D02*
X006274Y008177D01*
X006197Y008254D01*
X006043Y008254D01*
X005967Y008177D01*
X005967Y008101D01*
X006043Y008024D01*
X006197Y008024D01*
X006274Y008101D01*
X006197Y008254D02*
X006274Y008331D01*
X006274Y008408D01*
X006197Y008484D01*
X006043Y008484D01*
X005967Y008408D01*
X005967Y008331D01*
X006043Y008254D01*
X006427Y008408D02*
X006504Y008484D01*
X006657Y008484D01*
X006734Y008408D01*
M02*
