G75*
G70*
%OFA0B0*%
%FSLAX24Y24*%
%IPPOS*%
%LPD*%
%AMOC8*
5,1,8,0,0,1.08239X$1,22.5*
%
%ADD10C,0.0000*%
D10*
X000504Y000504D02*
X000504Y020500D01*
X030374Y020500D01*
X030374Y000504D01*
X000504Y000504D01*
X000504Y020500D01*
X030374Y020500D01*
X030374Y000504D01*
X000504Y000504D01*
X005754Y005004D02*
X005756Y005058D01*
X005762Y005112D01*
X005772Y005165D01*
X005785Y005218D01*
X005802Y005269D01*
X005823Y005319D01*
X005848Y005367D01*
X005876Y005414D01*
X005907Y005458D01*
X005941Y005500D01*
X005978Y005539D01*
X006018Y005576D01*
X006061Y005609D01*
X006106Y005640D01*
X006153Y005667D01*
X006201Y005690D01*
X006252Y005710D01*
X006303Y005727D01*
X006356Y005739D01*
X006409Y005748D01*
X006463Y005753D01*
X006518Y005754D01*
X006572Y005751D01*
X006625Y005744D01*
X006678Y005733D01*
X006731Y005719D01*
X006782Y005701D01*
X006831Y005679D01*
X006879Y005654D01*
X006925Y005625D01*
X006969Y005593D01*
X007010Y005558D01*
X007048Y005520D01*
X007084Y005479D01*
X007117Y005436D01*
X007147Y005391D01*
X007173Y005343D01*
X007196Y005294D01*
X007215Y005243D01*
X007230Y005192D01*
X007242Y005139D01*
X007250Y005085D01*
X007254Y005031D01*
X007254Y004977D01*
X007250Y004923D01*
X007242Y004869D01*
X007230Y004816D01*
X007215Y004765D01*
X007196Y004714D01*
X007173Y004665D01*
X007147Y004617D01*
X007117Y004572D01*
X007084Y004529D01*
X007048Y004488D01*
X007010Y004450D01*
X006969Y004415D01*
X006925Y004383D01*
X006879Y004354D01*
X006831Y004329D01*
X006782Y004307D01*
X006731Y004289D01*
X006678Y004275D01*
X006625Y004264D01*
X006572Y004257D01*
X006518Y004254D01*
X006463Y004255D01*
X006409Y004260D01*
X006356Y004269D01*
X006303Y004281D01*
X006252Y004298D01*
X006201Y004318D01*
X006153Y004341D01*
X006106Y004368D01*
X006061Y004399D01*
X006018Y004432D01*
X005978Y004469D01*
X005941Y004508D01*
X005907Y004550D01*
X005876Y004594D01*
X005848Y004641D01*
X005823Y004689D01*
X005802Y004739D01*
X005785Y004790D01*
X005772Y004843D01*
X005762Y004896D01*
X005756Y004950D01*
X005754Y005004D01*
X019954Y003254D02*
X019956Y003301D01*
X019962Y003347D01*
X019972Y003393D01*
X019985Y003437D01*
X020003Y003481D01*
X020024Y003522D01*
X020048Y003562D01*
X020076Y003600D01*
X020107Y003635D01*
X020141Y003667D01*
X020177Y003696D01*
X020216Y003722D01*
X020256Y003745D01*
X020299Y003764D01*
X020343Y003780D01*
X020388Y003792D01*
X020434Y003800D01*
X020481Y003804D01*
X020527Y003804D01*
X020574Y003800D01*
X020620Y003792D01*
X020665Y003780D01*
X020709Y003764D01*
X020752Y003745D01*
X020792Y003722D01*
X020831Y003696D01*
X020867Y003667D01*
X020901Y003635D01*
X020932Y003600D01*
X020960Y003562D01*
X020984Y003522D01*
X021005Y003481D01*
X021023Y003437D01*
X021036Y003393D01*
X021046Y003347D01*
X021052Y003301D01*
X021054Y003254D01*
X021052Y003207D01*
X021046Y003161D01*
X021036Y003115D01*
X021023Y003071D01*
X021005Y003027D01*
X020984Y002986D01*
X020960Y002946D01*
X020932Y002908D01*
X020901Y002873D01*
X020867Y002841D01*
X020831Y002812D01*
X020792Y002786D01*
X020752Y002763D01*
X020709Y002744D01*
X020665Y002728D01*
X020620Y002716D01*
X020574Y002708D01*
X020527Y002704D01*
X020481Y002704D01*
X020434Y002708D01*
X020388Y002716D01*
X020343Y002728D01*
X020299Y002744D01*
X020256Y002763D01*
X020216Y002786D01*
X020177Y002812D01*
X020141Y002841D01*
X020107Y002873D01*
X020076Y002908D01*
X020048Y002946D01*
X020024Y002986D01*
X020003Y003027D01*
X019985Y003071D01*
X019972Y003115D01*
X019962Y003161D01*
X019956Y003207D01*
X019954Y003254D01*
X025954Y003254D02*
X025956Y003301D01*
X025962Y003347D01*
X025972Y003393D01*
X025985Y003437D01*
X026003Y003481D01*
X026024Y003522D01*
X026048Y003562D01*
X026076Y003600D01*
X026107Y003635D01*
X026141Y003667D01*
X026177Y003696D01*
X026216Y003722D01*
X026256Y003745D01*
X026299Y003764D01*
X026343Y003780D01*
X026388Y003792D01*
X026434Y003800D01*
X026481Y003804D01*
X026527Y003804D01*
X026574Y003800D01*
X026620Y003792D01*
X026665Y003780D01*
X026709Y003764D01*
X026752Y003745D01*
X026792Y003722D01*
X026831Y003696D01*
X026867Y003667D01*
X026901Y003635D01*
X026932Y003600D01*
X026960Y003562D01*
X026984Y003522D01*
X027005Y003481D01*
X027023Y003437D01*
X027036Y003393D01*
X027046Y003347D01*
X027052Y003301D01*
X027054Y003254D01*
X027052Y003207D01*
X027046Y003161D01*
X027036Y003115D01*
X027023Y003071D01*
X027005Y003027D01*
X026984Y002986D01*
X026960Y002946D01*
X026932Y002908D01*
X026901Y002873D01*
X026867Y002841D01*
X026831Y002812D01*
X026792Y002786D01*
X026752Y002763D01*
X026709Y002744D01*
X026665Y002728D01*
X026620Y002716D01*
X026574Y002708D01*
X026527Y002704D01*
X026481Y002704D01*
X026434Y002708D01*
X026388Y002716D01*
X026343Y002728D01*
X026299Y002744D01*
X026256Y002763D01*
X026216Y002786D01*
X026177Y002812D01*
X026141Y002841D01*
X026107Y002873D01*
X026076Y002908D01*
X026048Y002946D01*
X026024Y002986D01*
X026003Y003027D01*
X025985Y003071D01*
X025972Y003115D01*
X025962Y003161D01*
X025956Y003207D01*
X025954Y003254D01*
X028254Y002004D02*
X028256Y002058D01*
X028262Y002112D01*
X028272Y002165D01*
X028285Y002218D01*
X028302Y002269D01*
X028323Y002319D01*
X028348Y002367D01*
X028376Y002414D01*
X028407Y002458D01*
X028441Y002500D01*
X028478Y002539D01*
X028518Y002576D01*
X028561Y002609D01*
X028606Y002640D01*
X028653Y002667D01*
X028701Y002690D01*
X028752Y002710D01*
X028803Y002727D01*
X028856Y002739D01*
X028909Y002748D01*
X028963Y002753D01*
X029018Y002754D01*
X029072Y002751D01*
X029125Y002744D01*
X029178Y002733D01*
X029231Y002719D01*
X029282Y002701D01*
X029331Y002679D01*
X029379Y002654D01*
X029425Y002625D01*
X029469Y002593D01*
X029510Y002558D01*
X029548Y002520D01*
X029584Y002479D01*
X029617Y002436D01*
X029647Y002391D01*
X029673Y002343D01*
X029696Y002294D01*
X029715Y002243D01*
X029730Y002192D01*
X029742Y002139D01*
X029750Y002085D01*
X029754Y002031D01*
X029754Y001977D01*
X029750Y001923D01*
X029742Y001869D01*
X029730Y001816D01*
X029715Y001765D01*
X029696Y001714D01*
X029673Y001665D01*
X029647Y001617D01*
X029617Y001572D01*
X029584Y001529D01*
X029548Y001488D01*
X029510Y001450D01*
X029469Y001415D01*
X029425Y001383D01*
X029379Y001354D01*
X029331Y001329D01*
X029282Y001307D01*
X029231Y001289D01*
X029178Y001275D01*
X029125Y001264D01*
X029072Y001257D01*
X029018Y001254D01*
X028963Y001255D01*
X028909Y001260D01*
X028856Y001269D01*
X028803Y001281D01*
X028752Y001298D01*
X028701Y001318D01*
X028653Y001341D01*
X028606Y001368D01*
X028561Y001399D01*
X028518Y001432D01*
X028478Y001469D01*
X028441Y001508D01*
X028407Y001550D01*
X028376Y001594D01*
X028348Y001641D01*
X028323Y001689D01*
X028302Y001739D01*
X028285Y001790D01*
X028272Y001843D01*
X028262Y001896D01*
X028256Y001950D01*
X028254Y002004D01*
X005754Y016004D02*
X005756Y016058D01*
X005762Y016112D01*
X005772Y016165D01*
X005785Y016218D01*
X005802Y016269D01*
X005823Y016319D01*
X005848Y016367D01*
X005876Y016414D01*
X005907Y016458D01*
X005941Y016500D01*
X005978Y016539D01*
X006018Y016576D01*
X006061Y016609D01*
X006106Y016640D01*
X006153Y016667D01*
X006201Y016690D01*
X006252Y016710D01*
X006303Y016727D01*
X006356Y016739D01*
X006409Y016748D01*
X006463Y016753D01*
X006518Y016754D01*
X006572Y016751D01*
X006625Y016744D01*
X006678Y016733D01*
X006731Y016719D01*
X006782Y016701D01*
X006831Y016679D01*
X006879Y016654D01*
X006925Y016625D01*
X006969Y016593D01*
X007010Y016558D01*
X007048Y016520D01*
X007084Y016479D01*
X007117Y016436D01*
X007147Y016391D01*
X007173Y016343D01*
X007196Y016294D01*
X007215Y016243D01*
X007230Y016192D01*
X007242Y016139D01*
X007250Y016085D01*
X007254Y016031D01*
X007254Y015977D01*
X007250Y015923D01*
X007242Y015869D01*
X007230Y015816D01*
X007215Y015765D01*
X007196Y015714D01*
X007173Y015665D01*
X007147Y015617D01*
X007117Y015572D01*
X007084Y015529D01*
X007048Y015488D01*
X007010Y015450D01*
X006969Y015415D01*
X006925Y015383D01*
X006879Y015354D01*
X006831Y015329D01*
X006782Y015307D01*
X006731Y015289D01*
X006678Y015275D01*
X006625Y015264D01*
X006572Y015257D01*
X006518Y015254D01*
X006463Y015255D01*
X006409Y015260D01*
X006356Y015269D01*
X006303Y015281D01*
X006252Y015298D01*
X006201Y015318D01*
X006153Y015341D01*
X006106Y015368D01*
X006061Y015399D01*
X006018Y015432D01*
X005978Y015469D01*
X005941Y015508D01*
X005907Y015550D01*
X005876Y015594D01*
X005848Y015641D01*
X005823Y015689D01*
X005802Y015739D01*
X005785Y015790D01*
X005772Y015843D01*
X005762Y015896D01*
X005756Y015950D01*
X005754Y016004D01*
X019954Y017754D02*
X019956Y017801D01*
X019962Y017847D01*
X019972Y017893D01*
X019985Y017937D01*
X020003Y017981D01*
X020024Y018022D01*
X020048Y018062D01*
X020076Y018100D01*
X020107Y018135D01*
X020141Y018167D01*
X020177Y018196D01*
X020216Y018222D01*
X020256Y018245D01*
X020299Y018264D01*
X020343Y018280D01*
X020388Y018292D01*
X020434Y018300D01*
X020481Y018304D01*
X020527Y018304D01*
X020574Y018300D01*
X020620Y018292D01*
X020665Y018280D01*
X020709Y018264D01*
X020752Y018245D01*
X020792Y018222D01*
X020831Y018196D01*
X020867Y018167D01*
X020901Y018135D01*
X020932Y018100D01*
X020960Y018062D01*
X020984Y018022D01*
X021005Y017981D01*
X021023Y017937D01*
X021036Y017893D01*
X021046Y017847D01*
X021052Y017801D01*
X021054Y017754D01*
X021052Y017707D01*
X021046Y017661D01*
X021036Y017615D01*
X021023Y017571D01*
X021005Y017527D01*
X020984Y017486D01*
X020960Y017446D01*
X020932Y017408D01*
X020901Y017373D01*
X020867Y017341D01*
X020831Y017312D01*
X020792Y017286D01*
X020752Y017263D01*
X020709Y017244D01*
X020665Y017228D01*
X020620Y017216D01*
X020574Y017208D01*
X020527Y017204D01*
X020481Y017204D01*
X020434Y017208D01*
X020388Y017216D01*
X020343Y017228D01*
X020299Y017244D01*
X020256Y017263D01*
X020216Y017286D01*
X020177Y017312D01*
X020141Y017341D01*
X020107Y017373D01*
X020076Y017408D01*
X020048Y017446D01*
X020024Y017486D01*
X020003Y017527D01*
X019985Y017571D01*
X019972Y017615D01*
X019962Y017661D01*
X019956Y017707D01*
X019954Y017754D01*
X025954Y017754D02*
X025956Y017801D01*
X025962Y017847D01*
X025972Y017893D01*
X025985Y017937D01*
X026003Y017981D01*
X026024Y018022D01*
X026048Y018062D01*
X026076Y018100D01*
X026107Y018135D01*
X026141Y018167D01*
X026177Y018196D01*
X026216Y018222D01*
X026256Y018245D01*
X026299Y018264D01*
X026343Y018280D01*
X026388Y018292D01*
X026434Y018300D01*
X026481Y018304D01*
X026527Y018304D01*
X026574Y018300D01*
X026620Y018292D01*
X026665Y018280D01*
X026709Y018264D01*
X026752Y018245D01*
X026792Y018222D01*
X026831Y018196D01*
X026867Y018167D01*
X026901Y018135D01*
X026932Y018100D01*
X026960Y018062D01*
X026984Y018022D01*
X027005Y017981D01*
X027023Y017937D01*
X027036Y017893D01*
X027046Y017847D01*
X027052Y017801D01*
X027054Y017754D01*
X027052Y017707D01*
X027046Y017661D01*
X027036Y017615D01*
X027023Y017571D01*
X027005Y017527D01*
X026984Y017486D01*
X026960Y017446D01*
X026932Y017408D01*
X026901Y017373D01*
X026867Y017341D01*
X026831Y017312D01*
X026792Y017286D01*
X026752Y017263D01*
X026709Y017244D01*
X026665Y017228D01*
X026620Y017216D01*
X026574Y017208D01*
X026527Y017204D01*
X026481Y017204D01*
X026434Y017208D01*
X026388Y017216D01*
X026343Y017228D01*
X026299Y017244D01*
X026256Y017263D01*
X026216Y017286D01*
X026177Y017312D01*
X026141Y017341D01*
X026107Y017373D01*
X026076Y017408D01*
X026048Y017446D01*
X026024Y017486D01*
X026003Y017527D01*
X025985Y017571D01*
X025972Y017615D01*
X025962Y017661D01*
X025956Y017707D01*
X025954Y017754D01*
X028254Y019004D02*
X028256Y019058D01*
X028262Y019112D01*
X028272Y019165D01*
X028285Y019218D01*
X028302Y019269D01*
X028323Y019319D01*
X028348Y019367D01*
X028376Y019414D01*
X028407Y019458D01*
X028441Y019500D01*
X028478Y019539D01*
X028518Y019576D01*
X028561Y019609D01*
X028606Y019640D01*
X028653Y019667D01*
X028701Y019690D01*
X028752Y019710D01*
X028803Y019727D01*
X028856Y019739D01*
X028909Y019748D01*
X028963Y019753D01*
X029018Y019754D01*
X029072Y019751D01*
X029125Y019744D01*
X029178Y019733D01*
X029231Y019719D01*
X029282Y019701D01*
X029331Y019679D01*
X029379Y019654D01*
X029425Y019625D01*
X029469Y019593D01*
X029510Y019558D01*
X029548Y019520D01*
X029584Y019479D01*
X029617Y019436D01*
X029647Y019391D01*
X029673Y019343D01*
X029696Y019294D01*
X029715Y019243D01*
X029730Y019192D01*
X029742Y019139D01*
X029750Y019085D01*
X029754Y019031D01*
X029754Y018977D01*
X029750Y018923D01*
X029742Y018869D01*
X029730Y018816D01*
X029715Y018765D01*
X029696Y018714D01*
X029673Y018665D01*
X029647Y018617D01*
X029617Y018572D01*
X029584Y018529D01*
X029548Y018488D01*
X029510Y018450D01*
X029469Y018415D01*
X029425Y018383D01*
X029379Y018354D01*
X029331Y018329D01*
X029282Y018307D01*
X029231Y018289D01*
X029178Y018275D01*
X029125Y018264D01*
X029072Y018257D01*
X029018Y018254D01*
X028963Y018255D01*
X028909Y018260D01*
X028856Y018269D01*
X028803Y018281D01*
X028752Y018298D01*
X028701Y018318D01*
X028653Y018341D01*
X028606Y018368D01*
X028561Y018399D01*
X028518Y018432D01*
X028478Y018469D01*
X028441Y018508D01*
X028407Y018550D01*
X028376Y018594D01*
X028348Y018641D01*
X028323Y018689D01*
X028302Y018739D01*
X028285Y018790D01*
X028272Y018843D01*
X028262Y018896D01*
X028256Y018950D01*
X028254Y019004D01*
M02*
