G75*
G70*
%OFA0B0*%
%FSLAX24Y24*%
%IPPOS*%
%LPD*%
%AMOC8*
5,1,8,0,0,1.08239X$1,22.5*
%
%ADD10C,0.0650*%
%ADD11C,0.0540*%
%ADD12C,0.1300*%
%ADD13C,0.0472*%
%ADD14C,0.0480*%
%ADD15C,0.0480*%
%ADD16OC8,0.0780*%
%ADD17C,0.0780*%
%ADD18C,0.0600*%
%ADD19C,0.0540*%
%ADD20OC8,0.0600*%
%ADD21R,0.0433X0.0394*%
%ADD22R,0.0394X0.0433*%
%ADD23C,0.0160*%
%ADD24C,0.0376*%
D10*
X001504Y002179D02*
X001504Y002829D01*
X002504Y002829D02*
X002504Y002179D01*
X003504Y002179D02*
X003504Y002829D01*
X004504Y002829D02*
X004504Y002179D01*
X005504Y002179D02*
X005504Y002829D01*
X006504Y002829D02*
X006504Y002179D01*
X007504Y002179D02*
X007504Y002829D01*
X008504Y002829D02*
X008504Y002179D01*
X010504Y002179D02*
X010504Y002829D01*
X011504Y002829D02*
X011504Y002179D01*
X012504Y002179D02*
X012504Y002829D01*
X013504Y002829D02*
X013504Y002179D01*
X014504Y002179D02*
X014504Y002829D01*
X015504Y002829D02*
X015504Y002179D01*
X016504Y002179D02*
X016504Y002829D01*
X017504Y002829D02*
X017504Y002179D01*
X002829Y006504D02*
X002179Y006504D01*
X002179Y007504D02*
X002829Y007504D01*
X002829Y008504D02*
X002179Y008504D01*
X002179Y009504D02*
X002829Y009504D01*
X002829Y010504D02*
X002179Y010504D01*
X002179Y011504D02*
X002829Y011504D01*
X002829Y012504D02*
X002179Y012504D01*
X002179Y013504D02*
X002829Y013504D01*
X002504Y018179D02*
X002504Y018829D01*
X003504Y018829D02*
X003504Y018179D01*
X004504Y018179D02*
X004504Y018829D01*
X005504Y018829D02*
X005504Y018179D01*
X006504Y018179D02*
X006504Y018829D01*
X007504Y018829D02*
X007504Y018179D01*
X008504Y018179D02*
X008504Y018829D01*
X010504Y018829D02*
X010504Y018179D01*
X011504Y018179D02*
X011504Y018829D01*
X012504Y018829D02*
X012504Y018179D01*
X013504Y018179D02*
X013504Y018829D01*
X014504Y018829D02*
X014504Y018179D01*
X015504Y018179D02*
X015504Y018829D01*
X016504Y018829D02*
X016504Y018179D01*
X017504Y018179D02*
X017504Y018829D01*
X001504Y018829D02*
X001504Y018179D01*
D11*
X026224Y011496D03*
X027004Y011496D03*
X027004Y010512D03*
X026224Y010512D03*
D12*
X028074Y008634D03*
X028074Y013374D03*
D13*
X029185Y014004D03*
X026823Y014004D03*
X020685Y011254D03*
X018323Y011254D03*
D14*
X018504Y010484D02*
X018504Y010004D01*
X019504Y010004D02*
X019504Y010484D01*
X020504Y010484D02*
X020504Y010004D01*
X020504Y007004D02*
X020504Y006524D01*
X019504Y006524D02*
X019504Y007004D01*
X018504Y007004D02*
X018504Y006524D01*
X028764Y015004D02*
X029244Y015004D01*
X029244Y016004D02*
X028764Y016004D01*
X028764Y017004D02*
X029244Y017004D01*
D15*
X022954Y012504D03*
X021054Y012504D03*
D16*
X021504Y014754D03*
X020504Y015754D03*
X025504Y014754D03*
X026504Y015754D03*
X024504Y019754D03*
X022504Y019754D03*
X021504Y006254D03*
X020504Y005254D03*
X025504Y006254D03*
X026504Y005254D03*
X024504Y001254D03*
X022504Y001254D03*
D17*
X023504Y004864D02*
X023504Y005644D01*
X023504Y015364D02*
X023504Y016144D01*
D18*
X017254Y011254D03*
X017254Y010254D03*
X017254Y009254D03*
X017254Y008254D03*
X004534Y015114D03*
X004534Y016894D03*
X001974Y016894D03*
X001974Y015114D03*
D19*
X028734Y007504D02*
X029274Y007504D01*
X029274Y006504D02*
X028734Y006504D01*
X028734Y005504D02*
X029274Y005504D01*
X029274Y004504D02*
X028734Y004504D01*
D20*
X015254Y011254D03*
X014254Y011254D03*
X014254Y012254D03*
X015254Y012254D03*
X015254Y013254D03*
X014254Y013254D03*
X014254Y014254D03*
X015254Y014254D03*
X015254Y015254D03*
X014254Y015254D03*
X011004Y015254D03*
X010004Y015254D03*
X010004Y014254D03*
X011004Y014254D03*
X011004Y013254D03*
X010004Y013254D03*
X010004Y012254D03*
X011004Y012254D03*
X011004Y011254D03*
X010004Y011254D03*
X007004Y011504D03*
X006004Y011504D03*
X006004Y012504D03*
X007004Y012504D03*
X007004Y010504D03*
X006004Y010504D03*
X006004Y009504D03*
X007004Y009504D03*
X007004Y008504D03*
X006004Y008504D03*
X010504Y007504D03*
X011504Y007504D03*
X012504Y007504D03*
X013504Y007504D03*
X014504Y007504D03*
X014504Y006504D03*
X013504Y006504D03*
X012504Y006504D03*
X011504Y006504D03*
X010504Y006504D03*
D21*
X006839Y007754D03*
X006169Y007754D03*
X010169Y010504D03*
X010839Y010504D03*
X014419Y010254D03*
X015089Y010254D03*
D22*
X015754Y007339D03*
X015754Y006669D03*
D23*
X000734Y000734D02*
X000734Y020270D01*
X022271Y020270D01*
X021974Y019973D01*
X021974Y019534D01*
X022284Y019224D01*
X022723Y019224D01*
X023034Y019534D01*
X023034Y019973D01*
X022737Y020270D01*
X024271Y020270D01*
X023974Y019973D01*
X023974Y019534D01*
X024284Y019224D01*
X024723Y019224D01*
X025034Y019534D01*
X025034Y019973D01*
X024737Y020270D01*
X030144Y020270D01*
X030144Y000734D01*
X024733Y000734D01*
X025034Y001034D01*
X025034Y001473D01*
X024723Y001784D01*
X024284Y001784D01*
X023974Y001473D01*
X023974Y001034D01*
X024274Y000734D01*
X022733Y000734D01*
X023034Y001034D01*
X023034Y001473D01*
X022723Y001784D01*
X022284Y001784D01*
X021974Y001473D01*
X021974Y001034D01*
X022274Y000734D01*
X000734Y000734D01*
X000734Y000821D02*
X022187Y000821D01*
X022029Y000980D02*
X000734Y000980D01*
X000734Y001138D02*
X021974Y001138D01*
X021974Y001297D02*
X018108Y001297D01*
X018095Y001284D02*
X018595Y001784D01*
X018724Y001913D01*
X018724Y006207D01*
X018784Y006267D01*
X018784Y005913D01*
X018913Y005784D01*
X019163Y005534D01*
X019345Y005534D01*
X019845Y005534D01*
X019974Y005663D01*
X020455Y006144D01*
X020580Y006144D01*
X020719Y006202D01*
X020826Y006309D01*
X020884Y006448D01*
X020884Y007080D01*
X020826Y007219D01*
X020719Y007326D01*
X020580Y007384D01*
X020428Y007384D01*
X020289Y007326D01*
X020182Y007219D01*
X020124Y007080D01*
X020124Y006448D01*
X020128Y006439D01*
X019663Y005974D01*
X019345Y005974D01*
X019224Y006095D01*
X019224Y006210D01*
X019230Y006204D01*
X019284Y006165D01*
X019343Y006135D01*
X019406Y006114D01*
X019471Y006104D01*
X019504Y006104D01*
X019537Y006104D01*
X019602Y006114D01*
X019665Y006135D01*
X019724Y006165D01*
X019778Y006204D01*
X019824Y006250D01*
X019863Y006304D01*
X019893Y006363D01*
X019914Y006426D01*
X019924Y006491D01*
X019924Y007004D01*
X019924Y007037D01*
X019914Y007102D01*
X019893Y007165D01*
X019863Y007224D01*
X019824Y007278D01*
X019778Y007324D01*
X019724Y007363D01*
X019665Y007393D01*
X019602Y007414D01*
X019537Y007424D01*
X019504Y007424D01*
X019504Y007004D01*
X021254Y008504D01*
X021254Y011504D01*
X019754Y013004D01*
X019004Y013004D01*
X018543Y013029D02*
X022377Y013029D01*
X022440Y013187D02*
X018543Y013187D01*
X018543Y013346D02*
X022504Y013346D01*
X022567Y013504D02*
X018728Y013504D01*
X018798Y013534D02*
X021551Y013534D01*
X021619Y013520D01*
X021639Y013534D01*
X021664Y013534D01*
X021713Y013583D01*
X023139Y014534D01*
X023573Y014534D01*
X023568Y014532D01*
X023476Y014440D01*
X023453Y014386D01*
X023011Y014238D01*
X023001Y014242D01*
X022925Y014210D01*
X022848Y014184D01*
X022843Y014174D01*
X022834Y014170D01*
X022803Y014094D01*
X022766Y014021D01*
X022770Y014011D01*
X021809Y011610D01*
X021772Y011558D01*
X021777Y011529D01*
X021766Y011501D01*
X021791Y011442D01*
X021996Y010210D01*
X021976Y010190D01*
X021926Y010069D01*
X021926Y009939D01*
X021976Y009818D01*
X022068Y009726D01*
X022189Y009676D01*
X022319Y009676D01*
X022426Y009720D01*
X022426Y009689D01*
X022476Y009568D01*
X022534Y009510D01*
X022534Y009413D01*
X023534Y008413D01*
X023534Y008413D01*
X023663Y008284D01*
X024924Y008284D01*
X027784Y005901D01*
X027784Y005306D01*
X027766Y005271D01*
X027784Y005218D01*
X027784Y005163D01*
X027812Y005135D01*
X028034Y004468D01*
X028034Y004413D01*
X028062Y004385D01*
X028074Y004348D01*
X028124Y004323D01*
X028163Y004284D01*
X028202Y004284D01*
X028237Y004266D01*
X028290Y004284D01*
X028381Y004284D01*
X028386Y004272D01*
X028502Y004156D01*
X028652Y004094D01*
X029355Y004094D01*
X029506Y004156D01*
X029621Y004272D01*
X029684Y004422D01*
X029684Y004585D01*
X029621Y004736D01*
X029506Y004851D01*
X029355Y004914D01*
X028652Y004914D01*
X028502Y004851D01*
X028403Y004753D01*
X028224Y005290D01*
X028224Y005924D01*
X028231Y005933D01*
X028224Y006014D01*
X028224Y006095D01*
X028216Y006103D01*
X028215Y006115D01*
X028152Y006167D01*
X028095Y006224D01*
X028084Y006224D01*
X028012Y006284D01*
X028014Y006284D01*
X028381Y006284D01*
X028386Y006272D01*
X028502Y006156D01*
X028652Y006094D01*
X029355Y006094D01*
X029506Y006156D01*
X029621Y006272D01*
X029684Y006422D01*
X029684Y006585D01*
X029621Y006736D01*
X029506Y006851D01*
X029355Y006914D01*
X028652Y006914D01*
X028502Y006851D01*
X028386Y006736D01*
X028381Y006724D01*
X028084Y006724D01*
X027045Y007589D01*
X027357Y007340D01*
X027413Y007284D01*
X027427Y007284D01*
X027438Y007275D01*
X027516Y007284D01*
X028381Y007284D01*
X028386Y007272D01*
X028502Y007156D01*
X028652Y007094D01*
X029355Y007094D01*
X029506Y007156D01*
X029621Y007272D01*
X029684Y007422D01*
X029684Y007585D01*
X029621Y007736D01*
X029506Y007851D01*
X029355Y007914D01*
X028652Y007914D01*
X028502Y007851D01*
X028386Y007736D01*
X028381Y007724D01*
X027581Y007724D01*
X025151Y009668D01*
X025095Y009724D01*
X025081Y009724D01*
X025070Y009733D01*
X024992Y009724D01*
X023748Y009724D01*
X023690Y009782D01*
X023569Y009832D01*
X023439Y009832D01*
X023318Y009782D01*
X023226Y009690D01*
X023176Y009569D01*
X023176Y009439D01*
X023208Y009361D01*
X023016Y009552D01*
X023032Y009568D01*
X023082Y009689D01*
X023082Y009819D01*
X023032Y009940D01*
X022940Y010032D01*
X022819Y010082D01*
X022689Y010082D01*
X022582Y010038D01*
X022582Y010069D01*
X022532Y010190D01*
X022440Y010282D01*
X022430Y010286D01*
X022264Y011280D01*
X022318Y011226D01*
X022439Y011176D01*
X022569Y011176D01*
X022690Y011226D01*
X022748Y011284D01*
X022845Y011284D01*
X024384Y012823D01*
X024434Y012848D01*
X024446Y012885D01*
X024474Y012913D01*
X024474Y012968D01*
X024491Y013021D01*
X024474Y013056D01*
X024474Y013095D01*
X024435Y013134D01*
X024310Y013384D01*
X024332Y013439D01*
X024332Y013569D01*
X024282Y013690D01*
X024190Y013782D01*
X024069Y013832D01*
X023939Y013832D01*
X023818Y013782D01*
X023726Y013690D01*
X023676Y013569D01*
X023676Y013439D01*
X023726Y013318D01*
X023818Y013226D01*
X023918Y013185D01*
X023986Y013047D01*
X023310Y012371D01*
X023334Y012428D01*
X023334Y012580D01*
X023276Y012719D01*
X023169Y012826D01*
X023030Y012884D01*
X022878Y012884D01*
X022776Y012841D01*
X023170Y013828D01*
X023589Y013967D01*
X023689Y013926D01*
X023819Y013926D01*
X023940Y013976D01*
X024032Y014068D01*
X024082Y014189D01*
X024082Y014319D01*
X024032Y014440D01*
X023940Y014532D01*
X023935Y014534D01*
X024974Y014534D01*
X025284Y014224D01*
X025723Y014224D01*
X026034Y014534D01*
X026034Y014973D01*
X025723Y015284D01*
X025284Y015284D01*
X024974Y014974D01*
X023863Y014974D01*
X023953Y015064D01*
X024034Y015258D01*
X024034Y016249D01*
X023953Y016444D01*
X023804Y016593D01*
X023609Y016674D01*
X023398Y016674D01*
X023204Y016593D01*
X023055Y016444D01*
X022974Y016249D01*
X022974Y015258D01*
X023055Y015064D01*
X023144Y014974D01*
X023095Y014974D01*
X023027Y014987D01*
X023006Y014974D01*
X022982Y014974D01*
X022933Y014925D01*
X021506Y013974D01*
X018797Y013974D01*
X018753Y013992D01*
X018710Y013974D01*
X018663Y013974D01*
X018629Y013940D01*
X018278Y013793D01*
X018232Y013793D01*
X018224Y013785D01*
X018224Y014202D01*
X018840Y015435D01*
X018940Y015476D01*
X019032Y015568D01*
X019082Y015689D01*
X019082Y015819D01*
X019032Y015940D01*
X018940Y016032D01*
X018819Y016082D01*
X018689Y016082D01*
X018568Y016032D01*
X018476Y015940D01*
X018426Y015819D01*
X018426Y015689D01*
X018448Y015634D01*
X017823Y014384D01*
X017784Y014345D01*
X017784Y014306D01*
X017766Y014271D01*
X017784Y014218D01*
X017784Y012095D01*
X017534Y011845D01*
X017534Y011663D01*
X017534Y011596D01*
X017503Y011627D01*
X017341Y011694D01*
X017166Y011694D01*
X017005Y011627D01*
X016881Y011503D01*
X016814Y011341D01*
X016814Y011166D01*
X016881Y011005D01*
X017005Y010881D01*
X017166Y010814D01*
X017341Y010814D01*
X017503Y010881D01*
X017534Y010912D01*
X017663Y010784D01*
X017784Y010663D01*
X017784Y009914D01*
X017659Y010081D01*
X017694Y010166D01*
X017694Y010341D01*
X017627Y010503D01*
X017503Y010627D01*
X017341Y010694D01*
X017166Y010694D01*
X017005Y010627D01*
X016881Y010503D01*
X016814Y010341D01*
X016814Y010166D01*
X016881Y010005D01*
X017005Y009881D01*
X017166Y009814D01*
X017309Y009814D01*
X017425Y009659D01*
X017341Y009694D01*
X017166Y009694D01*
X017005Y009627D01*
X016881Y009503D01*
X016814Y009341D01*
X016814Y009166D01*
X016881Y009005D01*
X017005Y008881D01*
X017166Y008814D01*
X017341Y008814D01*
X017503Y008881D01*
X017627Y009005D01*
X017694Y009166D01*
X017694Y009301D01*
X017784Y009181D01*
X017784Y008663D01*
X017913Y008534D01*
X018163Y008284D01*
X018345Y008284D01*
X018510Y008284D01*
X018568Y008226D01*
X018689Y008176D01*
X018819Y008176D01*
X018940Y008226D01*
X019032Y008318D01*
X019082Y008439D01*
X019082Y008569D01*
X019032Y008690D01*
X018940Y008782D01*
X018935Y008784D01*
X019413Y008784D01*
X019595Y008784D01*
X020435Y009624D01*
X020580Y009624D01*
X020719Y009682D01*
X020826Y009789D01*
X020884Y009928D01*
X020884Y010560D01*
X020826Y010699D01*
X020719Y010806D01*
X020580Y010864D01*
X020428Y010864D01*
X020289Y010806D01*
X020182Y010699D01*
X020124Y010560D01*
X020124Y009935D01*
X019413Y009224D01*
X018622Y009224D01*
X018327Y009666D01*
X018428Y009624D01*
X018580Y009624D01*
X018719Y009682D01*
X018826Y009789D01*
X018884Y009928D01*
X018884Y010560D01*
X018826Y010699D01*
X018719Y010806D01*
X018580Y010864D01*
X018428Y010864D01*
X018289Y010806D01*
X018224Y010741D01*
X018224Y010845D01*
X018151Y010918D01*
X018248Y010878D01*
X018398Y010878D01*
X018536Y010935D01*
X018635Y011034D01*
X018913Y011034D01*
X019215Y010732D01*
X019182Y010699D01*
X019124Y010560D01*
X019124Y009928D01*
X019182Y009789D01*
X019289Y009682D01*
X019428Y009624D01*
X019580Y009624D01*
X019719Y009682D01*
X019826Y009789D01*
X019884Y009928D01*
X019884Y010560D01*
X019826Y010699D01*
X019724Y010801D01*
X019724Y010845D01*
X019224Y011345D01*
X019095Y011474D01*
X018635Y011474D01*
X018543Y011566D01*
X018543Y013427D01*
X018798Y013534D01*
X018754Y013754D02*
X021573Y013754D01*
X023073Y014754D01*
X025504Y014754D01*
X025955Y014456D02*
X026788Y014456D01*
X026753Y014380D02*
X026748Y014380D01*
X026610Y014323D01*
X026504Y014217D01*
X026447Y014079D01*
X026447Y013929D01*
X026504Y013791D01*
X026603Y013692D01*
X026603Y013164D01*
X025163Y011724D01*
X024248Y011724D01*
X024190Y011782D01*
X024069Y011832D01*
X023939Y011832D01*
X023818Y011782D01*
X023726Y011690D01*
X023676Y011569D01*
X023676Y011439D01*
X023726Y011318D01*
X023818Y011226D01*
X023939Y011176D01*
X024069Y011176D01*
X024190Y011226D01*
X024248Y011284D01*
X025345Y011284D01*
X025474Y011413D01*
X027043Y012982D01*
X027043Y013164D01*
X027043Y013692D01*
X027142Y013791D01*
X027199Y013929D01*
X027199Y014079D01*
X027152Y014193D01*
X028015Y016076D01*
X028055Y016134D01*
X028052Y016156D01*
X028061Y016176D01*
X028036Y016243D01*
X028023Y016314D01*
X028005Y016326D01*
X027997Y016347D01*
X027932Y016377D01*
X027146Y016923D01*
X027095Y016974D01*
X027073Y016974D01*
X027055Y016987D01*
X026984Y016974D01*
X025095Y016974D01*
X024474Y017595D01*
X024345Y017724D01*
X021821Y017724D01*
X021800Y017737D01*
X021732Y017724D01*
X021663Y017724D01*
X021646Y017707D01*
X021621Y017702D01*
X021583Y017644D01*
X021534Y017595D01*
X021534Y017571D01*
X021136Y016974D01*
X017224Y016974D01*
X017224Y017802D01*
X017241Y017785D01*
X017411Y017714D01*
X017596Y017714D01*
X017767Y017785D01*
X017898Y017916D01*
X017969Y018087D01*
X017969Y018921D01*
X017898Y019092D01*
X017767Y019223D01*
X017596Y019294D01*
X017411Y019294D01*
X017241Y019223D01*
X017224Y019206D01*
X017224Y019595D01*
X017095Y019724D01*
X016913Y019724D01*
X000913Y019724D01*
X000784Y019595D01*
X000784Y019413D01*
X000784Y008065D01*
X000768Y008039D01*
X000784Y007977D01*
X000784Y007913D01*
X000805Y007891D01*
X001034Y006977D01*
X001034Y006913D01*
X001055Y006891D01*
X001063Y006862D01*
X001118Y006829D01*
X001663Y006284D01*
X001767Y006284D01*
X001785Y006241D01*
X001916Y006110D01*
X002087Y006039D01*
X002921Y006039D01*
X003092Y006110D01*
X003223Y006241D01*
X003294Y006411D01*
X003294Y006596D01*
X003223Y006767D01*
X003206Y006784D01*
X006845Y006784D01*
X006974Y006913D01*
X007224Y007163D01*
X007224Y007345D01*
X007224Y008102D01*
X007444Y008322D01*
X007444Y008686D01*
X007186Y008944D01*
X006822Y008944D01*
X006564Y008686D01*
X006564Y008322D01*
X006619Y008267D01*
X006619Y008247D01*
X006619Y008091D01*
X006564Y008091D01*
X006532Y008058D01*
X006530Y008061D01*
X006496Y008095D01*
X006455Y008118D01*
X006410Y008131D01*
X006309Y008131D01*
X006484Y008305D01*
X006484Y008484D01*
X006024Y008484D01*
X006024Y008524D01*
X005984Y008524D01*
X005984Y008984D01*
X005805Y008984D01*
X005524Y008703D01*
X005524Y008524D01*
X005984Y008524D01*
X005984Y008484D01*
X005524Y008484D01*
X005524Y008305D01*
X005794Y008035D01*
X005785Y008020D01*
X005773Y007974D01*
X005773Y007772D01*
X006151Y007772D01*
X006151Y007735D01*
X006188Y007735D01*
X006188Y007377D01*
X006410Y007377D01*
X006455Y007389D01*
X006496Y007413D01*
X006530Y007447D01*
X006532Y007450D01*
X006564Y007417D01*
X006784Y007417D01*
X006784Y007345D01*
X006663Y007224D01*
X003206Y007224D01*
X003223Y007241D01*
X003294Y007411D01*
X003294Y007596D01*
X003223Y007767D01*
X003092Y007898D01*
X002921Y007969D01*
X002087Y007969D01*
X001916Y007898D01*
X001785Y007767D01*
X001714Y007596D01*
X001714Y007411D01*
X001785Y007241D01*
X001916Y007110D01*
X002087Y007039D01*
X002728Y007039D01*
X002658Y006969D01*
X002087Y006969D01*
X001916Y006898D01*
X001793Y006776D01*
X001453Y007116D01*
X001224Y008031D01*
X001224Y017802D01*
X001241Y017785D01*
X001411Y017714D01*
X001482Y017714D01*
X001784Y017413D01*
X001841Y017356D01*
X001790Y017339D01*
X001722Y017304D01*
X001661Y017260D01*
X001608Y017207D01*
X001563Y017145D01*
X001529Y017078D01*
X001506Y017006D01*
X001494Y016932D01*
X001494Y016914D01*
X001954Y016914D01*
X001954Y016874D01*
X001994Y016874D01*
X001994Y016914D01*
X002454Y016914D01*
X002454Y016932D01*
X002442Y017006D01*
X002419Y017078D01*
X002384Y017145D01*
X002340Y017207D01*
X002287Y017260D01*
X002254Y017284D01*
X002413Y017284D01*
X002784Y016913D01*
X002784Y015095D01*
X002784Y014913D01*
X003284Y014413D01*
X003413Y014284D01*
X009163Y014284D01*
X009345Y014284D01*
X009875Y014814D01*
X010186Y014814D01*
X010444Y015072D01*
X010444Y015436D01*
X010186Y015694D01*
X009822Y015694D01*
X009651Y015523D01*
X009860Y015784D01*
X010413Y015784D01*
X010662Y015534D01*
X010564Y015436D01*
X010564Y015072D01*
X010662Y014974D01*
X010595Y014974D01*
X010413Y014974D01*
X010133Y014694D01*
X009822Y014694D01*
X009564Y014436D01*
X009564Y014072D01*
X009822Y013814D01*
X010186Y013814D01*
X010444Y014072D01*
X010444Y014383D01*
X010595Y014534D01*
X010662Y014534D01*
X010564Y014436D01*
X010564Y014072D01*
X010822Y013814D01*
X011186Y013814D01*
X011406Y014034D01*
X011595Y014034D01*
X011724Y014163D01*
X012474Y014913D01*
X012474Y015095D01*
X012474Y015845D01*
X012345Y015974D01*
X010602Y017717D01*
X010693Y017754D01*
X011034Y017413D01*
X011163Y017284D01*
X011913Y017284D01*
X012534Y016663D01*
X012663Y016534D01*
X013413Y016534D01*
X014034Y015913D01*
X014034Y015656D01*
X013814Y015436D01*
X013814Y015072D01*
X014072Y014814D01*
X014436Y014814D01*
X014694Y015072D01*
X014694Y015436D01*
X014474Y015656D01*
X014474Y016095D01*
X014345Y016224D01*
X013595Y016974D01*
X013413Y016974D01*
X012845Y016974D01*
X012785Y017034D01*
X013663Y017034D01*
X015034Y015663D01*
X015034Y015656D01*
X014814Y015436D01*
X014814Y015072D01*
X015072Y014814D01*
X015436Y014814D01*
X015534Y014912D01*
X015534Y014596D01*
X015436Y014694D01*
X015072Y014694D01*
X014814Y014436D01*
X014814Y014072D01*
X015072Y013814D01*
X015436Y013814D01*
X015694Y014072D01*
X015694Y014133D01*
X015724Y014163D01*
X015974Y014413D01*
X015974Y014595D01*
X015974Y015845D01*
X015845Y015974D01*
X013899Y017919D01*
X013969Y018087D01*
X013969Y018921D01*
X013898Y019092D01*
X013767Y019223D01*
X013619Y019284D01*
X014388Y019284D01*
X014241Y019223D01*
X014110Y019092D01*
X014039Y018921D01*
X014039Y018087D01*
X014110Y017916D01*
X014241Y017785D01*
X014411Y017714D01*
X014596Y017714D01*
X014767Y017785D01*
X014898Y017916D01*
X014969Y018087D01*
X014969Y018921D01*
X014898Y019092D01*
X014767Y019223D01*
X014619Y019284D01*
X015388Y019284D01*
X015241Y019223D01*
X015110Y019092D01*
X015039Y018921D01*
X015039Y018087D01*
X015110Y017916D01*
X015241Y017785D01*
X015411Y017714D01*
X015596Y017714D01*
X015767Y017785D01*
X015898Y017916D01*
X015969Y018087D01*
X015969Y018921D01*
X015898Y019092D01*
X015767Y019223D01*
X015619Y019284D01*
X016388Y019284D01*
X016241Y019223D01*
X016110Y019092D01*
X016039Y018921D01*
X016039Y018087D01*
X016110Y017916D01*
X016241Y017785D01*
X016411Y017714D01*
X016596Y017714D01*
X016767Y017785D01*
X016784Y017802D01*
X016784Y016845D01*
X016784Y016764D01*
X016303Y011474D01*
X015656Y011474D01*
X015436Y011694D01*
X015072Y011694D01*
X014814Y011436D01*
X014814Y011072D01*
X014869Y011017D01*
X014869Y010591D01*
X014814Y010591D01*
X014782Y010558D01*
X014780Y010561D01*
X014746Y010595D01*
X014705Y010618D01*
X014660Y010631D01*
X014438Y010631D01*
X014438Y010273D01*
X014401Y010273D01*
X014401Y010631D01*
X014179Y010631D01*
X014133Y010618D01*
X014092Y010595D01*
X014059Y010561D01*
X014035Y010520D01*
X014023Y010474D01*
X014023Y010272D01*
X014401Y010272D01*
X014401Y010235D01*
X014023Y010235D01*
X014023Y010033D01*
X014035Y009988D01*
X014043Y009974D01*
X013077Y009974D01*
X011444Y011199D01*
X011444Y011436D01*
X011186Y011694D01*
X010822Y011694D01*
X010564Y011436D01*
X010564Y011072D01*
X010619Y011017D01*
X010619Y010997D01*
X010619Y010841D01*
X010564Y010841D01*
X010532Y010808D01*
X010530Y010811D01*
X010496Y010845D01*
X010455Y010868D01*
X010410Y010881D01*
X010309Y010881D01*
X010484Y011055D01*
X010484Y011234D01*
X010024Y011234D01*
X010024Y011274D01*
X009984Y011274D01*
X009984Y011734D01*
X009805Y011734D01*
X009524Y011453D01*
X009524Y011274D01*
X009984Y011274D01*
X009984Y011234D01*
X009524Y011234D01*
X009524Y011055D01*
X009794Y010785D01*
X009785Y010770D01*
X009773Y010724D01*
X009773Y010522D01*
X010151Y010522D01*
X010151Y010485D01*
X010188Y010485D01*
X010188Y010127D01*
X010410Y010127D01*
X010455Y010139D01*
X010496Y010163D01*
X010530Y010197D01*
X010532Y010200D01*
X010564Y010167D01*
X011113Y010167D01*
X011195Y010249D01*
X011195Y010759D01*
X011140Y010814D01*
X011186Y010814D01*
X011202Y010830D01*
X012859Y009587D01*
X012913Y009534D01*
X012931Y009534D01*
X012945Y009523D01*
X013020Y009534D01*
X015163Y009534D01*
X015345Y009534D01*
X015474Y009663D01*
X015474Y010852D01*
X015656Y011034D01*
X016284Y011034D01*
X016284Y007480D01*
X016224Y007571D01*
X016224Y007595D01*
X016175Y007644D01*
X016136Y007702D01*
X016112Y007707D01*
X016095Y007724D01*
X016026Y007724D01*
X015958Y007737D01*
X015937Y007724D01*
X014906Y007724D01*
X014686Y007944D01*
X014322Y007944D01*
X014064Y007686D01*
X014064Y007322D01*
X014322Y007064D01*
X014686Y007064D01*
X014741Y007119D01*
X014760Y007119D01*
X015417Y007119D01*
X015417Y007064D01*
X015450Y007032D01*
X015447Y007030D01*
X015413Y006996D01*
X015389Y006955D01*
X015377Y006910D01*
X015377Y006688D01*
X015735Y006688D01*
X015735Y006651D01*
X015377Y006651D01*
X015377Y006429D01*
X015389Y006383D01*
X015413Y006342D01*
X015447Y006309D01*
X015488Y006285D01*
X015533Y006273D01*
X015735Y006273D01*
X015735Y006651D01*
X015772Y006651D01*
X015772Y006273D01*
X015974Y006273D01*
X016020Y006285D01*
X016061Y006309D01*
X016095Y006342D01*
X016118Y006383D01*
X016131Y006429D01*
X016131Y006651D01*
X015773Y006651D01*
X015773Y006688D01*
X016131Y006688D01*
X016131Y006910D01*
X016127Y006922D01*
X016284Y006687D01*
X015773Y006687D01*
X015754Y006669D02*
X014669Y006669D01*
X014504Y006504D01*
X014524Y006524D02*
X014484Y006524D01*
X014484Y006984D01*
X014305Y006984D01*
X014224Y006903D01*
X014224Y007095D01*
X014095Y007224D01*
X013944Y007375D01*
X013944Y007686D01*
X013686Y007944D01*
X013322Y007944D01*
X013064Y007686D01*
X013064Y007322D01*
X013322Y007064D01*
X013633Y007064D01*
X013784Y006913D01*
X013784Y006846D01*
X013686Y006944D01*
X013322Y006944D01*
X013224Y006846D01*
X013224Y007095D01*
X013095Y007224D01*
X012944Y007375D01*
X012944Y007686D01*
X012686Y007944D01*
X012322Y007944D01*
X012064Y007686D01*
X012064Y007322D01*
X012322Y007064D01*
X012633Y007064D01*
X012784Y006913D01*
X012784Y006846D01*
X012686Y006944D01*
X012322Y006944D01*
X012224Y006846D01*
X012224Y007095D01*
X012095Y007224D01*
X011944Y007375D01*
X011944Y007686D01*
X011686Y007944D01*
X011322Y007944D01*
X011064Y007686D01*
X011064Y007322D01*
X011322Y007064D01*
X011633Y007064D01*
X011784Y006913D01*
X011784Y006846D01*
X011686Y006944D01*
X011322Y006944D01*
X011224Y006846D01*
X011224Y007095D01*
X011095Y007224D01*
X010944Y007375D01*
X010944Y007686D01*
X010686Y007944D01*
X010322Y007944D01*
X010064Y007686D01*
X010064Y007322D01*
X010322Y007064D01*
X010633Y007064D01*
X010784Y006913D01*
X010784Y006846D01*
X010686Y006944D01*
X010322Y006944D01*
X010064Y006686D01*
X010064Y006322D01*
X010284Y006102D01*
X010284Y003241D01*
X010241Y003223D01*
X010110Y003092D01*
X010039Y002921D01*
X010039Y002087D01*
X010110Y001916D01*
X010241Y001785D01*
X010388Y001724D01*
X008619Y001724D01*
X008767Y001785D01*
X008898Y001916D01*
X008969Y002087D01*
X008969Y002921D01*
X008898Y003092D01*
X008767Y003223D01*
X008619Y003284D01*
X008760Y003284D01*
X008818Y003226D01*
X008939Y003176D01*
X009069Y003176D01*
X009190Y003226D01*
X009282Y003318D01*
X009332Y003439D01*
X009332Y003569D01*
X009282Y003690D01*
X009190Y003782D01*
X009069Y003832D01*
X008939Y003832D01*
X008818Y003782D01*
X008760Y003724D01*
X006845Y003724D01*
X006663Y003724D01*
X006413Y003474D01*
X006284Y003345D01*
X006284Y003241D01*
X006241Y003223D01*
X006110Y003092D01*
X006039Y002921D01*
X006039Y002087D01*
X006110Y001916D01*
X006241Y001785D01*
X006388Y001724D01*
X005619Y001724D01*
X005767Y001785D01*
X005898Y001916D01*
X005969Y002087D01*
X005969Y002921D01*
X005898Y003092D01*
X005767Y003223D01*
X005596Y003294D01*
X005411Y003294D01*
X005241Y003223D01*
X005110Y003092D01*
X005039Y002921D01*
X005039Y002087D01*
X005110Y001916D01*
X005241Y001785D01*
X005388Y001724D01*
X004619Y001724D01*
X004767Y001785D01*
X004898Y001916D01*
X004969Y002087D01*
X004969Y002921D01*
X004898Y003092D01*
X004767Y003223D01*
X004596Y003294D01*
X004411Y003294D01*
X004241Y003223D01*
X004110Y003092D01*
X004039Y002921D01*
X004039Y002087D01*
X004110Y001916D01*
X004241Y001785D01*
X004388Y001724D01*
X004095Y001724D01*
X003899Y001919D01*
X003969Y002087D01*
X003969Y002921D01*
X003898Y003092D01*
X003767Y003223D01*
X003596Y003294D01*
X003411Y003294D01*
X003241Y003223D01*
X003110Y003092D01*
X003039Y002921D01*
X003039Y002087D01*
X003110Y001916D01*
X003241Y001785D01*
X003411Y001714D01*
X003482Y001714D01*
X003784Y001413D01*
X003913Y001284D01*
X017913Y001284D01*
X018095Y001284D01*
X018004Y001504D02*
X018504Y002004D01*
X018504Y007004D01*
X018004Y006754D02*
X018004Y007754D01*
X019004Y007754D01*
X019004Y006004D01*
X019254Y005754D01*
X019754Y005754D01*
X020504Y006504D01*
X020504Y007004D01*
X020124Y007004D02*
X019924Y007004D01*
X019504Y007004D01*
X019504Y007004D01*
X019504Y007004D01*
X019504Y007424D01*
X019471Y007424D01*
X019406Y007414D01*
X019343Y007393D01*
X019284Y007363D01*
X019230Y007324D01*
X019224Y007318D01*
X019224Y007663D01*
X019224Y007845D01*
X019095Y007974D01*
X017913Y007974D01*
X017784Y007845D01*
X017784Y007663D01*
X017784Y006974D01*
X016724Y006974D01*
X016724Y011163D01*
X016724Y011244D01*
X017205Y016534D01*
X021187Y016534D01*
X021208Y016520D01*
X021276Y016534D01*
X021345Y016534D01*
X021362Y016551D01*
X021386Y016556D01*
X021425Y016614D01*
X021474Y016663D01*
X021474Y016687D01*
X021872Y017284D01*
X024163Y017284D01*
X024913Y016534D01*
X025095Y016534D01*
X026935Y016534D01*
X027546Y016109D01*
X026753Y014380D01*
X026584Y014297D02*
X025797Y014297D01*
X026034Y014614D02*
X026861Y014614D01*
X026933Y014773D02*
X026034Y014773D01*
X026034Y014931D02*
X027006Y014931D01*
X027079Y015090D02*
X025917Y015090D01*
X025759Y015248D02*
X026260Y015248D01*
X026284Y015224D02*
X026723Y015224D01*
X027034Y015534D01*
X027034Y015973D01*
X026723Y016284D01*
X026284Y016284D01*
X025974Y015973D01*
X025974Y015534D01*
X026284Y015224D01*
X026101Y015407D02*
X024034Y015407D01*
X024034Y015566D02*
X025974Y015566D01*
X025974Y015724D02*
X024034Y015724D01*
X024034Y015883D02*
X025974Y015883D01*
X026042Y016041D02*
X024034Y016041D01*
X024034Y016200D02*
X026200Y016200D01*
X026808Y016200D02*
X027416Y016200D01*
X027515Y016041D02*
X026966Y016041D01*
X027034Y015883D02*
X027442Y015883D01*
X027370Y015724D02*
X027034Y015724D01*
X027034Y015566D02*
X027297Y015566D01*
X027224Y015407D02*
X026906Y015407D01*
X026748Y015248D02*
X027151Y015248D01*
X027563Y015090D02*
X028388Y015090D01*
X028384Y015080D02*
X028384Y014928D01*
X028442Y014789D01*
X028549Y014682D01*
X028688Y014624D01*
X029320Y014624D01*
X029459Y014682D01*
X029566Y014789D01*
X029624Y014928D01*
X029624Y015080D01*
X029566Y015219D01*
X029459Y015326D01*
X029320Y015384D01*
X028688Y015384D01*
X028549Y015326D01*
X028442Y015219D01*
X028384Y015080D01*
X028384Y014931D02*
X027490Y014931D01*
X027417Y014773D02*
X028458Y014773D01*
X028471Y015248D02*
X027635Y015248D01*
X027708Y015407D02*
X030144Y015407D01*
X030144Y015248D02*
X029537Y015248D01*
X029620Y015090D02*
X030144Y015090D01*
X030144Y014931D02*
X029624Y014931D01*
X029550Y014773D02*
X030144Y014773D01*
X030144Y014614D02*
X027345Y014614D01*
X027272Y014456D02*
X030144Y014456D01*
X030144Y014297D02*
X029424Y014297D01*
X029398Y014323D02*
X029260Y014380D01*
X029110Y014380D01*
X028972Y014323D01*
X028866Y014217D01*
X028809Y014079D01*
X028809Y013929D01*
X028866Y013791D01*
X028972Y013685D01*
X029034Y013659D01*
X029034Y012595D01*
X028913Y012474D01*
X026663Y012474D01*
X026534Y012345D01*
X026061Y011872D01*
X025992Y011844D01*
X025876Y011728D01*
X025814Y011578D01*
X025814Y011414D01*
X025876Y011264D01*
X025992Y011148D01*
X026142Y011086D01*
X026305Y011086D01*
X026456Y011148D01*
X026571Y011264D01*
X026592Y011313D01*
X026619Y011260D01*
X026661Y011203D01*
X026711Y011153D01*
X026768Y011111D01*
X026831Y011079D01*
X026899Y011057D01*
X026969Y011046D01*
X026994Y011046D01*
X026994Y011486D01*
X027014Y011486D01*
X027014Y011506D01*
X027454Y011506D01*
X027454Y011531D01*
X027443Y011601D01*
X027421Y011669D01*
X027389Y011732D01*
X027347Y011789D01*
X027297Y011839D01*
X027240Y011881D01*
X027177Y011913D01*
X027109Y011935D01*
X027039Y011946D01*
X027014Y011946D01*
X027014Y011506D01*
X026994Y011506D01*
X026994Y011946D01*
X026969Y011946D01*
X026899Y011935D01*
X026831Y011913D01*
X026768Y011881D01*
X026711Y011839D01*
X026661Y011789D01*
X026619Y011732D01*
X026592Y011679D01*
X026571Y011728D01*
X026555Y011744D01*
X026845Y012034D01*
X028913Y012034D01*
X029095Y012034D01*
X029345Y012284D01*
X029474Y012413D01*
X029474Y013761D01*
X029504Y013791D01*
X029561Y013929D01*
X029561Y014079D01*
X029504Y014217D01*
X029398Y014323D01*
X029536Y014139D02*
X030144Y014139D01*
X030144Y013980D02*
X029561Y013980D01*
X029517Y013822D02*
X030144Y013822D01*
X030144Y013663D02*
X029474Y013663D01*
X029474Y013504D02*
X030144Y013504D01*
X030144Y013346D02*
X029474Y013346D01*
X029474Y013187D02*
X030144Y013187D01*
X030144Y013029D02*
X029474Y013029D01*
X029474Y012870D02*
X030144Y012870D01*
X030144Y012712D02*
X029474Y012712D01*
X029474Y012553D02*
X030144Y012553D01*
X030144Y012395D02*
X029456Y012395D01*
X029297Y012236D02*
X030144Y012236D01*
X030144Y012078D02*
X029139Y012078D01*
X029004Y012254D02*
X029254Y012504D01*
X029254Y013935D01*
X029185Y014004D01*
X028946Y014297D02*
X027199Y014297D01*
X027174Y014139D02*
X027856Y014139D01*
X027917Y014164D02*
X027626Y014044D01*
X027404Y013821D01*
X027284Y013531D01*
X027284Y013217D01*
X027404Y012926D01*
X027626Y012704D01*
X027917Y012584D01*
X028231Y012584D01*
X028521Y012704D01*
X028744Y012926D01*
X028864Y013217D01*
X028864Y013531D01*
X028744Y013821D01*
X028521Y014044D01*
X028231Y014164D01*
X027917Y014164D01*
X028292Y014139D02*
X028834Y014139D01*
X028809Y013980D02*
X028585Y013980D01*
X028743Y013822D02*
X028853Y013822D01*
X028809Y013663D02*
X029025Y013663D01*
X029034Y013504D02*
X028864Y013504D01*
X028864Y013346D02*
X029034Y013346D01*
X029034Y013187D02*
X028852Y013187D01*
X028786Y013029D02*
X029034Y013029D01*
X029034Y012870D02*
X028688Y012870D01*
X028529Y012712D02*
X029034Y012712D01*
X028992Y012553D02*
X026614Y012553D01*
X026584Y012395D02*
X026456Y012395D01*
X026425Y012236D02*
X026297Y012236D01*
X026267Y012078D02*
X026139Y012078D01*
X026108Y011919D02*
X025980Y011919D01*
X025909Y011761D02*
X025822Y011761D01*
X025824Y011602D02*
X025663Y011602D01*
X025814Y011443D02*
X025505Y011443D01*
X025346Y011285D02*
X025868Y011285D01*
X026045Y011126D02*
X022290Y011126D01*
X022316Y010968D02*
X030144Y010968D01*
X030144Y011126D02*
X027261Y011126D01*
X027240Y011111D02*
X027297Y011153D01*
X027347Y011203D01*
X027389Y011260D01*
X027421Y011323D01*
X027443Y011391D01*
X027454Y011461D01*
X027454Y011486D01*
X027014Y011486D01*
X027014Y011046D01*
X027039Y011046D01*
X027109Y011057D01*
X027177Y011079D01*
X027240Y011111D01*
X027014Y011126D02*
X026994Y011126D01*
X026994Y011285D02*
X027014Y011285D01*
X027014Y011443D02*
X026994Y011443D01*
X026994Y011602D02*
X027014Y011602D01*
X027014Y011761D02*
X026994Y011761D01*
X026994Y011919D02*
X027014Y011919D01*
X027158Y011919D02*
X030144Y011919D01*
X030144Y011761D02*
X027368Y011761D01*
X027443Y011602D02*
X030144Y011602D01*
X030144Y011443D02*
X027451Y011443D01*
X027401Y011285D02*
X030144Y011285D01*
X030144Y010809D02*
X027286Y010809D01*
X027236Y010859D02*
X027351Y010744D01*
X027414Y010593D01*
X027414Y010430D01*
X027351Y010280D01*
X027236Y010164D01*
X027085Y010102D01*
X026922Y010102D01*
X026772Y010164D01*
X026656Y010280D01*
X026614Y010382D01*
X026571Y010280D01*
X026456Y010164D01*
X026305Y010102D01*
X026142Y010102D01*
X025992Y010164D01*
X025876Y010280D01*
X025814Y010430D01*
X025814Y010593D01*
X025876Y010744D01*
X025992Y010859D01*
X026142Y010922D01*
X026305Y010922D01*
X026456Y010859D01*
X026571Y010744D01*
X026614Y010642D01*
X026656Y010744D01*
X026772Y010859D01*
X026922Y010922D01*
X027085Y010922D01*
X027236Y010859D01*
X027390Y010651D02*
X030144Y010651D01*
X030144Y010492D02*
X027414Y010492D01*
X027374Y010334D02*
X030144Y010334D01*
X030144Y010175D02*
X027247Y010175D01*
X026761Y010175D02*
X026467Y010175D01*
X026594Y010334D02*
X026634Y010334D01*
X026610Y010651D02*
X026618Y010651D01*
X026722Y010809D02*
X026506Y010809D01*
X026403Y011126D02*
X026747Y011126D01*
X026606Y011285D02*
X026580Y011285D01*
X026224Y011496D02*
X026224Y011724D01*
X026754Y012254D01*
X029004Y012254D01*
X027619Y012712D02*
X026773Y012712D01*
X026931Y012870D02*
X027460Y012870D01*
X027362Y013029D02*
X027043Y013029D01*
X027043Y013187D02*
X027296Y013187D01*
X027284Y013346D02*
X027043Y013346D01*
X027043Y013504D02*
X027284Y013504D01*
X027339Y013663D02*
X027043Y013663D01*
X027154Y013822D02*
X027404Y013822D01*
X027563Y013980D02*
X027199Y013980D01*
X026823Y014004D02*
X027823Y016185D01*
X027004Y016754D01*
X025004Y016754D01*
X024254Y017504D01*
X021754Y017504D01*
X021254Y016754D01*
X017004Y016754D01*
X016504Y011254D01*
X015254Y011254D01*
X015089Y011089D01*
X015089Y010254D01*
X015474Y010175D02*
X016284Y010175D01*
X016284Y010017D02*
X015474Y010017D01*
X015474Y009858D02*
X016284Y009858D01*
X016284Y009699D02*
X015474Y009699D01*
X015352Y009541D02*
X016284Y009541D01*
X016284Y009382D02*
X007444Y009382D01*
X007444Y009322D02*
X007186Y009064D01*
X006822Y009064D01*
X006564Y009322D01*
X006564Y009686D01*
X006822Y009944D01*
X007186Y009944D01*
X007444Y009686D01*
X007444Y009322D01*
X007346Y009224D02*
X016284Y009224D01*
X016284Y009065D02*
X007187Y009065D01*
X007223Y008907D02*
X016284Y008907D01*
X016284Y008748D02*
X007382Y008748D01*
X007444Y008590D02*
X016284Y008590D01*
X016284Y008431D02*
X007444Y008431D01*
X007395Y008273D02*
X016284Y008273D01*
X016284Y008114D02*
X007236Y008114D01*
X007224Y007955D02*
X016284Y007955D01*
X016284Y007797D02*
X014833Y007797D01*
X014504Y007504D02*
X014669Y007339D01*
X015754Y007339D01*
X016004Y007504D02*
X014504Y007504D01*
X014223Y007163D02*
X014156Y007163D01*
X014224Y007004D02*
X015421Y007004D01*
X015377Y006846D02*
X014841Y006846D01*
X014703Y006984D02*
X014984Y006703D01*
X014984Y006524D01*
X014524Y006524D01*
X014524Y006984D01*
X014703Y006984D01*
X014524Y006846D02*
X014484Y006846D01*
X014484Y006687D02*
X014524Y006687D01*
X014524Y006529D02*
X014484Y006529D01*
X014524Y006524D02*
X014524Y006484D01*
X014984Y006484D01*
X014984Y006305D01*
X014703Y006024D01*
X014545Y006024D01*
X017315Y003254D01*
X017411Y003294D01*
X017596Y003294D01*
X017767Y003223D01*
X017898Y003092D01*
X017969Y002921D01*
X017969Y002087D01*
X017898Y001916D01*
X017767Y001785D01*
X017619Y001724D01*
X017913Y001724D01*
X018284Y002095D01*
X018284Y006207D01*
X018182Y006309D01*
X018124Y006448D01*
X018124Y006563D01*
X018095Y006534D01*
X017913Y006534D01*
X016571Y006534D01*
X016550Y006520D01*
X016482Y006534D01*
X016413Y006534D01*
X016395Y006551D01*
X016371Y006556D01*
X016333Y006614D01*
X016284Y006663D01*
X016284Y006687D01*
X016178Y006846D02*
X016131Y006846D01*
X016131Y006529D02*
X016509Y006529D01*
X016562Y006529D02*
X018124Y006529D01*
X018156Y006370D02*
X016111Y006370D01*
X015772Y006370D02*
X015735Y006370D01*
X015735Y006529D02*
X015772Y006529D01*
X015735Y006687D02*
X014984Y006687D01*
X014984Y006529D02*
X015377Y006529D01*
X015397Y006370D02*
X014984Y006370D01*
X014890Y006211D02*
X018279Y006211D01*
X018284Y006053D02*
X014732Y006053D01*
X014674Y005894D02*
X018284Y005894D01*
X018284Y005736D02*
X014833Y005736D01*
X014992Y005577D02*
X018284Y005577D01*
X018284Y005419D02*
X015150Y005419D01*
X015309Y005260D02*
X018284Y005260D01*
X018284Y005102D02*
X015467Y005102D01*
X015626Y004943D02*
X016479Y004943D01*
X016476Y004940D02*
X016426Y004819D01*
X016426Y004689D01*
X016476Y004568D01*
X016568Y004476D01*
X016689Y004426D01*
X016819Y004426D01*
X016940Y004476D01*
X016998Y004534D01*
X017510Y004534D01*
X017568Y004476D01*
X017689Y004426D01*
X017819Y004426D01*
X017940Y004476D01*
X018032Y004568D01*
X018082Y004689D01*
X018082Y004819D01*
X018032Y004940D01*
X017940Y005032D01*
X017819Y005082D01*
X017689Y005082D01*
X017568Y005032D01*
X017510Y004974D01*
X016998Y004974D01*
X016940Y005032D01*
X016819Y005082D01*
X016689Y005082D01*
X016568Y005032D01*
X016476Y004940D01*
X016426Y004785D02*
X015784Y004785D01*
X015943Y004626D02*
X016452Y004626D01*
X016588Y004468D02*
X016101Y004468D01*
X016260Y004309D02*
X018284Y004309D01*
X018284Y004468D02*
X017920Y004468D01*
X018056Y004626D02*
X018284Y004626D01*
X018284Y004785D02*
X018082Y004785D01*
X018029Y004943D02*
X018284Y004943D01*
X018724Y004943D02*
X020065Y004943D01*
X019974Y005034D02*
X020284Y004724D01*
X020723Y004724D01*
X021034Y005034D01*
X021034Y005473D01*
X020723Y005784D01*
X020284Y005784D01*
X019974Y005473D01*
X019974Y005034D01*
X019974Y005102D02*
X018724Y005102D01*
X018724Y005260D02*
X019974Y005260D01*
X019974Y005419D02*
X018724Y005419D01*
X018724Y005577D02*
X019119Y005577D01*
X018961Y005736D02*
X018724Y005736D01*
X018724Y005894D02*
X018802Y005894D01*
X018784Y006053D02*
X018724Y006053D01*
X018729Y006211D02*
X018784Y006211D01*
X019266Y006053D02*
X019742Y006053D01*
X019785Y006211D02*
X019900Y006211D01*
X019895Y006370D02*
X020059Y006370D01*
X020124Y006529D02*
X019924Y006529D01*
X019924Y006687D02*
X020124Y006687D01*
X020124Y006846D02*
X019924Y006846D01*
X019924Y007004D02*
X019504Y007004D01*
X019504Y006104D01*
X019504Y007004D01*
X019504Y007004D01*
X019504Y006846D02*
X019504Y006846D01*
X019504Y006687D02*
X019504Y006687D01*
X019504Y006529D02*
X019504Y006529D01*
X019504Y006370D02*
X019504Y006370D01*
X019504Y006211D02*
X019504Y006211D01*
X020047Y005736D02*
X020236Y005736D01*
X020206Y005894D02*
X021114Y005894D01*
X020974Y006034D02*
X021284Y005724D01*
X021723Y005724D01*
X022034Y006034D01*
X022034Y006473D01*
X021723Y006784D01*
X021284Y006784D01*
X020974Y006473D01*
X020974Y006034D01*
X020974Y006053D02*
X020364Y006053D01*
X020729Y006211D02*
X020974Y006211D01*
X020974Y006370D02*
X020851Y006370D01*
X020884Y006529D02*
X021029Y006529D01*
X020884Y006687D02*
X021188Y006687D01*
X020884Y006846D02*
X026650Y006846D01*
X026460Y007004D02*
X020884Y007004D01*
X020849Y007163D02*
X026270Y007163D01*
X026079Y007321D02*
X020724Y007321D01*
X020284Y007321D02*
X019780Y007321D01*
X019894Y007163D02*
X020158Y007163D01*
X019504Y007163D02*
X019504Y007163D01*
X019504Y007321D02*
X019504Y007321D01*
X019227Y007321D02*
X019224Y007321D01*
X019224Y007480D02*
X025889Y007480D01*
X025699Y007638D02*
X019224Y007638D01*
X019224Y007797D02*
X025509Y007797D01*
X025318Y007955D02*
X019113Y007955D01*
X018987Y008273D02*
X024938Y008273D01*
X025004Y008504D02*
X028004Y006004D01*
X028004Y005254D01*
X028254Y004504D01*
X029004Y004504D01*
X029492Y004150D02*
X030144Y004150D01*
X030144Y003992D02*
X026761Y003992D01*
X026659Y004034D02*
X026349Y004034D01*
X026062Y003915D01*
X025843Y003696D01*
X025724Y003409D01*
X025724Y003099D01*
X025843Y002812D01*
X026062Y002593D01*
X026349Y002474D01*
X026659Y002474D01*
X026946Y002593D01*
X027165Y002812D01*
X027284Y003099D01*
X027284Y003409D01*
X027165Y003696D01*
X026946Y003915D01*
X026659Y004034D01*
X027028Y003833D02*
X030144Y003833D01*
X030144Y003675D02*
X027174Y003675D01*
X027240Y003516D02*
X030144Y003516D01*
X030144Y003358D02*
X027284Y003358D01*
X027284Y003199D02*
X030144Y003199D01*
X030144Y003041D02*
X027260Y003041D01*
X027194Y002882D02*
X028563Y002882D01*
X028449Y002835D02*
X028809Y002984D01*
X029199Y002984D01*
X029559Y002835D01*
X029835Y002559D01*
X029984Y002199D01*
X029984Y001809D01*
X029835Y001449D01*
X029559Y001173D01*
X029199Y001024D01*
X028809Y001024D01*
X028449Y001173D01*
X028173Y001449D01*
X028024Y001809D01*
X028024Y002199D01*
X028173Y002559D01*
X028449Y002835D01*
X028338Y002724D02*
X027077Y002724D01*
X026879Y002565D02*
X028179Y002565D01*
X028110Y002406D02*
X018724Y002406D01*
X018724Y002248D02*
X028044Y002248D01*
X028024Y002089D02*
X018724Y002089D01*
X018724Y001931D02*
X028024Y001931D01*
X028039Y001772D02*
X024735Y001772D01*
X024894Y001614D02*
X028105Y001614D01*
X028170Y001455D02*
X025034Y001455D01*
X025034Y001297D02*
X028325Y001297D01*
X028533Y001138D02*
X025034Y001138D01*
X024979Y000980D02*
X030144Y000980D01*
X030144Y001138D02*
X029475Y001138D01*
X029683Y001297D02*
X030144Y001297D01*
X030144Y001455D02*
X029837Y001455D01*
X029903Y001614D02*
X030144Y001614D01*
X030144Y001772D02*
X029969Y001772D01*
X029984Y001931D02*
X030144Y001931D01*
X030144Y002089D02*
X029984Y002089D01*
X029964Y002248D02*
X030144Y002248D01*
X030144Y002406D02*
X029898Y002406D01*
X029829Y002565D02*
X030144Y002565D01*
X030144Y002724D02*
X029670Y002724D01*
X029445Y002882D02*
X030144Y002882D01*
X028516Y004150D02*
X018724Y004150D01*
X018724Y003992D02*
X020247Y003992D01*
X020349Y004034D02*
X020062Y003915D01*
X019843Y003696D01*
X019724Y003409D01*
X019724Y003099D01*
X019843Y002812D01*
X020062Y002593D01*
X020349Y002474D01*
X020659Y002474D01*
X020946Y002593D01*
X021165Y002812D01*
X021284Y003099D01*
X021284Y003409D01*
X021165Y003696D01*
X020946Y003915D01*
X020659Y004034D01*
X020349Y004034D01*
X020761Y003992D02*
X026247Y003992D01*
X025980Y003833D02*
X021028Y003833D01*
X021174Y003675D02*
X025834Y003675D01*
X025768Y003516D02*
X021240Y003516D01*
X021284Y003358D02*
X025724Y003358D01*
X025724Y003199D02*
X021284Y003199D01*
X021260Y003041D02*
X025748Y003041D01*
X025814Y002882D02*
X021194Y002882D01*
X021077Y002724D02*
X025931Y002724D01*
X026129Y002565D02*
X020879Y002565D01*
X020129Y002565D02*
X018724Y002565D01*
X018724Y002724D02*
X019931Y002724D01*
X019814Y002882D02*
X018724Y002882D01*
X018724Y003041D02*
X019748Y003041D01*
X019724Y003199D02*
X018724Y003199D01*
X018724Y003358D02*
X019724Y003358D01*
X019768Y003516D02*
X018724Y003516D01*
X018724Y003675D02*
X019834Y003675D01*
X019980Y003833D02*
X018724Y003833D01*
X018284Y003833D02*
X016736Y003833D01*
X016894Y003675D02*
X018284Y003675D01*
X018284Y003516D02*
X017053Y003516D01*
X017211Y003358D02*
X018284Y003358D01*
X018284Y003199D02*
X017791Y003199D01*
X017919Y003041D02*
X018284Y003041D01*
X018284Y002882D02*
X017969Y002882D01*
X017969Y002724D02*
X018284Y002724D01*
X018284Y002565D02*
X017969Y002565D01*
X017969Y002406D02*
X018284Y002406D01*
X018284Y002248D02*
X017969Y002248D01*
X017969Y002089D02*
X018278Y002089D01*
X018120Y001931D02*
X017904Y001931D01*
X017961Y001772D02*
X017736Y001772D01*
X018004Y001504D02*
X004004Y001504D01*
X003504Y002004D01*
X003504Y002504D01*
X003039Y002565D02*
X002969Y002565D01*
X002969Y002406D02*
X003039Y002406D01*
X003039Y002248D02*
X002969Y002248D01*
X002969Y002089D02*
X003039Y002089D01*
X002969Y002087D02*
X002969Y002921D01*
X002898Y003092D01*
X002767Y003223D01*
X002596Y003294D01*
X002411Y003294D01*
X002241Y003223D01*
X002110Y003092D01*
X002039Y002921D01*
X002039Y002087D01*
X002110Y001916D01*
X002241Y001785D01*
X002411Y001714D01*
X002596Y001714D01*
X002767Y001785D01*
X002898Y001916D01*
X002969Y002087D01*
X002904Y001931D02*
X003104Y001931D01*
X003271Y001772D02*
X002736Y001772D01*
X002271Y001772D02*
X001736Y001772D01*
X001767Y001785D02*
X001898Y001916D01*
X001969Y002087D01*
X001969Y002921D01*
X001898Y003092D01*
X001767Y003223D01*
X001596Y003294D01*
X001411Y003294D01*
X001241Y003223D01*
X001110Y003092D01*
X001039Y002921D01*
X001039Y002087D01*
X001110Y001916D01*
X001241Y001785D01*
X001411Y001714D01*
X001596Y001714D01*
X001767Y001785D01*
X001904Y001931D02*
X002104Y001931D01*
X002039Y002089D02*
X001969Y002089D01*
X001969Y002248D02*
X002039Y002248D01*
X002039Y002406D02*
X001969Y002406D01*
X001969Y002565D02*
X002039Y002565D01*
X002039Y002724D02*
X001969Y002724D01*
X001969Y002882D02*
X002039Y002882D01*
X002089Y003041D02*
X001919Y003041D01*
X001791Y003199D02*
X002217Y003199D01*
X002791Y003199D02*
X003217Y003199D01*
X003089Y003041D02*
X002919Y003041D01*
X002969Y002882D02*
X003039Y002882D01*
X003039Y002724D02*
X002969Y002724D01*
X003791Y003199D02*
X004217Y003199D01*
X004089Y003041D02*
X003919Y003041D01*
X003969Y002882D02*
X004039Y002882D01*
X004039Y002724D02*
X003969Y002724D01*
X003969Y002565D02*
X004039Y002565D01*
X004039Y002406D02*
X003969Y002406D01*
X003969Y002248D02*
X004039Y002248D01*
X004039Y002089D02*
X003969Y002089D01*
X003904Y001931D02*
X004104Y001931D01*
X004047Y001772D02*
X004272Y001772D01*
X004736Y001772D02*
X005272Y001772D01*
X005104Y001931D02*
X004904Y001931D01*
X004969Y002089D02*
X005039Y002089D01*
X005039Y002248D02*
X004969Y002248D01*
X004969Y002406D02*
X005039Y002406D01*
X005039Y002565D02*
X004969Y002565D01*
X004969Y002724D02*
X005039Y002724D01*
X005039Y002882D02*
X004969Y002882D01*
X004919Y003041D02*
X005089Y003041D01*
X005217Y003199D02*
X004791Y003199D01*
X005791Y003199D02*
X006217Y003199D01*
X006297Y003358D02*
X000734Y003358D01*
X000734Y003516D02*
X006455Y003516D01*
X006614Y003675D02*
X000734Y003675D01*
X000734Y003833D02*
X010284Y003833D01*
X010284Y003675D02*
X009288Y003675D01*
X009332Y003516D02*
X010284Y003516D01*
X010284Y003358D02*
X009298Y003358D01*
X009126Y003199D02*
X010217Y003199D01*
X010089Y003041D02*
X008919Y003041D01*
X008882Y003199D02*
X008791Y003199D01*
X009004Y003504D02*
X006754Y003504D01*
X006504Y003254D01*
X006504Y002504D01*
X006039Y002565D02*
X005969Y002565D01*
X005969Y002406D02*
X006039Y002406D01*
X006039Y002248D02*
X005969Y002248D01*
X005969Y002089D02*
X006039Y002089D01*
X006104Y001931D02*
X005904Y001931D01*
X005736Y001772D02*
X006272Y001772D01*
X006039Y002724D02*
X005969Y002724D01*
X005969Y002882D02*
X006039Y002882D01*
X006089Y003041D02*
X005919Y003041D01*
X006309Y004024D02*
X005949Y004173D01*
X005673Y004449D01*
X005524Y004809D01*
X005524Y005199D01*
X005673Y005559D01*
X005949Y005835D01*
X006309Y005984D01*
X006699Y005984D01*
X007059Y005835D01*
X007335Y005559D01*
X007484Y005199D01*
X007484Y004809D01*
X007335Y004449D01*
X007059Y004173D01*
X006699Y004024D01*
X006309Y004024D01*
X006004Y004150D02*
X000734Y004150D01*
X000734Y003992D02*
X010284Y003992D01*
X010284Y004150D02*
X007004Y004150D01*
X007195Y004309D02*
X010284Y004309D01*
X010284Y004468D02*
X007342Y004468D01*
X007408Y004626D02*
X010284Y004626D01*
X010284Y004785D02*
X007474Y004785D01*
X007484Y004943D02*
X010284Y004943D01*
X010284Y005102D02*
X007484Y005102D01*
X007459Y005260D02*
X010284Y005260D01*
X010284Y005419D02*
X007393Y005419D01*
X007316Y005577D02*
X010284Y005577D01*
X010284Y005736D02*
X007158Y005736D01*
X006915Y005894D02*
X010284Y005894D01*
X010284Y006053D02*
X002955Y006053D01*
X003194Y006211D02*
X010174Y006211D01*
X010064Y006370D02*
X003276Y006370D01*
X003294Y006529D02*
X010064Y006529D01*
X010065Y006687D02*
X003256Y006687D01*
X003004Y007004D02*
X002504Y006504D01*
X001754Y006504D01*
X001254Y007004D01*
X001004Y008004D01*
X001004Y019504D01*
X017004Y019504D01*
X017004Y016754D01*
X016784Y016834D02*
X014985Y016834D01*
X014826Y016992D02*
X016784Y016992D01*
X016784Y017151D02*
X014668Y017151D01*
X014509Y017310D02*
X016784Y017310D01*
X016784Y017468D02*
X014351Y017468D01*
X014192Y017627D02*
X016784Y017627D01*
X016767Y017785D02*
X016784Y017785D01*
X017224Y017785D02*
X017241Y017785D01*
X017224Y017627D02*
X019724Y017627D01*
X019724Y017599D02*
X019843Y017312D01*
X020062Y017093D01*
X020349Y016974D01*
X020659Y016974D01*
X020946Y017093D01*
X021165Y017312D01*
X021284Y017599D01*
X021284Y017909D01*
X021165Y018196D01*
X020946Y018415D01*
X020659Y018534D01*
X020349Y018534D01*
X020062Y018415D01*
X019843Y018196D01*
X019724Y017909D01*
X019724Y017599D01*
X019778Y017468D02*
X017224Y017468D01*
X017224Y017310D02*
X019845Y017310D01*
X020004Y017151D02*
X017224Y017151D01*
X017224Y016992D02*
X020304Y016992D01*
X020704Y016992D02*
X021149Y016992D01*
X021254Y017151D02*
X021004Y017151D01*
X021163Y017310D02*
X021360Y017310D01*
X021466Y017468D02*
X021230Y017468D01*
X021284Y017627D02*
X021566Y017627D01*
X021284Y017785D02*
X025724Y017785D01*
X025724Y017909D02*
X025724Y017599D01*
X025843Y017312D01*
X026062Y017093D01*
X026349Y016974D01*
X026659Y016974D01*
X026946Y017093D01*
X027165Y017312D01*
X027284Y017599D01*
X027284Y017909D01*
X027165Y018196D01*
X026946Y018415D01*
X026659Y018534D01*
X026349Y018534D01*
X026062Y018415D01*
X025843Y018196D01*
X025724Y017909D01*
X025738Y017944D02*
X021270Y017944D01*
X021204Y018102D02*
X025804Y018102D01*
X025908Y018261D02*
X021100Y018261D01*
X020936Y018419D02*
X026072Y018419D01*
X026936Y018419D02*
X028203Y018419D01*
X028173Y018449D02*
X028449Y018173D01*
X028809Y018024D01*
X029199Y018024D01*
X029559Y018173D01*
X029835Y018449D01*
X029984Y018809D01*
X029984Y019199D01*
X029835Y019559D01*
X029559Y019835D01*
X029199Y019984D01*
X028809Y019984D01*
X028449Y019835D01*
X028173Y019559D01*
X028024Y019199D01*
X028024Y018809D01*
X028173Y018449D01*
X028120Y018578D02*
X017969Y018578D01*
X017969Y018736D02*
X028054Y018736D01*
X028024Y018895D02*
X017969Y018895D01*
X017914Y019054D02*
X028024Y019054D01*
X028029Y019212D02*
X017778Y019212D01*
X017230Y019212D02*
X017224Y019212D01*
X017224Y019371D02*
X022138Y019371D01*
X021979Y019529D02*
X017224Y019529D01*
X017131Y019688D02*
X021974Y019688D01*
X021974Y019846D02*
X000734Y019846D01*
X000734Y019688D02*
X000877Y019688D01*
X000784Y019529D02*
X000734Y019529D01*
X000734Y019371D02*
X000784Y019371D01*
X000784Y019212D02*
X000734Y019212D01*
X000734Y019054D02*
X000784Y019054D01*
X000784Y018895D02*
X000734Y018895D01*
X000734Y018736D02*
X000784Y018736D01*
X000784Y018578D02*
X000734Y018578D01*
X000734Y018419D02*
X000784Y018419D01*
X000784Y018261D02*
X000734Y018261D01*
X000734Y018102D02*
X000784Y018102D01*
X000784Y017944D02*
X000734Y017944D01*
X000734Y017785D02*
X000784Y017785D01*
X000784Y017627D02*
X000734Y017627D01*
X000734Y017468D02*
X000784Y017468D01*
X000784Y017310D02*
X000734Y017310D01*
X000734Y017151D02*
X000784Y017151D01*
X000784Y016992D02*
X000734Y016992D01*
X000734Y016834D02*
X000784Y016834D01*
X000784Y016675D02*
X000734Y016675D01*
X000734Y016517D02*
X000784Y016517D01*
X000784Y016358D02*
X000734Y016358D01*
X000734Y016200D02*
X000784Y016200D01*
X000784Y016041D02*
X000734Y016041D01*
X000734Y015883D02*
X000784Y015883D01*
X000784Y015724D02*
X000734Y015724D01*
X000734Y015566D02*
X000784Y015566D01*
X000784Y015407D02*
X000734Y015407D01*
X000734Y015248D02*
X000784Y015248D01*
X000784Y015090D02*
X000734Y015090D01*
X000734Y014931D02*
X000784Y014931D01*
X000784Y014773D02*
X000734Y014773D01*
X000734Y014614D02*
X000784Y014614D01*
X000784Y014456D02*
X000734Y014456D01*
X000734Y014297D02*
X000784Y014297D01*
X000784Y014139D02*
X000734Y014139D01*
X000734Y013980D02*
X000784Y013980D01*
X000784Y013822D02*
X000734Y013822D01*
X000734Y013663D02*
X000784Y013663D01*
X000784Y013504D02*
X000734Y013504D01*
X000734Y013346D02*
X000784Y013346D01*
X000784Y013187D02*
X000734Y013187D01*
X000734Y013029D02*
X000784Y013029D01*
X000784Y012870D02*
X000734Y012870D01*
X000734Y012712D02*
X000784Y012712D01*
X000784Y012553D02*
X000734Y012553D01*
X000734Y012395D02*
X000784Y012395D01*
X000784Y012236D02*
X000734Y012236D01*
X000734Y012078D02*
X000784Y012078D01*
X000784Y011919D02*
X000734Y011919D01*
X000734Y011761D02*
X000784Y011761D01*
X000784Y011602D02*
X000734Y011602D01*
X000734Y011443D02*
X000784Y011443D01*
X000784Y011285D02*
X000734Y011285D01*
X000734Y011126D02*
X000784Y011126D01*
X000784Y010968D02*
X000734Y010968D01*
X000734Y010809D02*
X000784Y010809D01*
X000784Y010651D02*
X000734Y010651D01*
X000734Y010492D02*
X000784Y010492D01*
X000784Y010334D02*
X000734Y010334D01*
X000734Y010175D02*
X000784Y010175D01*
X000784Y010017D02*
X000734Y010017D01*
X000734Y009858D02*
X000784Y009858D01*
X000784Y009699D02*
X000734Y009699D01*
X000734Y009541D02*
X000784Y009541D01*
X000784Y009382D02*
X000734Y009382D01*
X000734Y009224D02*
X000784Y009224D01*
X000784Y009065D02*
X000734Y009065D01*
X000734Y008907D02*
X000784Y008907D01*
X000784Y008748D02*
X000734Y008748D01*
X000734Y008590D02*
X000784Y008590D01*
X000784Y008431D02*
X000734Y008431D01*
X000734Y008273D02*
X000784Y008273D01*
X000784Y008114D02*
X000734Y008114D01*
X000734Y007955D02*
X000784Y007955D01*
X000829Y007797D02*
X000734Y007797D01*
X000734Y007638D02*
X000869Y007638D01*
X000908Y007480D02*
X000734Y007480D01*
X000734Y007321D02*
X000948Y007321D01*
X000987Y007163D02*
X000734Y007163D01*
X000734Y007004D02*
X001027Y007004D01*
X001090Y006846D02*
X000734Y006846D01*
X000734Y006687D02*
X001260Y006687D01*
X001418Y006529D02*
X000734Y006529D01*
X000734Y006370D02*
X001577Y006370D01*
X001814Y006211D02*
X000734Y006211D01*
X000734Y006053D02*
X002053Y006053D01*
X001864Y006846D02*
X001723Y006846D01*
X001565Y007004D02*
X002693Y007004D01*
X003004Y007004D02*
X006754Y007004D01*
X007004Y007254D01*
X007004Y008504D01*
X006839Y008339D01*
X006839Y007754D01*
X007224Y007797D02*
X010175Y007797D01*
X010064Y007638D02*
X007224Y007638D01*
X007224Y007480D02*
X010064Y007480D01*
X010064Y007321D02*
X007224Y007321D01*
X007224Y007163D02*
X010223Y007163D01*
X010504Y007504D02*
X011004Y007004D01*
X011004Y003254D01*
X011504Y002754D01*
X011504Y002504D01*
X010504Y002504D02*
X010504Y006504D01*
X010223Y006846D02*
X006907Y006846D01*
X007065Y007004D02*
X010693Y007004D01*
X011156Y007163D02*
X011223Y007163D01*
X011224Y007004D02*
X011693Y007004D01*
X012004Y007004D02*
X012004Y004754D01*
X013504Y003254D01*
X013504Y002504D01*
X014504Y002504D02*
X014504Y003254D01*
X012504Y005254D01*
X012504Y006504D01*
X012693Y007004D02*
X012224Y007004D01*
X012223Y007163D02*
X012156Y007163D01*
X012064Y007321D02*
X011998Y007321D01*
X011944Y007480D02*
X012064Y007480D01*
X012064Y007638D02*
X011944Y007638D01*
X011833Y007797D02*
X012175Y007797D01*
X012504Y007504D02*
X013004Y007004D01*
X013004Y005754D01*
X015504Y003254D01*
X015504Y002504D01*
X016504Y002504D02*
X016504Y003254D01*
X013504Y006254D01*
X013504Y006504D01*
X013693Y007004D02*
X013224Y007004D01*
X013223Y007163D02*
X013156Y007163D01*
X013064Y007321D02*
X012998Y007321D01*
X012944Y007480D02*
X013064Y007480D01*
X013064Y007638D02*
X012944Y007638D01*
X012833Y007797D02*
X013175Y007797D01*
X013504Y007504D02*
X014004Y007004D01*
X014004Y006254D01*
X017504Y002754D01*
X017504Y002504D01*
X018583Y001772D02*
X022273Y001772D01*
X022114Y001614D02*
X018425Y001614D01*
X018266Y001455D02*
X021974Y001455D01*
X022735Y001772D02*
X024273Y001772D01*
X024114Y001614D02*
X022894Y001614D01*
X023034Y001455D02*
X023974Y001455D01*
X023974Y001297D02*
X023034Y001297D01*
X023034Y001138D02*
X023974Y001138D01*
X024029Y000980D02*
X022979Y000980D01*
X022820Y000821D02*
X024187Y000821D01*
X024820Y000821D02*
X030144Y000821D01*
X030144Y004309D02*
X029637Y004309D01*
X029684Y004468D02*
X030144Y004468D01*
X030144Y004626D02*
X029667Y004626D01*
X029573Y004785D02*
X030144Y004785D01*
X030144Y004943D02*
X028339Y004943D01*
X028392Y004785D02*
X028435Y004785D01*
X027981Y004626D02*
X024022Y004626D01*
X024032Y004645D02*
X024060Y004730D01*
X024074Y004819D01*
X024074Y005204D01*
X023554Y005204D01*
X023554Y005304D01*
X024074Y005304D01*
X024074Y005689D01*
X024060Y005777D01*
X024032Y005863D01*
X023991Y005943D01*
X023939Y006015D01*
X023875Y006079D01*
X023803Y006131D01*
X023723Y006172D01*
X023637Y006200D01*
X023554Y006213D01*
X023554Y005304D01*
X023454Y005304D01*
X023454Y006213D01*
X023370Y006200D01*
X023285Y006172D01*
X023205Y006131D01*
X023133Y006079D01*
X023069Y006015D01*
X023016Y005943D01*
X022976Y005863D01*
X022948Y005777D01*
X022934Y005689D01*
X022934Y005304D01*
X023454Y005304D01*
X023454Y005204D01*
X023554Y005204D01*
X023554Y004295D01*
X023637Y004308D01*
X023723Y004336D01*
X023803Y004376D01*
X023875Y004429D01*
X023939Y004493D01*
X023991Y004565D01*
X024032Y004645D01*
X024068Y004785D02*
X026224Y004785D01*
X026284Y004724D02*
X026723Y004724D01*
X027034Y005034D01*
X027034Y005473D01*
X026723Y005784D01*
X026284Y005784D01*
X025974Y005473D01*
X025974Y005034D01*
X026284Y004724D01*
X026065Y004943D02*
X024074Y004943D01*
X024074Y005102D02*
X025974Y005102D01*
X025974Y005260D02*
X023554Y005260D01*
X023504Y005254D02*
X023504Y007504D01*
X022504Y008504D01*
X021254Y008504D01*
X020193Y009382D02*
X022564Y009382D01*
X022503Y009541D02*
X020352Y009541D01*
X020737Y009699D02*
X022132Y009699D01*
X021959Y009858D02*
X020855Y009858D01*
X020884Y010017D02*
X021926Y010017D01*
X021970Y010175D02*
X020884Y010175D01*
X020884Y010334D02*
X021976Y010334D01*
X021950Y010492D02*
X020884Y010492D01*
X020846Y010651D02*
X021923Y010651D01*
X021897Y010809D02*
X020711Y010809D01*
X020760Y010878D02*
X020898Y010935D01*
X021004Y011041D01*
X021061Y011179D01*
X021061Y011329D01*
X021004Y011467D01*
X020898Y011573D01*
X020760Y011630D01*
X020610Y011630D01*
X020472Y011573D01*
X020366Y011467D01*
X020309Y011329D01*
X020309Y011179D01*
X020366Y011041D01*
X020472Y010935D01*
X020610Y010878D01*
X020760Y010878D01*
X020931Y010968D02*
X021870Y010968D01*
X021844Y011126D02*
X021039Y011126D01*
X021061Y011285D02*
X021817Y011285D01*
X021791Y011443D02*
X021014Y011443D01*
X020828Y011602D02*
X021804Y011602D01*
X021870Y011761D02*
X018543Y011761D01*
X018543Y011919D02*
X021933Y011919D01*
X021996Y012078D02*
X018543Y012078D01*
X018543Y012236D02*
X020784Y012236D01*
X020732Y012289D02*
X020839Y012182D01*
X020978Y012124D01*
X021130Y012124D01*
X021269Y012182D01*
X021376Y012289D01*
X021434Y012428D01*
X021434Y012580D01*
X021376Y012719D01*
X021269Y012826D01*
X021130Y012884D01*
X020978Y012884D01*
X020839Y012826D01*
X020732Y012719D01*
X020674Y012580D01*
X020674Y012428D01*
X020732Y012289D01*
X020688Y012395D02*
X018543Y012395D01*
X018543Y012553D02*
X020674Y012553D01*
X020729Y012712D02*
X018543Y012712D01*
X018543Y012870D02*
X020946Y012870D01*
X021162Y012870D02*
X022314Y012870D01*
X022250Y012712D02*
X021379Y012712D01*
X021434Y012553D02*
X022187Y012553D01*
X022123Y012395D02*
X021420Y012395D01*
X021324Y012236D02*
X022060Y012236D01*
X022004Y011504D02*
X023004Y014004D01*
X023754Y014254D01*
X024061Y014139D02*
X026471Y014139D01*
X026447Y013980D02*
X023944Y013980D01*
X023913Y013822D02*
X023168Y013822D01*
X023104Y013663D02*
X023715Y013663D01*
X023676Y013504D02*
X023041Y013504D01*
X022978Y013346D02*
X023714Y013346D01*
X023911Y013187D02*
X022914Y013187D01*
X022851Y013029D02*
X023968Y013029D01*
X023809Y012870D02*
X023062Y012870D01*
X022846Y012870D02*
X022787Y012870D01*
X023279Y012712D02*
X023651Y012712D01*
X023492Y012553D02*
X023334Y012553D01*
X023320Y012395D02*
X023334Y012395D01*
X023639Y012078D02*
X025516Y012078D01*
X025358Y011919D02*
X023480Y011919D01*
X023322Y011761D02*
X023797Y011761D01*
X023689Y011602D02*
X023163Y011602D01*
X023004Y011443D02*
X023676Y011443D01*
X023759Y011285D02*
X022846Y011285D01*
X022754Y011504D02*
X024254Y013004D01*
X024004Y013504D01*
X024332Y013504D02*
X026603Y013504D01*
X026603Y013346D02*
X024329Y013346D01*
X024408Y013187D02*
X026603Y013187D01*
X026468Y013029D02*
X024487Y013029D01*
X024441Y012870D02*
X026309Y012870D01*
X026151Y012712D02*
X024273Y012712D01*
X024114Y012553D02*
X025992Y012553D01*
X025834Y012395D02*
X023956Y012395D01*
X023797Y012236D02*
X025675Y012236D01*
X025199Y011761D02*
X024211Y011761D01*
X024004Y011504D02*
X025254Y011504D01*
X026823Y013073D01*
X026823Y014004D01*
X026491Y013822D02*
X024094Y013822D01*
X024293Y013663D02*
X026603Y013663D01*
X025211Y014297D02*
X024082Y014297D01*
X024016Y014456D02*
X025053Y014456D01*
X025090Y015090D02*
X023964Y015090D01*
X024030Y015248D02*
X025249Y015248D01*
X023492Y014456D02*
X023022Y014456D01*
X023188Y014297D02*
X022784Y014297D01*
X022821Y014139D02*
X022546Y014139D01*
X022757Y013980D02*
X022309Y013980D01*
X022071Y013822D02*
X022694Y013822D01*
X022631Y013663D02*
X021833Y013663D01*
X021516Y013980D02*
X018782Y013980D01*
X018724Y013980D02*
X018224Y013980D01*
X018224Y013822D02*
X018347Y013822D01*
X018323Y013573D02*
X018754Y013754D01*
X018323Y013573D02*
X018323Y011254D01*
X019004Y011254D01*
X019504Y010754D01*
X019504Y010004D01*
X019855Y009858D02*
X020047Y009858D01*
X020124Y010017D02*
X019884Y010017D01*
X019884Y010175D02*
X020124Y010175D01*
X020124Y010334D02*
X019884Y010334D01*
X019884Y010492D02*
X020124Y010492D01*
X020162Y010651D02*
X019846Y010651D01*
X019724Y010809D02*
X020296Y010809D01*
X020439Y010968D02*
X019601Y010968D01*
X019443Y011126D02*
X020331Y011126D01*
X020309Y011285D02*
X019284Y011285D01*
X019126Y011443D02*
X020356Y011443D01*
X020542Y011602D02*
X018543Y011602D01*
X018004Y012004D02*
X018004Y014254D01*
X018754Y015754D01*
X019056Y015883D02*
X019974Y015883D01*
X019974Y015973D02*
X019974Y015534D01*
X020284Y015224D01*
X020723Y015224D01*
X021034Y015534D01*
X021034Y015973D01*
X020723Y016284D01*
X020284Y016284D01*
X019974Y015973D01*
X020042Y016041D02*
X018918Y016041D01*
X019082Y015724D02*
X019974Y015724D01*
X019974Y015566D02*
X019030Y015566D01*
X018826Y015407D02*
X020101Y015407D01*
X020260Y015248D02*
X018747Y015248D01*
X018668Y015090D02*
X021090Y015090D01*
X020974Y014973D02*
X020974Y014534D01*
X021284Y014224D01*
X021723Y014224D01*
X022034Y014534D01*
X022034Y014973D01*
X021723Y015284D01*
X021284Y015284D01*
X020974Y014973D01*
X020974Y014931D02*
X018589Y014931D01*
X018509Y014773D02*
X020974Y014773D01*
X020974Y014614D02*
X018430Y014614D01*
X018351Y014456D02*
X021053Y014456D01*
X021211Y014297D02*
X018271Y014297D01*
X018224Y014139D02*
X021753Y014139D01*
X021797Y014297D02*
X021991Y014297D01*
X021955Y014456D02*
X022229Y014456D01*
X022034Y014614D02*
X022467Y014614D01*
X022705Y014773D02*
X022034Y014773D01*
X022034Y014931D02*
X022939Y014931D01*
X023044Y015090D02*
X021917Y015090D01*
X021759Y015248D02*
X022978Y015248D01*
X022974Y015407D02*
X020906Y015407D01*
X021034Y015566D02*
X022974Y015566D01*
X022974Y015724D02*
X021034Y015724D01*
X021034Y015883D02*
X022974Y015883D01*
X022974Y016041D02*
X020966Y016041D01*
X020808Y016200D02*
X022974Y016200D01*
X023019Y016358D02*
X017189Y016358D01*
X017174Y016200D02*
X020200Y016200D01*
X021474Y016675D02*
X024771Y016675D01*
X024613Y016834D02*
X021572Y016834D01*
X021677Y016992D02*
X024454Y016992D01*
X024296Y017151D02*
X021783Y017151D01*
X023127Y016517D02*
X017203Y016517D01*
X016761Y016517D02*
X015302Y016517D01*
X015144Y016675D02*
X016776Y016675D01*
X016747Y016358D02*
X015461Y016358D01*
X015619Y016200D02*
X016733Y016200D01*
X016718Y016041D02*
X015778Y016041D01*
X015936Y015883D02*
X016704Y015883D01*
X016689Y015724D02*
X015974Y015724D01*
X015974Y015566D02*
X016675Y015566D01*
X016661Y015407D02*
X015974Y015407D01*
X015974Y015248D02*
X016646Y015248D01*
X016632Y015090D02*
X015974Y015090D01*
X015974Y014931D02*
X016617Y014931D01*
X016603Y014773D02*
X015974Y014773D01*
X015974Y014614D02*
X016589Y014614D01*
X016574Y014456D02*
X015974Y014456D01*
X015858Y014297D02*
X016560Y014297D01*
X016545Y014139D02*
X015700Y014139D01*
X015602Y013980D02*
X016531Y013980D01*
X016516Y013822D02*
X015444Y013822D01*
X015436Y013694D02*
X015072Y013694D01*
X014814Y013436D01*
X014814Y013072D01*
X015072Y012814D01*
X015436Y012814D01*
X015694Y013072D01*
X015694Y013436D01*
X015436Y013694D01*
X015467Y013663D02*
X016502Y013663D01*
X016488Y013504D02*
X015626Y013504D01*
X015694Y013346D02*
X016473Y013346D01*
X016459Y013187D02*
X015694Y013187D01*
X015651Y013029D02*
X016444Y013029D01*
X016430Y012870D02*
X015493Y012870D01*
X015436Y012694D02*
X015072Y012694D01*
X014814Y012436D01*
X014814Y012072D01*
X015072Y011814D01*
X015436Y011814D01*
X015694Y012072D01*
X015694Y012436D01*
X015436Y012694D01*
X015577Y012553D02*
X016401Y012553D01*
X016387Y012395D02*
X015694Y012395D01*
X015694Y012236D02*
X016372Y012236D01*
X016358Y012078D02*
X015694Y012078D01*
X015541Y011919D02*
X016344Y011919D01*
X016329Y011761D02*
X007370Y011761D01*
X007444Y011686D02*
X007186Y011944D01*
X006822Y011944D01*
X006564Y011686D01*
X006564Y011322D01*
X006822Y011064D01*
X007186Y011064D01*
X007444Y011322D01*
X007444Y011686D01*
X007444Y011602D02*
X009673Y011602D01*
X009524Y011443D02*
X007444Y011443D01*
X007407Y011285D02*
X009524Y011285D01*
X009524Y011126D02*
X007249Y011126D01*
X007186Y010944D02*
X006822Y010944D01*
X006564Y010686D01*
X006564Y010322D01*
X006822Y010064D01*
X007186Y010064D01*
X007444Y010322D01*
X007444Y010686D01*
X007186Y010944D01*
X007321Y010809D02*
X009770Y010809D01*
X009773Y010651D02*
X007444Y010651D01*
X007444Y010492D02*
X010151Y010492D01*
X010151Y010485D02*
X009773Y010485D01*
X009773Y010283D01*
X009785Y010238D01*
X009809Y010197D01*
X009842Y010163D01*
X009883Y010139D01*
X009929Y010127D01*
X010151Y010127D01*
X010151Y010485D01*
X010169Y010504D02*
X010169Y011089D01*
X010004Y011254D01*
X010024Y011274D02*
X010024Y011734D01*
X010203Y011734D01*
X010484Y011453D01*
X010484Y011274D01*
X010024Y011274D01*
X010024Y011285D02*
X009984Y011285D01*
X009984Y011443D02*
X010024Y011443D01*
X010024Y011602D02*
X009984Y011602D01*
X009822Y011814D02*
X010186Y011814D01*
X010444Y012072D01*
X010444Y012436D01*
X010186Y012694D01*
X009822Y012694D01*
X009564Y012436D01*
X009564Y012072D01*
X009822Y011814D01*
X009717Y011919D02*
X007211Y011919D01*
X007186Y012064D02*
X007444Y012322D01*
X007444Y012686D01*
X007186Y012944D01*
X006822Y012944D01*
X006564Y012686D01*
X006564Y012322D01*
X006822Y012064D01*
X007186Y012064D01*
X007200Y012078D02*
X009564Y012078D01*
X009564Y012236D02*
X007358Y012236D01*
X007444Y012395D02*
X009564Y012395D01*
X009681Y012553D02*
X007444Y012553D01*
X007418Y012712D02*
X016416Y012712D01*
X016857Y012712D02*
X017784Y012712D01*
X017784Y012870D02*
X016872Y012870D01*
X016886Y013029D02*
X017784Y013029D01*
X017784Y013187D02*
X016901Y013187D01*
X016915Y013346D02*
X017784Y013346D01*
X017784Y013504D02*
X016929Y013504D01*
X016944Y013663D02*
X017784Y013663D01*
X017784Y013822D02*
X016958Y013822D01*
X016973Y013980D02*
X017784Y013980D01*
X017784Y014139D02*
X016987Y014139D01*
X017001Y014297D02*
X017780Y014297D01*
X017859Y014456D02*
X017016Y014456D01*
X017030Y014614D02*
X017938Y014614D01*
X018017Y014773D02*
X017045Y014773D01*
X017059Y014931D02*
X018097Y014931D01*
X018176Y015090D02*
X017074Y015090D01*
X017088Y015248D02*
X018255Y015248D01*
X018335Y015407D02*
X017102Y015407D01*
X017117Y015566D02*
X018414Y015566D01*
X018426Y015724D02*
X017131Y015724D01*
X017146Y015883D02*
X018452Y015883D01*
X018590Y016041D02*
X017160Y016041D01*
X015754Y015754D02*
X015754Y014504D01*
X015504Y014254D01*
X015254Y014254D01*
X014814Y014297D02*
X014694Y014297D01*
X014694Y014436D02*
X014694Y014072D01*
X014436Y013814D01*
X014072Y013814D01*
X013814Y014072D01*
X013814Y014436D01*
X014072Y014694D01*
X014436Y014694D01*
X014694Y014436D01*
X014674Y014456D02*
X014834Y014456D01*
X014992Y014614D02*
X014516Y014614D01*
X014554Y014931D02*
X014954Y014931D01*
X014814Y015090D02*
X014694Y015090D01*
X014694Y015248D02*
X014814Y015248D01*
X014814Y015407D02*
X014694Y015407D01*
X014564Y015566D02*
X014943Y015566D01*
X014973Y015724D02*
X014474Y015724D01*
X014474Y015883D02*
X014814Y015883D01*
X014656Y016041D02*
X014474Y016041D01*
X014497Y016200D02*
X014369Y016200D01*
X014338Y016358D02*
X014211Y016358D01*
X014180Y016517D02*
X014052Y016517D01*
X014021Y016675D02*
X013894Y016675D01*
X013863Y016834D02*
X013735Y016834D01*
X013704Y016992D02*
X012826Y016992D01*
X012754Y016754D02*
X013504Y016754D01*
X014254Y016004D01*
X014254Y015254D01*
X013943Y015566D02*
X012474Y015566D01*
X012474Y015724D02*
X014034Y015724D01*
X014034Y015883D02*
X012436Y015883D01*
X012254Y015754D02*
X012254Y015004D01*
X011504Y014254D01*
X011004Y014254D01*
X010584Y014456D02*
X010517Y014456D01*
X010564Y014297D02*
X010444Y014297D01*
X010444Y014139D02*
X010564Y014139D01*
X010656Y013980D02*
X010352Y013980D01*
X010194Y013822D02*
X010814Y013822D01*
X010822Y013694D02*
X010564Y013436D01*
X010564Y013072D01*
X010822Y012814D01*
X011186Y012814D01*
X011444Y013072D01*
X011444Y013436D01*
X011186Y013694D01*
X010822Y013694D01*
X010791Y013663D02*
X010217Y013663D01*
X010186Y013694D02*
X009822Y013694D01*
X009564Y013436D01*
X009564Y013072D01*
X009822Y012814D01*
X010186Y012814D01*
X010444Y013072D01*
X010444Y013436D01*
X010186Y013694D01*
X010376Y013504D02*
X010632Y013504D01*
X010564Y013346D02*
X010444Y013346D01*
X010444Y013187D02*
X010564Y013187D01*
X010607Y013029D02*
X010401Y013029D01*
X010243Y012870D02*
X010765Y012870D01*
X010822Y012694D02*
X010564Y012436D01*
X010564Y012072D01*
X010822Y011814D01*
X011186Y011814D01*
X011444Y012072D01*
X011444Y012436D01*
X011186Y012694D01*
X010822Y012694D01*
X010681Y012553D02*
X010327Y012553D01*
X010444Y012395D02*
X010564Y012395D01*
X010564Y012236D02*
X010444Y012236D01*
X010444Y012078D02*
X010564Y012078D01*
X010717Y011919D02*
X010291Y011919D01*
X010335Y011602D02*
X010730Y011602D01*
X010571Y011443D02*
X010484Y011443D01*
X010484Y011285D02*
X010564Y011285D01*
X010564Y011126D02*
X010484Y011126D01*
X010397Y010968D02*
X010619Y010968D01*
X010533Y010809D02*
X010531Y010809D01*
X010839Y011089D02*
X010839Y010504D01*
X011195Y010492D02*
X011653Y010492D01*
X011864Y010334D02*
X011195Y010334D01*
X011121Y010175D02*
X012076Y010175D01*
X012287Y010017D02*
X001224Y010017D01*
X001224Y010175D02*
X001851Y010175D01*
X001916Y010110D02*
X002087Y010039D01*
X002921Y010039D01*
X003092Y010110D01*
X003223Y010241D01*
X003294Y010411D01*
X003294Y010596D01*
X003223Y010767D01*
X003092Y010898D01*
X002921Y010969D01*
X002087Y010969D01*
X001916Y010898D01*
X001785Y010767D01*
X001714Y010596D01*
X001714Y010411D01*
X001785Y010241D01*
X001916Y010110D01*
X001985Y009972D02*
X001915Y009936D01*
X001850Y009889D01*
X001794Y009833D01*
X001747Y009769D01*
X001711Y009698D01*
X001687Y009622D01*
X001674Y009544D01*
X001674Y009532D01*
X002475Y009532D01*
X002475Y009476D01*
X001674Y009476D01*
X001674Y009464D01*
X001687Y009386D01*
X001711Y009310D01*
X001747Y009239D01*
X001794Y009175D01*
X001850Y009119D01*
X001915Y009072D01*
X001985Y009036D01*
X002061Y009012D01*
X002109Y009004D01*
X002061Y008996D01*
X001985Y008972D01*
X001915Y008936D01*
X001850Y008889D01*
X001794Y008833D01*
X001747Y008769D01*
X001711Y008698D01*
X001687Y008622D01*
X001674Y008544D01*
X001674Y008532D01*
X002475Y008532D01*
X002475Y008476D01*
X001674Y008476D01*
X001674Y008464D01*
X001687Y008386D01*
X001711Y008310D01*
X001747Y008239D01*
X001794Y008175D01*
X001850Y008119D01*
X001915Y008072D01*
X001985Y008036D01*
X002061Y008012D01*
X002139Y007999D01*
X002476Y007999D01*
X002476Y008475D01*
X002532Y008475D01*
X002532Y007999D01*
X002868Y007999D01*
X002947Y008012D01*
X003023Y008036D01*
X003093Y008072D01*
X003158Y008119D01*
X003214Y008175D01*
X003260Y008239D01*
X003297Y008310D01*
X003321Y008386D01*
X003334Y008464D01*
X003333Y008476D01*
X002532Y008476D01*
X002532Y008532D01*
X003334Y008532D01*
X003334Y008544D01*
X003321Y008622D01*
X003297Y008698D01*
X003260Y008769D01*
X003214Y008833D01*
X003158Y008889D01*
X003093Y008936D01*
X003023Y008972D01*
X002947Y008996D01*
X002899Y009004D01*
X002947Y009012D01*
X003023Y009036D01*
X003093Y009072D01*
X003158Y009119D01*
X003214Y009175D01*
X003260Y009239D01*
X003297Y009310D01*
X003321Y009386D01*
X003334Y009464D01*
X003333Y009476D01*
X002532Y009476D01*
X002532Y009532D01*
X002476Y009532D01*
X002476Y010009D01*
X002139Y010009D01*
X002061Y009996D01*
X001985Y009972D01*
X001819Y009858D02*
X001224Y009858D01*
X001224Y009699D02*
X001712Y009699D01*
X001674Y009541D02*
X001224Y009541D01*
X001224Y009382D02*
X001688Y009382D01*
X001759Y009224D02*
X001224Y009224D01*
X001224Y009065D02*
X001928Y009065D01*
X001875Y008907D02*
X001224Y008907D01*
X001224Y008748D02*
X001737Y008748D01*
X001682Y008590D02*
X001224Y008590D01*
X001224Y008431D02*
X001680Y008431D01*
X001730Y008273D02*
X001224Y008273D01*
X001224Y008114D02*
X001857Y008114D01*
X002055Y007955D02*
X001243Y007955D01*
X001282Y007797D02*
X001815Y007797D01*
X001732Y007638D02*
X001322Y007638D01*
X001362Y007480D02*
X001714Y007480D01*
X001752Y007321D02*
X001401Y007321D01*
X001441Y007163D02*
X001863Y007163D01*
X002476Y008114D02*
X002532Y008114D01*
X002532Y008273D02*
X002476Y008273D01*
X002476Y008431D02*
X002532Y008431D01*
X002504Y008504D02*
X006004Y008504D01*
X006169Y008339D01*
X006169Y007754D01*
X006151Y007735D02*
X006151Y007377D01*
X005929Y007377D01*
X005883Y007389D01*
X005842Y007413D01*
X005809Y007447D01*
X005785Y007488D01*
X005773Y007533D01*
X005773Y007735D01*
X006151Y007735D01*
X006151Y007638D02*
X006188Y007638D01*
X006188Y007480D02*
X006151Y007480D01*
X005789Y007480D02*
X003294Y007480D01*
X003276Y007638D02*
X005773Y007638D01*
X005773Y007797D02*
X003193Y007797D01*
X002953Y007955D02*
X005773Y007955D01*
X005715Y008114D02*
X003151Y008114D01*
X003277Y008273D02*
X005556Y008273D01*
X005524Y008431D02*
X003328Y008431D01*
X003326Y008590D02*
X005524Y008590D01*
X005569Y008748D02*
X003271Y008748D01*
X003133Y008907D02*
X005728Y008907D01*
X005822Y009064D02*
X006186Y009064D01*
X006444Y009322D01*
X006444Y009686D01*
X006186Y009944D01*
X005822Y009944D01*
X005564Y009686D01*
X005564Y009322D01*
X005822Y009064D01*
X005820Y009065D02*
X003080Y009065D01*
X003249Y009224D02*
X005662Y009224D01*
X005564Y009382D02*
X003320Y009382D01*
X003334Y009532D02*
X003334Y009544D01*
X003321Y009622D01*
X003297Y009698D01*
X003260Y009769D01*
X003214Y009833D01*
X003158Y009889D01*
X003093Y009936D01*
X003023Y009972D01*
X002947Y009996D01*
X002868Y010009D01*
X002532Y010009D01*
X002532Y009532D01*
X003334Y009532D01*
X003334Y009541D02*
X005564Y009541D01*
X005577Y009699D02*
X003296Y009699D01*
X003189Y009858D02*
X005736Y009858D01*
X005822Y010064D02*
X006186Y010064D01*
X006444Y010322D01*
X006444Y010686D01*
X006186Y010944D01*
X005822Y010944D01*
X005564Y010686D01*
X005564Y010322D01*
X005822Y010064D01*
X005711Y010175D02*
X003157Y010175D01*
X003261Y010334D02*
X005564Y010334D01*
X005564Y010492D02*
X003294Y010492D01*
X003271Y010651D02*
X005564Y010651D01*
X005687Y010809D02*
X003181Y010809D01*
X002923Y010968D02*
X009611Y010968D01*
X009773Y010334D02*
X007444Y010334D01*
X007297Y010175D02*
X009830Y010175D01*
X010151Y010175D02*
X010188Y010175D01*
X010188Y010334D02*
X010151Y010334D01*
X010508Y010175D02*
X010556Y010175D01*
X011195Y010651D02*
X011442Y010651D01*
X011230Y010809D02*
X011145Y010809D01*
X010839Y011089D02*
X011004Y011254D01*
X013004Y009754D01*
X015254Y009754D01*
X015254Y011254D01*
X014814Y011285D02*
X014734Y011285D01*
X014734Y011274D02*
X014734Y011453D01*
X014453Y011734D01*
X014274Y011734D01*
X014274Y011274D01*
X014234Y011274D01*
X014234Y011734D01*
X014055Y011734D01*
X013774Y011453D01*
X013774Y011274D01*
X014234Y011274D01*
X014234Y011234D01*
X013774Y011234D01*
X013774Y011055D01*
X014055Y010774D01*
X014234Y010774D01*
X014234Y011234D01*
X014274Y011234D01*
X014274Y011274D01*
X014734Y011274D01*
X014734Y011234D02*
X014274Y011234D01*
X014274Y010774D01*
X014453Y010774D01*
X014734Y011055D01*
X014734Y011234D01*
X014734Y011126D02*
X014814Y011126D01*
X014869Y010968D02*
X014647Y010968D01*
X014488Y010809D02*
X014869Y010809D01*
X014869Y010651D02*
X012175Y010651D01*
X011963Y010809D02*
X014020Y010809D01*
X014234Y010809D02*
X014274Y010809D01*
X014274Y010968D02*
X014234Y010968D01*
X014234Y011126D02*
X014274Y011126D01*
X014254Y011254D02*
X014419Y011089D01*
X014419Y010254D01*
X014401Y010334D02*
X014438Y010334D01*
X014438Y010492D02*
X014401Y010492D01*
X014028Y010492D02*
X012386Y010492D01*
X012598Y010334D02*
X014023Y010334D01*
X014023Y010175D02*
X012809Y010175D01*
X013020Y010017D02*
X014027Y010017D01*
X012906Y009541D02*
X007444Y009541D01*
X007431Y009699D02*
X012710Y009699D01*
X012499Y009858D02*
X007272Y009858D01*
X006736Y009858D02*
X006272Y009858D01*
X006431Y009699D02*
X006577Y009699D01*
X006564Y009541D02*
X006444Y009541D01*
X006444Y009382D02*
X006564Y009382D01*
X006662Y009224D02*
X006346Y009224D01*
X006187Y009065D02*
X006820Y009065D01*
X006785Y008907D02*
X006280Y008907D01*
X006203Y008984D02*
X006024Y008984D01*
X006024Y008524D01*
X006484Y008524D01*
X006484Y008703D01*
X006203Y008984D01*
X006024Y008907D02*
X005984Y008907D01*
X005984Y008748D02*
X006024Y008748D01*
X006024Y008590D02*
X005984Y008590D01*
X006438Y008748D02*
X006626Y008748D01*
X006564Y008590D02*
X006484Y008590D01*
X006484Y008431D02*
X006564Y008431D01*
X006613Y008273D02*
X006451Y008273D01*
X006463Y008114D02*
X006619Y008114D01*
X006760Y007321D02*
X003256Y007321D01*
X002532Y008532D02*
X002476Y008532D01*
X002476Y008999D01*
X002476Y009475D01*
X002532Y009475D01*
X002532Y008999D01*
X002532Y008532D01*
X002532Y008590D02*
X002476Y008590D01*
X002476Y008748D02*
X002532Y008748D01*
X002532Y008907D02*
X002476Y008907D01*
X002476Y009065D02*
X002532Y009065D01*
X002532Y009224D02*
X002476Y009224D01*
X002476Y009382D02*
X002532Y009382D01*
X002532Y009541D02*
X002476Y009541D01*
X002476Y009699D02*
X002532Y009699D01*
X002532Y009858D02*
X002476Y009858D01*
X001747Y010334D02*
X001224Y010334D01*
X001224Y010492D02*
X001714Y010492D01*
X001737Y010651D02*
X001224Y010651D01*
X001224Y010809D02*
X001827Y010809D01*
X002084Y010968D02*
X001224Y010968D01*
X001224Y011126D02*
X001899Y011126D01*
X001916Y011110D02*
X002087Y011039D01*
X002921Y011039D01*
X003092Y011110D01*
X003223Y011241D01*
X003294Y011411D01*
X003294Y011596D01*
X003223Y011767D01*
X003092Y011898D01*
X002921Y011969D01*
X002087Y011969D01*
X001916Y011898D01*
X001785Y011767D01*
X001714Y011596D01*
X001714Y011411D01*
X001785Y011241D01*
X001916Y011110D01*
X001767Y011285D02*
X001224Y011285D01*
X001224Y011443D02*
X001714Y011443D01*
X001717Y011602D02*
X001224Y011602D01*
X001224Y011761D02*
X001782Y011761D01*
X001967Y011919D02*
X001224Y011919D01*
X001224Y012078D02*
X001994Y012078D01*
X001916Y012110D02*
X002087Y012039D01*
X002921Y012039D01*
X003092Y012110D01*
X003223Y012241D01*
X003294Y012411D01*
X003294Y012596D01*
X003223Y012767D01*
X003092Y012898D01*
X002921Y012969D01*
X002087Y012969D01*
X001916Y012898D01*
X001785Y012767D01*
X001714Y012596D01*
X001714Y012411D01*
X001785Y012241D01*
X001916Y012110D01*
X001790Y012236D02*
X001224Y012236D01*
X001224Y012395D02*
X001721Y012395D01*
X001714Y012553D02*
X001224Y012553D01*
X001224Y012712D02*
X001762Y012712D01*
X001888Y012870D02*
X001224Y012870D01*
X001224Y013029D02*
X009607Y013029D01*
X009564Y013187D02*
X003170Y013187D01*
X003223Y013241D02*
X003092Y013110D01*
X002921Y013039D01*
X002087Y013039D01*
X001916Y013110D01*
X001785Y013241D01*
X001714Y013411D01*
X001714Y013596D01*
X001785Y013767D01*
X001916Y013898D01*
X002087Y013969D01*
X002921Y013969D01*
X003092Y013898D01*
X003223Y013767D01*
X003294Y013596D01*
X003294Y013411D01*
X003223Y013241D01*
X003266Y013346D02*
X009564Y013346D01*
X009632Y013504D02*
X003294Y013504D01*
X003266Y013663D02*
X009791Y013663D01*
X009814Y013822D02*
X003168Y013822D01*
X003400Y014297D02*
X001224Y014297D01*
X001224Y014139D02*
X009564Y014139D01*
X009564Y014297D02*
X009358Y014297D01*
X009517Y014456D02*
X009584Y014456D01*
X009675Y014614D02*
X009742Y014614D01*
X009834Y014773D02*
X010212Y014773D01*
X010304Y014931D02*
X010370Y014931D01*
X010444Y015090D02*
X010564Y015090D01*
X010564Y015248D02*
X010444Y015248D01*
X010444Y015407D02*
X010564Y015407D01*
X010631Y015566D02*
X010314Y015566D01*
X010473Y015724D02*
X009812Y015724D01*
X009693Y015566D02*
X009685Y015566D01*
X010004Y015254D02*
X009254Y014504D01*
X003504Y014504D01*
X003004Y015004D01*
X003004Y017004D01*
X002504Y017504D01*
X002004Y017504D01*
X001504Y018004D01*
X001504Y018504D01*
X001241Y017785D02*
X001224Y017785D01*
X001224Y017627D02*
X001570Y017627D01*
X001729Y017468D02*
X001224Y017468D01*
X001224Y017310D02*
X001732Y017310D01*
X001567Y017151D02*
X001224Y017151D01*
X001224Y016992D02*
X001504Y016992D01*
X001494Y016874D02*
X001494Y016856D01*
X001506Y016781D01*
X001529Y016710D01*
X001563Y016642D01*
X001608Y016581D01*
X001661Y016528D01*
X001722Y016483D01*
X001790Y016449D01*
X001861Y016426D01*
X001936Y016414D01*
X001954Y016414D01*
X001954Y016874D01*
X001494Y016874D01*
X001497Y016834D02*
X001224Y016834D01*
X001224Y016675D02*
X001547Y016675D01*
X001676Y016517D02*
X001224Y016517D01*
X001224Y016358D02*
X002784Y016358D01*
X002784Y016200D02*
X001224Y016200D01*
X001224Y016041D02*
X002784Y016041D01*
X002784Y015883D02*
X001224Y015883D01*
X001224Y015724D02*
X002784Y015724D01*
X002784Y015566D02*
X001224Y015566D01*
X001224Y015407D02*
X001645Y015407D01*
X001601Y015363D02*
X001534Y015201D01*
X001534Y015026D01*
X001601Y014865D01*
X001725Y014741D01*
X001886Y014674D01*
X002061Y014674D01*
X002223Y014741D01*
X002347Y014865D01*
X002414Y015026D01*
X002414Y015201D01*
X002347Y015363D01*
X002223Y015487D01*
X002061Y015554D01*
X001886Y015554D01*
X001725Y015487D01*
X001601Y015363D01*
X001553Y015248D02*
X001224Y015248D01*
X001224Y015090D02*
X001534Y015090D01*
X001573Y014931D02*
X001224Y014931D01*
X001224Y014773D02*
X001693Y014773D01*
X001224Y014614D02*
X003082Y014614D01*
X002924Y014773D02*
X002255Y014773D01*
X002375Y014931D02*
X002784Y014931D01*
X002784Y015090D02*
X002414Y015090D01*
X002394Y015248D02*
X002784Y015248D01*
X002784Y015407D02*
X002303Y015407D01*
X003504Y016004D02*
X003754Y015754D01*
X004754Y015754D01*
X005504Y014754D01*
X008754Y014754D01*
X009754Y016004D01*
X010504Y016004D01*
X011004Y015504D01*
X011004Y015254D01*
X011284Y015596D02*
X011186Y015694D01*
X011125Y015694D01*
X011095Y015724D01*
X010595Y016224D01*
X010413Y016224D01*
X009831Y016224D01*
X009820Y016233D01*
X009742Y016224D01*
X009663Y016224D01*
X009653Y016214D01*
X009639Y016212D01*
X009590Y016151D01*
X009534Y016095D01*
X009534Y016081D01*
X008648Y014974D01*
X005614Y014974D01*
X004974Y015827D01*
X004974Y015845D01*
X004921Y015898D01*
X004875Y015959D01*
X004858Y015961D01*
X004845Y015974D01*
X004770Y015974D01*
X004695Y015985D01*
X004681Y015974D01*
X003845Y015974D01*
X003724Y016095D01*
X003724Y017095D01*
X003595Y017224D01*
X002899Y017919D01*
X002969Y018087D01*
X002969Y018921D01*
X002898Y019092D01*
X002767Y019223D01*
X002619Y019284D01*
X003388Y019284D01*
X003241Y019223D01*
X003110Y019092D01*
X003039Y018921D01*
X003039Y018087D01*
X003110Y017916D01*
X003241Y017785D01*
X003411Y017714D01*
X003482Y017714D01*
X003659Y017538D01*
X003788Y017409D01*
X004538Y017409D01*
X004573Y017374D01*
X004572Y017374D01*
X004554Y017374D01*
X004554Y016914D01*
X005014Y016914D01*
X005014Y016932D01*
X005014Y016933D01*
X005038Y016909D01*
X006128Y016909D01*
X005949Y016835D01*
X005673Y016559D01*
X005524Y016199D01*
X005524Y015809D01*
X005673Y015449D01*
X005949Y015173D01*
X006309Y015024D01*
X006699Y015024D01*
X007059Y015173D01*
X007335Y015449D01*
X007484Y015809D01*
X007484Y016199D01*
X007335Y016559D01*
X007059Y016835D01*
X006880Y016909D01*
X010038Y016909D01*
X011284Y015663D01*
X011284Y015596D01*
X011223Y015724D02*
X011095Y015724D01*
X011064Y015883D02*
X010936Y015883D01*
X010906Y016041D02*
X010778Y016041D01*
X010747Y016200D02*
X010619Y016200D01*
X010588Y016358D02*
X007418Y016358D01*
X007484Y016200D02*
X009629Y016200D01*
X009502Y016041D02*
X007484Y016041D01*
X007484Y015883D02*
X009375Y015883D01*
X009248Y015724D02*
X007449Y015724D01*
X007383Y015566D02*
X009122Y015566D01*
X008995Y015407D02*
X007293Y015407D01*
X007134Y015248D02*
X008868Y015248D01*
X008741Y015090D02*
X006858Y015090D01*
X006150Y015090D02*
X005527Y015090D01*
X005408Y015248D02*
X005873Y015248D01*
X005715Y015407D02*
X005289Y015407D01*
X005170Y015566D02*
X005625Y015566D01*
X005559Y015724D02*
X005051Y015724D01*
X004936Y015883D02*
X005524Y015883D01*
X005524Y016041D02*
X003778Y016041D01*
X003724Y016200D02*
X005524Y016200D01*
X005590Y016358D02*
X003724Y016358D01*
X003724Y016517D02*
X004236Y016517D01*
X004221Y016528D02*
X004282Y016483D01*
X004350Y016449D01*
X004421Y016426D01*
X004496Y016414D01*
X004514Y016414D01*
X004514Y016874D01*
X004554Y016874D01*
X004554Y016914D01*
X004514Y016914D01*
X004514Y017374D01*
X004496Y017374D01*
X004421Y017362D01*
X004350Y017339D01*
X004282Y017304D01*
X004221Y017260D01*
X004168Y017207D01*
X004123Y017145D01*
X004089Y017078D01*
X004066Y017006D01*
X004054Y016932D01*
X004054Y016914D01*
X004514Y016914D01*
X004514Y016874D01*
X004054Y016874D01*
X004054Y016856D01*
X004066Y016781D01*
X004089Y016710D01*
X004123Y016642D01*
X004168Y016581D01*
X004221Y016528D01*
X004107Y016675D02*
X003724Y016675D01*
X003724Y016834D02*
X004057Y016834D01*
X004064Y016992D02*
X003724Y016992D01*
X003668Y017151D02*
X004127Y017151D01*
X004292Y017310D02*
X003509Y017310D01*
X003351Y017468D02*
X003729Y017468D01*
X003879Y017629D02*
X004629Y017629D01*
X005129Y017129D01*
X010129Y017129D01*
X011504Y015754D01*
X011504Y015004D01*
X011254Y014754D01*
X010504Y014754D01*
X010004Y014254D01*
X009656Y013980D02*
X001224Y013980D01*
X001224Y013822D02*
X001839Y013822D01*
X001742Y013663D02*
X001224Y013663D01*
X001224Y013504D02*
X001714Y013504D01*
X001741Y013346D02*
X001224Y013346D01*
X001224Y013187D02*
X001838Y013187D01*
X003120Y012870D02*
X005748Y012870D01*
X005822Y012944D02*
X005564Y012686D01*
X005564Y012322D01*
X005822Y012064D01*
X006186Y012064D01*
X006444Y012322D01*
X006444Y012686D01*
X006186Y012944D01*
X005822Y012944D01*
X005590Y012712D02*
X003246Y012712D01*
X003294Y012553D02*
X005564Y012553D01*
X005564Y012395D02*
X003287Y012395D01*
X003218Y012236D02*
X005649Y012236D01*
X005808Y012078D02*
X003014Y012078D01*
X003041Y011919D02*
X005797Y011919D01*
X005822Y011944D02*
X005564Y011686D01*
X005564Y011322D01*
X005822Y011064D01*
X006186Y011064D01*
X006444Y011322D01*
X006444Y011686D01*
X006186Y011944D01*
X005822Y011944D01*
X005638Y011761D02*
X003226Y011761D01*
X003291Y011602D02*
X005564Y011602D01*
X005564Y011443D02*
X003294Y011443D01*
X003241Y011285D02*
X005601Y011285D01*
X005759Y011126D02*
X003108Y011126D01*
X006249Y011126D02*
X006759Y011126D01*
X006601Y011285D02*
X006407Y011285D01*
X006444Y011443D02*
X006564Y011443D01*
X006564Y011602D02*
X006444Y011602D01*
X006370Y011761D02*
X006638Y011761D01*
X006797Y011919D02*
X006211Y011919D01*
X006200Y012078D02*
X006808Y012078D01*
X006649Y012236D02*
X006358Y012236D01*
X006444Y012395D02*
X006564Y012395D01*
X006564Y012553D02*
X006444Y012553D01*
X006418Y012712D02*
X006590Y012712D01*
X006748Y012870D02*
X006260Y012870D01*
X007260Y012870D02*
X009765Y012870D01*
X011217Y013663D02*
X014041Y013663D01*
X014072Y013694D02*
X013814Y013436D01*
X013814Y013072D01*
X014072Y012814D01*
X014436Y012814D01*
X014694Y013072D01*
X014694Y013436D01*
X014436Y013694D01*
X014072Y013694D01*
X014064Y013822D02*
X011194Y013822D01*
X011352Y013980D02*
X013906Y013980D01*
X013814Y014139D02*
X011700Y014139D01*
X011858Y014297D02*
X013814Y014297D01*
X013834Y014456D02*
X012017Y014456D01*
X012175Y014614D02*
X013992Y014614D01*
X013954Y014931D02*
X012474Y014931D01*
X012474Y015090D02*
X013814Y015090D01*
X013814Y015248D02*
X012474Y015248D01*
X012474Y015407D02*
X013814Y015407D01*
X013906Y016041D02*
X012278Y016041D01*
X012119Y016200D02*
X013747Y016200D01*
X013588Y016358D02*
X011961Y016358D01*
X011802Y016517D02*
X013430Y016517D01*
X012754Y016754D02*
X012004Y017504D01*
X011254Y017504D01*
X010504Y018254D01*
X010504Y018504D01*
X011504Y018504D02*
X012754Y017254D01*
X013754Y017254D01*
X015254Y015754D01*
X015254Y015254D01*
X015754Y015754D02*
X013504Y018004D01*
X013504Y018504D01*
X013969Y018578D02*
X014039Y018578D01*
X014039Y018736D02*
X013969Y018736D01*
X013969Y018895D02*
X014039Y018895D01*
X014094Y019054D02*
X013914Y019054D01*
X013778Y019212D02*
X014230Y019212D01*
X014778Y019212D02*
X015230Y019212D01*
X015094Y019054D02*
X014914Y019054D01*
X014969Y018895D02*
X015039Y018895D01*
X015039Y018736D02*
X014969Y018736D01*
X014969Y018578D02*
X015039Y018578D01*
X015039Y018419D02*
X014969Y018419D01*
X014969Y018261D02*
X015039Y018261D01*
X015039Y018102D02*
X014969Y018102D01*
X014909Y017944D02*
X015098Y017944D01*
X015241Y017785D02*
X014767Y017785D01*
X014241Y017785D02*
X014034Y017785D01*
X014098Y017944D02*
X013909Y017944D01*
X013969Y018102D02*
X014039Y018102D01*
X014039Y018261D02*
X013969Y018261D01*
X013969Y018419D02*
X014039Y018419D01*
X015767Y017785D02*
X016241Y017785D01*
X016098Y017944D02*
X015909Y017944D01*
X015969Y018102D02*
X016039Y018102D01*
X016039Y018261D02*
X015969Y018261D01*
X015969Y018419D02*
X016039Y018419D01*
X016039Y018578D02*
X015969Y018578D01*
X015969Y018736D02*
X016039Y018736D01*
X016039Y018895D02*
X015969Y018895D01*
X015914Y019054D02*
X016094Y019054D01*
X016230Y019212D02*
X015778Y019212D01*
X017767Y017785D02*
X019724Y017785D01*
X019738Y017944D02*
X017909Y017944D01*
X017969Y018102D02*
X019804Y018102D01*
X019908Y018261D02*
X017969Y018261D01*
X017969Y018419D02*
X020072Y018419D01*
X022005Y020005D02*
X000734Y020005D01*
X000734Y020163D02*
X022164Y020163D01*
X022844Y020163D02*
X024164Y020163D01*
X024005Y020005D02*
X023003Y020005D01*
X023034Y019846D02*
X023974Y019846D01*
X023974Y019688D02*
X023034Y019688D01*
X023029Y019529D02*
X023979Y019529D01*
X024138Y019371D02*
X022870Y019371D01*
X024870Y019371D02*
X028095Y019371D01*
X028161Y019529D02*
X025029Y019529D01*
X025034Y019688D02*
X028302Y019688D01*
X028477Y019846D02*
X025034Y019846D01*
X025003Y020005D02*
X030144Y020005D01*
X030144Y020163D02*
X024844Y020163D01*
X027100Y018261D02*
X028361Y018261D01*
X028620Y018102D02*
X027204Y018102D01*
X027270Y017944D02*
X030144Y017944D01*
X030144Y018102D02*
X029388Y018102D01*
X029647Y018261D02*
X030144Y018261D01*
X030144Y018419D02*
X029805Y018419D01*
X029888Y018578D02*
X030144Y018578D01*
X030144Y018736D02*
X029954Y018736D01*
X029984Y018895D02*
X030144Y018895D01*
X030144Y019054D02*
X029984Y019054D01*
X029978Y019212D02*
X030144Y019212D01*
X030144Y019371D02*
X029913Y019371D01*
X029847Y019529D02*
X030144Y019529D01*
X030144Y019688D02*
X029706Y019688D01*
X029531Y019846D02*
X030144Y019846D01*
X030144Y017785D02*
X027284Y017785D01*
X027284Y017627D02*
X030144Y017627D01*
X030144Y017468D02*
X027230Y017468D01*
X027163Y017310D02*
X028532Y017310D01*
X028549Y017326D02*
X028442Y017219D01*
X028384Y017080D01*
X028384Y016928D01*
X028442Y016789D01*
X028549Y016682D01*
X028688Y016624D01*
X029320Y016624D01*
X029459Y016682D01*
X029566Y016789D01*
X029624Y016928D01*
X029624Y017080D01*
X029566Y017219D01*
X029459Y017326D01*
X029320Y017384D01*
X028688Y017384D01*
X028549Y017326D01*
X028414Y017151D02*
X027004Y017151D01*
X026704Y016992D02*
X028384Y016992D01*
X028423Y016834D02*
X027274Y016834D01*
X027503Y016675D02*
X028564Y016675D01*
X028666Y016414D02*
X028603Y016393D01*
X028544Y016363D01*
X028490Y016324D01*
X028444Y016278D01*
X028405Y016224D01*
X028375Y016165D01*
X028354Y016102D01*
X028344Y016037D01*
X028344Y016004D01*
X029004Y016004D01*
X029004Y016004D01*
X029004Y016424D01*
X029277Y016424D01*
X029342Y016414D01*
X029405Y016393D01*
X029464Y016363D01*
X029518Y016324D01*
X029564Y016278D01*
X029603Y016224D01*
X029633Y016165D01*
X029654Y016102D01*
X029664Y016037D01*
X029664Y016004D01*
X029004Y016004D01*
X029004Y016004D01*
X029004Y016424D01*
X028731Y016424D01*
X028666Y016414D01*
X028537Y016358D02*
X027973Y016358D01*
X028052Y016200D02*
X028392Y016200D01*
X028345Y016041D02*
X027999Y016041D01*
X027926Y015883D02*
X028362Y015883D01*
X028354Y015906D02*
X028375Y015843D01*
X028405Y015784D01*
X028444Y015730D01*
X028490Y015684D01*
X028544Y015645D01*
X028603Y015615D01*
X028666Y015594D01*
X028731Y015584D01*
X029004Y015584D01*
X029277Y015584D01*
X029342Y015594D01*
X029405Y015615D01*
X029464Y015645D01*
X029518Y015684D01*
X029564Y015730D01*
X029603Y015784D01*
X029633Y015843D01*
X029654Y015906D01*
X029664Y015971D01*
X029664Y016004D01*
X029004Y016004D01*
X029004Y015584D01*
X029004Y016004D01*
X029004Y016004D01*
X029004Y016004D01*
X028344Y016004D01*
X028344Y015971D01*
X028354Y015906D01*
X028450Y015724D02*
X027853Y015724D01*
X027781Y015566D02*
X030144Y015566D01*
X030144Y015724D02*
X029558Y015724D01*
X029646Y015883D02*
X030144Y015883D01*
X030144Y016041D02*
X029663Y016041D01*
X029616Y016200D02*
X030144Y016200D01*
X030144Y016358D02*
X029471Y016358D01*
X029444Y016675D02*
X030144Y016675D01*
X030144Y016517D02*
X027731Y016517D01*
X027188Y016358D02*
X023989Y016358D01*
X023881Y016517D02*
X026960Y016517D01*
X026304Y016992D02*
X025076Y016992D01*
X024918Y017151D02*
X026004Y017151D01*
X025845Y017310D02*
X024759Y017310D01*
X024601Y017468D02*
X025778Y017468D01*
X025724Y017627D02*
X024442Y017627D01*
X021249Y015248D02*
X020748Y015248D01*
X017784Y012553D02*
X016843Y012553D01*
X016829Y012395D02*
X017784Y012395D01*
X017784Y012236D02*
X016814Y012236D01*
X016800Y012078D02*
X017766Y012078D01*
X017608Y011919D02*
X016785Y011919D01*
X016771Y011761D02*
X017534Y011761D01*
X017528Y011602D02*
X017534Y011602D01*
X017754Y011754D02*
X018004Y012004D01*
X017754Y011754D02*
X017754Y011004D01*
X018004Y010754D01*
X018004Y009754D01*
X018504Y009004D01*
X019504Y009004D01*
X020504Y010004D01*
X019888Y009699D02*
X019737Y009699D01*
X019730Y009541D02*
X018410Y009541D01*
X018516Y009382D02*
X019571Y009382D01*
X019876Y009065D02*
X022881Y009065D01*
X022723Y009224D02*
X020035Y009224D01*
X019718Y008907D02*
X023040Y008907D01*
X023199Y008748D02*
X018974Y008748D01*
X019074Y008590D02*
X023357Y008590D01*
X023516Y008431D02*
X019079Y008431D01*
X018754Y008504D02*
X018254Y008504D01*
X018004Y008754D01*
X018004Y009254D01*
X017254Y010254D01*
X017446Y010651D02*
X017784Y010651D01*
X017784Y010492D02*
X017631Y010492D01*
X017694Y010334D02*
X017784Y010334D01*
X017784Y010175D02*
X017694Y010175D01*
X017707Y010017D02*
X017784Y010017D01*
X017395Y009699D02*
X016724Y009699D01*
X016724Y009541D02*
X016919Y009541D01*
X016831Y009382D02*
X016724Y009382D01*
X016724Y009224D02*
X016814Y009224D01*
X016856Y009065D02*
X016724Y009065D01*
X016724Y008907D02*
X016979Y008907D01*
X017005Y008627D02*
X016881Y008503D01*
X016814Y008341D01*
X016814Y008166D01*
X016881Y008005D01*
X017005Y007881D01*
X017166Y007814D01*
X017341Y007814D01*
X017503Y007881D01*
X017627Y008005D01*
X017694Y008166D01*
X017694Y008341D01*
X017627Y008503D01*
X017503Y008627D01*
X017341Y008694D01*
X017166Y008694D01*
X017005Y008627D01*
X016967Y008590D02*
X016724Y008590D01*
X016724Y008748D02*
X017784Y008748D01*
X017784Y008907D02*
X017529Y008907D01*
X017652Y009065D02*
X017784Y009065D01*
X017751Y009224D02*
X017694Y009224D01*
X017540Y008590D02*
X017857Y008590D01*
X018016Y008431D02*
X017657Y008431D01*
X017694Y008273D02*
X018521Y008273D01*
X017894Y007955D02*
X017578Y007955D01*
X017672Y008114D02*
X025128Y008114D01*
X025004Y008504D02*
X023754Y008504D01*
X022754Y009504D01*
X022754Y009754D01*
X023066Y009858D02*
X030144Y009858D01*
X030144Y010017D02*
X022955Y010017D01*
X023082Y009699D02*
X023235Y009699D01*
X023176Y009541D02*
X023028Y009541D01*
X023187Y009382D02*
X023199Y009382D01*
X023504Y009504D02*
X025004Y009504D01*
X027504Y007504D01*
X029004Y007504D01*
X029513Y007163D02*
X030144Y007163D01*
X030144Y007321D02*
X029642Y007321D01*
X029684Y007480D02*
X030144Y007480D01*
X030144Y007638D02*
X029662Y007638D01*
X029561Y007797D02*
X030144Y007797D01*
X030144Y007955D02*
X028500Y007955D01*
X028521Y007964D02*
X028744Y008186D01*
X028864Y008477D01*
X028864Y008791D01*
X028744Y009081D01*
X028521Y009304D01*
X028231Y009424D01*
X027917Y009424D01*
X027626Y009304D01*
X027404Y009081D01*
X027284Y008791D01*
X027284Y008477D01*
X027404Y008186D01*
X027626Y007964D01*
X027917Y007844D01*
X028231Y007844D01*
X028521Y007964D01*
X028447Y007797D02*
X027490Y007797D01*
X027647Y007955D02*
X027292Y007955D01*
X027477Y008114D02*
X027093Y008114D01*
X026895Y008273D02*
X027369Y008273D01*
X027303Y008431D02*
X026697Y008431D01*
X026499Y008590D02*
X027284Y008590D01*
X027284Y008748D02*
X026301Y008748D01*
X026103Y008907D02*
X027332Y008907D01*
X027398Y009065D02*
X025904Y009065D01*
X025706Y009224D02*
X027547Y009224D01*
X027817Y009382D02*
X025508Y009382D01*
X025310Y009541D02*
X030144Y009541D01*
X030144Y009699D02*
X025119Y009699D01*
X025004Y009004D02*
X028004Y006504D01*
X029004Y006504D01*
X029512Y006846D02*
X030144Y006846D01*
X030144Y007004D02*
X027747Y007004D01*
X027557Y007163D02*
X028495Y007163D01*
X028496Y006846D02*
X027937Y006846D01*
X028107Y006211D02*
X028447Y006211D01*
X028224Y006053D02*
X030144Y006053D01*
X030144Y006211D02*
X029561Y006211D01*
X029662Y006370D02*
X030144Y006370D01*
X030144Y006529D02*
X029684Y006529D01*
X029642Y006687D02*
X030144Y006687D01*
X030144Y005894D02*
X029499Y005894D01*
X029510Y005889D02*
X029447Y005921D01*
X029379Y005943D01*
X029309Y005954D01*
X029014Y005954D01*
X029014Y005514D01*
X028994Y005514D01*
X028994Y005954D01*
X028699Y005954D01*
X028629Y005943D01*
X028561Y005921D01*
X028498Y005889D01*
X028441Y005847D01*
X028391Y005797D01*
X028349Y005740D01*
X028317Y005677D01*
X028295Y005609D01*
X028284Y005539D01*
X028284Y005514D01*
X028994Y005514D01*
X028994Y005494D01*
X029014Y005494D01*
X029014Y005514D01*
X029724Y005514D01*
X029724Y005539D01*
X029713Y005609D01*
X029691Y005677D01*
X029659Y005740D01*
X029617Y005797D01*
X029567Y005847D01*
X029510Y005889D01*
X029661Y005736D02*
X030144Y005736D01*
X030144Y005577D02*
X029718Y005577D01*
X029724Y005494D02*
X029014Y005494D01*
X029014Y005054D01*
X029309Y005054D01*
X029379Y005065D01*
X029447Y005087D01*
X029510Y005119D01*
X029567Y005161D01*
X029617Y005211D01*
X029659Y005268D01*
X029691Y005331D01*
X029713Y005399D01*
X029724Y005469D01*
X029724Y005494D01*
X029716Y005419D02*
X030144Y005419D01*
X030144Y005260D02*
X029653Y005260D01*
X029476Y005102D02*
X030144Y005102D01*
X029014Y005102D02*
X028994Y005102D01*
X028994Y005054D02*
X028994Y005494D01*
X028284Y005494D01*
X028284Y005469D01*
X028295Y005399D01*
X028317Y005331D01*
X028349Y005268D01*
X028391Y005211D01*
X028441Y005161D01*
X028498Y005119D01*
X028561Y005087D01*
X028629Y005065D01*
X028699Y005054D01*
X028994Y005054D01*
X028994Y005260D02*
X029014Y005260D01*
X029014Y005419D02*
X028994Y005419D01*
X028994Y005577D02*
X029014Y005577D01*
X029014Y005736D02*
X028994Y005736D01*
X028994Y005894D02*
X029014Y005894D01*
X028509Y005894D02*
X028224Y005894D01*
X028224Y005736D02*
X028347Y005736D01*
X028290Y005577D02*
X028224Y005577D01*
X028224Y005419D02*
X028292Y005419D01*
X028234Y005260D02*
X028355Y005260D01*
X028287Y005102D02*
X028532Y005102D01*
X027876Y004943D02*
X026943Y004943D01*
X027034Y005102D02*
X027823Y005102D01*
X027770Y005260D02*
X027034Y005260D01*
X027034Y005419D02*
X027784Y005419D01*
X027784Y005577D02*
X026930Y005577D01*
X026771Y005736D02*
X027784Y005736D01*
X027784Y005894D02*
X025894Y005894D01*
X026034Y006034D02*
X025723Y005724D01*
X025284Y005724D01*
X024974Y006034D01*
X024974Y006473D01*
X025284Y006784D01*
X025723Y006784D01*
X026034Y006473D01*
X026034Y006034D01*
X026034Y006053D02*
X027601Y006053D01*
X027411Y006211D02*
X026034Y006211D01*
X026034Y006370D02*
X027221Y006370D01*
X027031Y006529D02*
X025979Y006529D01*
X025820Y006687D02*
X026840Y006687D01*
X027367Y007321D02*
X027375Y007321D01*
X027182Y007480D02*
X027176Y007480D01*
X028671Y008114D02*
X030144Y008114D01*
X030144Y008273D02*
X028779Y008273D01*
X028845Y008431D02*
X030144Y008431D01*
X030144Y008590D02*
X028864Y008590D01*
X028864Y008748D02*
X030144Y008748D01*
X030144Y008907D02*
X028816Y008907D01*
X028750Y009065D02*
X030144Y009065D01*
X030144Y009224D02*
X028601Y009224D01*
X028331Y009382D02*
X030144Y009382D01*
X026640Y011761D02*
X026572Y011761D01*
X026730Y011919D02*
X026850Y011919D01*
X025942Y010809D02*
X022343Y010809D01*
X022369Y010651D02*
X025838Y010651D01*
X025814Y010492D02*
X022396Y010492D01*
X022422Y010334D02*
X025854Y010334D01*
X025981Y010175D02*
X022538Y010175D01*
X022254Y010004D02*
X022004Y011504D01*
X022504Y011504D02*
X022754Y011504D01*
X022426Y009699D02*
X022376Y009699D01*
X024004Y009004D02*
X025004Y009004D01*
X025188Y006687D02*
X021820Y006687D01*
X021979Y006529D02*
X025029Y006529D01*
X024974Y006370D02*
X022034Y006370D01*
X022034Y006211D02*
X023444Y006211D01*
X023454Y006211D02*
X023554Y006211D01*
X023564Y006211D02*
X024974Y006211D01*
X024974Y006053D02*
X023901Y006053D01*
X024016Y005894D02*
X025114Y005894D01*
X025272Y005736D02*
X024066Y005736D01*
X024074Y005577D02*
X026078Y005577D01*
X025974Y005419D02*
X024074Y005419D01*
X023554Y005419D02*
X023454Y005419D01*
X023454Y005577D02*
X023554Y005577D01*
X023554Y005736D02*
X023454Y005736D01*
X023454Y005894D02*
X023554Y005894D01*
X023554Y006053D02*
X023454Y006053D01*
X023107Y006053D02*
X022034Y006053D01*
X021894Y005894D02*
X022992Y005894D01*
X022941Y005736D02*
X021735Y005736D01*
X021272Y005736D02*
X020771Y005736D01*
X020930Y005577D02*
X022934Y005577D01*
X022934Y005419D02*
X021034Y005419D01*
X021034Y005260D02*
X023454Y005260D01*
X023454Y005204D02*
X022934Y005204D01*
X022934Y004819D01*
X022948Y004730D01*
X022976Y004645D01*
X023016Y004565D01*
X023069Y004493D01*
X023133Y004429D01*
X023205Y004376D01*
X023285Y004336D01*
X023370Y004308D01*
X023454Y004295D01*
X023454Y005204D01*
X023454Y005102D02*
X023554Y005102D01*
X023554Y004943D02*
X023454Y004943D01*
X023454Y004785D02*
X023554Y004785D01*
X023554Y004626D02*
X023454Y004626D01*
X023454Y004468D02*
X023554Y004468D01*
X023554Y004309D02*
X023454Y004309D01*
X023367Y004309D02*
X018724Y004309D01*
X018724Y004468D02*
X023094Y004468D01*
X022985Y004626D02*
X018724Y004626D01*
X018724Y004785D02*
X020224Y004785D01*
X020784Y004785D02*
X022939Y004785D01*
X022934Y004943D02*
X020943Y004943D01*
X021034Y005102D02*
X022934Y005102D01*
X023914Y004468D02*
X028034Y004468D01*
X028138Y004309D02*
X023641Y004309D01*
X025735Y005736D02*
X026236Y005736D01*
X026784Y004785D02*
X027928Y004785D01*
X020078Y005577D02*
X019888Y005577D01*
X018004Y006754D02*
X016504Y006754D01*
X016004Y007504D01*
X016181Y007638D02*
X016284Y007638D01*
X016724Y007638D02*
X017784Y007638D01*
X017784Y007480D02*
X016724Y007480D01*
X016724Y007321D02*
X017784Y007321D01*
X017784Y007163D02*
X016724Y007163D01*
X016724Y007004D02*
X017784Y007004D01*
X017784Y007797D02*
X016724Y007797D01*
X016724Y007955D02*
X016930Y007955D01*
X016836Y008114D02*
X016724Y008114D01*
X016724Y008273D02*
X016814Y008273D01*
X016851Y008431D02*
X016724Y008431D01*
X018737Y009699D02*
X019271Y009699D01*
X019153Y009858D02*
X018855Y009858D01*
X018884Y010017D02*
X019124Y010017D01*
X019124Y010175D02*
X018884Y010175D01*
X018884Y010334D02*
X019124Y010334D01*
X019124Y010492D02*
X018884Y010492D01*
X018846Y010651D02*
X019162Y010651D01*
X019137Y010809D02*
X018711Y010809D01*
X018569Y010968D02*
X018979Y010968D01*
X018296Y010809D02*
X018224Y010809D01*
X017637Y010809D02*
X016724Y010809D01*
X016724Y010651D02*
X017062Y010651D01*
X016876Y010492D02*
X016724Y010492D01*
X016724Y010334D02*
X016814Y010334D01*
X016814Y010175D02*
X016724Y010175D01*
X016724Y010017D02*
X016876Y010017D01*
X016724Y009858D02*
X017060Y009858D01*
X016284Y010334D02*
X015474Y010334D01*
X015474Y010492D02*
X016284Y010492D01*
X016284Y010651D02*
X015474Y010651D01*
X015474Y010809D02*
X016284Y010809D01*
X016284Y010968D02*
X015590Y010968D01*
X014821Y011443D02*
X014734Y011443D01*
X014585Y011602D02*
X014980Y011602D01*
X014694Y012072D02*
X014436Y011814D01*
X014072Y011814D01*
X013814Y012072D01*
X013814Y012436D01*
X014072Y012694D01*
X014436Y012694D01*
X014694Y012436D01*
X014694Y012072D01*
X014694Y012078D02*
X014814Y012078D01*
X014814Y012236D02*
X014694Y012236D01*
X014694Y012395D02*
X014814Y012395D01*
X014931Y012553D02*
X014577Y012553D01*
X014493Y012870D02*
X015015Y012870D01*
X014857Y013029D02*
X014651Y013029D01*
X014694Y013187D02*
X014814Y013187D01*
X014814Y013346D02*
X014694Y013346D01*
X014626Y013504D02*
X014882Y013504D01*
X015041Y013663D02*
X014467Y013663D01*
X014444Y013822D02*
X015064Y013822D01*
X014906Y013980D02*
X014602Y013980D01*
X014694Y014139D02*
X014814Y014139D01*
X015516Y014614D02*
X015534Y014614D01*
X015534Y014773D02*
X012334Y014773D01*
X012254Y015754D02*
X010504Y017504D01*
X005254Y017504D01*
X004504Y018254D01*
X004504Y018504D01*
X003504Y018504D02*
X003504Y018004D01*
X003879Y017629D01*
X003570Y017627D02*
X003192Y017627D01*
X003241Y017785D02*
X003034Y017785D01*
X003098Y017944D02*
X002909Y017944D01*
X002969Y018102D02*
X003039Y018102D01*
X003039Y018261D02*
X002969Y018261D01*
X002969Y018419D02*
X003039Y018419D01*
X003039Y018578D02*
X002969Y018578D01*
X002969Y018736D02*
X003039Y018736D01*
X003039Y018895D02*
X002969Y018895D01*
X002914Y019054D02*
X003094Y019054D01*
X003230Y019212D02*
X002778Y019212D01*
X002504Y018504D02*
X002504Y018004D01*
X003504Y017004D01*
X003504Y016004D01*
X002784Y016517D02*
X002271Y016517D01*
X002287Y016528D02*
X002340Y016581D01*
X002384Y016642D01*
X002419Y016710D01*
X002442Y016781D01*
X002454Y016856D01*
X002454Y016874D01*
X001994Y016874D01*
X001994Y016414D01*
X002012Y016414D01*
X002086Y016426D01*
X002158Y016449D01*
X002225Y016483D01*
X002287Y016528D01*
X002401Y016675D02*
X002784Y016675D01*
X002784Y016834D02*
X002450Y016834D01*
X002444Y016992D02*
X002704Y016992D01*
X002546Y017151D02*
X002380Y017151D01*
X001994Y016834D02*
X001954Y016834D01*
X001954Y016675D02*
X001994Y016675D01*
X001994Y016517D02*
X001954Y016517D01*
X004514Y016517D02*
X004554Y016517D01*
X004554Y016414D02*
X004572Y016414D01*
X004646Y016426D01*
X004718Y016449D01*
X004785Y016483D01*
X004847Y016528D01*
X004900Y016581D01*
X004944Y016642D01*
X004979Y016710D01*
X005002Y016781D01*
X005014Y016856D01*
X005014Y016874D01*
X004554Y016874D01*
X004554Y016414D01*
X004554Y016675D02*
X004514Y016675D01*
X004514Y016834D02*
X004554Y016834D01*
X004554Y016992D02*
X004514Y016992D01*
X004514Y017151D02*
X004554Y017151D01*
X004554Y017310D02*
X004514Y017310D01*
X005010Y016834D02*
X005948Y016834D01*
X005789Y016675D02*
X004961Y016675D01*
X004831Y016517D02*
X005656Y016517D01*
X007060Y016834D02*
X010113Y016834D01*
X010271Y016675D02*
X007218Y016675D01*
X007352Y016517D02*
X010430Y016517D01*
X011168Y017151D02*
X012046Y017151D01*
X012204Y016992D02*
X011326Y016992D01*
X011485Y016834D02*
X012363Y016834D01*
X012521Y016675D02*
X011644Y016675D01*
X011137Y017310D02*
X011009Y017310D01*
X010979Y017468D02*
X010851Y017468D01*
X010820Y017627D02*
X010692Y017627D01*
X011376Y013504D02*
X013882Y013504D01*
X013814Y013346D02*
X011444Y013346D01*
X011444Y013187D02*
X013814Y013187D01*
X013857Y013029D02*
X011401Y013029D01*
X011243Y012870D02*
X014015Y012870D01*
X013931Y012553D02*
X011327Y012553D01*
X011444Y012395D02*
X013814Y012395D01*
X013814Y012236D02*
X011444Y012236D01*
X011444Y012078D02*
X013814Y012078D01*
X013967Y011919D02*
X011291Y011919D01*
X011278Y011602D02*
X013923Y011602D01*
X013774Y011443D02*
X011437Y011443D01*
X011444Y011285D02*
X013774Y011285D01*
X013774Y011126D02*
X011541Y011126D01*
X011752Y010968D02*
X013861Y010968D01*
X014234Y011285D02*
X014274Y011285D01*
X014274Y011443D02*
X014234Y011443D01*
X014234Y011602D02*
X014274Y011602D01*
X014541Y011919D02*
X014967Y011919D01*
X015528Y011602D02*
X016315Y011602D01*
X016504Y011254D02*
X016504Y006754D01*
X014175Y007797D02*
X013833Y007797D01*
X013944Y007638D02*
X014064Y007638D01*
X014064Y007480D02*
X013944Y007480D01*
X013998Y007321D02*
X014064Y007321D01*
X012004Y007004D02*
X011504Y007504D01*
X011064Y007480D02*
X010944Y007480D01*
X010944Y007638D02*
X011064Y007638D01*
X011175Y007797D02*
X010833Y007797D01*
X010998Y007321D02*
X011064Y007321D01*
X011504Y006504D02*
X011504Y004254D01*
X012504Y003254D01*
X012504Y002504D01*
X010272Y001772D02*
X008736Y001772D01*
X008904Y001931D02*
X010104Y001931D01*
X010039Y002089D02*
X008969Y002089D01*
X008969Y002248D02*
X010039Y002248D01*
X010039Y002406D02*
X008969Y002406D01*
X008969Y002565D02*
X010039Y002565D01*
X010039Y002724D02*
X008969Y002724D01*
X008969Y002882D02*
X010039Y002882D01*
X005813Y004309D02*
X000734Y004309D01*
X000734Y004468D02*
X005665Y004468D01*
X005600Y004626D02*
X000734Y004626D01*
X000734Y004785D02*
X005534Y004785D01*
X005524Y004943D02*
X000734Y004943D01*
X000734Y005102D02*
X005524Y005102D01*
X005549Y005260D02*
X000734Y005260D01*
X000734Y005419D02*
X005615Y005419D01*
X005691Y005577D02*
X000734Y005577D01*
X000734Y005736D02*
X005850Y005736D01*
X006093Y005894D02*
X000734Y005894D01*
X000734Y003199D02*
X001217Y003199D01*
X001089Y003041D02*
X000734Y003041D01*
X000734Y002882D02*
X001039Y002882D01*
X001039Y002724D02*
X000734Y002724D01*
X000734Y002565D02*
X001039Y002565D01*
X001039Y002406D02*
X000734Y002406D01*
X000734Y002248D02*
X001039Y002248D01*
X001039Y002089D02*
X000734Y002089D01*
X000734Y001931D02*
X001104Y001931D01*
X001271Y001772D02*
X000734Y001772D01*
X000734Y001614D02*
X003583Y001614D01*
X003742Y001455D02*
X000734Y001455D01*
X000734Y001297D02*
X003900Y001297D01*
X016418Y004150D02*
X018284Y004150D01*
X018284Y003992D02*
X016577Y003992D01*
X016920Y004468D02*
X017588Y004468D01*
X017754Y004754D02*
X016754Y004754D01*
X016724Y010968D02*
X016918Y010968D01*
X016831Y011126D02*
X016724Y011126D01*
X016728Y011285D02*
X016814Y011285D01*
X016856Y011443D02*
X016742Y011443D01*
X016756Y011602D02*
X016980Y011602D01*
X006687Y010809D02*
X006321Y010809D01*
X006444Y010651D02*
X006564Y010651D01*
X006564Y010492D02*
X006444Y010492D01*
X006444Y010334D02*
X006564Y010334D01*
X006711Y010175D02*
X006297Y010175D01*
X003241Y014456D02*
X001224Y014456D01*
X029004Y015724D02*
X029004Y015724D01*
X029004Y015883D02*
X029004Y015883D01*
X029004Y016041D02*
X029004Y016041D01*
X029004Y016200D02*
X029004Y016200D01*
X029004Y016358D02*
X029004Y016358D01*
X029585Y016834D02*
X030144Y016834D01*
X030144Y016992D02*
X029624Y016992D01*
X029594Y017151D02*
X030144Y017151D01*
X030144Y017310D02*
X029476Y017310D01*
D24*
X023754Y014254D03*
X024004Y013504D03*
X024004Y011504D03*
X022504Y011504D03*
X022254Y010004D03*
X022754Y009754D03*
X023504Y009504D03*
X024004Y009004D03*
X018754Y008504D03*
X017754Y004754D03*
X016754Y004754D03*
X009004Y003504D03*
X019004Y013004D03*
X018754Y015754D03*
M02*
