G75*
G70*
%OFA0B0*%
%FSLAX24Y24*%
%IPPOS*%
%LPD*%
%AMOC8*
5,1,8,0,0,1.08239X$1,22.5*
%
%ADD10C,0.1580*%
%ADD11C,0.0730*%
%ADD12R,0.0474X0.0513*%
%ADD13C,0.0620*%
%ADD14C,0.1380*%
%ADD15C,0.0552*%
%ADD16C,0.0560*%
%ADD17R,0.0237X0.0671*%
%ADD18R,0.0513X0.0474*%
%ADD19C,0.0560*%
%ADD20OC8,0.0860*%
%ADD21C,0.0860*%
%ADD22C,0.1180*%
%ADD23C,0.0680*%
%ADD24C,0.0620*%
%ADD25OC8,0.0680*%
%ADD26C,0.0456*%
D10*
X006504Y005004D03*
X006504Y016004D03*
X029004Y019004D03*
X029004Y002004D03*
D11*
X001504Y002179D02*
X001504Y002829D01*
X002504Y002829D02*
X002504Y002179D01*
X003504Y002179D02*
X003504Y002829D01*
X004504Y002829D02*
X004504Y002179D01*
X005504Y002179D02*
X005504Y002829D01*
X006504Y002829D02*
X006504Y002179D01*
X007504Y002179D02*
X007504Y002829D01*
X008504Y002829D02*
X008504Y002179D01*
X010504Y002179D02*
X010504Y002829D01*
X011504Y002829D02*
X011504Y002179D01*
X012504Y002179D02*
X012504Y002829D01*
X013504Y002829D02*
X013504Y002179D01*
X014504Y002179D02*
X014504Y002829D01*
X015504Y002829D02*
X015504Y002179D01*
X016504Y002179D02*
X016504Y002829D01*
X017504Y002829D02*
X017504Y002179D01*
X002829Y006504D02*
X002179Y006504D01*
X002179Y007504D02*
X002829Y007504D01*
X002829Y008504D02*
X002179Y008504D01*
X002179Y009504D02*
X002829Y009504D01*
X002829Y010504D02*
X002179Y010504D01*
X002179Y011504D02*
X002829Y011504D01*
X002829Y012504D02*
X002179Y012504D01*
X002179Y013504D02*
X002829Y013504D01*
X002504Y018179D02*
X002504Y018829D01*
X003504Y018829D02*
X003504Y018179D01*
X004504Y018179D02*
X004504Y018829D01*
X005504Y018829D02*
X005504Y018179D01*
X006504Y018179D02*
X006504Y018829D01*
X007504Y018829D02*
X007504Y018179D01*
X008504Y018179D02*
X008504Y018829D01*
X010504Y018829D02*
X010504Y018179D01*
X011504Y018179D02*
X011504Y018829D01*
X012504Y018829D02*
X012504Y018179D01*
X013504Y018179D02*
X013504Y018829D01*
X014504Y018829D02*
X014504Y018179D01*
X015504Y018179D02*
X015504Y018829D01*
X016504Y018829D02*
X016504Y018179D01*
X017504Y018179D02*
X017504Y018829D01*
X001504Y018829D02*
X001504Y018179D01*
D12*
X018669Y014754D03*
X019339Y014754D03*
X024669Y014004D03*
X025339Y014004D03*
X025339Y013004D03*
X024669Y013004D03*
X024669Y010004D03*
X025339Y010004D03*
X025339Y009004D03*
X024669Y009004D03*
X024669Y007004D03*
X025339Y007004D03*
X026169Y007004D03*
X026839Y007004D03*
X019089Y005754D03*
X018419Y005754D03*
X018419Y004754D03*
X019089Y004754D03*
X019089Y003754D03*
X018419Y003754D03*
X018419Y002754D03*
X019089Y002754D03*
D13*
X026224Y010512D03*
X027004Y010512D03*
X027004Y011496D03*
X026224Y011496D03*
D14*
X028074Y013374D03*
X028074Y008634D03*
D15*
X020685Y011254D03*
X018323Y011254D03*
X026823Y014004D03*
X029185Y014004D03*
D16*
X029244Y015004D02*
X028764Y015004D01*
X028764Y016004D02*
X029244Y016004D01*
X029244Y017004D02*
X028764Y017004D01*
X020504Y010484D02*
X020504Y010004D01*
X019504Y010004D02*
X019504Y010484D01*
X018504Y010484D02*
X018504Y010004D01*
X018504Y007004D02*
X018504Y006524D01*
X019504Y006524D02*
X019504Y007004D01*
X020504Y007004D02*
X020504Y006524D01*
D17*
X021352Y008077D03*
X021608Y008077D03*
X021864Y008077D03*
X022120Y008077D03*
X022376Y008077D03*
X022632Y008077D03*
X022888Y008077D03*
X023144Y008077D03*
X023400Y008077D03*
X023656Y008077D03*
X023656Y010931D03*
X023400Y010931D03*
X023144Y010931D03*
X022888Y010931D03*
X022632Y010931D03*
X022376Y010931D03*
X022120Y010931D03*
X021864Y010931D03*
X021608Y010931D03*
X021352Y010931D03*
D18*
X024669Y011004D03*
X025339Y011004D03*
X025339Y012004D03*
X024669Y012004D03*
X019339Y013504D03*
X018669Y013504D03*
X024669Y008004D03*
X025339Y008004D03*
D19*
X022954Y012504D03*
X021054Y012504D03*
D20*
X021504Y014754D03*
X020504Y015754D03*
X025504Y014754D03*
X026504Y015754D03*
X024504Y019754D03*
X022504Y019754D03*
X021504Y006254D03*
X020504Y005254D03*
X025504Y006254D03*
X026504Y005254D03*
X024504Y001254D03*
X022504Y001254D03*
D21*
X023504Y004864D02*
X023504Y005644D01*
X023504Y015364D02*
X023504Y016144D01*
D22*
X026504Y017754D03*
X020504Y017754D03*
X020504Y003254D03*
X026504Y003254D03*
D23*
X017254Y008254D03*
X017254Y009254D03*
X017254Y010254D03*
X017254Y011254D03*
X004534Y015114D03*
X004534Y016894D03*
X001974Y016894D03*
X001974Y015114D03*
D24*
X028734Y007504D02*
X029274Y007504D01*
X029274Y006504D02*
X028734Y006504D01*
X028734Y005504D02*
X029274Y005504D01*
X029274Y004504D02*
X028734Y004504D01*
D25*
X015254Y011254D03*
X014254Y011254D03*
X014254Y012254D03*
X015254Y012254D03*
X015254Y013254D03*
X014254Y013254D03*
X014254Y014254D03*
X015254Y014254D03*
X015254Y015254D03*
X014254Y015254D03*
X011004Y015254D03*
X010004Y015254D03*
X010004Y014254D03*
X011004Y014254D03*
X011004Y013254D03*
X010004Y013254D03*
X010004Y012254D03*
X011004Y012254D03*
X011004Y011254D03*
X010004Y011254D03*
X007004Y011504D03*
X006004Y011504D03*
X006004Y012504D03*
X007004Y012504D03*
X007004Y010504D03*
X006004Y010504D03*
X006004Y009504D03*
X007004Y009504D03*
X007004Y008504D03*
X006004Y008504D03*
X010504Y007504D03*
X011504Y007504D03*
X012504Y007504D03*
X013504Y007504D03*
X014504Y007504D03*
X014504Y006504D03*
X013504Y006504D03*
X012504Y006504D03*
X011504Y006504D03*
X010504Y006504D03*
D26*
X009004Y003504D03*
X016754Y004754D03*
X017754Y004754D03*
X018754Y008504D03*
X022254Y010004D03*
X022754Y009754D03*
X023504Y009504D03*
X024004Y009004D03*
X024004Y011504D03*
X022504Y011504D03*
X024004Y013504D03*
X023754Y014254D03*
X019004Y013004D03*
X018754Y015754D03*
M02*
